<?xml version="1.0" encoding="UTF-8" standalone="no"?>
<!DOCTYPE svg PUBLIC "-//W3C//DTD SVG 1.1//EN"
 "http://www.w3.org/Graphics/SVG/1.1/DTD/svg11.dtd">
<!-- Generated by graphviz version 2.30.1 (20130219.2202)
 -->
<!-- Title: OS.pkg._base.PackageManager.install Pages: 1 -->
<svg width="396pt" height="234pt"
 viewBox="0.00 0.00 396.00 234.00" xmlns="http://www.w3.org/2000/svg" xmlns:xlink="http://www.w3.org/1999/xlink">
<g id="graph0" class="graph" transform="scale(1 1) rotate(0) translate(4 230)">
<title>OS.pkg._base.PackageManager.install</title>
<!-- Node1 -->
<g id="node1" class="node"><title>Node1</title>
<polygon fill="#bfbfbf" stroke="black" points="0,-103.5 0,-122.5 184,-122.5 184,-103.5 0,-103.5"/>
<text text-anchor="middle" x="92" y="-110.5" font-family="Helvetica,sans-Serif" font-size="10.00">OS.pkg._base.PackageManager.install</text>
</g>
<!-- Node2 -->
<g id="node2" class="node"><title>Node2</title>
<g id="a_node2"><a xlink:href="class_o_s_1_1pkg_1_1__apt_1_1_apt_installer.html#a1cd4147589ee55bebc8356005ca87c9c" target="_top" xlink:title="OS.pkg._apt.AptInstaller.is\lInstalled">
<polygon fill="none" stroke="black" points="239.5,-196 239.5,-226 368.5,-226 368.5,-196 239.5,-196"/>
<text text-anchor="start" x="247.5" y="-214" font-family="Helvetica,sans-Serif" font-size="10.00">OS.pkg._apt.AptInstaller.is</text>
<text text-anchor="middle" x="304" y="-203" font-family="Helvetica,sans-Serif" font-size="10.00">Installed</text>
</a>
</g>
</g>
<!-- Node1&#45;&gt;Node2 -->
<g id="edge1" class="edge"><title>Node1&#45;&gt;Node2</title>
<path fill="none" stroke="midnightblue" d="M107.29,-122.678C130.221,-137.866 177.031,-167.471 220,-186 225.4,-188.329 231.086,-190.529 236.844,-192.586"/>
<polygon fill="midnightblue" stroke="midnightblue" points="235.97,-195.986 246.565,-195.909 238.235,-189.362 235.97,-195.986"/>
</g>
<!-- Node3 -->
<g id="node3" class="node"><title>Node3</title>
<g id="a_node3"><a xlink:href="class_o_s_1_1pkg_1_1__base_1_1_package_manager.html#a2d8c330852d08b52124e7cab9cc7f6ba" target="_top" xlink:title="Must be executable without requiring root privileges.">
<polygon fill="none" stroke="black" points="220.5,-147 220.5,-177 387.5,-177 387.5,-147 220.5,-147"/>
<text text-anchor="start" x="228.5" y="-165" font-family="Helvetica,sans-Serif" font-size="10.00">OS.pkg._base.PackageManager.is</text>
<text text-anchor="middle" x="304" y="-154" font-family="Helvetica,sans-Serif" font-size="10.00">Installed</text>
</a>
</g>
</g>
<!-- Node1&#45;&gt;Node3 -->
<g id="edge2" class="edge"><title>Node1&#45;&gt;Node3</title>
<path fill="none" stroke="midnightblue" d="M133.739,-122.506C160.654,-128.786 196.723,-137.202 228.649,-144.651"/>
<polygon fill="midnightblue" stroke="midnightblue" points="227.875,-148.065 238.409,-146.929 229.466,-141.248 227.875,-148.065"/>
</g>
<!-- Node4 -->
<g id="node4" class="node"><title>Node4</title>
<g id="a_node4"><a xlink:href="class_o_s_1_1pkg_1_1__base_1_1_package_manager.html#a96d015bb45e8fae7278a77e4e0c251df" target="_top" xlink:title="OS.pkg._base.PackageManager.\l_execAsRoot_withPkgs">
<polygon fill="none" stroke="black" points="223.5,-98 223.5,-128 384.5,-128 384.5,-98 223.5,-98"/>
<text text-anchor="start" x="231.5" y="-116" font-family="Helvetica,sans-Serif" font-size="10.00">OS.pkg._base.PackageManager.</text>
<text text-anchor="middle" x="304" y="-105" font-family="Helvetica,sans-Serif" font-size="10.00">_execAsRoot_withPkgs</text>
</a>
</g>
</g>
<!-- Node1&#45;&gt;Node4 -->
<g id="edge3" class="edge"><title>Node1&#45;&gt;Node4</title>
<path fill="none" stroke="midnightblue" d="M184.193,-113C193.887,-113 203.741,-113 213.416,-113"/>
<polygon fill="midnightblue" stroke="midnightblue" points="213.42,-116.5 223.42,-113 213.42,-109.5 213.42,-116.5"/>
</g>
<!-- Node5 -->
<g id="node5" class="node"><title>Node5</title>
<g id="a_node5"><a xlink:href="class_o_s_1_1pkg_1_1__apt_1_1_apt_installer.html#af0c36c4a71af6cc49103d7ca63e6d6ae" target="_top" xlink:title="OS.pkg._apt.AptInstaller.\l_install">
<polygon fill="none" stroke="black" points="243,-49 243,-79 365,-79 365,-49 243,-49"/>
<text text-anchor="start" x="251" y="-67" font-family="Helvetica,sans-Serif" font-size="10.00">OS.pkg._apt.AptInstaller.</text>
<text text-anchor="middle" x="304" y="-56" font-family="Helvetica,sans-Serif" font-size="10.00">_install</text>
</a>
</g>
</g>
<!-- Node1&#45;&gt;Node5 -->
<g id="edge4" class="edge"><title>Node1&#45;&gt;Node5</title>
<path fill="none" stroke="midnightblue" d="M133.739,-103.494C161.843,-96.9365 199.928,-88.0502 232.854,-80.3673"/>
<polygon fill="midnightblue" stroke="midnightblue" points="233.947,-83.7064 242.891,-78.0255 232.357,-76.8895 233.947,-83.7064"/>
</g>
<!-- Node6 -->
<g id="node6" class="node"><title>Node6</title>
<g id="a_node6"><a xlink:href="class_o_s_1_1pkg_1_1__base_1_1_package_manager.html#a19fcb0397482254e3eb25188fd0ad575" target="_top" xlink:title="OS.pkg._base.PackageManager.\l_install">
<polygon fill="none" stroke="black" points="223.5,-0 223.5,-30 384.5,-30 384.5,-0 223.5,-0"/>
<text text-anchor="start" x="231.5" y="-18" font-family="Helvetica,sans-Serif" font-size="10.00">OS.pkg._base.PackageManager.</text>
<text text-anchor="middle" x="304" y="-7" font-family="Helvetica,sans-Serif" font-size="10.00">_install</text>
</a>
</g>
</g>
<!-- Node1&#45;&gt;Node6 -->
<g id="edge5" class="edge"><title>Node1&#45;&gt;Node6</title>
<path fill="none" stroke="midnightblue" d="M107.29,-103.322C130.221,-88.1345 177.031,-58.529 220,-40 225.4,-37.6713 231.086,-35.471 236.844,-33.4142"/>
<polygon fill="midnightblue" stroke="midnightblue" points="238.235,-36.6376 246.565,-30.0908 235.97,-30.014 238.235,-36.6376"/>
</g>
</g>
</svg>
