<?xml version="1.0" encoding="UTF-8" standalone="no"?>
<!DOCTYPE svg PUBLIC "-//W3C//DTD SVG 1.1//EN"
 "http://www.w3.org/Graphics/SVG/1.1/DTD/svg11.dtd">
<!-- Generated by graphviz version 2.30.1 (20130221.2233)
 -->
<!-- Title: OS.pkg._base.PackageManager.remove Pages: 1 -->
<svg width="414pt" height="234pt"
 viewBox="0.00 0.00 414.00 234.00" xmlns="http://www.w3.org/2000/svg" xmlns:xlink="http://www.w3.org/1999/xlink">
<g id="graph0" class="graph" transform="scale(1 1) rotate(0) translate(4 230)">
<title>OS.pkg._base.PackageManager.remove</title>
<!-- Node1 -->
<g id="node1" class="node"><title>Node1</title>
<polygon fill="#bfbfbf" stroke="black" points="0.5,-103.5 0.5,-122.5 197.5,-122.5 197.5,-103.5 0.5,-103.5"/>
<text text-anchor="middle" x="99" y="-110.5" font-family="Helvetica,sans-Serif" font-size="10.00">OS.pkg._base.PackageManager.remove</text>
</g>
<!-- Node2 -->
<g id="node2" class="node"><title>Node2</title>
<g id="a_node2"><a xlink:href="class_o_s_1_1pkg_1_1__apt_1_1_apt_installer.html#a1cd4147589ee55bebc8356005ca87c9c" target="_top" xlink:title="OS.pkg._apt.AptInstaller.is\lInstalled">
<polygon fill="none" stroke="black" points="252.5,-196 252.5,-226 387.5,-226 387.5,-196 252.5,-196"/>
<text text-anchor="start" x="260.5" y="-214" font-family="Helvetica,sans-Serif" font-size="10.00">OS.pkg._apt.AptInstaller.is</text>
<text text-anchor="middle" x="320" y="-203" font-family="Helvetica,sans-Serif" font-size="10.00">Installed</text>
</a>
</g>
</g>
<!-- Node1&#45;&gt;Node2 -->
<g id="edge1" class="edge"><title>Node1&#45;&gt;Node2</title>
<path fill="none" stroke="midnightblue" d="M115.148,-122.651C139.441,-137.802 188.96,-167.358 234,-186 239.783,-188.394 245.875,-190.658 252.031,-192.773"/>
<polygon fill="midnightblue" stroke="midnightblue" points="251.13,-196.162 261.723,-195.973 253.324,-189.514 251.13,-196.162"/>
</g>
<!-- Node3 -->
<g id="node3" class="node"><title>Node3</title>
<g id="a_node3"><a xlink:href="class_o_s_1_1pkg_1_1__base_1_1_package_manager.html#a2d8c330852d08b52124e7cab9cc7f6ba" target="_top" xlink:title="Must be executable without requiring root privileges. ">
<polygon fill="none" stroke="black" points="234.5,-147 234.5,-177 405.5,-177 405.5,-147 234.5,-147"/>
<text text-anchor="start" x="242.5" y="-165" font-family="Helvetica,sans-Serif" font-size="10.00">OS.pkg._base.PackageManager.is</text>
<text text-anchor="middle" x="320" y="-154" font-family="Helvetica,sans-Serif" font-size="10.00">Installed</text>
</a>
</g>
</g>
<!-- Node1&#45;&gt;Node3 -->
<g id="edge2" class="edge"><title>Node1&#45;&gt;Node3</title>
<path fill="none" stroke="midnightblue" d="M142.485,-122.506C170.554,-128.786 208.168,-137.202 241.462,-144.651"/>
<polygon fill="midnightblue" stroke="midnightblue" points="241.118,-148.161 251.641,-146.929 242.646,-141.33 241.118,-148.161"/>
</g>
<!-- Node4 -->
<g id="node4" class="node"><title>Node4</title>
<g id="a_node4"><a xlink:href="class_o_s_1_1pkg_1_1__base_1_1_package_manager.html#a96d015bb45e8fae7278a77e4e0c251df" target="_top" xlink:title="OS.pkg._base.PackageManager.\l_execAsRoot_withPkgs">
<polygon fill="none" stroke="black" points="238,-98 238,-128 402,-128 402,-98 238,-98"/>
<text text-anchor="start" x="246" y="-116" font-family="Helvetica,sans-Serif" font-size="10.00">OS.pkg._base.PackageManager.</text>
<text text-anchor="middle" x="320" y="-105" font-family="Helvetica,sans-Serif" font-size="10.00">_execAsRoot_withPkgs</text>
</a>
</g>
</g>
<!-- Node1&#45;&gt;Node4 -->
<g id="edge3" class="edge"><title>Node1&#45;&gt;Node4</title>
<path fill="none" stroke="midnightblue" d="M197.651,-113C207.64,-113 217.763,-113 227.681,-113"/>
<polygon fill="midnightblue" stroke="midnightblue" points="227.928,-116.5 237.928,-113 227.928,-109.5 227.928,-116.5"/>
</g>
<!-- Node5 -->
<g id="node5" class="node"><title>Node5</title>
<g id="a_node5"><a xlink:href="class_o_s_1_1pkg_1_1__apt_1_1_apt_installer.html#a3a5b8b1db9ecbcaa6069aacabfa9fdee" target="_top" xlink:title="OS.pkg._apt.AptInstaller.\l_remove">
<polygon fill="none" stroke="black" points="256,-49 256,-79 384,-79 384,-49 256,-49"/>
<text text-anchor="start" x="264" y="-67" font-family="Helvetica,sans-Serif" font-size="10.00">OS.pkg._apt.AptInstaller.</text>
<text text-anchor="middle" x="320" y="-56" font-family="Helvetica,sans-Serif" font-size="10.00">_remove</text>
</a>
</g>
</g>
<!-- Node1&#45;&gt;Node5 -->
<g id="edge4" class="edge"><title>Node1&#45;&gt;Node5</title>
<path fill="none" stroke="midnightblue" d="M142.485,-103.494C171.807,-96.9336 211.546,-88.0422 245.894,-80.357"/>
<polygon fill="midnightblue" stroke="midnightblue" points="246.899,-83.7189 255.893,-78.1198 245.37,-76.8878 246.899,-83.7189"/>
</g>
<!-- Node6 -->
<g id="node6" class="node"><title>Node6</title>
<g id="a_node6"><a xlink:href="class_o_s_1_1pkg_1_1__base_1_1_package_manager.html#a174336a553a5defabcd5ebfec7248203" target="_top" xlink:title="OS.pkg._base.PackageManager.\l_remove">
<polygon fill="none" stroke="black" points="238,-0 238,-30 402,-30 402,-0 238,-0"/>
<text text-anchor="start" x="246" y="-18" font-family="Helvetica,sans-Serif" font-size="10.00">OS.pkg._base.PackageManager.</text>
<text text-anchor="middle" x="320" y="-7" font-family="Helvetica,sans-Serif" font-size="10.00">_remove</text>
</a>
</g>
</g>
<!-- Node1&#45;&gt;Node6 -->
<g id="edge5" class="edge"><title>Node1&#45;&gt;Node6</title>
<path fill="none" stroke="midnightblue" d="M115.148,-103.349C139.441,-88.1982 188.96,-58.6423 234,-40 239.783,-37.6065 245.875,-35.3423 252.031,-33.2267"/>
<polygon fill="midnightblue" stroke="midnightblue" points="253.324,-36.4856 261.723,-30.0275 251.13,-29.8383 253.324,-36.4856"/>
</g>
</g>
</svg>
