<?xml version="1.0" encoding="UTF-8" standalone="no"?>
<!DOCTYPE svg PUBLIC "-//W3C//DTD SVG 1.1//EN"
 "http://www.w3.org/Graphics/SVG/1.1/DTD/svg11.dtd">
<!-- Generated by graphviz version 2.30.1 (20130221.2233)
 -->
<!-- Title: OS.pkg._base.PackageManager.__init__ Pages: 1 -->
<svg width="814pt" height="371pt"
 viewBox="0.00 0.00 814.00 371.00" xmlns="http://www.w3.org/2000/svg" xmlns:xlink="http://www.w3.org/1999/xlink">
<g id="graph0" class="graph" transform="scale(1 1) rotate(0) translate(4 367)">
<title>OS.pkg._base.PackageManager.__init__</title>
<!-- Node1 -->
<g id="node1" class="node"><title>Node1</title>
<polygon fill="#bfbfbf" stroke="black" points="0,-158 0,-188 164,-188 164,-158 0,-158"/>
<text text-anchor="start" x="8" y="-176" font-family="Helvetica,sans-Serif" font-size="10.00">OS.pkg._base.PackageManager.</text>
<text text-anchor="middle" x="82" y="-165" font-family="Helvetica,sans-Serif" font-size="10.00">__init__</text>
</g>
<!-- Node2 -->
<g id="node2" class="node"><title>Node2</title>
<g id="a_node2"><a xlink:href="class_o_s_1_1pkg_1_1__apt_1_1_apt_installer.html#ae6235991c2c72e8eb41a5bc8543f2808" target="_top" xlink:title="OS.pkg._apt.AptInstaller.is\lSupported">
<polygon fill="none" stroke="black" points="218.5,-183 218.5,-213 353.5,-213 353.5,-183 218.5,-183"/>
<text text-anchor="start" x="226.5" y="-201" font-family="Helvetica,sans-Serif" font-size="10.00">OS.pkg._apt.AptInstaller.is</text>
<text text-anchor="middle" x="286" y="-190" font-family="Helvetica,sans-Serif" font-size="10.00">Supported</text>
</a>
</g>
</g>
<!-- Node1&#45;&gt;Node2 -->
<g id="edge1" class="edge"><title>Node1&#45;&gt;Node2</title>
<path fill="none" stroke="midnightblue" d="M164.288,-183.06C178.756,-184.851 193.785,-186.711 208.125,-188.486"/>
<polygon fill="midnightblue" stroke="midnightblue" points="208.073,-192.006 218.427,-189.761 208.933,-185.059 208.073,-192.006"/>
</g>
<!-- Node13 -->
<g id="node13" class="node"><title>Node13</title>
<g id="a_node13"><a xlink:href="class_o_s_1_1pkg_1_1__base_1_1_package_manager.html#a8ff4949814d7c94f6f44dc6b6d8763d3" target="_top" xlink:title="OS.pkg._base.PackageManager.is\lSupported">
<polygon fill="none" stroke="black" points="200.5,-134 200.5,-164 371.5,-164 371.5,-134 200.5,-134"/>
<text text-anchor="start" x="208.5" y="-152" font-family="Helvetica,sans-Serif" font-size="10.00">OS.pkg._base.PackageManager.is</text>
<text text-anchor="middle" x="286" y="-141" font-family="Helvetica,sans-Serif" font-size="10.00">Supported</text>
</a>
</g>
</g>
<!-- Node1&#45;&gt;Node13 -->
<g id="edge14" class="edge"><title>Node1&#45;&gt;Node13</title>
<path fill="none" stroke="midnightblue" d="M164.288,-163.342C172.798,-162.331 181.502,-161.297 190.146,-160.27"/>
<polygon fill="midnightblue" stroke="midnightblue" points="190.733,-163.725 200.251,-159.069 189.908,-156.774 190.733,-163.725"/>
</g>
<!-- Node3 -->
<g id="node3" class="node"><title>Node3</title>
<g id="a_node3"><a xlink:href="class_o_s_1_1pkg_1_1__base_1_1_package_manager.html#a7d0ca35a8011599b3dd74ed6b8673e2d" target="_top" xlink:title="OS.pkg._base.PackageManager.install">
<polygon fill="none" stroke="black" points="408.5,-127.5 408.5,-146.5 597.5,-146.5 597.5,-127.5 408.5,-127.5"/>
<text text-anchor="middle" x="503" y="-134.5" font-family="Helvetica,sans-Serif" font-size="10.00">OS.pkg._base.PackageManager.install</text>
</a>
</g>
</g>
<!-- Node2&#45;&gt;Node3 -->
<g id="edge2" class="edge"><title>Node2&#45;&gt;Node3</title>
<path fill="none" stroke="midnightblue" d="M339.87,-183C376.422,-172.629 424.451,-159.002 458.726,-149.278"/>
<polygon fill="midnightblue" stroke="midnightblue" points="459.785,-152.615 468.45,-146.519 457.874,-145.881 459.785,-152.615"/>
</g>
<!-- Node9 -->
<g id="node9" class="node"><title>Node9</title>
<g id="a_node9"><a xlink:href="class_o_s_1_1pkg_1_1__yum_1_1___e_p_e_l.html#a7ec9220419eb8a45d45397c9168244d4" target="_top" xlink:title="OS.pkg._yum._EPEL.install">
<polygon fill="none" stroke="black" points="433.5,-225.5 433.5,-244.5 572.5,-244.5 572.5,-225.5 433.5,-225.5"/>
<text text-anchor="middle" x="503" y="-232.5" font-family="Helvetica,sans-Serif" font-size="10.00">OS.pkg._yum._EPEL.install</text>
</a>
</g>
</g>
<!-- Node2&#45;&gt;Node9 -->
<g id="edge8" class="edge"><title>Node2&#45;&gt;Node9</title>
<path fill="none" stroke="midnightblue" d="M353.555,-209.454C380.019,-214.008 410.376,-219.232 436.713,-223.765"/>
<polygon fill="midnightblue" stroke="midnightblue" points="436.145,-227.218 446.594,-225.465 437.332,-220.32 436.145,-227.218"/>
</g>
<!-- Node4 -->
<g id="node4" class="node"><title>Node4</title>
<g id="a_node4"><a xlink:href="class_o_s_1_1pkg_1_1__apt_1_1_apt_installer.html#a1cd4147589ee55bebc8356005ca87c9c" target="_top" xlink:title="OS.pkg._apt.AptInstaller.is\lInstalled">
<polygon fill="none" stroke="black" points="652.5,-196 652.5,-226 787.5,-226 787.5,-196 652.5,-196"/>
<text text-anchor="start" x="660.5" y="-214" font-family="Helvetica,sans-Serif" font-size="10.00">OS.pkg._apt.AptInstaller.is</text>
<text text-anchor="middle" x="720" y="-203" font-family="Helvetica,sans-Serif" font-size="10.00">Installed</text>
</a>
</g>
</g>
<!-- Node3&#45;&gt;Node4 -->
<g id="edge3" class="edge"><title>Node3&#45;&gt;Node4</title>
<path fill="none" stroke="midnightblue" d="M527.769,-146.568C553.69,-156.859 596.493,-173.435 634,-186 640.919,-188.318 648.192,-190.635 655.451,-192.872"/>
<polygon fill="midnightblue" stroke="midnightblue" points="654.72,-196.308 665.306,-195.866 656.755,-189.611 654.72,-196.308"/>
</g>
<!-- Node5 -->
<g id="node5" class="node"><title>Node5</title>
<g id="a_node5"><a xlink:href="class_o_s_1_1pkg_1_1__base_1_1_package_manager.html#a2d8c330852d08b52124e7cab9cc7f6ba" target="_top" xlink:title="Must be executable without requiring root privileges. ">
<polygon fill="none" stroke="black" points="634.5,-147 634.5,-177 805.5,-177 805.5,-147 634.5,-147"/>
<text text-anchor="start" x="642.5" y="-165" font-family="Helvetica,sans-Serif" font-size="10.00">OS.pkg._base.PackageManager.is</text>
<text text-anchor="middle" x="720" y="-154" font-family="Helvetica,sans-Serif" font-size="10.00">Installed</text>
</a>
</g>
</g>
<!-- Node3&#45;&gt;Node5 -->
<g id="edge4" class="edge"><title>Node3&#45;&gt;Node5</title>
<path fill="none" stroke="midnightblue" d="M585.896,-146.523C598.443,-147.982 611.485,-149.498 624.281,-150.986"/>
<polygon fill="midnightblue" stroke="midnightblue" points="624.14,-154.493 634.477,-152.172 624.948,-147.54 624.14,-154.493"/>
</g>
<!-- Node6 -->
<g id="node6" class="node"><title>Node6</title>
<g id="a_node6"><a xlink:href="class_o_s_1_1pkg_1_1__base_1_1_package_manager.html#a96d015bb45e8fae7278a77e4e0c251df" target="_top" xlink:title="OS.pkg._base.PackageManager.\l_execAsRoot_withPkgs">
<polygon fill="none" stroke="black" points="638,-98 638,-128 802,-128 802,-98 638,-98"/>
<text text-anchor="start" x="646" y="-116" font-family="Helvetica,sans-Serif" font-size="10.00">OS.pkg._base.PackageManager.</text>
<text text-anchor="middle" x="720" y="-105" font-family="Helvetica,sans-Serif" font-size="10.00">_execAsRoot_withPkgs</text>
</a>
</g>
</g>
<!-- Node3&#45;&gt;Node6 -->
<g id="edge5" class="edge"><title>Node3&#45;&gt;Node6</title>
<path fill="none" stroke="midnightblue" d="M589.282,-127.48C601.864,-126.076 614.87,-124.624 627.569,-123.206"/>
<polygon fill="midnightblue" stroke="midnightblue" points="628.125,-126.666 637.675,-122.078 627.348,-119.709 628.125,-126.666"/>
</g>
<!-- Node7 -->
<g id="node7" class="node"><title>Node7</title>
<g id="a_node7"><a xlink:href="class_o_s_1_1pkg_1_1__apt_1_1_apt_installer.html#af0c36c4a71af6cc49103d7ca63e6d6ae" target="_top" xlink:title="OS.pkg._apt.AptInstaller.\l_install">
<polygon fill="none" stroke="black" points="656,-49 656,-79 784,-79 784,-49 656,-49"/>
<text text-anchor="start" x="664" y="-67" font-family="Helvetica,sans-Serif" font-size="10.00">OS.pkg._apt.AptInstaller.</text>
<text text-anchor="middle" x="720" y="-56" font-family="Helvetica,sans-Serif" font-size="10.00">_install</text>
</a>
</g>
</g>
<!-- Node3&#45;&gt;Node7 -->
<g id="edge6" class="edge"><title>Node3&#45;&gt;Node7</title>
<path fill="none" stroke="midnightblue" d="M527.743,-127.353C553.641,-116.994 596.425,-100.361 634,-88 640.263,-85.9395 646.821,-83.8941 653.397,-81.9168"/>
<polygon fill="midnightblue" stroke="midnightblue" points="654.415,-85.2657 663.012,-79.0748 652.431,-78.5528 654.415,-85.2657"/>
</g>
<!-- Node8 -->
<g id="node8" class="node"><title>Node8</title>
<g id="a_node8"><a xlink:href="class_o_s_1_1pkg_1_1__base_1_1_package_manager.html#a19fcb0397482254e3eb25188fd0ad575" target="_top" xlink:title="OS.pkg._base.PackageManager.\l_install">
<polygon fill="none" stroke="black" points="638,-0 638,-30 802,-30 802,-0 638,-0"/>
<text text-anchor="start" x="646" y="-18" font-family="Helvetica,sans-Serif" font-size="10.00">OS.pkg._base.PackageManager.</text>
<text text-anchor="middle" x="720" y="-7" font-family="Helvetica,sans-Serif" font-size="10.00">_install</text>
</a>
</g>
</g>
<!-- Node3&#45;&gt;Node8 -->
<g id="edge7" class="edge"><title>Node3&#45;&gt;Node8</title>
<path fill="none" stroke="midnightblue" d="M513.898,-127.431C534.535,-107.987 584.375,-63.622 634,-39 637.786,-37.1215 641.742,-35.3693 645.788,-33.738"/>
<polygon fill="midnightblue" stroke="midnightblue" points="647.22,-36.939 655.352,-30.1484 644.76,-30.3854 647.22,-36.939"/>
</g>
<!-- Node9&#45;&gt;Node4 -->
<g id="edge9" class="edge"><title>Node9&#45;&gt;Node4</title>
<path fill="none" stroke="midnightblue" d="M572.618,-227.34C594.679,-224.878 619.264,-222.133 641.891,-219.607"/>
<polygon fill="midnightblue" stroke="midnightblue" points="642.584,-223.052 652.134,-218.464 641.807,-216.095 642.584,-223.052"/>
</g>
<!-- Node9&#45;&gt;Node5 -->
<g id="edge10" class="edge"><title>Node9&#45;&gt;Node5</title>
<path fill="none" stroke="midnightblue" d="M528.266,-225.481C554.249,-215.419 596.773,-199.331 634,-187 641.107,-184.646 648.584,-182.283 656.034,-180"/>
<polygon fill="midnightblue" stroke="midnightblue" points="657.219,-183.298 665.777,-177.053 655.192,-176.598 657.219,-183.298"/>
</g>
<!-- Node10 -->
<g id="node10" class="node"><title>Node10</title>
<g id="a_node10"><a xlink:href="class_o_s_1_1pkg_1_1__macports_1_1_mac_port_installer.html#a26a0ac6f4da6f4aa96aee08ec7d27ee5" target="_top" xlink:title="OS.pkg._macports.MacPort\lInstaller.isInstalled">
<polygon fill="none" stroke="black" points="650.5,-333 650.5,-363 789.5,-363 789.5,-333 650.5,-333"/>
<text text-anchor="start" x="658.5" y="-351" font-family="Helvetica,sans-Serif" font-size="10.00">OS.pkg._macports.MacPort</text>
<text text-anchor="middle" x="720" y="-340" font-family="Helvetica,sans-Serif" font-size="10.00">Installer.isInstalled</text>
</a>
</g>
</g>
<!-- Node9&#45;&gt;Node10 -->
<g id="edge11" class="edge"><title>Node9&#45;&gt;Node10</title>
<path fill="none" stroke="midnightblue" d="M515.438,-244.566C537.209,-262.342 586.669,-300.685 634,-323 638.957,-325.337 644.18,-327.507 649.499,-329.513"/>
<polygon fill="midnightblue" stroke="midnightblue" points="648.547,-332.889 659.142,-332.944 650.894,-326.294 648.547,-332.889"/>
</g>
<!-- Node11 -->
<g id="node11" class="node"><title>Node11</title>
<g id="a_node11"><a xlink:href="class_o_s_1_1pkg_1_1__yum_1_1___e_p_e_l.html#a596ad970403d6b45e6474ab7af9fab34" target="_top" xlink:title="OS.pkg._yum._EPEL.isInstalled">
<polygon fill="none" stroke="black" points="641,-294.5 641,-313.5 799,-313.5 799,-294.5 641,-294.5"/>
<text text-anchor="middle" x="720" y="-301.5" font-family="Helvetica,sans-Serif" font-size="10.00">OS.pkg._yum._EPEL.isInstalled</text>
</a>
</g>
</g>
<!-- Node9&#45;&gt;Node11 -->
<g id="edge12" class="edge"><title>Node9&#45;&gt;Node11</title>
<path fill="none" stroke="midnightblue" d="M526.704,-244.583C552.409,-255.191 595.7,-272.33 634,-284 643.571,-286.916 653.857,-289.658 663.853,-292.122"/>
<polygon fill="midnightblue" stroke="midnightblue" points="663.174,-295.558 673.714,-294.489 664.807,-288.752 663.174,-295.558"/>
</g>
<!-- Node12 -->
<g id="node12" class="node"><title>Node12</title>
<g id="a_node12"><a xlink:href="class_o_s_1_1pkg_1_1__yum_1_1___e_p_e_l.html#a508814bd34851b3b6f69ced225fb93b2" target="_top" xlink:title="OS.pkg._yum._EPEL.\l_findBestEPEL">
<polygon fill="none" stroke="black" points="663,-245 663,-275 777,-275 777,-245 663,-245"/>
<text text-anchor="start" x="671" y="-263" font-family="Helvetica,sans-Serif" font-size="10.00">OS.pkg._yum._EPEL.</text>
<text text-anchor="middle" x="720" y="-252" font-family="Helvetica,sans-Serif" font-size="10.00">_findBestEPEL</text>
</a>
</g>
</g>
<!-- Node9&#45;&gt;Node12 -->
<g id="edge13" class="edge"><title>Node9&#45;&gt;Node12</title>
<path fill="none" stroke="midnightblue" d="M572.618,-242.979C598.331,-245.969 627.473,-249.357 652.949,-252.32"/>
<polygon fill="midnightblue" stroke="midnightblue" points="652.546,-255.796 662.883,-253.475 653.354,-248.843 652.546,-255.796"/>
</g>
</g>
</svg>
