<?xml version="1.0" encoding="UTF-8" standalone="no"?>
<!DOCTYPE svg PUBLIC "-//W3C//DTD SVG 1.1//EN"
 "http://www.w3.org/Graphics/SVG/1.1/DTD/svg11.dtd">
<!-- Generated by graphviz version 2.30.1 (20130221.2233)
 -->
<!-- Title: OS._OS.CMD_ProcException Pages: 1 -->
<svg width="379pt" height="254pt"
 viewBox="0.00 0.00 379.00 254.00" xmlns="http://www.w3.org/2000/svg" xmlns:xlink="http://www.w3.org/1999/xlink">
<g id="graph0" class="graph" transform="scale(1 1) rotate(0) translate(4 250)">
<title>OS._OS.CMD_ProcException</title>
<!-- Node1 -->
<g id="node1" class="node"><title>Node1</title>
<polygon fill="#bfbfbf" stroke="black" points="111.5,-94.5 111.5,-151.5 260.5,-151.5 260.5,-94.5 111.5,-94.5"/>
<text text-anchor="middle" x="186" y="-139.5" font-family="Helvetica,sans-Serif" font-size="10.00">OS._OS.CMD_ProcException</text>
<polyline fill="none" stroke="black" points="111.5,-132.5 260.5,-132.5 "/>
<text text-anchor="start" x="119.5" y="-120.5" font-family="Helvetica,sans-Serif" font-size="10.00">+ proc</text>
<polyline fill="none" stroke="black" points="111.5,-113.5 260.5,-113.5 "/>
<text text-anchor="start" x="119.5" y="-101.5" font-family="Helvetica,sans-Serif" font-size="10.00">+ __init__()</text>
</g>
<!-- Node4 -->
<g id="node4" class="node"><title>Node4</title>
<g id="a_node4"><a xlink:href="class_o_s_1_1___o_s_1_1_c_m_d___proc_output_exception.html" target="_top" xlink:title="{OS._OS.CMD_ProcOutputException\n||+ __init__()\l}">
<polygon fill="none" stroke="black" points="-0.5,-0.5 -0.5,-57.5 178.5,-57.5 178.5,-0.5 -0.5,-0.5"/>
<text text-anchor="middle" x="89" y="-45.5" font-family="Helvetica,sans-Serif" font-size="10.00">OS._OS.CMD_ProcOutputException</text>
<polyline fill="none" stroke="black" points="-0.5,-38.5 178.5,-38.5 "/>
<text text-anchor="middle" x="89" y="-26.5" font-family="Helvetica,sans-Serif" font-size="10.00"> </text>
<polyline fill="none" stroke="black" points="-0.5,-19.5 178.5,-19.5 "/>
<text text-anchor="start" x="7.5" y="-7.5" font-family="Helvetica,sans-Serif" font-size="10.00">+ __init__()</text>
</a>
</g>
</g>
<!-- Node1&#45;&gt;Node4 -->
<g id="edge3" class="edge"><title>Node1&#45;&gt;Node4</title>
<path fill="none" stroke="midnightblue" d="M149.506,-87.3868C139.124,-77.5407 127.96,-66.9518 118.083,-57.5836"/>
<polygon fill="none" stroke="midnightblue" points="147.233,-90.0548 156.897,-94.397 152.05,-84.9759 147.233,-90.0548"/>
</g>
<!-- Node5 -->
<g id="node5" class="node"><title>Node5</title>
<g id="a_node5"><a xlink:href="class_o_s_1_1pkg_1_1__base_1_1_c_m_d___proc_exception.html" target="_top" xlink:title="{OS.pkg._base.CMD_ProcException\n|+ originalException\l|+ __init__()\l}">
<polygon fill="none" stroke="black" points="196.5,-0.5 196.5,-57.5 371.5,-57.5 371.5,-0.5 196.5,-0.5"/>
<text text-anchor="middle" x="284" y="-45.5" font-family="Helvetica,sans-Serif" font-size="10.00">OS.pkg._base.CMD_ProcException</text>
<polyline fill="none" stroke="black" points="196.5,-38.5 371.5,-38.5 "/>
<text text-anchor="start" x="204.5" y="-26.5" font-family="Helvetica,sans-Serif" font-size="10.00">+ originalException</text>
<polyline fill="none" stroke="black" points="196.5,-19.5 371.5,-19.5 "/>
<text text-anchor="start" x="204.5" y="-7.5" font-family="Helvetica,sans-Serif" font-size="10.00">+ __init__()</text>
</a>
</g>
</g>
<!-- Node1&#45;&gt;Node5 -->
<g id="edge4" class="edge"><title>Node1&#45;&gt;Node5</title>
<path fill="none" stroke="midnightblue" d="M222.871,-87.3868C233.359,-77.5407 244.638,-66.9518 254.618,-57.5836"/>
<polygon fill="none" stroke="midnightblue" points="220.298,-85.0008 215.403,-94.397 225.09,-90.1043 220.298,-85.0008"/>
</g>
<!-- Node2 -->
<g id="node2" class="node"><title>Node2</title>
<g id="a_node2"><a xlink:href="class_exception.html" target="_top" xlink:title="{Exception\n||}">
<polygon fill="none" stroke="black" points="121,-188.5 121,-245.5 181,-245.5 181,-188.5 121,-188.5"/>
<text text-anchor="middle" x="151" y="-233.5" font-family="Helvetica,sans-Serif" font-size="10.00">Exception</text>
<polyline fill="none" stroke="black" points="121,-226.5 181,-226.5 "/>
<text text-anchor="middle" x="151" y="-214.5" font-family="Helvetica,sans-Serif" font-size="10.00"> </text>
<polyline fill="none" stroke="black" points="121,-207.5 181,-207.5 "/>
<text text-anchor="middle" x="151" y="-195.5" font-family="Helvetica,sans-Serif" font-size="10.00"> </text>
</a>
</g>
</g>
<!-- Node2&#45;&gt;Node1 -->
<g id="edge1" class="edge"><title>Node2&#45;&gt;Node1</title>
<path fill="none" stroke="midnightblue" d="M165.156,-178.79C168.614,-169.699 172.254,-160.133 175.506,-151.584"/>
<polygon fill="none" stroke="midnightblue" points="161.786,-177.806 161.501,-188.397 168.328,-180.295 161.786,-177.806"/>
</g>
<!-- Node3 -->
<g id="node3" class="node"><title>Node3</title>
<g id="a_node3"><a xlink:href="classobject.html" target="_top" xlink:title="{object\n||}">
<polygon fill="none" stroke="black" points="199.5,-188.5 199.5,-245.5 242.5,-245.5 242.5,-188.5 199.5,-188.5"/>
<text text-anchor="middle" x="221" y="-233.5" font-family="Helvetica,sans-Serif" font-size="10.00">object</text>
<polyline fill="none" stroke="black" points="199.5,-226.5 242.5,-226.5 "/>
<text text-anchor="middle" x="221" y="-214.5" font-family="Helvetica,sans-Serif" font-size="10.00"> </text>
<polyline fill="none" stroke="black" points="199.5,-207.5 242.5,-207.5 "/>
<text text-anchor="middle" x="221" y="-195.5" font-family="Helvetica,sans-Serif" font-size="10.00"> </text>
</a>
</g>
</g>
<!-- Node3&#45;&gt;Node1 -->
<g id="edge2" class="edge"><title>Node3&#45;&gt;Node1</title>
<path fill="none" stroke="midnightblue" d="M206.844,-178.79C203.386,-169.699 199.746,-160.133 196.494,-151.584"/>
<polygon fill="none" stroke="midnightblue" points="203.672,-180.295 210.499,-188.397 210.214,-177.806 203.672,-180.295"/>
</g>
</g>
</svg>
