<?xml version="1.0" encoding="UTF-8" standalone="no"?>
<!DOCTYPE svg PUBLIC "-//W3C//DTD SVG 1.1//EN"
 "http://www.w3.org/Graphics/SVG/1.1/DTD/svg11.dtd">
<!-- Generated by graphviz version 2.28.0 (20121214.2254)
 -->
<!-- Title: OS.pkg.yum.YumInstaller.install Pages: 1 -->
<svg width="364pt" height="322pt"
 viewBox="0.00 0.00 364.00 322.00" xmlns="http://www.w3.org/2000/svg" xmlns:xlink="http://www.w3.org/1999/xlink">
<g id="graph1" class="graph" transform="scale(1 1) rotate(0) translate(4 318)">
<title>OS.pkg.yum.YumInstaller.install</title>
<!-- Node1 -->
<g id="node1" class="node"><title>Node1</title>
<polygon fill="#bfbfbf" stroke="black" points="0.5,-142.5 0.5,-161.5 149.5,-161.5 149.5,-142.5 0.5,-142.5"/>
<text text-anchor="middle" x="75" y="-149.5" font-family="Helvetica,sans-Serif" font-size="10.00">OS.pkg.yum.YumInstaller.install</text>
</g>
<!-- Node2 -->
<g id="node3" class="node"><title>Node2</title>
<a xlink:href="class_o_s_1_1pkg_1_1apt_1_1_apt_installer.html#a721544fb2131f2396926e557aa2e44a1" target="_top" xlink:title="OS.pkg.apt.AptInstaller.\l_updatePackageIndex">
<polygon fill="none" stroke="black" points="212.5,-284 212.5,-314 329.5,-314 329.5,-284 212.5,-284"/>
<text text-anchor="start" x="220.5" y="-302" font-family="Helvetica,sans-Serif" font-size="10.00">OS.pkg.apt.AptInstaller.</text>
<text text-anchor="middle" x="271" y="-291" font-family="Helvetica,sans-Serif" font-size="10.00">_updatePackageIndex</text>
</a>
</g>
<!-- Node1&#45;&gt;Node2 -->
<g id="edge2" class="edge"><title>Node1&#45;&gt;Node2</title>
<path fill="none" stroke="midnightblue" d="M81.8976,-161.548C96.5627,-184.489 137.048,-243.092 186,-274 191.235,-277.305 196.927,-280.191 202.8,-282.708"/>
<polygon fill="midnightblue" stroke="midnightblue" points="201.549,-285.977 212.137,-286.366 204.103,-279.459 201.549,-285.977"/>
</g>
<!-- Node3 -->
<g id="node5" class="node"><title>Node3</title>
<a xlink:href="class_o_s_1_1pkg_1_1macports_1_1_mac_port_installer.html#a36a164a74432a3d803e2e48e2c9d3709" target="_top" xlink:title="OS.pkg.macports.MacPortInstaller.\l_updatePackageIndex">
<polygon fill="none" stroke="black" points="190,-235 190,-265 352,-265 352,-235 190,-235"/>
<text text-anchor="start" x="198" y="-253" font-family="Helvetica,sans-Serif" font-size="10.00">OS.pkg.macports.MacPortInstaller.</text>
<text text-anchor="middle" x="271" y="-242" font-family="Helvetica,sans-Serif" font-size="10.00">_updatePackageIndex</text>
</a>
</g>
<!-- Node1&#45;&gt;Node3 -->
<g id="edge4" class="edge"><title>Node1&#45;&gt;Node3</title>
<path fill="none" stroke="midnightblue" d="M87.8275,-161.584C107.251,-176.91 147.593,-207.032 186,-225 190.996,-227.337 196.261,-229.514 201.62,-231.528"/>
<polygon fill="midnightblue" stroke="midnightblue" points="200.732,-234.928 211.327,-234.98 203.077,-228.332 200.732,-234.928"/>
</g>
<!-- Node4 -->
<g id="node7" class="node"><title>Node4</title>
<a xlink:href="class_o_s_1_1pkg_1_1yum_1_1_yum_installer.html#afadf31d60f42e27a9f3f9bdb49a991c1" target="_top" xlink:title="OS.pkg.yum.YumInstaller.\l_updatePackageIndex">
<polygon fill="none" stroke="black" points="208.5,-186 208.5,-216 333.5,-216 333.5,-186 208.5,-186"/>
<text text-anchor="start" x="216.5" y="-204" font-family="Helvetica,sans-Serif" font-size="10.00">OS.pkg.yum.YumInstaller.</text>
<text text-anchor="middle" x="271" y="-193" font-family="Helvetica,sans-Serif" font-size="10.00">_updatePackageIndex</text>
</a>
</g>
<!-- Node1&#45;&gt;Node4 -->
<g id="edge6" class="edge"><title>Node1&#45;&gt;Node4</title>
<path fill="none" stroke="midnightblue" d="M113.866,-161.564C138.534,-167.795 171.453,-176.109 200.704,-183.497"/>
<polygon fill="midnightblue" stroke="midnightblue" points="199.913,-186.908 210.466,-185.963 201.628,-180.121 199.913,-186.908"/>
</g>
<!-- Node5 -->
<g id="node9" class="node"><title>Node5</title>
<a xlink:href="class_o_s_1_1pkg_1_1apt_1_1_apt_installer.html#a9805006eff347a5957a9b4310b97df5c" target="_top" xlink:title="OS.pkg.apt.AptInstaller.is\lInstalled">
<polygon fill="none" stroke="black" points="209,-137 209,-167 333,-167 333,-137 209,-137"/>
<text text-anchor="start" x="217" y="-155" font-family="Helvetica,sans-Serif" font-size="10.00">OS.pkg.apt.AptInstaller.is</text>
<text text-anchor="middle" x="271" y="-144" font-family="Helvetica,sans-Serif" font-size="10.00">Installed</text>
</a>
</g>
<!-- Node1&#45;&gt;Node5 -->
<g id="edge8" class="edge"><title>Node1&#45;&gt;Node5</title>
<path fill="none" stroke="midnightblue" d="M149.62,-152C165.623,-152 182.529,-152 198.45,-152"/>
<polygon fill="midnightblue" stroke="midnightblue" points="198.751,-155.5 208.751,-152 198.751,-148.5 198.751,-155.5"/>
</g>
<!-- Node6 -->
<g id="node11" class="node"><title>Node6</title>
<a xlink:href="class_o_s_1_1pkg_1_1macports_1_1_mac_port_installer.html#a97f772453b099570fe145606acbf88b6" target="_top" xlink:title="OS.pkg.macports.MacPortInstaller.is\lInstalled">
<polygon fill="none" stroke="black" points="186.5,-88 186.5,-118 355.5,-118 355.5,-88 186.5,-88"/>
<text text-anchor="start" x="194.5" y="-106" font-family="Helvetica,sans-Serif" font-size="10.00">OS.pkg.macports.MacPortInstaller.is</text>
<text text-anchor="middle" x="271" y="-95" font-family="Helvetica,sans-Serif" font-size="10.00">Installed</text>
</a>
</g>
<!-- Node1&#45;&gt;Node6 -->
<g id="edge10" class="edge"><title>Node1&#45;&gt;Node6</title>
<path fill="none" stroke="midnightblue" d="M113.866,-142.436C138.534,-136.205 171.453,-127.891 200.704,-120.503"/>
<polygon fill="midnightblue" stroke="midnightblue" points="201.628,-123.879 210.466,-118.037 199.913,-117.092 201.628,-123.879"/>
</g>
<!-- Node7 -->
<g id="node13" class="node"><title>Node7</title>
<a xlink:href="class_o_s_1_1pkg_1_1yum_1_1___e_p_e_l.html#a91092c003c404faf9e74b940056bb28a" target="_top" xlink:title="OS.pkg.yum._EPEL.isInstalled">
<polygon fill="none" stroke="black" points="198,-49.5 198,-68.5 344,-68.5 344,-49.5 198,-49.5"/>
<text text-anchor="middle" x="271" y="-56.5" font-family="Helvetica,sans-Serif" font-size="10.00">OS.pkg.yum._EPEL.isInstalled</text>
</a>
</g>
<!-- Node1&#45;&gt;Node7 -->
<g id="edge12" class="edge"><title>Node1&#45;&gt;Node7</title>
<path fill="none" stroke="midnightblue" d="M87.4052,-142.421C106.548,-126.826 146.899,-95.9862 186,-79 192.712,-76.0844 199.918,-73.5535 207.186,-71.3666"/>
<polygon fill="midnightblue" stroke="midnightblue" points="208.407,-74.6593 217.094,-68.5939 206.521,-67.9182 208.407,-74.6593"/>
</g>
<!-- Node8 -->
<g id="node15" class="node"><title>Node8</title>
<a xlink:href="class_o_s_1_1pkg_1_1yum_1_1_yum_installer.html#a62573fc6b44fd2987d8abc62c8f76c56" target="_top" xlink:title="OS.pkg.yum.YumInstaller.is\lInstalled">
<polygon fill="none" stroke="black" points="205,-0 205,-30 337,-30 337,-0 205,-0"/>
<text text-anchor="start" x="213" y="-18" font-family="Helvetica,sans-Serif" font-size="10.00">OS.pkg.yum.YumInstaller.is</text>
<text text-anchor="middle" x="271" y="-7" font-family="Helvetica,sans-Serif" font-size="10.00">Installed</text>
</a>
</g>
<!-- Node1&#45;&gt;Node8 -->
<g id="edge14" class="edge"><title>Node1&#45;&gt;Node8</title>
<path fill="none" stroke="midnightblue" d="M82.7841,-142.302C98.4298,-120.658 139.299,-68.1106 186,-40 189.593,-37.8372 193.386,-35.8504 197.295,-34.0266"/>
<polygon fill="midnightblue" stroke="midnightblue" points="198.761,-37.2064 206.584,-30.0611 196.012,-30.7684 198.761,-37.2064"/>
</g>
</g>
</svg>
