<?xml version="1.0" encoding="UTF-8" standalone="no"?>
<!DOCTYPE svg PUBLIC "-//W3C//DTD SVG 1.1//EN"
 "http://www.w3.org/Graphics/SVG/1.1/DTD/svg11.dtd">
<!-- Generated by graphviz version 2.30.1 (20130221.2233)
 -->
<!-- Title: OS.pkg._yum.YumInstaller.isInstalled Pages: 1 -->
<svg width="584pt" height="87pt"
 viewBox="0.00 0.00 584.00 87.00" xmlns="http://www.w3.org/2000/svg" xmlns:xlink="http://www.w3.org/1999/xlink">
<g id="graph0" class="graph" transform="scale(1 1) rotate(0) translate(4 83)">
<title>OS.pkg._yum.YumInstaller.isInstalled</title>
<!-- Node1 -->
<g id="node1" class="node"><title>Node1</title>
<polygon fill="#bfbfbf" stroke="black" points="0.5,-24 0.5,-54 145.5,-54 145.5,-24 0.5,-24"/>
<text text-anchor="start" x="8.5" y="-42" font-family="Helvetica,sans-Serif" font-size="10.00">OS.pkg._yum.YumInstaller.is</text>
<text text-anchor="middle" x="73" y="-31" font-family="Helvetica,sans-Serif" font-size="10.00">Installed</text>
</g>
<!-- Node2 -->
<g id="node2" class="node"><title>Node2</title>
<g id="a_node2"><a xlink:href="class_o_s_1_1pkg_1_1__base_1_1_package_manager.html#add22a65cf270c6c0f285e124ac430f60" target="_top" xlink:title="Updates the package manager&#39;s package index using the network. ">
<polygon fill="none" stroke="black" points="182,-24 182,-54 376,-54 376,-24 182,-24"/>
<text text-anchor="start" x="190" y="-42" font-family="Helvetica,sans-Serif" font-size="10.00">OS.pkg._base.PackageManager.update</text>
<text text-anchor="middle" x="279" y="-31" font-family="Helvetica,sans-Serif" font-size="10.00">PackageIndex</text>
</a>
</g>
</g>
<!-- Node1&#45;&gt;Node2 -->
<g id="edge1" class="edge"><title>Node1&#45;&gt;Node2</title>
<path fill="none" stroke="midnightblue" d="M145.636,-39C154.144,-39 162.962,-39 171.823,-39"/>
<polygon fill="midnightblue" stroke="midnightblue" points="171.83,-42.5001 181.83,-39 171.83,-35.5001 171.83,-42.5001"/>
</g>
<!-- Node3 -->
<g id="node3" class="node"><title>Node3</title>
<g id="a_node3"><a xlink:href="class_o_s_1_1pkg_1_1__apt_1_1_apt_installer.html#ad2fa22e454c7a7eccf266a57f982cb4e" target="_top" xlink:title="OS.pkg._apt.AptInstaller.\l_updatePackageIndex">
<polygon fill="none" stroke="black" points="430,-49 430,-79 558,-79 558,-49 430,-49"/>
<text text-anchor="start" x="438" y="-67" font-family="Helvetica,sans-Serif" font-size="10.00">OS.pkg._apt.AptInstaller.</text>
<text text-anchor="middle" x="494" y="-56" font-family="Helvetica,sans-Serif" font-size="10.00">_updatePackageIndex</text>
</a>
</g>
</g>
<!-- Node2&#45;&gt;Node3 -->
<g id="edge2" class="edge"><title>Node2&#45;&gt;Node3</title>
<path fill="none" stroke="midnightblue" d="M376.218,-50.2932C390.856,-52.0112 405.755,-53.76 419.796,-55.408"/>
<polygon fill="midnightblue" stroke="midnightblue" points="419.513,-58.8987 429.852,-56.5883 420.329,-51.9464 419.513,-58.8987"/>
</g>
<!-- Node4 -->
<g id="node4" class="node"><title>Node4</title>
<g id="a_node4"><a xlink:href="class_o_s_1_1pkg_1_1__base_1_1_package_manager.html#a039eb503da3849c3c87b6395a5216ea6" target="_top" xlink:title="OS.pkg._base.PackageManager.\l_updatePackageIndex">
<polygon fill="none" stroke="black" points="412,-0 412,-30 576,-30 576,-0 412,-0"/>
<text text-anchor="start" x="420" y="-18" font-family="Helvetica,sans-Serif" font-size="10.00">OS.pkg._base.PackageManager.</text>
<text text-anchor="middle" x="494" y="-7" font-family="Helvetica,sans-Serif" font-size="10.00">_updatePackageIndex</text>
</a>
</g>
</g>
<!-- Node2&#45;&gt;Node4 -->
<g id="edge3" class="edge"><title>Node2&#45;&gt;Node4</title>
<path fill="none" stroke="midnightblue" d="M376.218,-28.1585C384.683,-27.2048 393.235,-26.2411 401.658,-25.292"/>
<polygon fill="midnightblue" stroke="midnightblue" points="402.309,-28.7409 411.854,-24.1432 401.525,-21.7849 402.309,-28.7409"/>
</g>
</g>
</svg>
