<?xml version="1.0" encoding="UTF-8" standalone="no"?>
<!DOCTYPE svg PUBLIC "-//W3C//DTD SVG 1.1//EN"
 "http://www.w3.org/Graphics/SVG/1.1/DTD/svg11.dtd">
<!-- Generated by graphviz version 2.28.0 (20121214.2254)
 -->
<!-- Title: OS.pkg.yum.YumInstaller.remove Pages: 1 -->
<svg width="370pt" height="175pt"
 viewBox="0.00 0.00 370.00 175.00" xmlns="http://www.w3.org/2000/svg" xmlns:xlink="http://www.w3.org/1999/xlink">
<g id="graph1" class="graph" transform="scale(1 1) rotate(0) translate(4 171)">
<title>OS.pkg.yum.YumInstaller.remove</title>
<!-- Node1 -->
<g id="node1" class="node"><title>Node1</title>
<polygon fill="#bfbfbf" stroke="black" points="0,-71.5 0,-90.5 156,-90.5 156,-71.5 0,-71.5"/>
<text text-anchor="middle" x="78" y="-78.5" font-family="Helvetica,sans-Serif" font-size="10.00">OS.pkg.yum.YumInstaller.remove</text>
</g>
<!-- Node2 -->
<g id="node3" class="node"><title>Node2</title>
<a xlink:href="class_o_s_1_1pkg_1_1apt_1_1_apt_installer.html#a9805006eff347a5957a9b4310b97df5c" target="_top" xlink:title="OS.pkg.apt.AptInstaller.is\lInstalled">
<polygon fill="none" stroke="black" points="215,-137 215,-167 339,-167 339,-137 215,-137"/>
<text text-anchor="start" x="223" y="-155" font-family="Helvetica,sans-Serif" font-size="10.00">OS.pkg.apt.AptInstaller.is</text>
<text text-anchor="middle" x="277" y="-144" font-family="Helvetica,sans-Serif" font-size="10.00">Installed</text>
</a>
</g>
<!-- Node1&#45;&gt;Node2 -->
<g id="edge2" class="edge"><title>Node1&#45;&gt;Node2</title>
<path fill="none" stroke="midnightblue" d="M100.843,-90.6317C123.427,-100.415 159.827,-115.694 192,-127 198.711,-129.358 205.772,-131.689 212.832,-133.924"/>
<polygon fill="midnightblue" stroke="midnightblue" points="211.837,-137.279 222.425,-136.905 213.914,-130.595 211.837,-137.279"/>
</g>
<!-- Node3 -->
<g id="node5" class="node"><title>Node3</title>
<a xlink:href="class_o_s_1_1pkg_1_1macports_1_1_mac_port_installer.html#a97f772453b099570fe145606acbf88b6" target="_top" xlink:title="OS.pkg.macports.MacPortInstaller.is\lInstalled">
<polygon fill="none" stroke="black" points="192.5,-88 192.5,-118 361.5,-118 361.5,-88 192.5,-88"/>
<text text-anchor="start" x="200.5" y="-106" font-family="Helvetica,sans-Serif" font-size="10.00">OS.pkg.macports.MacPortInstaller.is</text>
<text text-anchor="middle" x="277" y="-95" font-family="Helvetica,sans-Serif" font-size="10.00">Installed</text>
</a>
</g>
<!-- Node1&#45;&gt;Node3 -->
<g id="edge4" class="edge"><title>Node1&#45;&gt;Node3</title>
<path fill="none" stroke="midnightblue" d="M156.012,-89.6003C164.544,-90.5531 173.302,-91.5312 182.013,-92.504"/>
<polygon fill="midnightblue" stroke="midnightblue" points="181.874,-96.0102 192.201,-93.6417 182.651,-89.0534 181.874,-96.0102"/>
</g>
<!-- Node4 -->
<g id="node7" class="node"><title>Node4</title>
<a xlink:href="class_o_s_1_1pkg_1_1yum_1_1___e_p_e_l.html#a91092c003c404faf9e74b940056bb28a" target="_top" xlink:title="OS.pkg.yum._EPEL.isInstalled">
<polygon fill="none" stroke="black" points="204,-49.5 204,-68.5 350,-68.5 350,-49.5 204,-49.5"/>
<text text-anchor="middle" x="277" y="-56.5" font-family="Helvetica,sans-Serif" font-size="10.00">OS.pkg.yum._EPEL.isInstalled</text>
</a>
</g>
<!-- Node1&#45;&gt;Node4 -->
<g id="edge6" class="edge"><title>Node1&#45;&gt;Node4</title>
<path fill="none" stroke="midnightblue" d="M156.012,-72.3997C168.444,-71.0113 181.356,-69.5694 193.903,-68.1682"/>
<polygon fill="midnightblue" stroke="midnightblue" points="194.321,-71.6433 203.871,-67.055 193.544,-64.6866 194.321,-71.6433"/>
</g>
<!-- Node5 -->
<g id="node9" class="node"><title>Node5</title>
<a xlink:href="class_o_s_1_1pkg_1_1yum_1_1_yum_installer.html#a62573fc6b44fd2987d8abc62c8f76c56" target="_top" xlink:title="OS.pkg.yum.YumInstaller.is\lInstalled">
<polygon fill="none" stroke="black" points="211,-0 211,-30 343,-30 343,-0 211,-0"/>
<text text-anchor="start" x="219" y="-18" font-family="Helvetica,sans-Serif" font-size="10.00">OS.pkg.yum.YumInstaller.is</text>
<text text-anchor="middle" x="277" y="-7" font-family="Helvetica,sans-Serif" font-size="10.00">Installed</text>
</a>
</g>
<!-- Node1&#45;&gt;Node5 -->
<g id="edge8" class="edge"><title>Node1&#45;&gt;Node5</title>
<path fill="none" stroke="midnightblue" d="M103.986,-71.4557C126.786,-62.8608 161.479,-50.0691 192,-40 198.954,-37.7059 206.262,-35.3908 213.545,-33.1437"/>
<polygon fill="midnightblue" stroke="midnightblue" points="214.881,-36.3953 223.425,-30.13 212.839,-29.6998 214.881,-36.3953"/>
</g>
</g>
</svg>
