<?xml version="1.0" encoding="UTF-8" standalone="no"?>
<!DOCTYPE svg PUBLIC "-//W3C//DTD SVG 1.1//EN"
 "http://www.w3.org/Graphics/SVG/1.1/DTD/svg11.dtd">
<!-- Generated by graphviz version 2.30.1 (20130219.2202)
 -->
<!-- Title: OS.pkg._yum._EPEL.install Pages: 1 -->
<svg width="346pt" height="224pt"
 viewBox="0.00 0.00 346.00 224.00" xmlns="http://www.w3.org/2000/svg" xmlns:xlink="http://www.w3.org/1999/xlink">
<g id="graph0" class="graph" transform="scale(1 1) rotate(0) translate(4 220)">
<title>OS.pkg._yum._EPEL.install</title>
<!-- Node1 -->
<g id="node1" class="node"><title>Node1</title>
<polygon fill="#bfbfbf" stroke="black" points="0,-93.5 0,-112.5 134,-112.5 134,-93.5 0,-93.5"/>
<text text-anchor="middle" x="67" y="-100.5" font-family="Helvetica,sans-Serif" font-size="10.00">OS.pkg._yum._EPEL.install</text>
</g>
<!-- Node2 -->
<g id="node2" class="node"><title>Node2</title>
<g id="a_node2"><a xlink:href="class_o_s_1_1pkg_1_1__apt_1_1_apt_installer.html#a1cd4147589ee55bebc8356005ca87c9c" target="_top" xlink:title="OS.pkg._apt.AptInstaller.is\lInstalled">
<polygon fill="none" stroke="black" points="189.5,-186 189.5,-216 318.5,-216 318.5,-186 189.5,-186"/>
<text text-anchor="start" x="197.5" y="-204" font-family="Helvetica,sans-Serif" font-size="10.00">OS.pkg._apt.AptInstaller.is</text>
<text text-anchor="middle" x="254" y="-193" font-family="Helvetica,sans-Serif" font-size="10.00">Installed</text>
</a>
</g>
</g>
<!-- Node1&#45;&gt;Node2 -->
<g id="edge1" class="edge"><title>Node1&#45;&gt;Node2</title>
<path fill="none" stroke="midnightblue" d="M78.8425,-112.63C96.678,-128.019 133.846,-158.228 170,-176 174.609,-178.265 179.464,-180.371 184.417,-182.32"/>
<polygon fill="midnightblue" stroke="midnightblue" points="183.433,-185.687 194.026,-185.873 185.861,-179.122 183.433,-185.687"/>
</g>
<!-- Node3 -->
<g id="node3" class="node"><title>Node3</title>
<g id="a_node3"><a xlink:href="class_o_s_1_1pkg_1_1__base_1_1_package_manager.html#a2d8c330852d08b52124e7cab9cc7f6ba" target="_top" xlink:title="Must be executable without requiring root privileges.">
<polygon fill="none" stroke="black" points="170.5,-137 170.5,-167 337.5,-167 337.5,-137 170.5,-137"/>
<text text-anchor="start" x="178.5" y="-155" font-family="Helvetica,sans-Serif" font-size="10.00">OS.pkg._base.PackageManager.is</text>
<text text-anchor="middle" x="254" y="-144" font-family="Helvetica,sans-Serif" font-size="10.00">Installed</text>
</a>
</g>
</g>
<!-- Node1&#45;&gt;Node3 -->
<g id="edge2" class="edge"><title>Node1&#45;&gt;Node3</title>
<path fill="none" stroke="midnightblue" d="M104.109,-112.564C127.531,-118.768 158.752,-127.037 186.555,-134.401"/>
<polygon fill="midnightblue" stroke="midnightblue" points="185.665,-137.786 196.228,-136.963 187.457,-131.019 185.665,-137.786"/>
</g>
<!-- Node4 -->
<g id="node4" class="node"><title>Node4</title>
<g id="a_node4"><a xlink:href="class_o_s_1_1pkg_1_1__macports_1_1_mac_port_installer.html#a26a0ac6f4da6f4aa96aee08ec7d27ee5" target="_top" xlink:title="OS.pkg._macports.MacPort\lInstaller.isInstalled">
<polygon fill="none" stroke="black" points="187,-88 187,-118 321,-118 321,-88 187,-88"/>
<text text-anchor="start" x="195" y="-106" font-family="Helvetica,sans-Serif" font-size="10.00">OS.pkg._macports.MacPort</text>
<text text-anchor="middle" x="254" y="-95" font-family="Helvetica,sans-Serif" font-size="10.00">Installer.isInstalled</text>
</a>
</g>
</g>
<!-- Node1&#45;&gt;Node4 -->
<g id="edge3" class="edge"><title>Node1&#45;&gt;Node4</title>
<path fill="none" stroke="midnightblue" d="M134.006,-103C147.783,-103 162.418,-103 176.537,-103"/>
<polygon fill="midnightblue" stroke="midnightblue" points="176.708,-106.5 186.708,-103 176.708,-99.5001 176.708,-106.5"/>
</g>
<!-- Node5 -->
<g id="node5" class="node"><title>Node5</title>
<g id="a_node5"><a xlink:href="class_o_s_1_1pkg_1_1__yum_1_1___e_p_e_l.html#a596ad970403d6b45e6474ab7af9fab34" target="_top" xlink:title="OS.pkg._yum._EPEL.isInstalled">
<polygon fill="none" stroke="black" points="178,-49.5 178,-68.5 330,-68.5 330,-49.5 178,-49.5"/>
<text text-anchor="middle" x="254" y="-56.5" font-family="Helvetica,sans-Serif" font-size="10.00">OS.pkg._yum._EPEL.isInstalled</text>
</a>
</g>
</g>
<!-- Node1&#45;&gt;Node5 -->
<g id="edge4" class="edge"><title>Node1&#45;&gt;Node5</title>
<path fill="none" stroke="midnightblue" d="M108.142,-93.4527C136.021,-86.8219 173.362,-77.9409 203.149,-70.8565"/>
<polygon fill="midnightblue" stroke="midnightblue" points="204.017,-74.2476 212.936,-68.5287 202.398,-67.4376 204.017,-74.2476"/>
</g>
<!-- Node6 -->
<g id="node6" class="node"><title>Node6</title>
<g id="a_node6"><a xlink:href="class_o_s_1_1pkg_1_1__yum_1_1___e_p_e_l.html#a508814bd34851b3b6f69ced225fb93b2" target="_top" xlink:title="OS.pkg._yum._EPEL.\l_findBestEPEL">
<polygon fill="none" stroke="black" points="199,-0 199,-30 309,-30 309,-0 199,-0"/>
<text text-anchor="start" x="207" y="-18" font-family="Helvetica,sans-Serif" font-size="10.00">OS.pkg._yum._EPEL.</text>
<text text-anchor="middle" x="254" y="-7" font-family="Helvetica,sans-Serif" font-size="10.00">_findBestEPEL</text>
</a>
</g>
</g>
<!-- Node1&#45;&gt;Node6 -->
<g id="edge5" class="edge"><title>Node1&#45;&gt;Node6</title>
<path fill="none" stroke="midnightblue" d="M80.9117,-93.4801C99.694,-79.9998 136.026,-55.2913 170,-40 176.085,-37.261 182.553,-34.7208 189.088,-32.3927"/>
<polygon fill="midnightblue" stroke="midnightblue" points="190.331,-35.6667 198.673,-29.1351 188.079,-29.039 190.331,-35.6667"/>
</g>
</g>
</svg>
