<?xml version="1.0" encoding="UTF-8" standalone="no"?>
<!DOCTYPE svg PUBLIC "-//W3C//DTD SVG 1.1//EN"
 "http://www.w3.org/Graphics/SVG/1.1/DTD/svg11.dtd">
<!-- Generated by graphviz version 2.30.1 (20130221.2233)
 -->
<!-- Title: OS.pkg._base.PackageManager Pages: 1 -->
<svg width="168pt" height="238pt"
 viewBox="0.00 0.00 168.00 238.00" xmlns="http://www.w3.org/2000/svg" xmlns:xlink="http://www.w3.org/1999/xlink">
<g id="graph0" class="graph" transform="scale(1 1) rotate(0) translate(4 234)">
<title>OS.pkg._base.PackageManager</title>
<!-- Node1 -->
<g id="node1" class="node"><title>Node1</title>
<polygon fill="#bfbfbf" stroke="black" points="-0.5,-1 -0.5,-135 160.5,-135 160.5,-1 -0.5,-1"/>
<text text-anchor="middle" x="80" y="-123" font-family="Helvetica,sans-Serif" font-size="10.00">OS.pkg._base.PackageManager</text>
<polyline fill="none" stroke="black" points="-0.5,-116 160.5,-116 "/>
<text text-anchor="middle" x="80" y="-104" font-family="Helvetica,sans-Serif" font-size="10.00"> </text>
<polyline fill="none" stroke="black" points="-0.5,-97 160.5,-97 "/>
<text text-anchor="start" x="7.5" y="-85" font-family="Helvetica,sans-Serif" font-size="10.00">+ __init__()</text>
<text text-anchor="start" x="7.5" y="-74" font-family="Helvetica,sans-Serif" font-size="10.00">+ isSupported()</text>
<text text-anchor="start" x="7.5" y="-63" font-family="Helvetica,sans-Serif" font-size="10.00">+ updatePackageIndex()</text>
<text text-anchor="start" x="7.5" y="-52" font-family="Helvetica,sans-Serif" font-size="10.00">+ install()</text>
<text text-anchor="start" x="7.5" y="-41" font-family="Helvetica,sans-Serif" font-size="10.00">+ update()</text>
<text text-anchor="start" x="7.5" y="-30" font-family="Helvetica,sans-Serif" font-size="10.00">+ remove()</text>
<text text-anchor="start" x="7.5" y="-19" font-family="Helvetica,sans-Serif" font-size="10.00">+ isInstalled()</text>
<text text-anchor="start" x="7.5" y="-8" font-family="Helvetica,sans-Serif" font-size="10.00">+ isAvailable()</text>
</g>
<!-- Node2 -->
<g id="node2" class="node"><title>Node2</title>
<g id="a_node2"><a xlink:href="classobject.html" target="_top" xlink:title="{object\n||}">
<polygon fill="none" stroke="black" points="58.5,-172.5 58.5,-229.5 101.5,-229.5 101.5,-172.5 58.5,-172.5"/>
<text text-anchor="middle" x="80" y="-217.5" font-family="Helvetica,sans-Serif" font-size="10.00">object</text>
<polyline fill="none" stroke="black" points="58.5,-210.5 101.5,-210.5 "/>
<text text-anchor="middle" x="80" y="-198.5" font-family="Helvetica,sans-Serif" font-size="10.00"> </text>
<polyline fill="none" stroke="black" points="58.5,-191.5 101.5,-191.5 "/>
<text text-anchor="middle" x="80" y="-179.5" font-family="Helvetica,sans-Serif" font-size="10.00"> </text>
</a>
</g>
</g>
<!-- Node2&#45;&gt;Node1 -->
<g id="edge1" class="edge"><title>Node2&#45;&gt;Node1</title>
<path fill="none" stroke="midnightblue" d="M80,-161.942C80,-153.47 80,-144.249 80,-135.016"/>
<polygon fill="none" stroke="midnightblue" points="76.5001,-162.218 80,-172.218 83.5001,-162.218 76.5001,-162.218"/>
</g>
</g>
</svg>
