<?xml version="1.0" encoding="UTF-8" standalone="no"?>
<!DOCTYPE svg PUBLIC "-//W3C//DTD SVG 1.1//EN"
 "http://www.w3.org/Graphics/SVG/1.1/DTD/svg11.dtd">
<!-- Generated by graphviz version 2.30.1 (20130219.2202)
 -->
<!-- Title: OS.pkg._apt.AptInstaller.isSupported Pages: 1 -->
<svg width="562pt" height="371pt"
 viewBox="0.00 0.00 562.00 371.00" xmlns="http://www.w3.org/2000/svg" xmlns:xlink="http://www.w3.org/1999/xlink">
<g id="graph0" class="graph" transform="scale(1 1) rotate(0) translate(4 367)">
<title>OS.pkg._apt.AptInstaller.isSupported</title>
<!-- Node1 -->
<g id="node1" class="node"><title>Node1</title>
<polygon fill="#bfbfbf" stroke="black" points="0.5,-171 0.5,-201 129.5,-201 129.5,-171 0.5,-171"/>
<text text-anchor="start" x="8.5" y="-189" font-family="Helvetica,sans-Serif" font-size="10.00">OS.pkg._apt.AptInstaller.is</text>
<text text-anchor="middle" x="65" y="-178" font-family="Helvetica,sans-Serif" font-size="10.00">Supported</text>
</g>
<!-- Node2 -->
<g id="node2" class="node"><title>Node2</title>
<g id="a_node2"><a xlink:href="class_o_s_1_1pkg_1_1__base_1_1_package_manager.html#a7d0ca35a8011599b3dd74ed6b8673e2d" target="_top" xlink:title="OS.pkg._base.PackageManager.install">
<polygon fill="none" stroke="black" points="166,-127.5 166,-146.5 350,-146.5 350,-127.5 166,-127.5"/>
<text text-anchor="middle" x="258" y="-134.5" font-family="Helvetica,sans-Serif" font-size="10.00">OS.pkg._base.PackageManager.install</text>
</a>
</g>
</g>
<!-- Node1&#45;&gt;Node2 -->
<g id="edge1" class="edge"><title>Node1&#45;&gt;Node2</title>
<path fill="none" stroke="midnightblue" d="M124.604,-170.965C152.001,-163.937 184.185,-155.68 209.961,-149.068"/>
<polygon fill="midnightblue" stroke="midnightblue" points="211.044,-152.403 219.86,-146.528 209.304,-145.623 211.044,-152.403"/>
</g>
<!-- Node8 -->
<g id="node8" class="node"><title>Node8</title>
<g id="a_node8"><a xlink:href="class_o_s_1_1pkg_1_1__yum_1_1___e_p_e_l.html#a7ec9220419eb8a45d45397c9168244d4" target="_top" xlink:title="OS.pkg._yum._EPEL.install">
<polygon fill="none" stroke="black" points="191,-225.5 191,-244.5 325,-244.5 325,-225.5 191,-225.5"/>
<text text-anchor="middle" x="258" y="-232.5" font-family="Helvetica,sans-Serif" font-size="10.00">OS.pkg._yum._EPEL.install</text>
</a>
</g>
</g>
<!-- Node1&#45;&gt;Node8 -->
<g id="edge7" class="edge"><title>Node1&#45;&gt;Node8</title>
<path fill="none" stroke="midnightblue" d="M124.604,-201.035C152.001,-208.063 184.185,-216.32 209.961,-222.932"/>
<polygon fill="midnightblue" stroke="midnightblue" points="209.304,-226.377 219.86,-225.472 211.044,-219.597 209.304,-226.377"/>
</g>
<!-- Node3 -->
<g id="node3" class="node"><title>Node3</title>
<g id="a_node3"><a xlink:href="class_o_s_1_1pkg_1_1__apt_1_1_apt_installer.html#a1cd4147589ee55bebc8356005ca87c9c" target="_top" xlink:title="OS.pkg._apt.AptInstaller.is\lInstalled">
<polygon fill="none" stroke="black" points="405.5,-196 405.5,-226 534.5,-226 534.5,-196 405.5,-196"/>
<text text-anchor="start" x="413.5" y="-214" font-family="Helvetica,sans-Serif" font-size="10.00">OS.pkg._apt.AptInstaller.is</text>
<text text-anchor="middle" x="470" y="-203" font-family="Helvetica,sans-Serif" font-size="10.00">Installed</text>
</a>
</g>
</g>
<!-- Node2&#45;&gt;Node3 -->
<g id="edge2" class="edge"><title>Node2&#45;&gt;Node3</title>
<path fill="none" stroke="midnightblue" d="M282.213,-146.565C307.529,-156.853 349.338,-173.426 386,-186 392.851,-188.35 400.059,-190.699 407.248,-192.966"/>
<polygon fill="midnightblue" stroke="midnightblue" points="406.416,-196.372 417.004,-195.998 408.493,-189.688 406.416,-196.372"/>
</g>
<!-- Node4 -->
<g id="node4" class="node"><title>Node4</title>
<g id="a_node4"><a xlink:href="class_o_s_1_1pkg_1_1__base_1_1_package_manager.html#a2d8c330852d08b52124e7cab9cc7f6ba" target="_top" xlink:title="Must be executable without requiring root privileges.">
<polygon fill="none" stroke="black" points="386.5,-147 386.5,-177 553.5,-177 553.5,-147 386.5,-147"/>
<text text-anchor="start" x="394.5" y="-165" font-family="Helvetica,sans-Serif" font-size="10.00">OS.pkg._base.PackageManager.is</text>
<text text-anchor="middle" x="470" y="-154" font-family="Helvetica,sans-Serif" font-size="10.00">Installed</text>
</a>
</g>
</g>
<!-- Node2&#45;&gt;Node4 -->
<g id="edge3" class="edge"><title>Node2&#45;&gt;Node4</title>
<path fill="none" stroke="midnightblue" d="M338.991,-146.523C351.247,-147.982 363.985,-149.498 376.484,-150.986"/>
<polygon fill="midnightblue" stroke="midnightblue" points="376.099,-154.465 386.443,-152.172 376.927,-147.514 376.099,-154.465"/>
</g>
<!-- Node5 -->
<g id="node5" class="node"><title>Node5</title>
<g id="a_node5"><a xlink:href="class_o_s_1_1pkg_1_1__base_1_1_package_manager.html#a96d015bb45e8fae7278a77e4e0c251df" target="_top" xlink:title="OS.pkg._base.PackageManager.\l_execAsRoot_withPkgs">
<polygon fill="none" stroke="black" points="389.5,-98 389.5,-128 550.5,-128 550.5,-98 389.5,-98"/>
<text text-anchor="start" x="397.5" y="-116" font-family="Helvetica,sans-Serif" font-size="10.00">OS.pkg._base.PackageManager.</text>
<text text-anchor="middle" x="470" y="-105" font-family="Helvetica,sans-Serif" font-size="10.00">_execAsRoot_withPkgs</text>
</a>
</g>
</g>
<!-- Node2&#45;&gt;Node5 -->
<g id="edge4" class="edge"><title>Node2&#45;&gt;Node5</title>
<path fill="none" stroke="midnightblue" d="M342.299,-127.48C354.377,-126.1 366.855,-124.674 379.056,-123.279"/>
<polygon fill="midnightblue" stroke="midnightblue" points="379.687,-126.73 389.225,-122.117 378.892,-119.775 379.687,-126.73"/>
</g>
<!-- Node6 -->
<g id="node6" class="node"><title>Node6</title>
<g id="a_node6"><a xlink:href="class_o_s_1_1pkg_1_1__apt_1_1_apt_installer.html#af0c36c4a71af6cc49103d7ca63e6d6ae" target="_top" xlink:title="OS.pkg._apt.AptInstaller.\l_install">
<polygon fill="none" stroke="black" points="409,-49 409,-79 531,-79 531,-49 409,-49"/>
<text text-anchor="start" x="417" y="-67" font-family="Helvetica,sans-Serif" font-size="10.00">OS.pkg._apt.AptInstaller.</text>
<text text-anchor="middle" x="470" y="-56" font-family="Helvetica,sans-Serif" font-size="10.00">_install</text>
</a>
</g>
</g>
<!-- Node2&#45;&gt;Node6 -->
<g id="edge5" class="edge"><title>Node2&#45;&gt;Node6</title>
<path fill="none" stroke="midnightblue" d="M282.186,-127.356C307.479,-117.001 349.269,-100.37 386,-88 391.971,-85.9892 398.216,-83.9922 404.486,-82.0586"/>
<polygon fill="midnightblue" stroke="midnightblue" points="405.765,-85.3281 414.321,-79.0794 403.736,-78.6286 405.765,-85.3281"/>
</g>
<!-- Node7 -->
<g id="node7" class="node"><title>Node7</title>
<g id="a_node7"><a xlink:href="class_o_s_1_1pkg_1_1__base_1_1_package_manager.html#a19fcb0397482254e3eb25188fd0ad575" target="_top" xlink:title="OS.pkg._base.PackageManager.\l_install">
<polygon fill="none" stroke="black" points="389.5,-0 389.5,-30 550.5,-30 550.5,-0 389.5,-0"/>
<text text-anchor="start" x="397.5" y="-18" font-family="Helvetica,sans-Serif" font-size="10.00">OS.pkg._base.PackageManager.</text>
<text text-anchor="middle" x="470" y="-7" font-family="Helvetica,sans-Serif" font-size="10.00">_install</text>
</a>
</g>
</g>
<!-- Node2&#45;&gt;Node7 -->
<g id="edge6" class="edge"><title>Node2&#45;&gt;Node7</title>
<path fill="none" stroke="midnightblue" d="M268.636,-127.442C288.735,-108.019 337.317,-63.6894 386,-39 389.763,-37.0918 393.7,-35.3133 397.729,-33.6588"/>
<polygon fill="midnightblue" stroke="midnightblue" points="399.162,-36.8582 407.256,-30.0213 396.665,-30.3187 399.162,-36.8582"/>
</g>
<!-- Node8&#45;&gt;Node3 -->
<g id="edge8" class="edge"><title>Node8&#45;&gt;Node3</title>
<path fill="none" stroke="midnightblue" d="M325.157,-227.439C347.464,-224.89 372.494,-222.029 395.343,-219.418"/>
<polygon fill="midnightblue" stroke="midnightblue" points="395.79,-222.89 405.328,-218.277 394.995,-215.935 395.79,-222.89"/>
</g>
<!-- Node8&#45;&gt;Node4 -->
<g id="edge9" class="edge"><title>Node8&#45;&gt;Node4</title>
<path fill="none" stroke="midnightblue" d="M282.186,-225.356C307.479,-215.001 349.269,-198.37 386,-186 391.971,-183.989 398.216,-181.992 404.486,-180.059"/>
<polygon fill="midnightblue" stroke="midnightblue" points="405.765,-183.328 414.321,-177.079 403.736,-176.629 405.765,-183.328"/>
</g>
<!-- Node9 -->
<g id="node9" class="node"><title>Node9</title>
<g id="a_node9"><a xlink:href="class_o_s_1_1pkg_1_1__macports_1_1_mac_port_installer.html#a26a0ac6f4da6f4aa96aee08ec7d27ee5" target="_top" xlink:title="OS.pkg._macports.MacPort\lInstaller.isInstalled">
<polygon fill="none" stroke="black" points="403,-333 403,-363 537,-363 537,-333 403,-333"/>
<text text-anchor="start" x="411" y="-351" font-family="Helvetica,sans-Serif" font-size="10.00">OS.pkg._macports.MacPort</text>
<text text-anchor="middle" x="470" y="-340" font-family="Helvetica,sans-Serif" font-size="10.00">Installer.isInstalled</text>
</a>
</g>
</g>
<!-- Node8&#45;&gt;Node9 -->
<g id="edge10" class="edge"><title>Node8&#45;&gt;Node9</title>
<path fill="none" stroke="midnightblue" d="M270.145,-244.556C291.366,-262.316 339.608,-300.632 386,-323 390.829,-325.328 395.922,-327.493 401.111,-329.494"/>
<polygon fill="midnightblue" stroke="midnightblue" points="399.925,-332.787 410.519,-332.92 402.32,-326.209 399.925,-332.787"/>
</g>
<!-- Node10 -->
<g id="node10" class="node"><title>Node10</title>
<g id="a_node10"><a xlink:href="class_o_s_1_1pkg_1_1__yum_1_1___e_p_e_l.html#a596ad970403d6b45e6474ab7af9fab34" target="_top" xlink:title="OS.pkg._yum._EPEL.isInstalled">
<polygon fill="none" stroke="black" points="394,-294.5 394,-313.5 546,-313.5 546,-294.5 394,-294.5"/>
<text text-anchor="middle" x="470" y="-301.5" font-family="Helvetica,sans-Serif" font-size="10.00">OS.pkg._yum._EPEL.isInstalled</text>
</a>
</g>
</g>
<!-- Node8&#45;&gt;Node10 -->
<g id="edge11" class="edge"><title>Node8&#45;&gt;Node10</title>
<path fill="none" stroke="midnightblue" d="M281.167,-244.579C306.267,-255.184 348.549,-272.319 386,-284 395.242,-286.883 405.17,-289.596 414.833,-292.039"/>
<polygon fill="midnightblue" stroke="midnightblue" points="414.221,-295.493 424.768,-294.483 415.893,-288.695 414.221,-295.493"/>
</g>
<!-- Node11 -->
<g id="node11" class="node"><title>Node11</title>
<g id="a_node11"><a xlink:href="class_o_s_1_1pkg_1_1__yum_1_1___e_p_e_l.html#a508814bd34851b3b6f69ced225fb93b2" target="_top" xlink:title="OS.pkg._yum._EPEL.\l_findBestEPEL">
<polygon fill="none" stroke="black" points="415,-245 415,-275 525,-275 525,-245 415,-245"/>
<text text-anchor="start" x="423" y="-263" font-family="Helvetica,sans-Serif" font-size="10.00">OS.pkg._yum._EPEL.</text>
<text text-anchor="middle" x="470" y="-252" font-family="Helvetica,sans-Serif" font-size="10.00">_findBestEPEL</text>
</a>
</g>
</g>
<!-- Node8&#45;&gt;Node11 -->
<g id="edge12" class="edge"><title>Node8&#45;&gt;Node11</title>
<path fill="none" stroke="midnightblue" d="M325.157,-242.876C350.517,-245.895 379.396,-249.333 404.59,-252.332"/>
<polygon fill="midnightblue" stroke="midnightblue" points="404.431,-255.838 414.775,-253.545 405.259,-248.887 404.431,-255.838"/>
</g>
</g>
</svg>
