<?xml version="1.0" encoding="UTF-8" standalone="no"?>
<!DOCTYPE svg PUBLIC "-//W3C//DTD SVG 1.1//EN"
 "http://www.w3.org/Graphics/SVG/1.1/DTD/svg11.dtd">
<!-- Generated by graphviz version 2.30.1 (20130221.2233)
 -->
<!-- Title: OS.pkg._yum.YumInstaller.installRepo_RPM Pages: 1 -->
<svg width="372pt" height="164pt"
 viewBox="0.00 0.00 372.00 164.00" xmlns="http://www.w3.org/2000/svg" xmlns:xlink="http://www.w3.org/1999/xlink">
<g id="graph0" class="graph" transform="scale(1 1) rotate(0) translate(4 160)">
<title>OS.pkg._yum.YumInstaller.installRepo_RPM</title>
<!-- Node1 -->
<g id="node1" class="node"><title>Node1</title>
<polygon fill="#bfbfbf" stroke="black" points="0,-55 0,-85 164,-85 164,-55 0,-55"/>
<text text-anchor="start" x="8" y="-73" font-family="Helvetica,sans-Serif" font-size="10.00">OS.pkg._yum.YumInstaller.install</text>
<text text-anchor="middle" x="82" y="-62" font-family="Helvetica,sans-Serif" font-size="10.00">Repo_RPM</text>
</g>
<!-- Node2 -->
<g id="node2" class="node"><title>Node2</title>
<g id="a_node2"><a xlink:href="class_o_s_1_1pkg_1_1__base_1_1_package_manager.html#a654a774ee8938d8c391b995aa31f5c45" target="_top" xlink:title="OS.pkg._base.PackageManager.\l_execAsRoot_terminalCommand">
<polygon fill="none" stroke="black" points="200,-126 200,-156 364,-156 364,-126 200,-126"/>
<text text-anchor="start" x="208" y="-144" font-family="Helvetica,sans-Serif" font-size="10.00">OS.pkg._base.PackageManager.</text>
<text text-anchor="middle" x="282" y="-133" font-family="Helvetica,sans-Serif" font-size="10.00">_execAsRoot_terminalCommand</text>
</a>
</g>
</g>
<!-- Node1&#45;&gt;Node2 -->
<g id="edge1" class="edge"><title>Node1&#45;&gt;Node2</title>
<path fill="none" stroke="midnightblue" d="M119.101,-85.0059C142.094,-94.3609 172.604,-106.402 200,-116 206.532,-118.289 213.398,-120.58 220.255,-122.796"/>
<polygon fill="midnightblue" stroke="midnightblue" points="219.663,-126.281 230.254,-125.98 221.787,-119.611 219.663,-126.281"/>
</g>
<!-- Node3 -->
<g id="node3" class="node"><title>Node3</title>
<g id="a_node3"><a xlink:href="class_o_s_1_1pkg_1_1__yum_1_1_yum_installer.html#ab1c380d70e6d3c9610a8be5795f15bb7" target="_top" xlink:title="OS.pkg._yum.YumInstaller.\l_installRepo_RPM">
<polygon fill="none" stroke="black" points="213,-77 213,-107 351,-107 351,-77 213,-77"/>
<text text-anchor="start" x="221" y="-95" font-family="Helvetica,sans-Serif" font-size="10.00">OS.pkg._yum.YumInstaller.</text>
<text text-anchor="middle" x="282" y="-84" font-family="Helvetica,sans-Serif" font-size="10.00">_installRepo_RPM</text>
</a>
</g>
</g>
<!-- Node1&#45;&gt;Node3 -->
<g id="edge2" class="edge"><title>Node1&#45;&gt;Node3</title>
<path fill="none" stroke="midnightblue" d="M164.105,-79.0117C176.915,-80.4349 190.137,-81.9041 202.876,-83.3196"/>
<polygon fill="midnightblue" stroke="midnightblue" points="202.647,-86.8155 212.972,-84.4414 203.42,-79.8584 202.647,-86.8155"/>
</g>
<!-- Node4 -->
<g id="node4" class="node"><title>Node4</title>
<g id="a_node4"><a xlink:href="class_o_s_1_1pkg_1_1__apt_1_1_apt_installer.html#aa28edc779458632cddeda65f4211943d" target="_top" xlink:title="OS.pkg._apt.AptInstaller._init">
<polygon fill="none" stroke="black" points="209,-38.5 209,-57.5 355,-57.5 355,-38.5 209,-38.5"/>
<text text-anchor="middle" x="282" y="-45.5" font-family="Helvetica,sans-Serif" font-size="10.00">OS.pkg._apt.AptInstaller._init</text>
</a>
</g>
</g>
<!-- Node1&#45;&gt;Node4 -->
<g id="edge3" class="edge"><title>Node1&#45;&gt;Node4</title>
<path fill="none" stroke="midnightblue" d="M164.105,-60.9883C175.587,-59.7125 187.401,-58.3999 198.901,-57.1221"/>
<polygon fill="midnightblue" stroke="midnightblue" points="199.358,-60.593 208.91,-56.01 198.585,-53.6358 199.358,-60.593"/>
</g>
<!-- Node5 -->
<g id="node5" class="node"><title>Node5</title>
<g id="a_node5"><a xlink:href="class_o_s_1_1pkg_1_1__yum_1_1_yum_installer.html#abe677509100cf7114da15ca0294607ed" target="_top" xlink:title="OS.pkg._yum.YumInstaller._init">
<polygon fill="none" stroke="black" points="203.5,-0.5 203.5,-19.5 360.5,-19.5 360.5,-0.5 203.5,-0.5"/>
<text text-anchor="middle" x="282" y="-7.5" font-family="Helvetica,sans-Serif" font-size="10.00">OS.pkg._yum.YumInstaller._init</text>
</a>
</g>
</g>
<!-- Node1&#45;&gt;Node5 -->
<g id="edge4" class="edge"><title>Node1&#45;&gt;Node5</title>
<path fill="none" stroke="midnightblue" d="M122.462,-54.9909C144.986,-46.7224 173.861,-36.6219 200,-29 208.564,-26.5028 217.71,-24.1048 226.658,-21.9033"/>
<polygon fill="midnightblue" stroke="midnightblue" points="227.731,-25.2454 236.637,-19.5065 226.096,-18.439 227.731,-25.2454"/>
</g>
</g>
</svg>
