<?xml version="1.0" encoding="UTF-8" standalone="no"?>
<!DOCTYPE svg PUBLIC "-//W3C//DTD SVG 1.1//EN"
 "http://www.w3.org/Graphics/SVG/1.1/DTD/svg11.dtd">
<!-- Generated by graphviz version 2.30.1 (20130219.2202)
 -->
<!-- Title: OS.pkg._base.PackageManager.__init__ Pages: 1 -->
<!--zoomable 371 -->
<svg id="main" version="1.1" xmlns="http://www.w3.org/2000/svg" xmlns:xlink="http://www.w3.org/1999/xlink" xml:space="preserve" onload="init(evt)">
        <defs>
                <circle id="rim" cx="0" cy="0" r="7"/>
                <circle id="rim2" cx="0" cy="0" r="3.5"/>
                <g id="zoomPlus">
                        <use xlink:href="#rim" fill="#404040">
                                <set attributeName="fill" to="#808080" begin="zoomplus.mouseover" end="zoomplus.mouseout"/>
                        </use>
                        <path d="M-4,0h8M0,-4v8" fill="none" stroke="white" stroke-width="1.5" pointer-events="none"/>
                </g>
                <g id="zoomMin">
                        <use xlink:href="#rim" fill="#404040">
                                <set attributeName="fill" to="#808080" begin="zoomminus.mouseover" end="zoomminus.mouseout"/>
                        </use>
                        <path d="M-4,0h8" fill="none" stroke="white" stroke-width="1.5" pointer-events="none"/>
                </g>
                <g id="dirArrow">
                        <path fill="none" stroke="white" stroke-width="1.5" d="M0,-3.0v7 M-2.5,-0.5L0,-3.0L2.5,-0.5"/>
                </g>
               <g id="resetDef">
                       <use xlink:href="#rim2" fill="#404040">
                               <set attributeName="fill" to="#808080" begin="reset.mouseover" end="reset.mouseout"/>
                       </use>
               </g>
        </defs>

<script type="text/javascript">
var viewWidth = 798;
var viewHeight = 371;
var sectionId = 'dynsection-1';
</script>
<script xlink:href="svgpan.js"/>
<svg id="graph" class="graph">
<g id="viewport">
<title>OS.pkg._base.PackageManager.__init__</title>
<!-- Node1 -->
<g id="node1" class="node"><title>Node1</title>
<polygon fill="#bfbfbf" stroke="black" points="0.5,-158 0.5,-188 161.5,-188 161.5,-158 0.5,-158"/>
<text text-anchor="start" x="8.5" y="-176" font-family="Helvetica,sans-Serif" font-size="10.00">OS.pkg._base.PackageManager.</text>
<text text-anchor="middle" x="81" y="-165" font-family="Helvetica,sans-Serif" font-size="10.00">__init__</text>
</g>
<!-- Node2 -->
<g id="node2" class="node"><title>Node2</title>
<g id="a_node2"><a xlink:href="class_o_s_1_1pkg_1_1__apt_1_1_apt_installer.html#ae6235991c2c72e8eb41a5bc8543f2808" target="_top" xlink:title="OS.pkg._apt.AptInstaller.is\lSupported">
<polygon fill="none" stroke="black" points="217.5,-183 217.5,-213 346.5,-213 346.5,-183 217.5,-183"/>
<text text-anchor="start" x="225.5" y="-201" font-family="Helvetica,sans-Serif" font-size="10.00">OS.pkg._apt.AptInstaller.is</text>
<text text-anchor="middle" x="282" y="-190" font-family="Helvetica,sans-Serif" font-size="10.00">Supported</text>
</a>
</g>
</g>
<!-- Node1&#45;&gt;Node2 -->
<g id="edge1" class="edge"><title>Node1&#45;&gt;Node2</title>
<path fill="none" stroke="midnightblue" d="M161.508,-182.988C176.549,-184.878 192.227,-186.848 207.087,-188.714"/>
<polygon fill="midnightblue" stroke="midnightblue" points="206.868,-192.214 217.226,-189.988 207.741,-185.269 206.868,-192.214"/>
</g>
<!-- Node13 -->
<g id="node13" class="node"><title>Node13</title>
<g id="a_node13"><a xlink:href="class_o_s_1_1pkg_1_1__base_1_1_package_manager.html#a8ff4949814d7c94f6f44dc6b6d8763d3" target="_top" xlink:title="OS.pkg._base.PackageManager.is\lSupported">
<polygon fill="none" stroke="black" points="198.5,-134 198.5,-164 365.5,-164 365.5,-134 198.5,-134"/>
<text text-anchor="start" x="206.5" y="-152" font-family="Helvetica,sans-Serif" font-size="10.00">OS.pkg._base.PackageManager.is</text>
<text text-anchor="middle" x="282" y="-141" font-family="Helvetica,sans-Serif" font-size="10.00">Supported</text>
</a>
</g>
</g>
<!-- Node1&#45;&gt;Node13 -->
<g id="edge14" class="edge"><title>Node1&#45;&gt;Node13</title>
<path fill="none" stroke="midnightblue" d="M161.508,-163.411C170.318,-162.349 179.345,-161.26 188.299,-160.18"/>
<polygon fill="midnightblue" stroke="midnightblue" points="188.853,-163.639 198.362,-158.966 188.015,-156.689 188.853,-163.639"/>
</g>
<!-- Node3 -->
<g id="node3" class="node"><title>Node3</title>
<g id="a_node3"><a xlink:href="class_o_s_1_1pkg_1_1__base_1_1_package_manager.html#a7d0ca35a8011599b3dd74ed6b8673e2d" target="_top" xlink:title="OS.pkg._base.PackageManager.install">
<polygon fill="none" stroke="black" points="402,-127.5 402,-146.5 586,-146.5 586,-127.5 402,-127.5"/>
<text text-anchor="middle" x="494" y="-134.5" font-family="Helvetica,sans-Serif" font-size="10.00">OS.pkg._base.PackageManager.install</text>
</a>
</g>
</g>
<!-- Node2&#45;&gt;Node3 -->
<g id="edge2" class="edge"><title>Node2&#45;&gt;Node3</title>
<path fill="none" stroke="midnightblue" d="M334.641,-183C370.19,-172.674 416.852,-159.119 450.301,-149.403"/>
<polygon fill="midnightblue" stroke="midnightblue" points="451.604,-152.669 460.23,-146.519 449.651,-145.947 451.604,-152.669"/>
</g>
<!-- Node9 -->
<g id="node9" class="node"><title>Node9</title>
<g id="a_node9"><a xlink:href="class_o_s_1_1pkg_1_1__yum_1_1___e_p_e_l.html#a7ec9220419eb8a45d45397c9168244d4" target="_top" xlink:title="OS.pkg._yum._EPEL.install">
<polygon fill="none" stroke="black" points="427,-225.5 427,-244.5 561,-244.5 561,-225.5 427,-225.5"/>
<text text-anchor="middle" x="494" y="-232.5" font-family="Helvetica,sans-Serif" font-size="10.00">OS.pkg._yum._EPEL.install</text>
</a>
</g>
</g>
<!-- Node2&#45;&gt;Node9 -->
<g id="edge8" class="edge"><title>Node2&#45;&gt;Node9</title>
<path fill="none" stroke="midnightblue" d="M346.577,-209.202C372.581,-213.783 402.621,-219.076 428.699,-223.671"/>
<polygon fill="midnightblue" stroke="midnightblue" points="428.4,-227.172 438.856,-225.46 429.615,-220.278 428.4,-227.172"/>
</g>
<!-- Node4 -->
<g id="node4" class="node"><title>Node4</title>
<g id="a_node4"><a xlink:href="class_o_s_1_1pkg_1_1__apt_1_1_apt_installer.html#a1cd4147589ee55bebc8356005ca87c9c" target="_top" xlink:title="OS.pkg._apt.AptInstaller.is\lInstalled">
<polygon fill="none" stroke="black" points="641.5,-196 641.5,-226 770.5,-226 770.5,-196 641.5,-196"/>
<text text-anchor="start" x="649.5" y="-214" font-family="Helvetica,sans-Serif" font-size="10.00">OS.pkg._apt.AptInstaller.is</text>
<text text-anchor="middle" x="706" y="-203" font-family="Helvetica,sans-Serif" font-size="10.00">Installed</text>
</a>
</g>
</g>
<!-- Node3&#45;&gt;Node4 -->
<g id="edge3" class="edge"><title>Node3&#45;&gt;Node4</title>
<path fill="none" stroke="midnightblue" d="M518.213,-146.565C543.529,-156.853 585.338,-173.426 622,-186 628.851,-188.35 636.059,-190.699 643.248,-192.966"/>
<polygon fill="midnightblue" stroke="midnightblue" points="642.416,-196.372 653.004,-195.998 644.493,-189.688 642.416,-196.372"/>
</g>
<!-- Node5 -->
<g id="node5" class="node"><title>Node5</title>
<g id="a_node5"><a xlink:href="class_o_s_1_1pkg_1_1__base_1_1_package_manager.html#a2d8c330852d08b52124e7cab9cc7f6ba" target="_top" xlink:title="Must be executable without requiring root privileges.">
<polygon fill="none" stroke="black" points="622.5,-147 622.5,-177 789.5,-177 789.5,-147 622.5,-147"/>
<text text-anchor="start" x="630.5" y="-165" font-family="Helvetica,sans-Serif" font-size="10.00">OS.pkg._base.PackageManager.is</text>
<text text-anchor="middle" x="706" y="-154" font-family="Helvetica,sans-Serif" font-size="10.00">Installed</text>
</a>
</g>
</g>
<!-- Node3&#45;&gt;Node5 -->
<g id="edge4" class="edge"><title>Node3&#45;&gt;Node5</title>
<path fill="none" stroke="midnightblue" d="M574.991,-146.523C587.247,-147.982 599.985,-149.498 612.484,-150.986"/>
<polygon fill="midnightblue" stroke="midnightblue" points="612.099,-154.465 622.443,-152.172 612.927,-147.514 612.099,-154.465"/>
</g>
<!-- Node6 -->
<g id="node6" class="node"><title>Node6</title>
<g id="a_node6"><a xlink:href="class_o_s_1_1pkg_1_1__base_1_1_package_manager.html#a96d015bb45e8fae7278a77e4e0c251df" target="_top" xlink:title="OS.pkg._base.PackageManager.\l_execAsRoot_withPkgs">
<polygon fill="none" stroke="black" points="625.5,-98 625.5,-128 786.5,-128 786.5,-98 625.5,-98"/>
<text text-anchor="start" x="633.5" y="-116" font-family="Helvetica,sans-Serif" font-size="10.00">OS.pkg._base.PackageManager.</text>
<text text-anchor="middle" x="706" y="-105" font-family="Helvetica,sans-Serif" font-size="10.00">_execAsRoot_withPkgs</text>
</a>
</g>
</g>
<!-- Node3&#45;&gt;Node6 -->
<g id="edge5" class="edge"><title>Node3&#45;&gt;Node6</title>
<path fill="none" stroke="midnightblue" d="M578.299,-127.48C590.377,-126.1 602.855,-124.674 615.056,-123.279"/>
<polygon fill="midnightblue" stroke="midnightblue" points="615.687,-126.73 625.225,-122.117 614.892,-119.775 615.687,-126.73"/>
</g>
<!-- Node7 -->
<g id="node7" class="node"><title>Node7</title>
<g id="a_node7"><a xlink:href="class_o_s_1_1pkg_1_1__apt_1_1_apt_installer.html#af0c36c4a71af6cc49103d7ca63e6d6ae" target="_top" xlink:title="OS.pkg._apt.AptInstaller.\l_install">
<polygon fill="none" stroke="black" points="645,-49 645,-79 767,-79 767,-49 645,-49"/>
<text text-anchor="start" x="653" y="-67" font-family="Helvetica,sans-Serif" font-size="10.00">OS.pkg._apt.AptInstaller.</text>
<text text-anchor="middle" x="706" y="-56" font-family="Helvetica,sans-Serif" font-size="10.00">_install</text>
</a>
</g>
</g>
<!-- Node3&#45;&gt;Node7 -->
<g id="edge6" class="edge"><title>Node3&#45;&gt;Node7</title>
<path fill="none" stroke="midnightblue" d="M518.186,-127.356C543.479,-117.001 585.269,-100.37 622,-88 627.971,-85.9892 634.216,-83.9922 640.486,-82.0586"/>
<polygon fill="midnightblue" stroke="midnightblue" points="641.765,-85.3281 650.321,-79.0794 639.736,-78.6286 641.765,-85.3281"/>
</g>
<!-- Node8 -->
<g id="node8" class="node"><title>Node8</title>
<g id="a_node8"><a xlink:href="class_o_s_1_1pkg_1_1__base_1_1_package_manager.html#a19fcb0397482254e3eb25188fd0ad575" target="_top" xlink:title="OS.pkg._base.PackageManager.\l_install">
<polygon fill="none" stroke="black" points="625.5,-0 625.5,-30 786.5,-30 786.5,-0 625.5,-0"/>
<text text-anchor="start" x="633.5" y="-18" font-family="Helvetica,sans-Serif" font-size="10.00">OS.pkg._base.PackageManager.</text>
<text text-anchor="middle" x="706" y="-7" font-family="Helvetica,sans-Serif" font-size="10.00">_install</text>
</a>
</g>
</g>
<!-- Node3&#45;&gt;Node8 -->
<g id="edge7" class="edge"><title>Node3&#45;&gt;Node8</title>
<path fill="none" stroke="midnightblue" d="M504.636,-127.442C524.735,-108.019 573.317,-63.6894 622,-39 625.763,-37.0918 629.7,-35.3133 633.729,-33.6588"/>
<polygon fill="midnightblue" stroke="midnightblue" points="635.162,-36.8582 643.256,-30.0213 632.665,-30.3187 635.162,-36.8582"/>
</g>
<!-- Node9&#45;&gt;Node4 -->
<g id="edge9" class="edge"><title>Node9&#45;&gt;Node4</title>
<path fill="none" stroke="midnightblue" d="M561.157,-227.439C583.464,-224.89 608.494,-222.029 631.343,-219.418"/>
<polygon fill="midnightblue" stroke="midnightblue" points="631.79,-222.89 641.328,-218.277 630.995,-215.935 631.79,-222.89"/>
</g>
<!-- Node9&#45;&gt;Node5 -->
<g id="edge10" class="edge"><title>Node9&#45;&gt;Node5</title>
<path fill="none" stroke="midnightblue" d="M518.699,-225.484C544.077,-215.425 585.615,-199.339 622,-187 628.859,-184.674 636.072,-182.339 643.264,-180.081"/>
<polygon fill="midnightblue" stroke="midnightblue" points="644.507,-183.36 653.023,-177.057 642.435,-176.673 644.507,-183.36"/>
</g>
<!-- Node10 -->
<g id="node10" class="node"><title>Node10</title>
<g id="a_node10"><a xlink:href="class_o_s_1_1pkg_1_1__macports_1_1_mac_port_installer.html#a26a0ac6f4da6f4aa96aee08ec7d27ee5" target="_top" xlink:title="OS.pkg._macports.MacPort\lInstaller.isInstalled">
<polygon fill="none" stroke="black" points="639,-333 639,-363 773,-363 773,-333 639,-333"/>
<text text-anchor="start" x="647" y="-351" font-family="Helvetica,sans-Serif" font-size="10.00">OS.pkg._macports.MacPort</text>
<text text-anchor="middle" x="706" y="-340" font-family="Helvetica,sans-Serif" font-size="10.00">Installer.isInstalled</text>
</a>
</g>
</g>
<!-- Node9&#45;&gt;Node10 -->
<g id="edge11" class="edge"><title>Node9&#45;&gt;Node10</title>
<path fill="none" stroke="midnightblue" d="M506.145,-244.556C527.366,-262.316 575.608,-300.632 622,-323 626.829,-325.328 631.922,-327.493 637.111,-329.494"/>
<polygon fill="midnightblue" stroke="midnightblue" points="635.925,-332.787 646.519,-332.92 638.32,-326.209 635.925,-332.787"/>
</g>
<!-- Node11 -->
<g id="node11" class="node"><title>Node11</title>
<g id="a_node11"><a xlink:href="class_o_s_1_1pkg_1_1__yum_1_1___e_p_e_l.html#a596ad970403d6b45e6474ab7af9fab34" target="_top" xlink:title="OS.pkg._yum._EPEL.isInstalled">
<polygon fill="none" stroke="black" points="630,-294.5 630,-313.5 782,-313.5 782,-294.5 630,-294.5"/>
<text text-anchor="middle" x="706" y="-301.5" font-family="Helvetica,sans-Serif" font-size="10.00">OS.pkg._yum._EPEL.isInstalled</text>
</a>
</g>
</g>
<!-- Node9&#45;&gt;Node11 -->
<g id="edge12" class="edge"><title>Node9&#45;&gt;Node11</title>
<path fill="none" stroke="midnightblue" d="M517.167,-244.579C542.267,-255.184 584.549,-272.319 622,-284 631.242,-286.883 641.17,-289.596 650.833,-292.039"/>
<polygon fill="midnightblue" stroke="midnightblue" points="650.221,-295.493 660.768,-294.483 651.893,-288.695 650.221,-295.493"/>
</g>
<!-- Node12 -->
<g id="node12" class="node"><title>Node12</title>
<g id="a_node12"><a xlink:href="class_o_s_1_1pkg_1_1__yum_1_1___e_p_e_l.html#a508814bd34851b3b6f69ced225fb93b2" target="_top" xlink:title="OS.pkg._yum._EPEL.\l_findBestEPEL">
<polygon fill="none" stroke="black" points="651,-245 651,-275 761,-275 761,-245 651,-245"/>
<text text-anchor="start" x="659" y="-263" font-family="Helvetica,sans-Serif" font-size="10.00">OS.pkg._yum._EPEL.</text>
<text text-anchor="middle" x="706" y="-252" font-family="Helvetica,sans-Serif" font-size="10.00">_findBestEPEL</text>
</a>
</g>
</g>
<!-- Node9&#45;&gt;Node12 -->
<g id="edge13" class="edge"><title>Node9&#45;&gt;Node12</title>
<path fill="none" stroke="midnightblue" d="M561.157,-242.876C586.517,-245.895 615.396,-249.333 640.59,-252.332"/>
<polygon fill="midnightblue" stroke="midnightblue" points="640.431,-255.838 650.775,-253.545 641.259,-248.887 640.431,-255.838"/>
</g>
</g>
</svg>
        <g id="navigator" transform="translate(0 0)" fill="#404254">
                <rect fill="#f2f5e9" fill-opacity="0.5" stroke="#606060" stroke-width=".5" x="0" y="0" width="60" height="60"/>
                <use id="zoomplus" xlink:href="#zoomPlus" x="17" y="9" onmousedown="handleZoom(evt,'in')"/>
                <use id="zoomminus" xlink:href="#zoomMin" x="42" y="9" onmousedown="handleZoom(evt,'out')"/>
                <use id="reset" xlink:href="#resetDef" x="30" y="36" onmousedown="handleReset()"/>
                <g id="arrowUp" xlink:href="#dirArrow" transform="translate(30 24)" onmousedown="handlePan(0,-1)">
                  <use xlink:href="#rim" fill="#404040">
                        <set attributeName="fill" to="#808080" begin="arrowUp.mouseover" end="arrowUp.mouseout"/>
                  </use>
                  <path fill="none" stroke="white" stroke-width="1.5" d="M0,-3.0v7 M-2.5,-0.5L0,-3.0L2.5,-0.5"/>
                </g>
                <g id="arrowRight" xlink:href="#dirArrow" transform="rotate(90) translate(36 -43)" onmousedown="handlePan(1,0)">
                  <use xlink:href="#rim" fill="#404040">
                        <set attributeName="fill" to="#808080" begin="arrowRight.mouseover" end="arrowRight.mouseout"/>
                  </use>
                  <path fill="none" stroke="white" stroke-width="1.5" d="M0,-3.0v7 M-2.5,-0.5L0,-3.0L2.5,-0.5"/>
                </g>
                <g id="arrowDown" xlink:href="#dirArrow" transform="rotate(180) translate(-30 -48)" onmousedown="handlePan(0,1)">
                  <use xlink:href="#rim" fill="#404040">
                        <set attributeName="fill" to="#808080" begin="arrowDown.mouseover" end="arrowDown.mouseout"/>
                  </use>
                  <path fill="none" stroke="white" stroke-width="1.5" d="M0,-3.0v7 M-2.5,-0.5L0,-3.0L2.5,-0.5"/>
                </g>
                <g id="arrowLeft" xlink:href="#dirArrow" transform="rotate(270) translate(-36 17)" onmousedown="handlePan(-1,0)">
                  <use xlink:href="#rim" fill="#404040">
                        <set attributeName="fill" to="#808080" begin="arrowLeft.mouseover" end="arrowLeft.mouseout"/>
                  </use>
                  <path fill="none" stroke="white" stroke-width="1.5" d="M0,-3.0v7 M-2.5,-0.5L0,-3.0L2.5,-0.5"/>
                </g>
        </g>
        <svg viewBox="0 0 15 15" width="100%" height="30px" preserveAspectRatio="xMaxYMin meet">
         <g id="arrow_out" transform="scale(0.3 0.3)">
          <a xlink:href="class_o_s_1_1pkg_1_1__base_1_1_package_manager_ab78460e53fabcaf52835cc135f6a02a7_cgraph_org.svg" target="_base">
           <rect id="button" ry="5" rx="5" y="6" x="6" height="38" width="38"
                fill="#f2f5e9" fill-opacity="0.5" stroke="#606060" stroke-width="1.0"/>
           <path id="arrow"
             d="M 11.500037,31.436501 C 11.940474,20.09759 22.043105,11.32322 32.158766,21.979434 L 37.068811,17.246167 C 37.068811,17.246167 37.088388,32 37.088388,32 L 22.160133,31.978069 C 22.160133,31.978069 26.997745,27.140456 26.997745,27.140456 C 18.528582,18.264221 13.291696,25.230495 11.500037,31.436501 z"
             style="fill:#404040;"/>
          </a>
         </g>
        </svg>
</svg>
