<?xml version="1.0" encoding="UTF-8" standalone="no"?>
<!DOCTYPE svg PUBLIC "-//W3C//DTD SVG 1.1//EN"
 "http://www.w3.org/Graphics/SVG/1.1/DTD/svg11.dtd">
<!-- Generated by graphviz version 2.30.1 (20130219.2202)
 -->
<!-- Title: OS.pkg._apt.AptInstaller.updateKernel Pages: 1 -->
<svg width="374pt" height="87pt"
 viewBox="0.00 0.00 374.00 87.00" xmlns="http://www.w3.org/2000/svg" xmlns:xlink="http://www.w3.org/1999/xlink">
<g id="graph0" class="graph" transform="scale(1 1) rotate(0) translate(4 83)">
<title>OS.pkg._apt.AptInstaller.updateKernel</title>
<!-- Node1 -->
<g id="node1" class="node"><title>Node1</title>
<polygon fill="#bfbfbf" stroke="black" points="0,-24 0,-54 152,-54 152,-24 0,-24"/>
<text text-anchor="start" x="8" y="-42" font-family="Helvetica,sans-Serif" font-size="10.00">OS.pkg._apt.AptInstaller.update</text>
<text text-anchor="middle" x="76" y="-31" font-family="Helvetica,sans-Serif" font-size="10.00">Kernel</text>
</g>
<!-- Node2 -->
<g id="node2" class="node"><title>Node2</title>
<g id="a_node2"><a xlink:href="class_o_s_1_1pkg_1_1__base_1_1_package_manager.html#a24dc28b910768a2560b8797193426d45" target="_top" xlink:title="OS.pkg._base.PackageManager.\l_execAsRoot_pkgManagerCommand">
<polygon fill="none" stroke="black" points="188,-49 188,-79 366,-79 366,-49 188,-49"/>
<text text-anchor="start" x="196" y="-67" font-family="Helvetica,sans-Serif" font-size="10.00">OS.pkg._base.PackageManager.</text>
<text text-anchor="middle" x="277" y="-56" font-family="Helvetica,sans-Serif" font-size="10.00">_execAsRoot_pkgManagerCommand</text>
</a>
</g>
</g>
<!-- Node1&#45;&gt;Node2 -->
<g id="edge1" class="edge"><title>Node1&#45;&gt;Node2</title>
<path fill="none" stroke="midnightblue" d="M152.233,-48.4514C160.619,-49.5049 169.249,-50.5891 177.866,-51.6716"/>
<polygon fill="midnightblue" stroke="midnightblue" points="177.602,-55.1658 187.96,-52.9397 178.474,-48.2204 177.602,-55.1658"/>
</g>
<!-- Node3 -->
<g id="node3" class="node"><title>Node3</title>
<g id="a_node3"><a xlink:href="class_o_s_1_1pkg_1_1__apt_1_1_apt_installer.html#ab1fd18f6db1d9063c114c0b21f96ce0b" target="_top" xlink:title="OS.pkg._apt.AptInstaller.\l_updateKernel">
<polygon fill="none" stroke="black" points="216,-0 216,-30 338,-30 338,-0 216,-0"/>
<text text-anchor="start" x="224" y="-18" font-family="Helvetica,sans-Serif" font-size="10.00">OS.pkg._apt.AptInstaller.</text>
<text text-anchor="middle" x="277" y="-7" font-family="Helvetica,sans-Serif" font-size="10.00">_updateKernel</text>
</a>
</g>
</g>
<!-- Node1&#45;&gt;Node3 -->
<g id="edge2" class="edge"><title>Node1&#45;&gt;Node3</title>
<path fill="none" stroke="midnightblue" d="M152.233,-29.9266C169.807,-27.8072 188.456,-25.5581 205.801,-23.4663"/>
<polygon fill="midnightblue" stroke="midnightblue" points="206.335,-26.9272 215.844,-22.255 205.497,-19.9776 206.335,-26.9272"/>
</g>
</g>
</svg>
