<?xml version="1.0" encoding="UTF-8" standalone="no"?>
<!DOCTYPE svg PUBLIC "-//W3C//DTD SVG 1.1//EN"
 "http://www.w3.org/Graphics/SVG/1.1/DTD/svg11.dtd">
<!-- Generated by graphviz version 2.28.0 (20121214.2254)
 -->
<!-- Title: OS.pkg.yum.YumInstaller.update Pages: 1 -->
<svg width="362pt" height="136pt"
 viewBox="0.00 0.00 362.00 136.00" xmlns="http://www.w3.org/2000/svg" xmlns:xlink="http://www.w3.org/1999/xlink">
<g id="graph1" class="graph" transform="scale(1 1) rotate(0) translate(4 132)">
<title>OS.pkg.yum.YumInstaller.update</title>
<!-- Node1 -->
<g id="node1" class="node"><title>Node1</title>
<polygon fill="#bfbfbf" stroke="black" points="0.5,-54.5 0.5,-73.5 155.5,-73.5 155.5,-54.5 0.5,-54.5"/>
<text text-anchor="middle" x="78" y="-61.5" font-family="Helvetica,sans-Serif" font-size="10.00">OS.pkg.yum.YumInstaller.update</text>
</g>
<!-- Node2 -->
<g id="node3" class="node"><title>Node2</title>
<a xlink:href="class_o_s_1_1pkg_1_1apt_1_1_apt_installer.html#a721544fb2131f2396926e557aa2e44a1" target="_top" xlink:title="OS.pkg.apt.AptInstaller.\l_updatePackageIndex">
<polygon fill="none" stroke="black" points="214.5,-98 214.5,-128 331.5,-128 331.5,-98 214.5,-98"/>
<text text-anchor="start" x="222.5" y="-116" font-family="Helvetica,sans-Serif" font-size="10.00">OS.pkg.apt.AptInstaller.</text>
<text text-anchor="middle" x="273" y="-105" font-family="Helvetica,sans-Serif" font-size="10.00">_updatePackageIndex</text>
</a>
</g>
<!-- Node1&#45;&gt;Node2 -->
<g id="edge2" class="edge"><title>Node1&#45;&gt;Node2</title>
<path fill="none" stroke="midnightblue" d="M116.671,-73.564C141.606,-79.8948 175.016,-88.377 204.461,-95.8527"/>
<polygon fill="midnightblue" stroke="midnightblue" points="203.723,-99.2763 214.276,-98.3448 205.445,-92.4916 203.723,-99.2763"/>
</g>
<!-- Node3 -->
<g id="node5" class="node"><title>Node3</title>
<a xlink:href="class_o_s_1_1pkg_1_1macports_1_1_mac_port_installer.html#a36a164a74432a3d803e2e48e2c9d3709" target="_top" xlink:title="OS.pkg.macports.MacPortInstaller.\l_updatePackageIndex">
<polygon fill="none" stroke="black" points="192,-49 192,-79 354,-79 354,-49 192,-49"/>
<text text-anchor="start" x="200" y="-67" font-family="Helvetica,sans-Serif" font-size="10.00">OS.pkg.macports.MacPortInstaller.</text>
<text text-anchor="middle" x="273" y="-56" font-family="Helvetica,sans-Serif" font-size="10.00">_updatePackageIndex</text>
</a>
</g>
<!-- Node1&#45;&gt;Node3 -->
<g id="edge4" class="edge"><title>Node1&#45;&gt;Node3</title>
<path fill="none" stroke="midnightblue" d="M155.556,-64C164.104,-64 172.87,-64 181.57,-64"/>
<polygon fill="midnightblue" stroke="midnightblue" points="181.735,-67.5001 191.735,-64 181.735,-60.5001 181.735,-67.5001"/>
</g>
<!-- Node4 -->
<g id="node7" class="node"><title>Node4</title>
<a xlink:href="class_o_s_1_1pkg_1_1yum_1_1_yum_installer.html#afadf31d60f42e27a9f3f9bdb49a991c1" target="_top" xlink:title="OS.pkg.yum.YumInstaller.\l_updatePackageIndex">
<polygon fill="none" stroke="black" points="210.5,-0 210.5,-30 335.5,-30 335.5,-0 210.5,-0"/>
<text text-anchor="start" x="218.5" y="-18" font-family="Helvetica,sans-Serif" font-size="10.00">OS.pkg.yum.YumInstaller.</text>
<text text-anchor="middle" x="273" y="-7" font-family="Helvetica,sans-Serif" font-size="10.00">_updatePackageIndex</text>
</a>
</g>
<!-- Node1&#45;&gt;Node4 -->
<g id="edge6" class="edge"><title>Node1&#45;&gt;Node4</title>
<path fill="none" stroke="midnightblue" d="M116.671,-54.436C141.212,-48.2053 173.961,-39.8906 203.061,-32.5026"/>
<polygon fill="midnightblue" stroke="midnightblue" points="203.942,-35.8902 212.773,-30.037 202.219,-29.1055 203.942,-35.8902"/>
</g>
</g>
</svg>
