<?xml version="1.0" encoding="UTF-8" standalone="no"?>
<!DOCTYPE svg PUBLIC "-//W3C//DTD SVG 1.1//EN"
 "http://www.w3.org/Graphics/SVG/1.1/DTD/svg11.dtd">
<!-- Generated by graphviz version 2.30.1 (20130221.2233)
 -->
<!-- Title: OS.pkg._base.PackageManager.updatePackageIndex Pages: 1 -->
<svg width="402pt" height="87pt"
 viewBox="0.00 0.00 402.00 87.00" xmlns="http://www.w3.org/2000/svg" xmlns:xlink="http://www.w3.org/1999/xlink">
<g id="graph0" class="graph" transform="scale(1 1) rotate(0) translate(4 83)">
<title>OS.pkg._base.PackageManager.updatePackageIndex</title>
<!-- Node1 -->
<g id="node1" class="node"><title>Node1</title>
<polygon fill="#bfbfbf" stroke="black" points="0,-24 0,-54 194,-54 194,-24 0,-24"/>
<text text-anchor="start" x="8" y="-42" font-family="Helvetica,sans-Serif" font-size="10.00">OS.pkg._base.PackageManager.update</text>
<text text-anchor="middle" x="97" y="-31" font-family="Helvetica,sans-Serif" font-size="10.00">PackageIndex</text>
</g>
<!-- Node2 -->
<g id="node2" class="node"><title>Node2</title>
<g id="a_node2"><a xlink:href="class_o_s_1_1pkg_1_1__apt_1_1_apt_installer.html#ad2fa22e454c7a7eccf266a57f982cb4e" target="_top" xlink:title="OS.pkg._apt.AptInstaller.\l_updatePackageIndex">
<polygon fill="none" stroke="black" points="248,-49 248,-79 376,-79 376,-49 248,-49"/>
<text text-anchor="start" x="256" y="-67" font-family="Helvetica,sans-Serif" font-size="10.00">OS.pkg._apt.AptInstaller.</text>
<text text-anchor="middle" x="312" y="-56" font-family="Helvetica,sans-Serif" font-size="10.00">_updatePackageIndex</text>
</a>
</g>
</g>
<!-- Node1&#45;&gt;Node2 -->
<g id="edge1" class="edge"><title>Node1&#45;&gt;Node2</title>
<path fill="none" stroke="midnightblue" d="M194.218,-50.2932C208.856,-52.0112 223.755,-53.76 237.796,-55.408"/>
<polygon fill="midnightblue" stroke="midnightblue" points="237.513,-58.8987 247.852,-56.5883 238.329,-51.9464 237.513,-58.8987"/>
</g>
<!-- Node3 -->
<g id="node3" class="node"><title>Node3</title>
<g id="a_node3"><a xlink:href="class_o_s_1_1pkg_1_1__base_1_1_package_manager.html#a039eb503da3849c3c87b6395a5216ea6" target="_top" xlink:title="OS.pkg._base.PackageManager.\l_updatePackageIndex">
<polygon fill="none" stroke="black" points="230,-0 230,-30 394,-30 394,-0 230,-0"/>
<text text-anchor="start" x="238" y="-18" font-family="Helvetica,sans-Serif" font-size="10.00">OS.pkg._base.PackageManager.</text>
<text text-anchor="middle" x="312" y="-7" font-family="Helvetica,sans-Serif" font-size="10.00">_updatePackageIndex</text>
</a>
</g>
</g>
<!-- Node1&#45;&gt;Node3 -->
<g id="edge2" class="edge"><title>Node1&#45;&gt;Node3</title>
<path fill="none" stroke="midnightblue" d="M194.218,-28.1585C202.683,-27.2048 211.235,-26.2411 219.658,-25.292"/>
<polygon fill="midnightblue" stroke="midnightblue" points="220.309,-28.7409 229.854,-24.1432 219.525,-21.7849 220.309,-28.7409"/>
</g>
</g>
</svg>
