<?xml version="1.0" encoding="UTF-8" standalone="no"?>
<!DOCTYPE svg PUBLIC "-//W3C//DTD SVG 1.1//EN"
 "http://www.w3.org/Graphics/SVG/1.1/DTD/svg11.dtd">
<!-- Generated by graphviz version 2.30.1 (20130219.2202)
 -->
<!-- Title: OS.pkg._base.PackageManager.remove Pages: 1 -->
<svg width="404pt" height="234pt"
 viewBox="0.00 0.00 404.00 234.00" xmlns="http://www.w3.org/2000/svg" xmlns:xlink="http://www.w3.org/1999/xlink">
<g id="graph0" class="graph" transform="scale(1 1) rotate(0) translate(4 230)">
<title>OS.pkg._base.PackageManager.remove</title>
<!-- Node1 -->
<g id="node1" class="node"><title>Node1</title>
<polygon fill="#bfbfbf" stroke="black" points="0.5,-103.5 0.5,-122.5 191.5,-122.5 191.5,-103.5 0.5,-103.5"/>
<text text-anchor="middle" x="96" y="-110.5" font-family="Helvetica,sans-Serif" font-size="10.00">OS.pkg._base.PackageManager.remove</text>
</g>
<!-- Node2 -->
<g id="node2" class="node"><title>Node2</title>
<g id="a_node2"><a xlink:href="class_o_s_1_1pkg_1_1__apt_1_1_apt_installer.html#a1cd4147589ee55bebc8356005ca87c9c" target="_top" xlink:title="OS.pkg._apt.AptInstaller.is\lInstalled">
<polygon fill="none" stroke="black" points="247.5,-196 247.5,-226 376.5,-226 376.5,-196 247.5,-196"/>
<text text-anchor="start" x="255.5" y="-214" font-family="Helvetica,sans-Serif" font-size="10.00">OS.pkg._apt.AptInstaller.is</text>
<text text-anchor="middle" x="312" y="-203" font-family="Helvetica,sans-Serif" font-size="10.00">Installed</text>
</a>
</g>
</g>
<!-- Node1&#45;&gt;Node2 -->
<g id="edge1" class="edge"><title>Node1&#45;&gt;Node2</title>
<path fill="none" stroke="midnightblue" d="M111.789,-122.643C135.51,-137.783 183.885,-167.323 228,-186 233.504,-188.33 239.299,-190.539 245.161,-192.609"/>
<polygon fill="midnightblue" stroke="midnightblue" points="244.456,-196.065 255.05,-195.956 246.7,-189.434 244.456,-196.065"/>
</g>
<!-- Node3 -->
<g id="node3" class="node"><title>Node3</title>
<g id="a_node3"><a xlink:href="class_o_s_1_1pkg_1_1__base_1_1_package_manager.html#a2d8c330852d08b52124e7cab9cc7f6ba" target="_top" xlink:title="Must be executable without requiring root privileges.">
<polygon fill="none" stroke="black" points="228.5,-147 228.5,-177 395.5,-177 395.5,-147 228.5,-147"/>
<text text-anchor="start" x="236.5" y="-165" font-family="Helvetica,sans-Serif" font-size="10.00">OS.pkg._base.PackageManager.is</text>
<text text-anchor="middle" x="312" y="-154" font-family="Helvetica,sans-Serif" font-size="10.00">Installed</text>
</a>
</g>
</g>
<!-- Node1&#45;&gt;Node3 -->
<g id="edge2" class="edge"><title>Node1&#45;&gt;Node3</title>
<path fill="none" stroke="midnightblue" d="M138.515,-122.506C165.943,-128.786 202.699,-137.202 235.232,-144.651"/>
<polygon fill="midnightblue" stroke="midnightblue" points="234.65,-148.108 245.178,-146.929 236.212,-141.285 234.65,-148.108"/>
</g>
<!-- Node4 -->
<g id="node4" class="node"><title>Node4</title>
<g id="a_node4"><a xlink:href="class_o_s_1_1pkg_1_1__base_1_1_package_manager.html#a96d015bb45e8fae7278a77e4e0c251df" target="_top" xlink:title="OS.pkg._base.PackageManager.\l_execAsRoot_withPkgs">
<polygon fill="none" stroke="black" points="231.5,-98 231.5,-128 392.5,-128 392.5,-98 231.5,-98"/>
<text text-anchor="start" x="239.5" y="-116" font-family="Helvetica,sans-Serif" font-size="10.00">OS.pkg._base.PackageManager.</text>
<text text-anchor="middle" x="312" y="-105" font-family="Helvetica,sans-Serif" font-size="10.00">_execAsRoot_withPkgs</text>
</a>
</g>
</g>
<!-- Node1&#45;&gt;Node4 -->
<g id="edge3" class="edge"><title>Node1&#45;&gt;Node4</title>
<path fill="none" stroke="midnightblue" d="M191.798,-113C201.589,-113 211.518,-113 221.252,-113"/>
<polygon fill="midnightblue" stroke="midnightblue" points="221.311,-116.5 231.311,-113 221.311,-109.5 221.311,-116.5"/>
</g>
<!-- Node5 -->
<g id="node5" class="node"><title>Node5</title>
<g id="a_node5"><a xlink:href="class_o_s_1_1pkg_1_1__apt_1_1_apt_installer.html#a3a5b8b1db9ecbcaa6069aacabfa9fdee" target="_top" xlink:title="OS.pkg._apt.AptInstaller.\l_remove">
<polygon fill="none" stroke="black" points="251,-49 251,-79 373,-79 373,-49 251,-49"/>
<text text-anchor="start" x="259" y="-67" font-family="Helvetica,sans-Serif" font-size="10.00">OS.pkg._apt.AptInstaller.</text>
<text text-anchor="middle" x="312" y="-56" font-family="Helvetica,sans-Serif" font-size="10.00">_remove</text>
</a>
</g>
</g>
<!-- Node1&#45;&gt;Node5 -->
<g id="edge4" class="edge"><title>Node1&#45;&gt;Node5</title>
<path fill="none" stroke="midnightblue" d="M138.515,-103.494C167.61,-96.8323 207.201,-87.767 241.115,-80.0018"/>
<polygon fill="midnightblue" stroke="midnightblue" points="242.009,-83.3876 250.976,-77.7438 240.447,-76.5641 242.009,-83.3876"/>
</g>
<!-- Node6 -->
<g id="node6" class="node"><title>Node6</title>
<g id="a_node6"><a xlink:href="class_o_s_1_1pkg_1_1__base_1_1_package_manager.html#a174336a553a5defabcd5ebfec7248203" target="_top" xlink:title="OS.pkg._base.PackageManager.\l_remove">
<polygon fill="none" stroke="black" points="231.5,-0 231.5,-30 392.5,-30 392.5,-0 231.5,-0"/>
<text text-anchor="start" x="239.5" y="-18" font-family="Helvetica,sans-Serif" font-size="10.00">OS.pkg._base.PackageManager.</text>
<text text-anchor="middle" x="312" y="-7" font-family="Helvetica,sans-Serif" font-size="10.00">_remove</text>
</a>
</g>
</g>
<!-- Node1&#45;&gt;Node6 -->
<g id="edge5" class="edge"><title>Node1&#45;&gt;Node6</title>
<path fill="none" stroke="midnightblue" d="M111.789,-103.357C135.51,-88.2175 183.885,-58.6766 228,-40 233.504,-37.6697 239.299,-35.4607 245.161,-33.3914"/>
<polygon fill="midnightblue" stroke="midnightblue" points="246.7,-36.5655 255.05,-30.0442 244.456,-29.935 246.7,-36.5655"/>
</g>
</g>
</svg>
