<?xml version="1.0" encoding="UTF-8" standalone="no"?>
<!DOCTYPE svg PUBLIC "-//W3C//DTD SVG 1.1//EN"
 "http://www.w3.org/Graphics/SVG/1.1/DTD/svg11.dtd">
<!-- Generated by graphviz version 2.30.1 (20130221.2233)
 -->
<!-- Title: OS._OS.CMD_ProcOutputException Pages: 1 -->
<svg width="186pt" height="254pt"
 viewBox="0.00 0.00 186.00 254.00" xmlns="http://www.w3.org/2000/svg" xmlns:xlink="http://www.w3.org/1999/xlink">
<g id="graph0" class="graph" transform="scale(1 1) rotate(0) translate(4 250)">
<title>OS._OS.CMD_ProcOutputException</title>
<!-- Node1 -->
<g id="node1" class="node"><title>Node1</title>
<polygon fill="#bfbfbf" stroke="black" points="-0.5,-0.5 -0.5,-57.5 178.5,-57.5 178.5,-0.5 -0.5,-0.5"/>
<text text-anchor="middle" x="89" y="-45.5" font-family="Helvetica,sans-Serif" font-size="10.00">OS._OS.CMD_ProcOutputException</text>
<polyline fill="none" stroke="black" points="-0.5,-38.5 178.5,-38.5 "/>
<text text-anchor="middle" x="89" y="-26.5" font-family="Helvetica,sans-Serif" font-size="10.00"> </text>
<polyline fill="none" stroke="black" points="-0.5,-19.5 178.5,-19.5 "/>
<text text-anchor="start" x="7.5" y="-7.5" font-family="Helvetica,sans-Serif" font-size="10.00">+ __init__()</text>
</g>
<!-- Node2 -->
<g id="node2" class="node"><title>Node2</title>
<g id="a_node2"><a xlink:href="class_o_s_1_1___o_s_1_1_c_m_d___proc_exception.html" target="_top" xlink:title="{OS._OS.CMD_ProcException\n|+ proc\l|+ __init__()\l}">
<polygon fill="none" stroke="black" points="14.5,-94.5 14.5,-151.5 163.5,-151.5 163.5,-94.5 14.5,-94.5"/>
<text text-anchor="middle" x="89" y="-139.5" font-family="Helvetica,sans-Serif" font-size="10.00">OS._OS.CMD_ProcException</text>
<polyline fill="none" stroke="black" points="14.5,-132.5 163.5,-132.5 "/>
<text text-anchor="start" x="22.5" y="-120.5" font-family="Helvetica,sans-Serif" font-size="10.00">+ proc</text>
<polyline fill="none" stroke="black" points="14.5,-113.5 163.5,-113.5 "/>
<text text-anchor="start" x="22.5" y="-101.5" font-family="Helvetica,sans-Serif" font-size="10.00">+ __init__()</text>
</a>
</g>
</g>
<!-- Node2&#45;&gt;Node1 -->
<g id="edge1" class="edge"><title>Node2&#45;&gt;Node1</title>
<path fill="none" stroke="midnightblue" d="M89,-84.2092C89,-75.2929 89,-65.9513 89,-57.5836"/>
<polygon fill="none" stroke="midnightblue" points="85.5001,-84.3969 89,-94.397 92.5001,-84.397 85.5001,-84.3969"/>
</g>
<!-- Node3 -->
<g id="node3" class="node"><title>Node3</title>
<g id="a_node3"><a xlink:href="class_exception.html" target="_top" xlink:title="{Exception\n||}">
<polygon fill="none" stroke="black" points="24,-188.5 24,-245.5 84,-245.5 84,-188.5 24,-188.5"/>
<text text-anchor="middle" x="54" y="-233.5" font-family="Helvetica,sans-Serif" font-size="10.00">Exception</text>
<polyline fill="none" stroke="black" points="24,-226.5 84,-226.5 "/>
<text text-anchor="middle" x="54" y="-214.5" font-family="Helvetica,sans-Serif" font-size="10.00"> </text>
<polyline fill="none" stroke="black" points="24,-207.5 84,-207.5 "/>
<text text-anchor="middle" x="54" y="-195.5" font-family="Helvetica,sans-Serif" font-size="10.00"> </text>
</a>
</g>
</g>
<!-- Node3&#45;&gt;Node2 -->
<g id="edge2" class="edge"><title>Node3&#45;&gt;Node2</title>
<path fill="none" stroke="midnightblue" d="M68.156,-178.79C71.6143,-169.699 75.2537,-160.133 78.5063,-151.584"/>
<polygon fill="none" stroke="midnightblue" points="64.7857,-177.806 64.5012,-188.397 71.3282,-180.295 64.7857,-177.806"/>
</g>
<!-- Node4 -->
<g id="node4" class="node"><title>Node4</title>
<g id="a_node4"><a xlink:href="classobject.html" target="_top" xlink:title="{object\n||}">
<polygon fill="none" stroke="black" points="102.5,-188.5 102.5,-245.5 145.5,-245.5 145.5,-188.5 102.5,-188.5"/>
<text text-anchor="middle" x="124" y="-233.5" font-family="Helvetica,sans-Serif" font-size="10.00">object</text>
<polyline fill="none" stroke="black" points="102.5,-226.5 145.5,-226.5 "/>
<text text-anchor="middle" x="124" y="-214.5" font-family="Helvetica,sans-Serif" font-size="10.00"> </text>
<polyline fill="none" stroke="black" points="102.5,-207.5 145.5,-207.5 "/>
<text text-anchor="middle" x="124" y="-195.5" font-family="Helvetica,sans-Serif" font-size="10.00"> </text>
</a>
</g>
</g>
<!-- Node4&#45;&gt;Node2 -->
<g id="edge3" class="edge"><title>Node4&#45;&gt;Node2</title>
<path fill="none" stroke="midnightblue" d="M109.844,-178.79C106.386,-169.699 102.746,-160.133 99.4937,-151.584"/>
<polygon fill="none" stroke="midnightblue" points="106.672,-180.295 113.499,-188.397 113.214,-177.806 106.672,-180.295"/>
</g>
</g>
</svg>
