<?xml version="1.0" encoding="UTF-8" standalone="no"?>
<!DOCTYPE svg PUBLIC "-//W3C//DTD SVG 1.1//EN"
 "http://www.w3.org/Graphics/SVG/1.1/DTD/svg11.dtd">
<!-- Generated by graphviz version 2.30.1 (20130221.2233)
 -->
<!-- Title: OS.pkg._base.PackageManager.install Pages: 1 -->
<svg width="570pt" height="38pt"
 viewBox="0.00 0.00 570.00 38.00" xmlns="http://www.w3.org/2000/svg" xmlns:xlink="http://www.w3.org/1999/xlink">
<g id="graph0" class="graph" transform="scale(1 1) rotate(0) translate(4 34)">
<title>OS.pkg._base.PackageManager.install</title>
<!-- Node1 -->
<g id="node1" class="node"><title>Node1</title>
<polygon fill="#bfbfbf" stroke="black" points="0.5,-5.5 0.5,-24.5 189.5,-24.5 189.5,-5.5 0.5,-5.5"/>
<text text-anchor="middle" x="95" y="-12.5" font-family="Helvetica,sans-Serif" font-size="10.00">OS.pkg._base.PackageManager.install</text>
</g>
<!-- Node2 -->
<g id="node2" class="node"><title>Node2</title>
<g id="a_node2"><a xlink:href="class_o_s_1_1pkg_1_1__apt_1_1_apt_installer.html#ae6235991c2c72e8eb41a5bc8543f2808" target="_top" xlink:title="OS.pkg._apt.AptInstaller.is\lSupported">
<polygon fill="none" stroke="black" points="226.5,-0 226.5,-30 361.5,-30 361.5,-0 226.5,-0"/>
<text text-anchor="start" x="234.5" y="-18" font-family="Helvetica,sans-Serif" font-size="10.00">OS.pkg._apt.AptInstaller.is</text>
<text text-anchor="middle" x="294" y="-7" font-family="Helvetica,sans-Serif" font-size="10.00">Supported</text>
</a>
</g>
</g>
<!-- Node1&#45;&gt;Node2 -->
<g id="edge1" class="edge"><title>Node1&#45;&gt;Node2</title>
<path fill="none" stroke="midnightblue" d="M199.783,-15C208.798,-15 217.753,-15 226.346,-15"/>
<polygon fill="midnightblue" stroke="midnightblue" points="199.596,-11.5001 189.596,-15 199.596,-18.5001 199.596,-11.5001"/>
</g>
<!-- Node3 -->
<g id="node3" class="node"><title>Node3</title>
<g id="a_node3"><a xlink:href="class_o_s_1_1pkg_1_1__base_1_1_package_manager.html#ab78460e53fabcaf52835cc135f6a02a7" target="_top" xlink:title="OS.pkg._base.PackageManager.\l__init__">
<polygon fill="none" stroke="black" points="398,-0 398,-30 562,-30 562,-0 398,-0"/>
<text text-anchor="start" x="406" y="-18" font-family="Helvetica,sans-Serif" font-size="10.00">OS.pkg._base.PackageManager.</text>
<text text-anchor="middle" x="480" y="-7" font-family="Helvetica,sans-Serif" font-size="10.00">__init__</text>
</a>
</g>
</g>
<!-- Node2&#45;&gt;Node3 -->
<g id="edge2" class="edge"><title>Node2&#45;&gt;Node3</title>
<path fill="none" stroke="midnightblue" d="M371.703,-15C380.323,-15 389.126,-15 397.8,-15"/>
<polygon fill="midnightblue" stroke="midnightblue" points="371.688,-11.5001 361.688,-15 371.688,-18.5001 371.688,-11.5001"/>
</g>
</g>
</svg>
