<?xml version="1.0" encoding="UTF-8" standalone="no"?>
<!DOCTYPE svg PUBLIC "-//W3C//DTD SVG 1.1//EN"
 "http://www.w3.org/Graphics/SVG/1.1/DTD/svg11.dtd">
<!-- Generated by graphviz version 2.30.1 (20130221.2233)
 -->
<!-- Title: OS.pkg._yum._YumDummyCallback Pages: 1 -->
<svg width="186pt" height="160pt"
 viewBox="0.00 0.00 186.00 160.00" xmlns="http://www.w3.org/2000/svg" xmlns:xlink="http://www.w3.org/1999/xlink">
<g id="graph0" class="graph" transform="scale(1 1) rotate(0) translate(4 156)">
<title>OS.pkg._yum._YumDummyCallback</title>
<!-- Node1 -->
<g id="node1" class="node"><title>Node1</title>
<polygon fill="#bfbfbf" stroke="black" points="-0.5,-0.5 -0.5,-57.5 178.5,-57.5 178.5,-0.5 -0.5,-0.5"/>
<text text-anchor="middle" x="89" y="-45.5" font-family="Helvetica,sans-Serif" font-size="10.00">OS.pkg._yum._YumDummyCallback</text>
<polyline fill="none" stroke="black" points="-0.5,-38.5 178.5,-38.5 "/>
<text text-anchor="middle" x="89" y="-26.5" font-family="Helvetica,sans-Serif" font-size="10.00"> </text>
<polyline fill="none" stroke="black" points="-0.5,-19.5 178.5,-19.5 "/>
<text text-anchor="start" x="7.5" y="-7.5" font-family="Helvetica,sans-Serif" font-size="10.00">+ event()</text>
</g>
<!-- Node2 -->
<g id="node2" class="node"><title>Node2</title>
<g id="a_node2"><a xlink:href="classobject.html" target="_top" xlink:title="{object\n||}">
<polygon fill="none" stroke="black" points="67.5,-94.5 67.5,-151.5 110.5,-151.5 110.5,-94.5 67.5,-94.5"/>
<text text-anchor="middle" x="89" y="-139.5" font-family="Helvetica,sans-Serif" font-size="10.00">object</text>
<polyline fill="none" stroke="black" points="67.5,-132.5 110.5,-132.5 "/>
<text text-anchor="middle" x="89" y="-120.5" font-family="Helvetica,sans-Serif" font-size="10.00"> </text>
<polyline fill="none" stroke="black" points="67.5,-113.5 110.5,-113.5 "/>
<text text-anchor="middle" x="89" y="-101.5" font-family="Helvetica,sans-Serif" font-size="10.00"> </text>
</a>
</g>
</g>
<!-- Node2&#45;&gt;Node1 -->
<g id="edge1" class="edge"><title>Node2&#45;&gt;Node1</title>
<path fill="none" stroke="midnightblue" d="M89,-84.2092C89,-75.2929 89,-65.9513 89,-57.5836"/>
<polygon fill="none" stroke="midnightblue" points="85.5001,-84.3969 89,-94.397 92.5001,-84.397 85.5001,-84.3969"/>
</g>
</g>
</svg>
