<?xml version="1.0" encoding="UTF-8" standalone="no"?>
<!DOCTYPE svg PUBLIC "-//W3C//DTD SVG 1.1//EN"
 "http://www.w3.org/Graphics/SVG/1.1/DTD/svg11.dtd">
<!-- Generated by graphviz version 2.30.1 (20130219.2202)
 -->
<!-- Title: OS.pkg._apt.AptInstaller.__init__ Pages: 1 -->
<svg width="328pt" height="126pt"
 viewBox="0.00 0.00 328.00 126.00" xmlns="http://www.w3.org/2000/svg" xmlns:xlink="http://www.w3.org/1999/xlink">
<g id="graph0" class="graph" transform="scale(1 1) rotate(0) translate(4 122)">
<title>OS.pkg._apt.AptInstaller.__init__</title>
<!-- Node1 -->
<g id="node1" class="node"><title>Node1</title>
<polygon fill="#bfbfbf" stroke="black" points="0,-49 0,-79 122,-79 122,-49 0,-49"/>
<text text-anchor="start" x="8" y="-67" font-family="Helvetica,sans-Serif" font-size="10.00">OS.pkg._apt.AptInstaller.</text>
<text text-anchor="middle" x="61" y="-56" font-family="Helvetica,sans-Serif" font-size="10.00">__init__</text>
</g>
<!-- Node2 -->
<g id="node2" class="node"><title>Node2</title>
<g id="a_node2"><a xlink:href="class_o_s_1_1pkg_1_1__apt_1_1_apt_installer.html#aa28edc779458632cddeda65f4211943d" target="_top" xlink:title="OS.pkg._apt.AptInstaller._init">
<polygon fill="none" stroke="black" points="170,-98.5 170,-117.5 308,-117.5 308,-98.5 170,-98.5"/>
<text text-anchor="middle" x="239" y="-105.5" font-family="Helvetica,sans-Serif" font-size="10.00">OS.pkg._apt.AptInstaller._init</text>
</a>
</g>
</g>
<!-- Node1&#45;&gt;Node2 -->
<g id="edge1" class="edge"><title>Node1&#45;&gt;Node2</title>
<path fill="none" stroke="midnightblue" d="M122.077,-79.0192C144.242,-84.5604 169.043,-90.7607 190,-95.9999"/>
<polygon fill="midnightblue" stroke="midnightblue" points="189.4,-99.4577 199.95,-98.4876 191.098,-92.6667 189.4,-99.4577"/>
</g>
<!-- Node3 -->
<g id="node3" class="node"><title>Node3</title>
<g id="a_node3"><a xlink:href="class_o_s_1_1pkg_1_1__base_1_1_package_manager.html#a96d015bb45e8fae7278a77e4e0c251df" target="_top" xlink:title="OS.pkg._base.PackageManager.\l_execAsRoot_withPkgs">
<polygon fill="none" stroke="black" points="158.5,-49 158.5,-79 319.5,-79 319.5,-49 158.5,-49"/>
<text text-anchor="start" x="166.5" y="-67" font-family="Helvetica,sans-Serif" font-size="10.00">OS.pkg._base.PackageManager.</text>
<text text-anchor="middle" x="239" y="-56" font-family="Helvetica,sans-Serif" font-size="10.00">_execAsRoot_withPkgs</text>
</a>
</g>
</g>
<!-- Node1&#45;&gt;Node3 -->
<g id="edge2" class="edge"><title>Node1&#45;&gt;Node3</title>
<path fill="none" stroke="midnightblue" d="M122.077,-64C130.542,-64 139.392,-64 148.265,-64"/>
<polygon fill="midnightblue" stroke="midnightblue" points="148.274,-67.5001 158.274,-64 148.274,-60.5001 148.274,-67.5001"/>
</g>
<!-- Node4 -->
<g id="node4" class="node"><title>Node4</title>
<g id="a_node4"><a xlink:href="class_o_s_1_1pkg_1_1__apt_1_1_apt_installer.html#a6aeae617a8fc8df36f11231d11996971" target="_top" xlink:title="OS.pkg._apt.AptInstaller.\l_installPyAptModule">
<polygon fill="none" stroke="black" points="178,-0 178,-30 300,-30 300,-0 178,-0"/>
<text text-anchor="start" x="186" y="-18" font-family="Helvetica,sans-Serif" font-size="10.00">OS.pkg._apt.AptInstaller.</text>
<text text-anchor="middle" x="239" y="-7" font-family="Helvetica,sans-Serif" font-size="10.00">_installPyAptModule</text>
</a>
</g>
</g>
<!-- Node1&#45;&gt;Node4 -->
<g id="edge3" class="edge"><title>Node1&#45;&gt;Node4</title>
<path fill="none" stroke="midnightblue" d="M116.242,-48.8986C134.562,-43.7981 155.183,-38.0571 174.175,-32.7695"/>
<polygon fill="midnightblue" stroke="midnightblue" points="175.242,-36.1055 183.937,-30.0516 173.365,-29.362 175.242,-36.1055"/>
</g>
</g>
</svg>
