<?xml version="1.0" encoding="UTF-8" standalone="no"?>
<!DOCTYPE svg PUBLIC "-//W3C//DTD SVG 1.1//EN"
 "http://www.w3.org/Graphics/SVG/1.1/DTD/svg11.dtd">
<!-- Generated by graphviz version 2.30.1 (20130219.2202)
 -->
<!-- Title: OS._OS.CMD_ProcException Pages: 1 -->
<svg width="371pt" height="254pt"
 viewBox="0.00 0.00 371.00 254.00" xmlns="http://www.w3.org/2000/svg" xmlns:xlink="http://www.w3.org/1999/xlink">
<g id="graph0" class="graph" transform="scale(1 1) rotate(0) translate(4 250)">
<title>OS._OS.CMD_ProcException</title>
<!-- Node1 -->
<g id="node1" class="node"><title>Node1</title>
<polygon fill="#bfbfbf" stroke="black" points="109,-94.5 109,-151.5 255,-151.5 255,-94.5 109,-94.5"/>
<text text-anchor="middle" x="182" y="-139.5" font-family="Helvetica,sans-Serif" font-size="10.00">OS._OS.CMD_ProcException</text>
<polyline fill="none" stroke="black" points="109,-132.5 255,-132.5 "/>
<text text-anchor="start" x="117" y="-120.5" font-family="Helvetica,sans-Serif" font-size="10.00">+ proc</text>
<polyline fill="none" stroke="black" points="109,-113.5 255,-113.5 "/>
<text text-anchor="start" x="117" y="-101.5" font-family="Helvetica,sans-Serif" font-size="10.00">+ __init__()</text>
</g>
<!-- Node4 -->
<g id="node4" class="node"><title>Node4</title>
<g id="a_node4"><a xlink:href="class_o_s_1_1___o_s_1_1_c_m_d___proc_output_exception.html" target="_top" xlink:title="{OS._OS.CMD_ProcOutputException\n||+ __init__()\l}">
<polygon fill="none" stroke="black" points="-0.5,-0.5 -0.5,-57.5 174.5,-57.5 174.5,-0.5 -0.5,-0.5"/>
<text text-anchor="middle" x="87" y="-45.5" font-family="Helvetica,sans-Serif" font-size="10.00">OS._OS.CMD_ProcOutputException</text>
<polyline fill="none" stroke="black" points="-0.5,-38.5 174.5,-38.5 "/>
<text text-anchor="middle" x="87" y="-26.5" font-family="Helvetica,sans-Serif" font-size="10.00"> </text>
<polyline fill="none" stroke="black" points="-0.5,-19.5 174.5,-19.5 "/>
<text text-anchor="start" x="7.5" y="-7.5" font-family="Helvetica,sans-Serif" font-size="10.00">+ __init__()</text>
</a>
</g>
</g>
<!-- Node1&#45;&gt;Node4 -->
<g id="edge3" class="edge"><title>Node1&#45;&gt;Node4</title>
<path fill="none" stroke="midnightblue" d="M146.258,-87.3868C136.091,-77.5407 125.157,-66.9518 115.483,-57.5836"/>
<polygon fill="none" stroke="midnightblue" points="143.878,-89.9545 153.497,-94.397 148.748,-84.9259 143.878,-89.9545"/>
</g>
<!-- Node5 -->
<g id="node5" class="node"><title>Node5</title>
<g id="a_node5"><a xlink:href="class_o_s_1_1pkg_1_1__base_1_1_c_m_d___proc_exception.html" target="_top" xlink:title="{OS.pkg._base.CMD_ProcException\n|+ originalException\l|+ __init__()\l}">
<polygon fill="none" stroke="black" points="192.5,-0.5 192.5,-57.5 363.5,-57.5 363.5,-0.5 192.5,-0.5"/>
<text text-anchor="middle" x="278" y="-45.5" font-family="Helvetica,sans-Serif" font-size="10.00">OS.pkg._base.CMD_ProcException</text>
<polyline fill="none" stroke="black" points="192.5,-38.5 363.5,-38.5 "/>
<text text-anchor="start" x="200.5" y="-26.5" font-family="Helvetica,sans-Serif" font-size="10.00">+ originalException</text>
<polyline fill="none" stroke="black" points="192.5,-19.5 363.5,-19.5 "/>
<text text-anchor="start" x="200.5" y="-7.5" font-family="Helvetica,sans-Serif" font-size="10.00">+ __init__()</text>
</a>
</g>
</g>
<!-- Node1&#45;&gt;Node5 -->
<g id="edge4" class="edge"><title>Node1&#45;&gt;Node5</title>
<path fill="none" stroke="midnightblue" d="M218.118,-87.3868C228.392,-77.5407 239.442,-66.9518 249.217,-57.5836"/>
<polygon fill="none" stroke="midnightblue" points="215.601,-84.9509 210.803,-94.397 220.445,-90.0049 215.601,-84.9509"/>
</g>
<!-- Node2 -->
<g id="node2" class="node"><title>Node2</title>
<g id="a_node2"><a xlink:href="class_exception.html" target="_top" xlink:title="{Exception\n||}">
<polygon fill="none" stroke="black" points="118.5,-188.5 118.5,-245.5 177.5,-245.5 177.5,-188.5 118.5,-188.5"/>
<text text-anchor="middle" x="148" y="-233.5" font-family="Helvetica,sans-Serif" font-size="10.00">Exception</text>
<polyline fill="none" stroke="black" points="118.5,-226.5 177.5,-226.5 "/>
<text text-anchor="middle" x="148" y="-214.5" font-family="Helvetica,sans-Serif" font-size="10.00"> </text>
<polyline fill="none" stroke="black" points="118.5,-207.5 177.5,-207.5 "/>
<text text-anchor="middle" x="148" y="-195.5" font-family="Helvetica,sans-Serif" font-size="10.00"> </text>
</a>
</g>
</g>
<!-- Node2&#45;&gt;Node1 -->
<g id="edge1" class="edge"><title>Node2&#45;&gt;Node1</title>
<path fill="none" stroke="midnightblue" d="M161.751,-178.79C165.111,-169.699 168.646,-160.133 171.806,-151.584"/>
<polygon fill="none" stroke="midnightblue" points="158.385,-177.804 158.201,-188.397 164.951,-180.23 158.385,-177.804"/>
</g>
<!-- Node3 -->
<g id="node3" class="node"><title>Node3</title>
<g id="a_node3"><a xlink:href="classobject.html" target="_top" xlink:title="{object\n||}">
<polygon fill="none" stroke="black" points="196,-188.5 196,-245.5 238,-245.5 238,-188.5 196,-188.5"/>
<text text-anchor="middle" x="217" y="-233.5" font-family="Helvetica,sans-Serif" font-size="10.00">object</text>
<polyline fill="none" stroke="black" points="196,-226.5 238,-226.5 "/>
<text text-anchor="middle" x="217" y="-214.5" font-family="Helvetica,sans-Serif" font-size="10.00"> </text>
<polyline fill="none" stroke="black" points="196,-207.5 238,-207.5 "/>
<text text-anchor="middle" x="217" y="-195.5" font-family="Helvetica,sans-Serif" font-size="10.00"> </text>
</a>
</g>
</g>
<!-- Node3&#45;&gt;Node1 -->
<g id="edge2" class="edge"><title>Node3&#45;&gt;Node1</title>
<path fill="none" stroke="midnightblue" d="M202.844,-178.79C199.386,-169.699 195.746,-160.133 192.494,-151.584"/>
<polygon fill="none" stroke="midnightblue" points="199.672,-180.295 206.499,-188.397 206.214,-177.806 199.672,-180.295"/>
</g>
</g>
</svg>
