<?xml version="1.0" encoding="UTF-8" standalone="no"?>
<!DOCTYPE svg PUBLIC "-//W3C//DTD SVG 1.1//EN"
 "http://www.w3.org/Graphics/SVG/1.1/DTD/svg11.dtd">
<!-- Generated by graphviz version 2.30.1 (20130219.2202)
 -->
<!-- Title: OS.pkg._base.CMD_ProcException Pages: 1 -->
<svg width="178pt" height="254pt"
 viewBox="0.00 0.00 178.00 254.00" xmlns="http://www.w3.org/2000/svg" xmlns:xlink="http://www.w3.org/1999/xlink">
<g id="graph0" class="graph" transform="scale(1 1) rotate(0) translate(4 250)">
<title>OS.pkg._base.CMD_ProcException</title>
<!-- Node1 -->
<g id="node1" class="node"><title>Node1</title>
<polygon fill="#bfbfbf" stroke="black" points="-0.5,-0.5 -0.5,-57.5 170.5,-57.5 170.5,-0.5 -0.5,-0.5"/>
<text text-anchor="middle" x="85" y="-45.5" font-family="Helvetica,sans-Serif" font-size="10.00">OS.pkg._base.CMD_ProcException</text>
<polyline fill="none" stroke="black" points="-0.5,-38.5 170.5,-38.5 "/>
<text text-anchor="start" x="7.5" y="-26.5" font-family="Helvetica,sans-Serif" font-size="10.00">+ originalException</text>
<polyline fill="none" stroke="black" points="-0.5,-19.5 170.5,-19.5 "/>
<text text-anchor="start" x="7.5" y="-7.5" font-family="Helvetica,sans-Serif" font-size="10.00">+ __init__()</text>
</g>
<!-- Node2 -->
<g id="node2" class="node"><title>Node2</title>
<g id="a_node2"><a xlink:href="class_o_s_1_1___o_s_1_1_c_m_d___proc_exception.html" target="_top" xlink:title="{OS._OS.CMD_ProcException\n|+ proc\l|+ __init__()\l}">
<polygon fill="none" stroke="black" points="12,-94.5 12,-151.5 158,-151.5 158,-94.5 12,-94.5"/>
<text text-anchor="middle" x="85" y="-139.5" font-family="Helvetica,sans-Serif" font-size="10.00">OS._OS.CMD_ProcException</text>
<polyline fill="none" stroke="black" points="12,-132.5 158,-132.5 "/>
<text text-anchor="start" x="20" y="-120.5" font-family="Helvetica,sans-Serif" font-size="10.00">+ proc</text>
<polyline fill="none" stroke="black" points="12,-113.5 158,-113.5 "/>
<text text-anchor="start" x="20" y="-101.5" font-family="Helvetica,sans-Serif" font-size="10.00">+ __init__()</text>
</a>
</g>
</g>
<!-- Node2&#45;&gt;Node1 -->
<g id="edge1" class="edge"><title>Node2&#45;&gt;Node1</title>
<path fill="none" stroke="midnightblue" d="M85,-84.2092C85,-75.2929 85,-65.9513 85,-57.5836"/>
<polygon fill="none" stroke="midnightblue" points="81.5001,-84.3969 85,-94.397 88.5001,-84.397 81.5001,-84.3969"/>
</g>
<!-- Node3 -->
<g id="node3" class="node"><title>Node3</title>
<g id="a_node3"><a xlink:href="class_exception.html" target="_top" xlink:title="{Exception\n||}">
<polygon fill="none" stroke="black" points="21.5,-188.5 21.5,-245.5 80.5,-245.5 80.5,-188.5 21.5,-188.5"/>
<text text-anchor="middle" x="51" y="-233.5" font-family="Helvetica,sans-Serif" font-size="10.00">Exception</text>
<polyline fill="none" stroke="black" points="21.5,-226.5 80.5,-226.5 "/>
<text text-anchor="middle" x="51" y="-214.5" font-family="Helvetica,sans-Serif" font-size="10.00"> </text>
<polyline fill="none" stroke="black" points="21.5,-207.5 80.5,-207.5 "/>
<text text-anchor="middle" x="51" y="-195.5" font-family="Helvetica,sans-Serif" font-size="10.00"> </text>
</a>
</g>
</g>
<!-- Node3&#45;&gt;Node2 -->
<g id="edge2" class="edge"><title>Node3&#45;&gt;Node2</title>
<path fill="none" stroke="midnightblue" d="M64.7515,-178.79C68.1111,-169.699 71.6464,-160.133 74.8061,-151.584"/>
<polygon fill="none" stroke="midnightblue" points="61.3847,-177.804 61.2011,-188.397 67.9507,-180.23 61.3847,-177.804"/>
</g>
<!-- Node4 -->
<g id="node4" class="node"><title>Node4</title>
<g id="a_node4"><a xlink:href="classobject.html" target="_top" xlink:title="{object\n||}">
<polygon fill="none" stroke="black" points="99,-188.5 99,-245.5 141,-245.5 141,-188.5 99,-188.5"/>
<text text-anchor="middle" x="120" y="-233.5" font-family="Helvetica,sans-Serif" font-size="10.00">object</text>
<polyline fill="none" stroke="black" points="99,-226.5 141,-226.5 "/>
<text text-anchor="middle" x="120" y="-214.5" font-family="Helvetica,sans-Serif" font-size="10.00"> </text>
<polyline fill="none" stroke="black" points="99,-207.5 141,-207.5 "/>
<text text-anchor="middle" x="120" y="-195.5" font-family="Helvetica,sans-Serif" font-size="10.00"> </text>
</a>
</g>
</g>
<!-- Node4&#45;&gt;Node2 -->
<g id="edge3" class="edge"><title>Node4&#45;&gt;Node2</title>
<path fill="none" stroke="midnightblue" d="M105.844,-178.79C102.386,-169.699 98.7463,-160.133 95.4937,-151.584"/>
<polygon fill="none" stroke="midnightblue" points="102.672,-180.295 109.499,-188.397 109.214,-177.806 102.672,-180.295"/>
</g>
</g>
</svg>
