<?xml version="1.0" encoding="UTF-8" standalone="no"?>
<!DOCTYPE svg PUBLIC "-//W3C//DTD SVG 1.1//EN"
 "http://www.w3.org/Graphics/SVG/1.1/DTD/svg11.dtd">
<!-- Generated by graphviz version 2.28.0 (20121214.2254)
 -->
<!-- Title: config_parser_m2.ParseException Pages: 1 -->
<svg width="168pt" height="172pt"
 viewBox="0.00 0.00 168.00 172.00" xmlns="http://www.w3.org/2000/svg" xmlns:xlink="http://www.w3.org/1999/xlink">
<g id="graph1" class="graph" transform="scale(1 1) rotate(0) translate(4 168)">
<title>config_parser_m2.ParseException</title>
<!-- Node1 -->
<g id="node1" class="node"><title>Node1</title>
<polygon fill="#bfbfbf" stroke="black" points="-0.5,-1 -0.5,-69 160.5,-69 160.5,-1 -0.5,-1"/>
<text text-anchor="middle" x="80" y="-57" font-family="Helvetica,sans-Serif" font-size="10.00">config_parser_m2.ParseException</text>
<polyline fill="none" stroke="black" points="-0.5,-50 160.5,-50 "/>
<text text-anchor="start" x="7.5" y="-38" font-family="Helvetica,sans-Serif" font-size="10.00">+ message</text>
<polyline fill="none" stroke="black" points="-0.5,-31 160.5,-31 "/>
<text text-anchor="start" x="7.5" y="-19" font-family="Helvetica,sans-Serif" font-size="10.00">+ __init__()</text>
<text text-anchor="start" x="7.5" y="-8" font-family="Helvetica,sans-Serif" font-size="10.00">+ __str__()</text>
</g>
<!-- Node2 -->
<g id="node2" class="node"><title>Node2</title>
<a xlink:href="class_exception.html" target="_top" xlink:title="{Exception\n||}">
<polygon fill="none" stroke="black" points="50.5,-106.5 50.5,-163.5 109.5,-163.5 109.5,-106.5 50.5,-106.5"/>
<text text-anchor="middle" x="80" y="-151.5" font-family="Helvetica,sans-Serif" font-size="10.00">Exception</text>
<polyline fill="none" stroke="black" points="50.5,-144.5 109.5,-144.5 "/>
<text text-anchor="middle" x="80" y="-132.5" font-family="Helvetica,sans-Serif" font-size="10.00"> </text>
<polyline fill="none" stroke="black" points="50.5,-125.5 109.5,-125.5 "/>
<text text-anchor="middle" x="80" y="-113.5" font-family="Helvetica,sans-Serif" font-size="10.00"> </text>
</a>
</g>
<!-- Node2&#45;&gt;Node1 -->
<g id="edge2" class="edge"><title>Node2&#45;&gt;Node1</title>
<path fill="none" stroke="midnightblue" d="M80,-96.3023C80,-87.3951 80,-77.9608 80,-69.2659"/>
<polygon fill="none" stroke="midnightblue" points="76.5001,-96.4407 80,-106.441 83.5001,-96.4408 76.5001,-96.4407"/>
</g>
</g>
</svg>
