<?xml version="1.0" encoding="UTF-8" standalone="no"?>
<!DOCTYPE svg PUBLIC "-//W3C//DTD SVG 1.1//EN"
 "http://www.w3.org/Graphics/SVG/1.1/DTD/svg11.dtd">
<!-- Generated by graphviz version 2.28.0 (20121214.2254)
 -->
<!-- Title: OS.pkg.macports.MacPortInstaller.remove Pages: 1 -->
<svg width="408pt" height="87pt"
 viewBox="0.00 0.00 408.00 87.00" xmlns="http://www.w3.org/2000/svg" xmlns:xlink="http://www.w3.org/1999/xlink">
<g id="graph1" class="graph" transform="scale(1 1) rotate(0) translate(4 83)">
<title>OS.pkg.macports.MacPortInstaller.remove</title>
<!-- Node1 -->
<g id="node1" class="node"><title>Node1</title>
<polygon fill="#bfbfbf" stroke="black" points="0.5,-29.5 0.5,-48.5 193.5,-48.5 193.5,-29.5 0.5,-29.5"/>
<text text-anchor="middle" x="97" y="-36.5" font-family="Helvetica,sans-Serif" font-size="10.00">OS.pkg.macports.MacPortInstaller.remove</text>
</g>
<!-- Node2 -->
<g id="node3" class="node"><title>Node2</title>
<a xlink:href="class_o_s_1_1pkg_1_1apt_1_1_apt_installer.html#a9805006eff347a5957a9b4310b97df5c" target="_top" xlink:title="OS.pkg.apt.AptInstaller.is\lInstalled">
<polygon fill="none" stroke="black" points="253,-49 253,-79 377,-79 377,-49 253,-49"/>
<text text-anchor="start" x="261" y="-67" font-family="Helvetica,sans-Serif" font-size="10.00">OS.pkg.apt.AptInstaller.is</text>
<text text-anchor="middle" x="315" y="-56" font-family="Helvetica,sans-Serif" font-size="10.00">Installed</text>
</a>
</g>
<!-- Node1&#45;&gt;Node2 -->
<g id="edge2" class="edge"><title>Node1&#45;&gt;Node2</title>
<path fill="none" stroke="midnightblue" d="M180.277,-48.5227C200.879,-50.9072 222.807,-53.4452 242.819,-55.7614"/>
<polygon fill="midnightblue" stroke="midnightblue" points="242.446,-59.2416 252.782,-56.9146 243.251,-52.288 242.446,-59.2416"/>
</g>
<!-- Node3 -->
<g id="node5" class="node"><title>Node3</title>
<a xlink:href="class_o_s_1_1pkg_1_1macports_1_1_mac_port_installer.html#a97f772453b099570fe145606acbf88b6" target="_top" xlink:title="OS.pkg.macports.MacPortInstaller.is\lInstalled">
<polygon fill="none" stroke="black" points="230.5,-0 230.5,-30 399.5,-30 399.5,-0 230.5,-0"/>
<text text-anchor="start" x="238.5" y="-18" font-family="Helvetica,sans-Serif" font-size="10.00">OS.pkg.macports.MacPortInstaller.is</text>
<text text-anchor="middle" x="315" y="-7" font-family="Helvetica,sans-Serif" font-size="10.00">Installed</text>
</a>
</g>
<!-- Node1&#45;&gt;Node3 -->
<g id="edge4" class="edge"><title>Node1&#45;&gt;Node3</title>
<path fill="none" stroke="midnightblue" d="M183.679,-29.4801C195.642,-28.1509 207.986,-26.7793 220.091,-25.4344"/>
<polygon fill="midnightblue" stroke="midnightblue" points="220.636,-28.8954 230.188,-24.3124 219.863,-21.9382 220.636,-28.8954"/>
</g>
</g>
</svg>
