<?xml version="1.0" encoding="UTF-8" standalone="no"?>
<!DOCTYPE svg PUBLIC "-//W3C//DTD SVG 1.1//EN"
 "http://www.w3.org/Graphics/SVG/1.1/DTD/svg11.dtd">
<!-- Generated by graphviz version 2.28.0 (20121214.2254)
 -->
<!-- Title: OS.pkg.macports.MacPortInstaller.isAvailable Pages: 1 -->
<svg width="376pt" height="87pt"
 viewBox="0.00 0.00 376.00 87.00" xmlns="http://www.w3.org/2000/svg" xmlns:xlink="http://www.w3.org/1999/xlink">
<g id="graph1" class="graph" transform="scale(1 1) rotate(0) translate(4 83)">
<title>OS.pkg.macports.MacPortInstaller.isAvailable</title>
<!-- Node1 -->
<g id="node1" class="node"><title>Node1</title>
<polygon fill="#bfbfbf" stroke="black" points="0.5,-24 0.5,-54 169.5,-54 169.5,-24 0.5,-24"/>
<text text-anchor="start" x="8.5" y="-42" font-family="Helvetica,sans-Serif" font-size="10.00">OS.pkg.macports.MacPortInstaller.is</text>
<text text-anchor="middle" x="85" y="-31" font-family="Helvetica,sans-Serif" font-size="10.00">Available</text>
</g>
<!-- Node2 -->
<g id="node3" class="node"><title>Node2</title>
<a xlink:href="class_o_s_1_1pkg_1_1apt_1_1_apt_installer.html#a721544fb2131f2396926e557aa2e44a1" target="_top" xlink:title="OS.pkg.apt.AptInstaller.\l_updatePackageIndex">
<polygon fill="none" stroke="black" points="228.5,-49 228.5,-79 345.5,-79 345.5,-49 228.5,-49"/>
<text text-anchor="start" x="236.5" y="-67" font-family="Helvetica,sans-Serif" font-size="10.00">OS.pkg.apt.AptInstaller.</text>
<text text-anchor="middle" x="287" y="-56" font-family="Helvetica,sans-Serif" font-size="10.00">_updatePackageIndex</text>
</a>
</g>
<!-- Node1&#45;&gt;Node2 -->
<g id="edge2" class="edge"><title>Node1&#45;&gt;Node2</title>
<path fill="none" stroke="midnightblue" d="M169.659,-49.4574C185.904,-51.4879 202.739,-53.5924 218.389,-55.5486"/>
<polygon fill="midnightblue" stroke="midnightblue" points="218.126,-59.0429 228.483,-56.8104 218.994,-52.097 218.126,-59.0429"/>
</g>
<!-- Node3 -->
<g id="node5" class="node"><title>Node3</title>
<a xlink:href="class_o_s_1_1pkg_1_1macports_1_1_mac_port_installer.html#a36a164a74432a3d803e2e48e2c9d3709" target="_top" xlink:title="OS.pkg.macports.MacPortInstaller.\l_updatePackageIndex">
<polygon fill="none" stroke="black" points="206,-0 206,-30 368,-30 368,-0 206,-0"/>
<text text-anchor="start" x="214" y="-18" font-family="Helvetica,sans-Serif" font-size="10.00">OS.pkg.macports.MacPortInstaller.</text>
<text text-anchor="middle" x="287" y="-7" font-family="Helvetica,sans-Serif" font-size="10.00">_updatePackageIndex</text>
</a>
</g>
<!-- Node1&#45;&gt;Node3 -->
<g id="edge4" class="edge"><title>Node1&#45;&gt;Node3</title>
<path fill="none" stroke="midnightblue" d="M169.659,-28.9609C178.276,-27.9269 187.059,-26.8729 195.743,-25.8308"/>
<polygon fill="midnightblue" stroke="midnightblue" points="196.365,-29.2814 205.877,-24.6148 195.531,-22.3313 196.365,-29.2814"/>
</g>
</g>
</svg>
