<?xml version="1.0" encoding="UTF-8" standalone="no"?>
<!DOCTYPE svg PUBLIC "-//W3C//DTD SVG 1.1//EN"
 "http://www.w3.org/Graphics/SVG/1.1/DTD/svg11.dtd">
<!-- Generated by graphviz version 2.30.1 (20130221.2233)
 -->
<!-- Title: object Pages: 1 -->
<!--zoomable 364 -->
<svg id="main" version="1.1" xmlns="http://www.w3.org/2000/svg" xmlns:xlink="http://www.w3.org/1999/xlink" xml:space="preserve" onload="init(evt)">
<style type="text/css"><![CDATA[
.edge:hover path { stroke: red; }
.edge:hover polygon { stroke: red; fill: red; }
]]></style>
<script type="text/javascript"><![CDATA[
var edges = document.getElementsByTagName('g');
if (edges && edges.length) {
  for (var i=0;i<edges.length;i++) {
    if (edges[i].id.substr(0,4)=='edge') {
      edges[i].setAttribute('class','edge');
    }
  }
}
]]></script>
        <defs>
                <circle id="rim" cx="0" cy="0" r="7"/>
                <circle id="rim2" cx="0" cy="0" r="3.5"/>
                <g id="zoomPlus">
                        <use xlink:href="#rim" fill="#404040">
                                <set attributeName="fill" to="#808080" begin="zoomplus.mouseover" end="zoomplus.mouseout"/>
                        </use>
                        <path d="M-4,0h8M0,-4v8" fill="none" stroke="white" stroke-width="1.5" pointer-events="none"/>
                </g>
                <g id="zoomMin">
                        <use xlink:href="#rim" fill="#404040">
                                <set attributeName="fill" to="#808080" begin="zoomminus.mouseover" end="zoomminus.mouseout"/>
                        </use>
                        <path d="M-4,0h8" fill="none" stroke="white" stroke-width="1.5" pointer-events="none"/>
                </g>
                <g id="dirArrow">
                        <path fill="none" stroke="white" stroke-width="1.5" d="M0,-3.0v7 M-2.5,-0.5L0,-3.0L2.5,-0.5"/>
                </g>
               <g id="resetDef">
                       <use xlink:href="#rim2" fill="#404040">
                               <set attributeName="fill" to="#808080" begin="reset.mouseover" end="reset.mouseout"/>
                       </use>
               </g>
        </defs>

<script type="text/javascript">
var viewWidth = 869;
var viewHeight = 364;
var sectionId = 'dynsection-0';
</script>
<script xlink:href="svgpan.js"/>
<svg id="graph" class="graph">
<g id="viewport">
<title>object</title>
<!-- Node1 -->
<g id="node1" class="node"><title>Node1</title>
<polygon fill="#bfbfbf" stroke="black" points="388.5,-298.5 388.5,-355.5 431.5,-355.5 431.5,-298.5 388.5,-298.5"/>
<text text-anchor="middle" x="410" y="-343.5" font-family="Helvetica,sans-Serif" font-size="10.00">object</text>
<polyline fill="none" stroke="black" points="388.5,-336.5 431.5,-336.5 "/>
<text text-anchor="middle" x="410" y="-324.5" font-family="Helvetica,sans-Serif" font-size="10.00"> </text>
<polyline fill="none" stroke="black" points="388.5,-317.5 431.5,-317.5 "/>
<text text-anchor="middle" x="410" y="-305.5" font-family="Helvetica,sans-Serif" font-size="10.00"> </text>
</g>
<!-- Node2 -->
<g id="node2" class="node"><title>Node2</title>
<g id="a_node2"><a xlink:href="class_o_s_1_1___o_s_1_1_c_m_d___proc.html" target="_top" xlink:title="{OS._OS.CMD_Proc\n|+ cmd\l|+ __init__()\l}">
<polygon fill="none" stroke="black" points="29.5,-160.5 29.5,-217.5 134.5,-217.5 134.5,-160.5 29.5,-160.5"/>
<text text-anchor="middle" x="82" y="-205.5" font-family="Helvetica,sans-Serif" font-size="10.00">OS._OS.CMD_Proc</text>
<polyline fill="none" stroke="black" points="29.5,-198.5 134.5,-198.5 "/>
<text text-anchor="start" x="37.5" y="-186.5" font-family="Helvetica,sans-Serif" font-size="10.00">+ cmd</text>
<polyline fill="none" stroke="black" points="29.5,-179.5 134.5,-179.5 "/>
<text text-anchor="start" x="37.5" y="-167.5" font-family="Helvetica,sans-Serif" font-size="10.00">+ __init__()</text>
</a>
</g>
</g>
<!-- Node1&#45;&gt;Node2 -->
<g id="edge1" class="edge"><title>Node1&#45;&gt;Node2</title>
<path fill="none" stroke="midnightblue" d="M378.076,-323C328.505,-317.248 231.218,-301.524 159,-262 138.45,-250.753 119.2,-232.753 105.088,-217.565"/>
<polygon fill="none" stroke="midnightblue" points="377.866,-326.498 388.188,-324.111 378.63,-319.54 377.866,-326.498"/>
</g>
<!-- Node4 -->
<g id="node4" class="node"><title>Node4</title>
<g id="a_node4"><a xlink:href="class_o_s_1_1___o_s_1_1_c_m_d___proc_exception.html" target="_top" xlink:title="{OS._OS.CMD_ProcException\n|+ proc\l|+ __init__()\l}">
<polygon fill="none" stroke="black" points="167.5,-160.5 167.5,-217.5 316.5,-217.5 316.5,-160.5 167.5,-160.5"/>
<text text-anchor="middle" x="242" y="-205.5" font-family="Helvetica,sans-Serif" font-size="10.00">OS._OS.CMD_ProcException</text>
<polyline fill="none" stroke="black" points="167.5,-198.5 316.5,-198.5 "/>
<text text-anchor="start" x="175.5" y="-186.5" font-family="Helvetica,sans-Serif" font-size="10.00">+ proc</text>
<polyline fill="none" stroke="black" points="167.5,-179.5 316.5,-179.5 "/>
<text text-anchor="start" x="175.5" y="-167.5" font-family="Helvetica,sans-Serif" font-size="10.00">+ __init__()</text>
</a>
</g>
</g>
<!-- Node1&#45;&gt;Node4 -->
<g id="edge3" class="edge"><title>Node1&#45;&gt;Node4</title>
<path fill="none" stroke="midnightblue" d="M380.262,-303.997C364.047,-291.836 343.726,-276.33 326,-262 308.374,-247.751 289.15,-231.341 273.546,-217.789"/>
<polygon fill="none" stroke="midnightblue" points="378.225,-306.844 388.331,-310.026 382.416,-301.237 378.225,-306.844"/>
</g>
<!-- Node7 -->
<g id="node7" class="node"><title>Node7</title>
<g id="a_node7"><a xlink:href="class_o_s_1_1_g_p_g_1_1_g_p_g.html" target="_top" xlink:title="Quick GNUPG implementation with common functions, using the command line interface. ">
<polygon fill="none" stroke="black" points="334.5,-116.5 334.5,-261.5 485.5,-261.5 485.5,-116.5 334.5,-116.5"/>
<text text-anchor="middle" x="410" y="-249.5" font-family="Helvetica,sans-Serif" font-size="10.00">OS.GPG.GPG</text>
<polyline fill="none" stroke="black" points="334.5,-242.5 485.5,-242.5 "/>
<text text-anchor="middle" x="410" y="-230.5" font-family="Helvetica,sans-Serif" font-size="10.00"> </text>
<polyline fill="none" stroke="black" points="334.5,-223.5 485.5,-223.5 "/>
<text text-anchor="start" x="342.5" y="-211.5" font-family="Helvetica,sans-Serif" font-size="10.00">+ importPublicKey()</text>
<text text-anchor="start" x="342.5" y="-200.5" font-family="Helvetica,sans-Serif" font-size="10.00">+ importPrivateKey()</text>
<text text-anchor="start" x="342.5" y="-189.5" font-family="Helvetica,sans-Serif" font-size="10.00">+ signKey()</text>
<text text-anchor="start" x="342.5" y="-178.5" font-family="Helvetica,sans-Serif" font-size="10.00">+ markKeyTrusted()</text>
<text text-anchor="start" x="342.5" y="-167.5" font-family="Helvetica,sans-Serif" font-size="10.00">+ importPublicKey_signTrust()</text>
<text text-anchor="start" x="342.5" y="-156.5" font-family="Helvetica,sans-Serif" font-size="10.00">+ isKeyImported()</text>
<text text-anchor="start" x="342.5" y="-145.5" font-family="Helvetica,sans-Serif" font-size="10.00">+ getKeyID()</text>
<text text-anchor="start" x="342.5" y="-134.5" font-family="Helvetica,sans-Serif" font-size="10.00">+ encrypt()</text>
<text text-anchor="start" x="342.5" y="-123.5" font-family="Helvetica,sans-Serif" font-size="10.00">+ decrypt()</text>
</a>
</g>
</g>
<!-- Node1&#45;&gt;Node7 -->
<g id="edge6" class="edge"><title>Node1&#45;&gt;Node7</title>
<path fill="none" stroke="midnightblue" d="M410,-288.356C410,-279.999 410,-270.872 410,-261.656"/>
<polygon fill="none" stroke="midnightblue" points="406.5,-288.478 410,-298.478 413.5,-288.478 406.5,-288.478"/>
</g>
<!-- Node8 -->
<g id="node8" class="node"><title>Node8</title>
<g id="a_node8"><a xlink:href="class_o_s_1_1pkg_1_1__base_1_1_package_manager.html" target="_top" xlink:title="{OS.pkg._base.PackageManager\n||+ __init__()\l+ isSupported()\l+ updatePackageIndex()\l+ install()\l+ update()\l+ remove()\l+ isInstalled()\l+ isAvailable()\l}">
<polygon fill="none" stroke="black" points="503.5,-122 503.5,-256 664.5,-256 664.5,-122 503.5,-122"/>
<text text-anchor="middle" x="584" y="-244" font-family="Helvetica,sans-Serif" font-size="10.00">OS.pkg._base.PackageManager</text>
<polyline fill="none" stroke="black" points="503.5,-237 664.5,-237 "/>
<text text-anchor="middle" x="584" y="-225" font-family="Helvetica,sans-Serif" font-size="10.00"> </text>
<polyline fill="none" stroke="black" points="503.5,-218 664.5,-218 "/>
<text text-anchor="start" x="511.5" y="-206" font-family="Helvetica,sans-Serif" font-size="10.00">+ __init__()</text>
<text text-anchor="start" x="511.5" y="-195" font-family="Helvetica,sans-Serif" font-size="10.00">+ isSupported()</text>
<text text-anchor="start" x="511.5" y="-184" font-family="Helvetica,sans-Serif" font-size="10.00">+ updatePackageIndex()</text>
<text text-anchor="start" x="511.5" y="-173" font-family="Helvetica,sans-Serif" font-size="10.00">+ install()</text>
<text text-anchor="start" x="511.5" y="-162" font-family="Helvetica,sans-Serif" font-size="10.00">+ update()</text>
<text text-anchor="start" x="511.5" y="-151" font-family="Helvetica,sans-Serif" font-size="10.00">+ remove()</text>
<text text-anchor="start" x="511.5" y="-140" font-family="Helvetica,sans-Serif" font-size="10.00">+ isInstalled()</text>
<text text-anchor="start" x="511.5" y="-129" font-family="Helvetica,sans-Serif" font-size="10.00">+ isAvailable()</text>
</a>
</g>
</g>
<!-- Node1&#45;&gt;Node8 -->
<g id="edge7" class="edge"><title>Node1&#45;&gt;Node8</title>
<path fill="none" stroke="midnightblue" d="M439.548,-303.757C455.706,-291.525 476.034,-276.028 494,-262 496.997,-259.66 500.044,-257.271 503.119,-254.853"/>
<polygon fill="none" stroke="midnightblue" points="437.38,-301.008 431.513,-309.83 441.601,-306.592 437.38,-301.008"/>
</g>
<!-- Node9 -->
<g id="node9" class="node"><title>Node9</title>
<g id="a_node9"><a xlink:href="class_o_s_1_1pkg_1_1__yum_1_1___yum_dummy_callback.html" target="_top" xlink:title="{OS.pkg._yum._YumDummyCallback\n||+ event()\l}">
<polygon fill="none" stroke="black" points="682.5,-160.5 682.5,-217.5 861.5,-217.5 861.5,-160.5 682.5,-160.5"/>
<text text-anchor="middle" x="772" y="-205.5" font-family="Helvetica,sans-Serif" font-size="10.00">OS.pkg._yum._YumDummyCallback</text>
<polyline fill="none" stroke="black" points="682.5,-198.5 861.5,-198.5 "/>
<text text-anchor="middle" x="772" y="-186.5" font-family="Helvetica,sans-Serif" font-size="10.00"> </text>
<polyline fill="none" stroke="black" points="682.5,-179.5 861.5,-179.5 "/>
<text text-anchor="start" x="690.5" y="-167.5" font-family="Helvetica,sans-Serif" font-size="10.00">+ event()</text>
</a>
</g>
</g>
<!-- Node1&#45;&gt;Node9 -->
<g id="edge8" class="edge"><title>Node1&#45;&gt;Node9</title>
<path fill="none" stroke="midnightblue" d="M441.772,-322.326C492.576,-315.575 594.377,-298.416 673,-262 697.491,-250.657 722.047,-232.848 740.576,-217.781"/>
<polygon fill="none" stroke="midnightblue" points="441.206,-318.87 431.731,-323.612 442.095,-325.813 441.206,-318.87"/>
</g>
<!-- Node3 -->
<g id="node3" class="node"><title>Node3</title>
<g id="a_node3"><a xlink:href="class_o_s_1_1___o_s_1_1_c_m_d___proc_output.html" target="_top" xlink:title="{OS._OS.CMD_ProcOutput\n|+ returnCode\l+ stdout\l+ stderr\l|+ __init__()\l}">
<polygon fill="none" stroke="black" points="-0.5,-0.5 -0.5,-79.5 134.5,-79.5 134.5,-0.5 -0.5,-0.5"/>
<text text-anchor="middle" x="67" y="-67.5" font-family="Helvetica,sans-Serif" font-size="10.00">OS._OS.CMD_ProcOutput</text>
<polyline fill="none" stroke="black" points="-0.5,-60.5 134.5,-60.5 "/>
<text text-anchor="start" x="7.5" y="-48.5" font-family="Helvetica,sans-Serif" font-size="10.00">+ returnCode</text>
<text text-anchor="start" x="7.5" y="-37.5" font-family="Helvetica,sans-Serif" font-size="10.00">+ stdout</text>
<text text-anchor="start" x="7.5" y="-26.5" font-family="Helvetica,sans-Serif" font-size="10.00">+ stderr</text>
<polyline fill="none" stroke="black" points="-0.5,-19.5 134.5,-19.5 "/>
<text text-anchor="start" x="7.5" y="-7.5" font-family="Helvetica,sans-Serif" font-size="10.00">+ __init__()</text>
</a>
</g>
</g>
<!-- Node2&#45;&gt;Node3 -->
<g id="edge2" class="edge"><title>Node2&#45;&gt;Node3</title>
<path fill="none" stroke="midnightblue" d="M78.1432,-150.203C75.9329,-128.542 73.165,-101.417 70.9408,-79.6195"/>
<polygon fill="none" stroke="midnightblue" points="74.6815,-150.757 79.1786,-160.35 81.6453,-150.047 74.6815,-150.757"/>
</g>
<!-- Node5 -->
<g id="node5" class="node"><title>Node5</title>
<g id="a_node5"><a xlink:href="class_o_s_1_1___o_s_1_1_c_m_d___proc_output_exception.html" target="_top" xlink:title="{OS._OS.CMD_ProcOutputException\n||+ __init__()\l}">
<polygon fill="none" stroke="black" points="152.5,-11.5 152.5,-68.5 331.5,-68.5 331.5,-11.5 152.5,-11.5"/>
<text text-anchor="middle" x="242" y="-56.5" font-family="Helvetica,sans-Serif" font-size="10.00">OS._OS.CMD_ProcOutputException</text>
<polyline fill="none" stroke="black" points="152.5,-49.5 331.5,-49.5 "/>
<text text-anchor="middle" x="242" y="-37.5" font-family="Helvetica,sans-Serif" font-size="10.00"> </text>
<polyline fill="none" stroke="black" points="152.5,-30.5 331.5,-30.5 "/>
<text text-anchor="start" x="160.5" y="-18.5" font-family="Helvetica,sans-Serif" font-size="10.00">+ __init__()</text>
</a>
</g>
</g>
<!-- Node4&#45;&gt;Node5 -->
<g id="edge4" class="edge"><title>Node4&#45;&gt;Node5</title>
<path fill="none" stroke="midnightblue" d="M242,-150.276C242,-124.742 242,-91.5883 242,-68.5256"/>
<polygon fill="none" stroke="midnightblue" points="238.5,-150.35 242,-160.35 245.5,-150.35 238.5,-150.35"/>
</g>
<!-- Node6 -->
<g id="node6" class="node"><title>Node6</title>
<g id="a_node6"><a xlink:href="class_o_s_1_1pkg_1_1__base_1_1_c_m_d___proc_exception.html" target="_top" xlink:title="{OS.pkg._base.CMD_ProcException\n|+ originalException\l|+ __init__()\l}">
<polygon fill="none" stroke="black" points="349.5,-11.5 349.5,-68.5 524.5,-68.5 524.5,-11.5 349.5,-11.5"/>
<text text-anchor="middle" x="437" y="-56.5" font-family="Helvetica,sans-Serif" font-size="10.00">OS.pkg._base.CMD_ProcException</text>
<polyline fill="none" stroke="black" points="349.5,-49.5 524.5,-49.5 "/>
<text text-anchor="start" x="357.5" y="-37.5" font-family="Helvetica,sans-Serif" font-size="10.00">+ originalException</text>
<polyline fill="none" stroke="black" points="349.5,-30.5 524.5,-30.5 "/>
<text text-anchor="start" x="357.5" y="-18.5" font-family="Helvetica,sans-Serif" font-size="10.00">+ __init__()</text>
</a>
</g>
</g>
<!-- Node4&#45;&gt;Node6 -->
<g id="edge5" class="edge"><title>Node4&#45;&gt;Node6</title>
<path fill="none" stroke="midnightblue" d="M280.021,-153.805C294.163,-141.518 310.535,-127.791 326,-116 347.731,-99.4309 372.898,-82.2717 393.768,-68.5547"/>
<polygon fill="none" stroke="midnightblue" points="277.635,-151.243 272.414,-160.462 282.244,-156.511 277.635,-151.243"/>
</g>
</g>
</svg>
        <g id="navigator" transform="translate(0 0)" fill="#404254">
                <rect fill="#f2f5e9" fill-opacity="0.5" stroke="#606060" stroke-width=".5" x="0" y="0" width="60" height="60"/>
                <use id="zoomplus" xlink:href="#zoomPlus" x="17" y="9" onmousedown="handleZoom(evt,'in')"/>
                <use id="zoomminus" xlink:href="#zoomMin" x="42" y="9" onmousedown="handleZoom(evt,'out')"/>
                <use id="reset" xlink:href="#resetDef" x="30" y="36" onmousedown="handleReset()"/>
                <g id="arrowUp" xlink:href="#dirArrow" transform="translate(30 24)" onmousedown="handlePan(0,-1)">
                  <use xlink:href="#rim" fill="#404040">
                        <set attributeName="fill" to="#808080" begin="arrowUp.mouseover" end="arrowUp.mouseout"/>
                  </use>
                  <path fill="none" stroke="white" stroke-width="1.5" d="M0,-3.0v7 M-2.5,-0.5L0,-3.0L2.5,-0.5"/>
                </g>
                <g id="arrowRight" xlink:href="#dirArrow" transform="rotate(90) translate(36 -43)" onmousedown="handlePan(1,0)">
                  <use xlink:href="#rim" fill="#404040">
                        <set attributeName="fill" to="#808080" begin="arrowRight.mouseover" end="arrowRight.mouseout"/>
                  </use>
                  <path fill="none" stroke="white" stroke-width="1.5" d="M0,-3.0v7 M-2.5,-0.5L0,-3.0L2.5,-0.5"/>
                </g>
                <g id="arrowDown" xlink:href="#dirArrow" transform="rotate(180) translate(-30 -48)" onmousedown="handlePan(0,1)">
                  <use xlink:href="#rim" fill="#404040">
                        <set attributeName="fill" to="#808080" begin="arrowDown.mouseover" end="arrowDown.mouseout"/>
                  </use>
                  <path fill="none" stroke="white" stroke-width="1.5" d="M0,-3.0v7 M-2.5,-0.5L0,-3.0L2.5,-0.5"/>
                </g>
                <g id="arrowLeft" xlink:href="#dirArrow" transform="rotate(270) translate(-36 17)" onmousedown="handlePan(-1,0)">
                  <use xlink:href="#rim" fill="#404040">
                        <set attributeName="fill" to="#808080" begin="arrowLeft.mouseover" end="arrowLeft.mouseout"/>
                  </use>
                  <path fill="none" stroke="white" stroke-width="1.5" d="M0,-3.0v7 M-2.5,-0.5L0,-3.0L2.5,-0.5"/>
                </g>
        </g>
        <svg viewBox="0 0 15 15" width="100%" height="30px" preserveAspectRatio="xMaxYMin meet">
         <g id="arrow_out" transform="scale(0.3 0.3)">
          <a xlink:href="classobject__inherit__graph_org.svg" target="_base">
           <rect id="button" ry="5" rx="5" y="6" x="6" height="38" width="38"
                fill="#f2f5e9" fill-opacity="0.5" stroke="#606060" stroke-width="1.0"/>
           <path id="arrow"
             d="M 11.500037,31.436501 C 11.940474,20.09759 22.043105,11.32322 32.158766,21.979434 L 37.068811,17.246167 C 37.068811,17.246167 37.088388,32 37.088388,32 L 22.160133,31.978069 C 22.160133,31.978069 26.997745,27.140456 26.997745,27.140456 C 18.528582,18.264221 13.291696,25.230495 11.500037,31.436501 z"
             style="fill:#404040;"/>
          </a>
         </g>
        </svg>
</svg>
