<?xml version="1.0" encoding="UTF-8" standalone="no"?>
<!DOCTYPE svg PUBLIC "-//W3C//DTD SVG 1.1//EN"
 "http://www.w3.org/Graphics/SVG/1.1/DTD/svg11.dtd">
<!-- Generated by graphviz version 2.30.1 (20130219.2202)
 -->
<!-- Title: OS.pkg._base.PackageManager.updatePackageIndex Pages: 1 -->
<svg width="374pt" height="136pt"
 viewBox="0.00 0.00 374.00 136.00" xmlns="http://www.w3.org/2000/svg" xmlns:xlink="http://www.w3.org/1999/xlink">
<g id="graph0" class="graph" transform="scale(1 1) rotate(0) translate(4 132)">
<title>OS.pkg._base.PackageManager.updatePackageIndex</title>
<!-- Node1 -->
<g id="node1" class="node"><title>Node1</title>
<polygon fill="#bfbfbf" stroke="black" points="0.5,-49 0.5,-79 191.5,-79 191.5,-49 0.5,-49"/>
<text text-anchor="start" x="8.5" y="-67" font-family="Helvetica,sans-Serif" font-size="10.00">OS.pkg._base.PackageManager.update</text>
<text text-anchor="middle" x="96" y="-56" font-family="Helvetica,sans-Serif" font-size="10.00">PackageIndex</text>
</g>
<!-- Node2 -->
<g id="node2" class="node"><title>Node2</title>
<g id="a_node2"><a xlink:href="class_o_s_1_1pkg_1_1__apt_1_1_apt_installer.html#a264c47c1b469c721589b01f1a44ca951" target="_top" xlink:title="OS.pkg._apt.AptInstaller.is\lAvailable">
<polygon fill="none" stroke="black" points="232.5,-98 232.5,-128 361.5,-128 361.5,-98 232.5,-98"/>
<text text-anchor="start" x="240.5" y="-116" font-family="Helvetica,sans-Serif" font-size="10.00">OS.pkg._apt.AptInstaller.is</text>
<text text-anchor="middle" x="297" y="-105" font-family="Helvetica,sans-Serif" font-size="10.00">Available</text>
</a>
</g>
</g>
<!-- Node1&#45;&gt;Node2 -->
<g id="edge1" class="edge"><title>Node1&#45;&gt;Node2</title>
<path fill="none" stroke="midnightblue" d="M167.977,-81.4768C189.911,-86.8775 213.864,-92.7755 235.057,-97.9938"/>
<polygon fill="midnightblue" stroke="midnightblue" points="168.606,-78.0271 158.059,-79.0346 166.932,-84.8241 168.606,-78.0271"/>
</g>
<!-- Node3 -->
<g id="node3" class="node"><title>Node3</title>
<g id="a_node3"><a xlink:href="class_o_s_1_1pkg_1_1__macports_1_1_mac_port_installer.html#aba17b213e94c17bf5501cc5ab45e56b7" target="_top" xlink:title="OS.pkg._macports.MacPort\lInstaller.isAvailable">
<polygon fill="none" stroke="black" points="230,-49 230,-79 364,-79 364,-49 230,-49"/>
<text text-anchor="start" x="238" y="-67" font-family="Helvetica,sans-Serif" font-size="10.00">OS.pkg._macports.MacPort</text>
<text text-anchor="middle" x="297" y="-56" font-family="Helvetica,sans-Serif" font-size="10.00">Installer.isAvailable</text>
</a>
</g>
</g>
<!-- Node1&#45;&gt;Node3 -->
<g id="edge2" class="edge"><title>Node1&#45;&gt;Node3</title>
<path fill="none" stroke="midnightblue" d="M201.559,-64C211.16,-64 220.698,-64 229.814,-64"/>
<polygon fill="midnightblue" stroke="midnightblue" points="201.546,-60.5001 191.546,-64 201.546,-67.5001 201.546,-60.5001"/>
</g>
<!-- Node4 -->
<g id="node4" class="node"><title>Node4</title>
<g id="a_node4"><a xlink:href="class_o_s_1_1pkg_1_1__yum_1_1_yum_installer.html#a6690bd069e3028c0deb55caae9fa4ddc" target="_top" xlink:title="OS.pkg._yum.YumInstaller.is\lInstalled">
<polygon fill="none" stroke="black" points="228.5,-0 228.5,-30 365.5,-30 365.5,-0 228.5,-0"/>
<text text-anchor="start" x="236.5" y="-18" font-family="Helvetica,sans-Serif" font-size="10.00">OS.pkg._yum.YumInstaller.is</text>
<text text-anchor="middle" x="297" y="-7" font-family="Helvetica,sans-Serif" font-size="10.00">Installed</text>
</a>
</g>
</g>
<!-- Node1&#45;&gt;Node4 -->
<g id="edge3" class="edge"><title>Node1&#45;&gt;Node4</title>
<path fill="none" stroke="midnightblue" d="M167.977,-46.5232C189.911,-41.1225 213.864,-35.2245 235.057,-30.0062"/>
<polygon fill="midnightblue" stroke="midnightblue" points="166.932,-43.1759 158.059,-48.9654 168.606,-49.9729 166.932,-43.1759"/>
</g>
</g>
</svg>
