<?xml version="1.0" encoding="UTF-8" standalone="no"?>
<!DOCTYPE svg PUBLIC "-//W3C//DTD SVG 1.1//EN"
 "http://www.w3.org/Graphics/SVG/1.1/DTD/svg11.dtd">
<!-- Generated by graphviz version 2.30.1 (20130219.2202)
 -->
<!-- Title: OS.pkg._base.PackageManager.update Pages: 1 -->
<svg width="414pt" height="185pt"
 viewBox="0.00 0.00 414.00 185.00" xmlns="http://www.w3.org/2000/svg" xmlns:xlink="http://www.w3.org/1999/xlink">
<g id="graph0" class="graph" transform="scale(1 1) rotate(0) translate(4 181)">
<title>OS.pkg._base.PackageManager.update</title>
<!-- Node1 -->
<g id="node1" class="node"><title>Node1</title>
<polygon fill="#bfbfbf" stroke="black" points="0.5,-78.5 0.5,-97.5 191.5,-97.5 191.5,-78.5 0.5,-78.5"/>
<text text-anchor="middle" x="96" y="-85.5" font-family="Helvetica,sans-Serif" font-size="10.00">OS.pkg._base.PackageManager.update</text>
</g>
<!-- Node2 -->
<g id="node2" class="node"><title>Node2</title>
<g id="a_node2"><a xlink:href="class_o_s_1_1pkg_1_1__base_1_1_package_manager.html#a24dc28b910768a2560b8797193426d45" target="_top" xlink:title="OS.pkg._base.PackageManager.\l_execAsRoot_pkgManagerCommand">
<polygon fill="none" stroke="black" points="228,-147 228,-177 406,-177 406,-147 228,-147"/>
<text text-anchor="start" x="236" y="-165" font-family="Helvetica,sans-Serif" font-size="10.00">OS.pkg._base.PackageManager.</text>
<text text-anchor="middle" x="317" y="-154" font-family="Helvetica,sans-Serif" font-size="10.00">_execAsRoot_pkgManagerCommand</text>
</a>
</g>
</g>
<!-- Node1&#45;&gt;Node2 -->
<g id="edge1" class="edge"><title>Node1&#45;&gt;Node2</title>
<path fill="none" stroke="midnightblue" d="M120.937,-97.6217C147.045,-107.958 190.166,-124.573 228,-137 235.321,-139.405 243.027,-141.796 250.71,-144.092"/>
<polygon fill="midnightblue" stroke="midnightblue" points="249.818,-147.478 260.399,-146.944 251.794,-140.763 249.818,-147.478"/>
</g>
<!-- Node3 -->
<g id="node3" class="node"><title>Node3</title>
<g id="a_node3"><a xlink:href="class_o_s_1_1pkg_1_1__apt_1_1_apt_installer.html#a25545fba18d17abee9fe2be65dc5b0a3" target="_top" xlink:title="OS.pkg._apt.AptInstaller.\l_update">
<polygon fill="none" stroke="black" points="256,-98 256,-128 378,-128 378,-98 256,-98"/>
<text text-anchor="start" x="264" y="-116" font-family="Helvetica,sans-Serif" font-size="10.00">OS.pkg._apt.AptInstaller.</text>
<text text-anchor="middle" x="317" y="-105" font-family="Helvetica,sans-Serif" font-size="10.00">_update</text>
</a>
</g>
</g>
<!-- Node1&#45;&gt;Node3 -->
<g id="edge2" class="edge"><title>Node1&#45;&gt;Node3</title>
<path fill="none" stroke="midnightblue" d="M180.419,-97.5227C202.026,-99.9893 225.071,-102.62 245.917,-105"/>
<polygon fill="midnightblue" stroke="midnightblue" points="245.626,-108.489 255.958,-106.146 246.42,-101.534 245.626,-108.489"/>
</g>
<!-- Node4 -->
<g id="node4" class="node"><title>Node4</title>
<g id="a_node4"><a xlink:href="class_o_s_1_1pkg_1_1__base_1_1_package_manager.html#a86dd2e22dbc4e0873e955137ab7aa3f4" target="_top" xlink:title="OS.pkg._base.PackageManager.\l_update">
<polygon fill="none" stroke="black" points="236.5,-49 236.5,-79 397.5,-79 397.5,-49 236.5,-49"/>
<text text-anchor="start" x="244.5" y="-67" font-family="Helvetica,sans-Serif" font-size="10.00">OS.pkg._base.PackageManager.</text>
<text text-anchor="middle" x="317" y="-56" font-family="Helvetica,sans-Serif" font-size="10.00">_update</text>
</a>
</g>
</g>
<!-- Node1&#45;&gt;Node4 -->
<g id="edge3" class="edge"><title>Node1&#45;&gt;Node4</title>
<path fill="none" stroke="midnightblue" d="M183.869,-78.4801C197.803,-76.9531 212.248,-75.37 226.248,-73.8358"/>
<polygon fill="midnightblue" stroke="midnightblue" points="226.791,-77.2974 236.35,-72.7288 226.028,-70.3391 226.791,-77.2974"/>
</g>
<!-- Node5 -->
<g id="node5" class="node"><title>Node5</title>
<g id="a_node5"><a xlink:href="class_o_s_1_1pkg_1_1__base_1_1_package_manager.html#a96d015bb45e8fae7278a77e4e0c251df" target="_top" xlink:title="OS.pkg._base.PackageManager.\l_execAsRoot_withPkgs">
<polygon fill="none" stroke="black" points="236.5,-0 236.5,-30 397.5,-30 397.5,-0 236.5,-0"/>
<text text-anchor="start" x="244.5" y="-18" font-family="Helvetica,sans-Serif" font-size="10.00">OS.pkg._base.PackageManager.</text>
<text text-anchor="middle" x="317" y="-7" font-family="Helvetica,sans-Serif" font-size="10.00">_execAsRoot_withPkgs</text>
</a>
</g>
</g>
<!-- Node1&#45;&gt;Node5 -->
<g id="edge4" class="edge"><title>Node1&#45;&gt;Node5</title>
<path fill="none" stroke="midnightblue" d="M121.437,-78.4266C147.608,-68.32 190.449,-52.1948 228,-40 235.329,-37.62 243.04,-35.2442 250.726,-32.9565"/>
<polygon fill="midnightblue" stroke="midnightblue" points="251.808,-36.2867 260.417,-30.1121 249.836,-29.57 251.808,-36.2867"/>
</g>
</g>
</svg>
