<?xml version="1.0" encoding="UTF-8" standalone="no"?>
<!DOCTYPE svg PUBLIC "-//W3C//DTD SVG 1.1//EN"
 "http://www.w3.org/Graphics/SVG/1.1/DTD/svg11.dtd">
<!-- Generated by graphviz version 2.30.1 (20130219.2202)
 -->
<!-- Title: OS.pkg._base.PackageManager.isInstalled Pages: 1 -->
<svg width="760pt" height="66pt"
 viewBox="0.00 0.00 760.00 66.00" xmlns="http://www.w3.org/2000/svg" xmlns:xlink="http://www.w3.org/1999/xlink">
<g id="graph0" class="graph" transform="scale(1 1) rotate(0) translate(4 62)">
<title>OS.pkg._base.PackageManager.isInstalled</title>
<!-- Node1 -->
<g id="node1" class="node"><title>Node1</title>
<polygon fill="#bfbfbf" stroke="black" points="0.5,-14 0.5,-44 167.5,-44 167.5,-14 0.5,-14"/>
<text text-anchor="start" x="8.5" y="-32" font-family="Helvetica,sans-Serif" font-size="10.00">OS.pkg._base.PackageManager.is</text>
<text text-anchor="middle" x="84" y="-21" font-family="Helvetica,sans-Serif" font-size="10.00">Installed</text>
</g>
<!-- Node2 -->
<g id="node2" class="node"><title>Node2</title>
<g id="a_node2"><a xlink:href="class_o_s_1_1pkg_1_1__base_1_1_package_manager.html#a7d0ca35a8011599b3dd74ed6b8673e2d" target="_top" xlink:title="OS.pkg._base.PackageManager.install">
<polygon fill="none" stroke="black" points="204,-38.5 204,-57.5 388,-57.5 388,-38.5 204,-38.5"/>
<text text-anchor="middle" x="296" y="-45.5" font-family="Helvetica,sans-Serif" font-size="10.00">OS.pkg._base.PackageManager.install</text>
</a>
</g>
</g>
<!-- Node1&#45;&gt;Node2 -->
<g id="edge1" class="edge"><title>Node1&#45;&gt;Node2</title>
<path fill="none" stroke="midnightblue" d="M177.751,-37.3917C186.371,-38.1717 195.104,-38.9618 203.711,-39.7405"/>
<polygon fill="midnightblue" stroke="midnightblue" points="177.971,-33.8974 167.696,-36.482 177.34,-40.869 177.971,-33.8974"/>
</g>
<!-- Node5 -->
<g id="node5" class="node"><title>Node5</title>
<g id="a_node5"><a xlink:href="class_o_s_1_1pkg_1_1__yum_1_1___e_p_e_l.html#a7ec9220419eb8a45d45397c9168244d4" target="_top" xlink:title="OS.pkg._yum._EPEL.install">
<polygon fill="none" stroke="black" points="229,-0.5 229,-19.5 363,-19.5 363,-0.5 229,-0.5"/>
<text text-anchor="middle" x="296" y="-7.5" font-family="Helvetica,sans-Serif" font-size="10.00">OS.pkg._yum._EPEL.install</text>
</a>
</g>
</g>
<!-- Node1&#45;&gt;Node5 -->
<g id="edge4" class="edge"><title>Node1&#45;&gt;Node5</title>
<path fill="none" stroke="midnightblue" d="M177.775,-20.6061C195.005,-19.0471 212.681,-17.448 228.911,-15.9795"/>
<polygon fill="midnightblue" stroke="midnightblue" points="177.34,-17.131 167.696,-21.518 177.971,-24.1026 177.34,-17.131"/>
</g>
<!-- Node3 -->
<g id="node3" class="node"><title>Node3</title>
<g id="a_node3"><a xlink:href="class_o_s_1_1pkg_1_1__apt_1_1_apt_installer.html#ae6235991c2c72e8eb41a5bc8543f2808" target="_top" xlink:title="OS.pkg._apt.AptInstaller.is\lSupported">
<polygon fill="none" stroke="black" points="424.5,-14 424.5,-44 553.5,-44 553.5,-14 424.5,-14"/>
<text text-anchor="start" x="432.5" y="-32" font-family="Helvetica,sans-Serif" font-size="10.00">OS.pkg._apt.AptInstaller.is</text>
<text text-anchor="middle" x="489" y="-21" font-family="Helvetica,sans-Serif" font-size="10.00">Supported</text>
</a>
</g>
</g>
<!-- Node2&#45;&gt;Node3 -->
<g id="edge2" class="edge"><title>Node2&#45;&gt;Node3</title>
<path fill="none" stroke="midnightblue" d="M398.119,-37.941C407.05,-37.0527 415.915,-36.1708 424.4,-35.3267"/>
<polygon fill="midnightblue" stroke="midnightblue" points="397.629,-34.4724 388.025,-38.9452 398.322,-41.438 397.629,-34.4724"/>
</g>
<!-- Node4 -->
<g id="node4" class="node"><title>Node4</title>
<g id="a_node4"><a xlink:href="class_o_s_1_1pkg_1_1__base_1_1_package_manager.html#ab78460e53fabcaf52835cc135f6a02a7" target="_top" xlink:title="OS.pkg._base.PackageManager.\l__init__">
<polygon fill="none" stroke="black" points="590.5,-14 590.5,-44 751.5,-44 751.5,-14 590.5,-14"/>
<text text-anchor="start" x="598.5" y="-32" font-family="Helvetica,sans-Serif" font-size="10.00">OS.pkg._base.PackageManager.</text>
<text text-anchor="middle" x="671" y="-21" font-family="Helvetica,sans-Serif" font-size="10.00">__init__</text>
</a>
</g>
</g>
<!-- Node3&#45;&gt;Node4 -->
<g id="edge3" class="edge"><title>Node3&#45;&gt;Node4</title>
<path fill="none" stroke="midnightblue" d="M563.836,-29C572.556,-29 581.487,-29 590.284,-29"/>
<polygon fill="midnightblue" stroke="midnightblue" points="563.715,-25.5001 553.715,-29 563.715,-32.5001 563.715,-25.5001"/>
</g>
<!-- Node5&#45;&gt;Node3 -->
<g id="edge5" class="edge"><title>Node5&#45;&gt;Node3</title>
<path fill="none" stroke="midnightblue" d="M373.634,-17.6233C390.486,-19.2996 408.154,-21.0572 424.425,-22.6758"/>
<polygon fill="midnightblue" stroke="midnightblue" points="373.564,-14.0991 363.266,-16.592 372.871,-21.0647 373.564,-14.0991"/>
</g>
</g>
</svg>
