<?xml version="1.0" encoding="UTF-8" standalone="no"?>
<!DOCTYPE svg PUBLIC "-//W3C//DTD SVG 1.1//EN"
 "http://www.w3.org/Graphics/SVG/1.1/DTD/svg11.dtd">
<!-- Generated by graphviz version 2.30.1 (20130221.2233)
 -->
<!-- Title: OS.GPG.GPG.importPublicKey_signTrust Pages: 1 -->
<svg width="358pt" height="142pt"
 viewBox="0.00 0.00 358.00 142.00" xmlns="http://www.w3.org/2000/svg" xmlns:xlink="http://www.w3.org/1999/xlink">
<g id="graph0" class="graph" transform="scale(1 1) rotate(0) translate(4 138)">
<title>OS.GPG.GPG.importPublicKey_signTrust</title>
<!-- Node1 -->
<g id="node1" class="node"><title>Node1</title>
<polygon fill="#bfbfbf" stroke="black" points="0,-52 0,-82 156,-82 156,-52 0,-52"/>
<text text-anchor="start" x="8" y="-70" font-family="Helvetica,sans-Serif" font-size="10.00">OS.GPG.GPG.importPublicKey</text>
<text text-anchor="middle" x="78" y="-59" font-family="Helvetica,sans-Serif" font-size="10.00">_signTrust</text>
</g>
<!-- Node2 -->
<g id="node2" class="node"><title>Node2</title>
<g id="a_node2"><a xlink:href="class_o_s_1_1_g_p_g_1_1_g_p_g.html#a5a277f4ab5310eaac18c939d88b58a1c" target="_top" xlink:title="OS.GPG.GPG.importPublicKey">
<polygon fill="none" stroke="black" points="193,-114.5 193,-133.5 349,-133.5 349,-114.5 193,-114.5"/>
<text text-anchor="middle" x="271" y="-121.5" font-family="Helvetica,sans-Serif" font-size="10.00">OS.GPG.GPG.importPublicKey</text>
</a>
</g>
</g>
<!-- Node1&#45;&gt;Node2 -->
<g id="edge1" class="edge"><title>Node1&#45;&gt;Node2</title>
<path fill="none" stroke="midnightblue" d="M120.855,-82.026C142.041,-89.3883 168.241,-98.125 192,-105 200.463,-107.449 209.502,-109.847 218.317,-112.07"/>
<polygon fill="midnightblue" stroke="midnightblue" points="217.583,-115.494 228.131,-114.498 219.265,-108.699 217.583,-115.494"/>
</g>
<!-- Node3 -->
<g id="node3" class="node"><title>Node3</title>
<g id="a_node3"><a xlink:href="class_o_s_1_1_g_p_g_1_1_g_p_g.html#a84cc5f9f7bfdcdea2089b8cd5f368c3d" target="_top" xlink:title="Gets first key ID of the key in filename. ">
<polygon fill="none" stroke="black" points="208.5,-76.5 208.5,-95.5 333.5,-95.5 333.5,-76.5 208.5,-76.5"/>
<text text-anchor="middle" x="271" y="-83.5" font-family="Helvetica,sans-Serif" font-size="10.00">OS.GPG.GPG.getKeyID</text>
</a>
</g>
</g>
<!-- Node1&#45;&gt;Node3 -->
<g id="edge2" class="edge"><title>Node1&#45;&gt;Node3</title>
<path fill="none" stroke="midnightblue" d="M156.136,-74.6733C169.997,-76.0521 184.394,-77.4842 198.099,-78.8476"/>
<polygon fill="midnightblue" stroke="midnightblue" points="198.127,-82.3675 208.424,-79.8747 198.82,-75.4019 198.127,-82.3675"/>
</g>
<!-- Node4 -->
<g id="node4" class="node"><title>Node4</title>
<g id="a_node4"><a xlink:href="class_o_s_1_1_g_p_g_1_1_g_p_g.html#a0e633b7b40398af8253875bc4f0c81e0" target="_top" xlink:title="LIMITATION: If key is already signed, gnupg prints out key information to terminal even if stdout is ...">
<polygon fill="none" stroke="black" points="211.5,-38.5 211.5,-57.5 330.5,-57.5 330.5,-38.5 211.5,-38.5"/>
<text text-anchor="middle" x="271" y="-45.5" font-family="Helvetica,sans-Serif" font-size="10.00">OS.GPG.GPG.signKey</text>
</a>
</g>
</g>
<!-- Node1&#45;&gt;Node4 -->
<g id="edge3" class="edge"><title>Node1&#45;&gt;Node4</title>
<path fill="none" stroke="midnightblue" d="M156.136,-59.3267C171.11,-57.8372 186.71,-56.2854 201.387,-54.8254"/>
<polygon fill="midnightblue" stroke="midnightblue" points="201.777,-58.3039 211.381,-53.8312 201.084,-51.3383 201.777,-58.3039"/>
</g>
<!-- Node5 -->
<g id="node5" class="node"><title>Node5</title>
<g id="a_node5"><a xlink:href="class_o_s_1_1_g_p_g_1_1_g_p_g.html#a8fe9d92003c881c3936b26934d2862fd" target="_top" xlink:title="LIMITATION: Owner trust of key can&#39;t be set non&#45;interactively for it due to limitations in the gnupg ...">
<polygon fill="none" stroke="black" points="192.5,-0.5 192.5,-19.5 349.5,-19.5 349.5,-0.5 192.5,-0.5"/>
<text text-anchor="middle" x="271" y="-7.5" font-family="Helvetica,sans-Serif" font-size="10.00">OS.GPG.GPG.markKeyTrusted</text>
</a>
</g>
</g>
<!-- Node1&#45;&gt;Node5 -->
<g id="edge4" class="edge"><title>Node1&#45;&gt;Node5</title>
<path fill="none" stroke="midnightblue" d="M120.855,-51.974C142.041,-44.6117 168.241,-35.875 192,-29 200.463,-26.5511 209.502,-24.1532 218.317,-21.9304"/>
<polygon fill="midnightblue" stroke="midnightblue" points="219.265,-25.3015 228.131,-19.5017 217.583,-18.5064 219.265,-25.3015"/>
</g>
</g>
</svg>
