<?xml version="1.0" encoding="UTF-8" standalone="no"?>
<!DOCTYPE svg PUBLIC "-//W3C//DTD SVG 1.1//EN"
 "http://www.w3.org/Graphics/SVG/1.1/DTD/svg11.dtd">
<!-- Generated by graphviz version 2.30.1 (20130219.2202)
 -->
<!-- Title: object Pages: 1 -->
<svg width="846pt" height="364pt"
 viewBox="0.00 0.00 846.00 364.00" xmlns="http://www.w3.org/2000/svg" xmlns:xlink="http://www.w3.org/1999/xlink">
<g id="graph0" class="graph" transform="scale(1 1) rotate(0) translate(4 360)">
<title>object</title>
<!-- Node1 -->
<g id="node1" class="node"><title>Node1</title>
<polygon fill="#bfbfbf" stroke="black" points="379,-298.5 379,-355.5 421,-355.5 421,-298.5 379,-298.5"/>
<text text-anchor="middle" x="400" y="-343.5" font-family="Helvetica,sans-Serif" font-size="10.00">object</text>
<polyline fill="none" stroke="black" points="379,-336.5 421,-336.5 "/>
<text text-anchor="middle" x="400" y="-324.5" font-family="Helvetica,sans-Serif" font-size="10.00"> </text>
<polyline fill="none" stroke="black" points="379,-317.5 421,-317.5 "/>
<text text-anchor="middle" x="400" y="-305.5" font-family="Helvetica,sans-Serif" font-size="10.00"> </text>
</g>
<!-- Node2 -->
<g id="node2" class="node"><title>Node2</title>
<g id="a_node2"><a xlink:href="class_o_s_1_1___o_s_1_1_c_m_d___proc.html" target="_top" xlink:title="{OS._OS.CMD_Proc\n|+ cmd\l|+ __init__()\l}">
<polygon fill="none" stroke="black" points="28,-160.5 28,-217.5 132,-217.5 132,-160.5 28,-160.5"/>
<text text-anchor="middle" x="80" y="-205.5" font-family="Helvetica,sans-Serif" font-size="10.00">OS._OS.CMD_Proc</text>
<polyline fill="none" stroke="black" points="28,-198.5 132,-198.5 "/>
<text text-anchor="start" x="36" y="-186.5" font-family="Helvetica,sans-Serif" font-size="10.00">+ cmd</text>
<polyline fill="none" stroke="black" points="28,-179.5 132,-179.5 "/>
<text text-anchor="start" x="36" y="-167.5" font-family="Helvetica,sans-Serif" font-size="10.00">+ __init__()</text>
</a>
</g>
</g>
<!-- Node1&#45;&gt;Node2 -->
<g id="edge1" class="edge"><title>Node1&#45;&gt;Node2</title>
<path fill="none" stroke="midnightblue" d="M368.629,-322.825C320.304,-316.86 225.923,-300.878 156,-262 135.667,-250.695 116.667,-232.695 102.75,-217.521"/>
<polygon fill="none" stroke="midnightblue" points="368.434,-326.326 378.773,-324.012 369.248,-319.374 368.434,-326.326"/>
</g>
<!-- Node4 -->
<g id="node4" class="node"><title>Node4</title>
<g id="a_node4"><a xlink:href="class_o_s_1_1___o_s_1_1_c_m_d___proc_exception.html" target="_top" xlink:title="{OS._OS.CMD_ProcException\n|+ proc\l|+ __init__()\l}">
<polygon fill="none" stroke="black" points="165,-160.5 165,-217.5 311,-217.5 311,-160.5 165,-160.5"/>
<text text-anchor="middle" x="238" y="-205.5" font-family="Helvetica,sans-Serif" font-size="10.00">OS._OS.CMD_ProcException</text>
<polyline fill="none" stroke="black" points="165,-198.5 311,-198.5 "/>
<text text-anchor="start" x="173" y="-186.5" font-family="Helvetica,sans-Serif" font-size="10.00">+ proc</text>
<polyline fill="none" stroke="black" points="165,-179.5 311,-179.5 "/>
<text text-anchor="start" x="173" y="-167.5" font-family="Helvetica,sans-Serif" font-size="10.00">+ __init__()</text>
</a>
</g>
</g>
<!-- Node1&#45;&gt;Node4 -->
<g id="edge3" class="edge"><title>Node1&#45;&gt;Node4</title>
<path fill="none" stroke="midnightblue" d="M370.67,-303.061C355.423,-291.004 336.561,-275.883 320,-262 302.868,-247.639 284.108,-231.219 268.86,-217.69"/>
<polygon fill="none" stroke="midnightblue" points="368.712,-305.974 378.732,-309.417 373.046,-300.477 368.712,-305.974"/>
</g>
<!-- Node7 -->
<g id="node7" class="node"><title>Node7</title>
<g id="a_node7"><a xlink:href="class_o_s_1_1_g_p_g_1_1_g_p_g.html" target="_top" xlink:title="Quick GNUPG implementation with common functions, using the command line interface.">
<polygon fill="none" stroke="black" points="329,-116.5 329,-261.5 471,-261.5 471,-116.5 329,-116.5"/>
<text text-anchor="middle" x="400" y="-249.5" font-family="Helvetica,sans-Serif" font-size="10.00">OS.GPG.GPG</text>
<polyline fill="none" stroke="black" points="329,-242.5 471,-242.5 "/>
<text text-anchor="middle" x="400" y="-230.5" font-family="Helvetica,sans-Serif" font-size="10.00"> </text>
<polyline fill="none" stroke="black" points="329,-223.5 471,-223.5 "/>
<text text-anchor="start" x="337" y="-211.5" font-family="Helvetica,sans-Serif" font-size="10.00">+ importPublicKey()</text>
<text text-anchor="start" x="337" y="-200.5" font-family="Helvetica,sans-Serif" font-size="10.00">+ importPrivateKey()</text>
<text text-anchor="start" x="337" y="-189.5" font-family="Helvetica,sans-Serif" font-size="10.00">+ signKey()</text>
<text text-anchor="start" x="337" y="-178.5" font-family="Helvetica,sans-Serif" font-size="10.00">+ markKeyTrusted()</text>
<text text-anchor="start" x="337" y="-167.5" font-family="Helvetica,sans-Serif" font-size="10.00">+ importPublicKey_signTrust()</text>
<text text-anchor="start" x="337" y="-156.5" font-family="Helvetica,sans-Serif" font-size="10.00">+ isKeyImported()</text>
<text text-anchor="start" x="337" y="-145.5" font-family="Helvetica,sans-Serif" font-size="10.00">+ getKeyID()</text>
<text text-anchor="start" x="337" y="-134.5" font-family="Helvetica,sans-Serif" font-size="10.00">+ encrypt()</text>
<text text-anchor="start" x="337" y="-123.5" font-family="Helvetica,sans-Serif" font-size="10.00">+ decrypt()</text>
</a>
</g>
</g>
<!-- Node1&#45;&gt;Node7 -->
<g id="edge6" class="edge"><title>Node1&#45;&gt;Node7</title>
<path fill="none" stroke="midnightblue" d="M400,-288.356C400,-279.999 400,-270.872 400,-261.656"/>
<polygon fill="none" stroke="midnightblue" points="396.5,-288.478 400,-298.478 403.5,-288.478 396.5,-288.478"/>
</g>
<!-- Node8 -->
<g id="node8" class="node"><title>Node8</title>
<g id="a_node8"><a xlink:href="class_o_s_1_1pkg_1_1__base_1_1_package_manager.html" target="_top" xlink:title="{OS.pkg._base.PackageManager\n||+ __init__()\l+ isSupported()\l+ updatePackageIndex()\l+ install()\l+ update()\l+ remove()\l+ isInstalled()\l+ isAvailable()\l}">
<polygon fill="none" stroke="black" points="489,-122 489,-256 647,-256 647,-122 489,-122"/>
<text text-anchor="middle" x="568" y="-244" font-family="Helvetica,sans-Serif" font-size="10.00">OS.pkg._base.PackageManager</text>
<polyline fill="none" stroke="black" points="489,-237 647,-237 "/>
<text text-anchor="middle" x="568" y="-225" font-family="Helvetica,sans-Serif" font-size="10.00"> </text>
<polyline fill="none" stroke="black" points="489,-218 647,-218 "/>
<text text-anchor="start" x="497" y="-206" font-family="Helvetica,sans-Serif" font-size="10.00">+ __init__()</text>
<text text-anchor="start" x="497" y="-195" font-family="Helvetica,sans-Serif" font-size="10.00">+ isSupported()</text>
<text text-anchor="start" x="497" y="-184" font-family="Helvetica,sans-Serif" font-size="10.00">+ updatePackageIndex()</text>
<text text-anchor="start" x="497" y="-173" font-family="Helvetica,sans-Serif" font-size="10.00">+ install()</text>
<text text-anchor="start" x="497" y="-162" font-family="Helvetica,sans-Serif" font-size="10.00">+ update()</text>
<text text-anchor="start" x="497" y="-151" font-family="Helvetica,sans-Serif" font-size="10.00">+ remove()</text>
<text text-anchor="start" x="497" y="-140" font-family="Helvetica,sans-Serif" font-size="10.00">+ isInstalled()</text>
<text text-anchor="start" x="497" y="-129" font-family="Helvetica,sans-Serif" font-size="10.00">+ isAvailable()</text>
</a>
</g>
</g>
<!-- Node1&#45;&gt;Node8 -->
<g id="edge7" class="edge"><title>Node1&#45;&gt;Node8</title>
<path fill="none" stroke="midnightblue" d="M429.132,-302.821C444.326,-290.699 463.199,-275.593 480,-262 482.916,-259.641 485.883,-257.236 488.879,-254.804"/>
<polygon fill="none" stroke="midnightblue" points="426.743,-300.249 421.105,-309.219 431.106,-305.722 426.743,-300.249"/>
</g>
<!-- Node9 -->
<g id="node9" class="node"><title>Node9</title>
<g id="a_node9"><a xlink:href="class_o_s_1_1pkg_1_1__yum_1_1___yum_dummy_callback.html" target="_top" xlink:title="{OS.pkg._yum._YumDummyCallback\n||+ event()\l}">
<polygon fill="none" stroke="black" points="665.5,-160.5 665.5,-217.5 838.5,-217.5 838.5,-160.5 665.5,-160.5"/>
<text text-anchor="middle" x="752" y="-205.5" font-family="Helvetica,sans-Serif" font-size="10.00">OS.pkg._yum._YumDummyCallback</text>
<polyline fill="none" stroke="black" points="665.5,-198.5 838.5,-198.5 "/>
<text text-anchor="middle" x="752" y="-186.5" font-family="Helvetica,sans-Serif" font-size="10.00"> </text>
<polyline fill="none" stroke="black" points="665.5,-179.5 838.5,-179.5 "/>
<text text-anchor="start" x="673.5" y="-167.5" font-family="Helvetica,sans-Serif" font-size="10.00">+ event()</text>
</a>
</g>
</g>
<!-- Node1&#45;&gt;Node9 -->
<g id="edge8" class="edge"><title>Node1&#45;&gt;Node9</title>
<path fill="none" stroke="midnightblue" d="M431.298,-322.257C480.938,-315.44 579.888,-298.227 656,-262 679.89,-250.629 703.703,-232.82 721.636,-217.76"/>
<polygon fill="none" stroke="midnightblue" points="430.651,-318.812 421.196,-323.593 431.569,-325.752 430.651,-318.812"/>
</g>
<!-- Node3 -->
<g id="node3" class="node"><title>Node3</title>
<g id="a_node3"><a xlink:href="class_o_s_1_1___o_s_1_1_c_m_d___proc_output.html" target="_top" xlink:title="{OS._OS.CMD_ProcOutput\n|+ returnCode\l+ stdout\l+ stderr\l|+ __init__()\l}">
<polygon fill="none" stroke="black" points="-0.5,-0.5 -0.5,-79.5 132.5,-79.5 132.5,-0.5 -0.5,-0.5"/>
<text text-anchor="middle" x="66" y="-67.5" font-family="Helvetica,sans-Serif" font-size="10.00">OS._OS.CMD_ProcOutput</text>
<polyline fill="none" stroke="black" points="-0.5,-60.5 132.5,-60.5 "/>
<text text-anchor="start" x="7.5" y="-48.5" font-family="Helvetica,sans-Serif" font-size="10.00">+ returnCode</text>
<text text-anchor="start" x="7.5" y="-37.5" font-family="Helvetica,sans-Serif" font-size="10.00">+ stdout</text>
<text text-anchor="start" x="7.5" y="-26.5" font-family="Helvetica,sans-Serif" font-size="10.00">+ stderr</text>
<polyline fill="none" stroke="black" points="-0.5,-19.5 132.5,-19.5 "/>
<text text-anchor="start" x="7.5" y="-7.5" font-family="Helvetica,sans-Serif" font-size="10.00">+ __init__()</text>
</a>
</g>
</g>
<!-- Node2&#45;&gt;Node3 -->
<g id="edge2" class="edge"><title>Node2&#45;&gt;Node3</title>
<path fill="none" stroke="midnightblue" d="M76.4003,-150.203C74.3373,-128.542 71.754,-101.417 69.678,-79.6195"/>
<polygon fill="none" stroke="midnightblue" points="72.9343,-150.727 77.3667,-160.35 79.9028,-150.064 72.9343,-150.727"/>
</g>
<!-- Node5 -->
<g id="node5" class="node"><title>Node5</title>
<g id="a_node5"><a xlink:href="class_o_s_1_1___o_s_1_1_c_m_d___proc_output_exception.html" target="_top" xlink:title="{OS._OS.CMD_ProcOutputException\n||+ __init__()\l}">
<polygon fill="none" stroke="black" points="150.5,-11.5 150.5,-68.5 325.5,-68.5 325.5,-11.5 150.5,-11.5"/>
<text text-anchor="middle" x="238" y="-56.5" font-family="Helvetica,sans-Serif" font-size="10.00">OS._OS.CMD_ProcOutputException</text>
<polyline fill="none" stroke="black" points="150.5,-49.5 325.5,-49.5 "/>
<text text-anchor="middle" x="238" y="-37.5" font-family="Helvetica,sans-Serif" font-size="10.00"> </text>
<polyline fill="none" stroke="black" points="150.5,-30.5 325.5,-30.5 "/>
<text text-anchor="start" x="158.5" y="-18.5" font-family="Helvetica,sans-Serif" font-size="10.00">+ __init__()</text>
</a>
</g>
</g>
<!-- Node4&#45;&gt;Node5 -->
<g id="edge4" class="edge"><title>Node4&#45;&gt;Node5</title>
<path fill="none" stroke="midnightblue" d="M238,-150.276C238,-124.742 238,-91.5883 238,-68.5256"/>
<polygon fill="none" stroke="midnightblue" points="234.5,-150.35 238,-160.35 241.5,-150.35 234.5,-150.35"/>
</g>
<!-- Node6 -->
<g id="node6" class="node"><title>Node6</title>
<g id="a_node6"><a xlink:href="class_o_s_1_1pkg_1_1__base_1_1_c_m_d___proc_exception.html" target="_top" xlink:title="{OS.pkg._base.CMD_ProcException\n|+ originalException\l|+ __init__()\l}">
<polygon fill="none" stroke="black" points="343.5,-11.5 343.5,-68.5 514.5,-68.5 514.5,-11.5 343.5,-11.5"/>
<text text-anchor="middle" x="429" y="-56.5" font-family="Helvetica,sans-Serif" font-size="10.00">OS.pkg._base.CMD_ProcException</text>
<polyline fill="none" stroke="black" points="343.5,-49.5 514.5,-49.5 "/>
<text text-anchor="start" x="351.5" y="-37.5" font-family="Helvetica,sans-Serif" font-size="10.00">+ originalException</text>
<polyline fill="none" stroke="black" points="343.5,-30.5 514.5,-30.5 "/>
<text text-anchor="start" x="351.5" y="-18.5" font-family="Helvetica,sans-Serif" font-size="10.00">+ __init__()</text>
</a>
</g>
</g>
<!-- Node4&#45;&gt;Node6 -->
<g id="edge5" class="edge"><title>Node4&#45;&gt;Node6</title>
<path fill="none" stroke="midnightblue" d="M275.458,-153.457C289.172,-141.257 305.006,-127.676 320,-116 341.295,-99.4173 366.005,-82.257 386.508,-68.5428"/>
<polygon fill="none" stroke="midnightblue" points="272.761,-151.174 267.652,-160.456 277.434,-156.386 272.761,-151.174"/>
</g>
</g>
</svg>
