<?xml version="1.0" encoding="UTF-8" standalone="no"?>
<!DOCTYPE svg PUBLIC "-//W3C//DTD SVG 1.1//EN"
 "http://www.w3.org/Graphics/SVG/1.1/DTD/svg11.dtd">
<!-- Generated by graphviz version 2.30.1 (20130221.2233)
 -->
<!-- Title: Exception Pages: 1 -->
<svg width="526pt" height="266pt"
 viewBox="0.00 0.00 526.00 266.00" xmlns="http://www.w3.org/2000/svg" xmlns:xlink="http://www.w3.org/1999/xlink">
<g id="graph0" class="graph" transform="scale(1 1) rotate(0) translate(4 262)">
<title>Exception</title>
<!-- Node1 -->
<g id="node1" class="node"><title>Node1</title>
<polygon fill="#bfbfbf" stroke="black" points="231,-200.5 231,-257.5 291,-257.5 291,-200.5 231,-200.5"/>
<text text-anchor="middle" x="261" y="-245.5" font-family="Helvetica,sans-Serif" font-size="10.00">Exception</text>
<polyline fill="none" stroke="black" points="231,-238.5 291,-238.5 "/>
<text text-anchor="middle" x="261" y="-226.5" font-family="Helvetica,sans-Serif" font-size="10.00"> </text>
<polyline fill="none" stroke="black" points="231,-219.5 291,-219.5 "/>
<text text-anchor="middle" x="261" y="-207.5" font-family="Helvetica,sans-Serif" font-size="10.00"> </text>
</g>
<!-- Node2 -->
<g id="node2" class="node"><title>Node2</title>
<g id="a_node2"><a xlink:href="classconfig__parser__m2_1_1_parse_exception.html" target="_top" xlink:title="{config_parser_m2.ParseException\n|+ message\l|+ __init__()\l+ __str__()\l}">
<polygon fill="none" stroke="black" points="-0.5,-95 -0.5,-163 168.5,-163 168.5,-95 -0.5,-95"/>
<text text-anchor="middle" x="84" y="-151" font-family="Helvetica,sans-Serif" font-size="10.00">config_parser_m2.ParseException</text>
<polyline fill="none" stroke="black" points="-0.5,-144 168.5,-144 "/>
<text text-anchor="start" x="7.5" y="-132" font-family="Helvetica,sans-Serif" font-size="10.00">+ message</text>
<polyline fill="none" stroke="black" points="-0.5,-125 168.5,-125 "/>
<text text-anchor="start" x="7.5" y="-113" font-family="Helvetica,sans-Serif" font-size="10.00">+ __init__()</text>
<text text-anchor="start" x="7.5" y="-102" font-family="Helvetica,sans-Serif" font-size="10.00">+ __str__()</text>
</a>
</g>
</g>
<!-- Node1&#45;&gt;Node2 -->
<g id="edge1" class="edge"><title>Node1&#45;&gt;Node2</title>
<path fill="none" stroke="midnightblue" d="M222.222,-206.53C199.31,-193.844 169.816,-177.514 143.961,-163.199"/>
<polygon fill="none" stroke="midnightblue" points="220.53,-209.594 230.974,-211.376 223.921,-203.47 220.53,-209.594"/>
</g>
<!-- Node3 -->
<g id="node3" class="node"><title>Node3</title>
<g id="a_node3"><a xlink:href="class_o_s_1_1___o_s_1_1_c_m_d___proc_exception.html" target="_top" xlink:title="{OS._OS.CMD_ProcException\n|+ proc\l|+ __init__()\l}">
<polygon fill="none" stroke="black" points="186.5,-100.5 186.5,-157.5 335.5,-157.5 335.5,-100.5 186.5,-100.5"/>
<text text-anchor="middle" x="261" y="-145.5" font-family="Helvetica,sans-Serif" font-size="10.00">OS._OS.CMD_ProcException</text>
<polyline fill="none" stroke="black" points="186.5,-138.5 335.5,-138.5 "/>
<text text-anchor="start" x="194.5" y="-126.5" font-family="Helvetica,sans-Serif" font-size="10.00">+ proc</text>
<polyline fill="none" stroke="black" points="186.5,-119.5 335.5,-119.5 "/>
<text text-anchor="start" x="194.5" y="-107.5" font-family="Helvetica,sans-Serif" font-size="10.00">+ __init__()</text>
</a>
</g>
</g>
<!-- Node1&#45;&gt;Node3 -->
<g id="edge2" class="edge"><title>Node1&#45;&gt;Node3</title>
<path fill="none" stroke="midnightblue" d="M261,-190.342C261,-179.48 261,-167.83 261,-157.692"/>
<polygon fill="none" stroke="midnightblue" points="257.5,-190.441 261,-200.441 264.5,-190.441 257.5,-190.441"/>
</g>
<!-- Node6 -->
<g id="node6" class="node"><title>Node6</title>
<g id="a_node6"><a xlink:href="class_o_s_1_1pkg_1_1__base_1_1_privilege_exception.html" target="_top" xlink:title="Instances of this and of CMD_ProcOutputException both have proc attributes containing a terminal comm...">
<polygon fill="none" stroke="black" points="353.5,-100.5 353.5,-157.5 518.5,-157.5 518.5,-100.5 353.5,-100.5"/>
<text text-anchor="middle" x="436" y="-145.5" font-family="Helvetica,sans-Serif" font-size="10.00">OS.pkg._base.PrivilegeException</text>
<polyline fill="none" stroke="black" points="353.5,-138.5 518.5,-138.5 "/>
<text text-anchor="start" x="361.5" y="-126.5" font-family="Helvetica,sans-Serif" font-size="10.00">+ proc</text>
<polyline fill="none" stroke="black" points="353.5,-119.5 518.5,-119.5 "/>
<text text-anchor="start" x="361.5" y="-107.5" font-family="Helvetica,sans-Serif" font-size="10.00">+ __init__()</text>
</a>
</g>
</g>
<!-- Node1&#45;&gt;Node6 -->
<g id="edge5" class="edge"><title>Node1&#45;&gt;Node6</title>
<path fill="none" stroke="midnightblue" d="M300.127,-206.089C325.736,-191.748 359.405,-172.893 386.821,-157.54"/>
<polygon fill="none" stroke="midnightblue" points="298.099,-203.213 291.084,-211.153 301.519,-209.321 298.099,-203.213"/>
</g>
<!-- Node4 -->
<g id="node4" class="node"><title>Node4</title>
<g id="a_node4"><a xlink:href="class_o_s_1_1___o_s_1_1_c_m_d___proc_output_exception.html" target="_top" xlink:title="{OS._OS.CMD_ProcOutputException\n||+ __init__()\l}">
<polygon fill="none" stroke="black" points="73.5,-0.5 73.5,-57.5 252.5,-57.5 252.5,-0.5 73.5,-0.5"/>
<text text-anchor="middle" x="163" y="-45.5" font-family="Helvetica,sans-Serif" font-size="10.00">OS._OS.CMD_ProcOutputException</text>
<polyline fill="none" stroke="black" points="73.5,-38.5 252.5,-38.5 "/>
<text text-anchor="middle" x="163" y="-26.5" font-family="Helvetica,sans-Serif" font-size="10.00"> </text>
<polyline fill="none" stroke="black" points="73.5,-19.5 252.5,-19.5 "/>
<text text-anchor="start" x="81.5" y="-7.5" font-family="Helvetica,sans-Serif" font-size="10.00">+ __init__()</text>
</a>
</g>
</g>
<!-- Node3&#45;&gt;Node4 -->
<g id="edge3" class="edge"><title>Node3&#45;&gt;Node4</title>
<path fill="none" stroke="midnightblue" d="M226.344,-93.3437C214.654,-81.6544 201.771,-68.7708 190.692,-57.692"/>
<polygon fill="none" stroke="midnightblue" points="223.895,-95.8445 233.441,-100.441 228.845,-90.8948 223.895,-95.8445"/>
</g>
<!-- Node5 -->
<g id="node5" class="node"><title>Node5</title>
<g id="a_node5"><a xlink:href="class_o_s_1_1pkg_1_1__base_1_1_c_m_d___proc_exception.html" target="_top" xlink:title="{OS.pkg._base.CMD_ProcException\n|+ originalException\l|+ __init__()\l}">
<polygon fill="none" stroke="black" points="270.5,-0.5 270.5,-57.5 445.5,-57.5 445.5,-0.5 270.5,-0.5"/>
<text text-anchor="middle" x="358" y="-45.5" font-family="Helvetica,sans-Serif" font-size="10.00">OS.pkg._base.CMD_ProcException</text>
<polyline fill="none" stroke="black" points="270.5,-38.5 445.5,-38.5 "/>
<text text-anchor="start" x="278.5" y="-26.5" font-family="Helvetica,sans-Serif" font-size="10.00">+ originalException</text>
<polyline fill="none" stroke="black" points="270.5,-19.5 445.5,-19.5 "/>
<text text-anchor="start" x="278.5" y="-7.5" font-family="Helvetica,sans-Serif" font-size="10.00">+ __init__()</text>
</a>
</g>
</g>
<!-- Node3&#45;&gt;Node5 -->
<g id="edge4" class="edge"><title>Node3&#45;&gt;Node5</title>
<path fill="none" stroke="midnightblue" d="M295.63,-93.0125C307.113,-81.4114 319.728,-68.6662 330.591,-57.692"/>
<polygon fill="none" stroke="midnightblue" points="292.825,-90.8713 288.278,-100.441 297.8,-95.7956 292.825,-90.8713"/>
</g>
</g>
</svg>
