<?xml version="1.0" encoding="UTF-8" standalone="no"?>
<!DOCTYPE svg PUBLIC "-//W3C//DTD SVG 1.1//EN"
 "http://www.w3.org/Graphics/SVG/1.1/DTD/svg11.dtd">
<!-- Generated by graphviz version 2.30.1 (20130219.2202)
 -->
<!-- Title: OS.GPG.GPG.importPublicKey_signTrust Pages: 1 -->
<svg width="350pt" height="142pt"
 viewBox="0.00 0.00 350.00 142.00" xmlns="http://www.w3.org/2000/svg" xmlns:xlink="http://www.w3.org/1999/xlink">
<g id="graph0" class="graph" transform="scale(1 1) rotate(0) translate(4 138)">
<title>OS.GPG.GPG.importPublicKey_signTrust</title>
<!-- Node1 -->
<g id="node1" class="node"><title>Node1</title>
<polygon fill="#bfbfbf" stroke="black" points="0,-52 0,-82 152,-82 152,-52 0,-52"/>
<text text-anchor="start" x="8" y="-70" font-family="Helvetica,sans-Serif" font-size="10.00">OS.GPG.GPG.importPublicKey</text>
<text text-anchor="middle" x="76" y="-59" font-family="Helvetica,sans-Serif" font-size="10.00">_signTrust</text>
</g>
<!-- Node2 -->
<g id="node2" class="node"><title>Node2</title>
<g id="a_node2"><a xlink:href="class_o_s_1_1_g_p_g_1_1_g_p_g.html#a5a277f4ab5310eaac18c939d88b58a1c" target="_top" xlink:title="OS.GPG.GPG.importPublicKey">
<polygon fill="none" stroke="black" points="189,-114.5 189,-133.5 341,-133.5 341,-114.5 189,-114.5"/>
<text text-anchor="middle" x="265" y="-121.5" font-family="Helvetica,sans-Serif" font-size="10.00">OS.GPG.GPG.importPublicKey</text>
</a>
</g>
</g>
<!-- Node1&#45;&gt;Node2 -->
<g id="edge1" class="edge"><title>Node1&#45;&gt;Node2</title>
<path fill="none" stroke="midnightblue" d="M118.111,-82.0048C138.921,-89.3618 164.658,-98.1002 188,-105 196.156,-107.411 204.862,-109.777 213.362,-111.978"/>
<polygon fill="midnightblue" stroke="midnightblue" points="212.648,-115.407 223.202,-114.477 214.371,-108.623 212.648,-115.407"/>
</g>
<!-- Node3 -->
<g id="node3" class="node"><title>Node3</title>
<g id="a_node3"><a xlink:href="class_o_s_1_1_g_p_g_1_1_g_p_g.html#a84cc5f9f7bfdcdea2089b8cd5f368c3d" target="_top" xlink:title="Gets first key ID of the key in filename.">
<polygon fill="none" stroke="black" points="202.5,-76.5 202.5,-95.5 327.5,-95.5 327.5,-76.5 202.5,-76.5"/>
<text text-anchor="middle" x="265" y="-83.5" font-family="Helvetica,sans-Serif" font-size="10.00">OS.GPG.GPG.getKeyID</text>
</a>
</g>
</g>
<!-- Node1&#45;&gt;Node3 -->
<g id="edge2" class="edge"><title>Node1&#45;&gt;Node3</title>
<path fill="none" stroke="midnightblue" d="M152.252,-74.6459C165.385,-75.9803 179.018,-77.3655 192.059,-78.6905"/>
<polygon fill="midnightblue" stroke="midnightblue" points="192.068,-82.2093 202.37,-79.7382 192.776,-75.2452 192.068,-82.2093"/>
</g>
<!-- Node4 -->
<g id="node4" class="node"><title>Node4</title>
<g id="a_node4"><a xlink:href="class_o_s_1_1_g_p_g_1_1_g_p_g.html#a0e633b7b40398af8253875bc4f0c81e0" target="_top" xlink:title="LIMITATION: If key is already signed, gnupg prints out key information to terminal even if stdout is ...">
<polygon fill="none" stroke="black" points="205.5,-38.5 205.5,-57.5 324.5,-57.5 324.5,-38.5 205.5,-38.5"/>
<text text-anchor="middle" x="265" y="-45.5" font-family="Helvetica,sans-Serif" font-size="10.00">OS.GPG.GPG.signKey</text>
</a>
</g>
</g>
<!-- Node1&#45;&gt;Node4 -->
<g id="edge3" class="edge"><title>Node1&#45;&gt;Node4</title>
<path fill="none" stroke="midnightblue" d="M152.252,-59.3541C166.462,-57.9103 181.257,-56.4071 195.254,-54.9848"/>
<polygon fill="midnightblue" stroke="midnightblue" points="195.691,-58.4586 205.286,-53.9656 194.983,-51.4944 195.691,-58.4586"/>
</g>
<!-- Node5 -->
<g id="node5" class="node"><title>Node5</title>
<g id="a_node5"><a xlink:href="class_o_s_1_1_g_p_g_1_1_g_p_g.html#a8fe9d92003c881c3936b26934d2862fd" target="_top" xlink:title="LIMITATION: Owner trust of key can&#39;t be set non&#45;interactively for it due to limitations in the gnupg ...">
<polygon fill="none" stroke="black" points="188.5,-0.5 188.5,-19.5 341.5,-19.5 341.5,-0.5 188.5,-0.5"/>
<text text-anchor="middle" x="265" y="-7.5" font-family="Helvetica,sans-Serif" font-size="10.00">OS.GPG.GPG.markKeyTrusted</text>
</a>
</g>
</g>
<!-- Node1&#45;&gt;Node5 -->
<g id="edge4" class="edge"><title>Node1&#45;&gt;Node5</title>
<path fill="none" stroke="midnightblue" d="M118.111,-51.9952C138.921,-44.6382 164.658,-35.8998 188,-29 196.156,-26.5892 204.862,-24.2226 213.362,-22.0223"/>
<polygon fill="midnightblue" stroke="midnightblue" points="214.371,-25.3772 223.202,-19.5231 212.648,-18.5926 214.371,-25.3772"/>
</g>
</g>
</svg>
