<?xml version="1.0" encoding="UTF-8" standalone="no"?>
<!DOCTYPE svg PUBLIC "-//W3C//DTD SVG 1.1//EN"
 "http://www.w3.org/Graphics/SVG/1.1/DTD/svg11.dtd">
<!-- Generated by graphviz version 2.30.1 (20130219.2202)
 -->
<!-- Title: OS.pkg._macports.MacPortInstaller.isAvailable Pages: 1 -->
<svg width="568pt" height="87pt"
 viewBox="0.00 0.00 568.00 87.00" xmlns="http://www.w3.org/2000/svg" xmlns:xlink="http://www.w3.org/1999/xlink">
<g id="graph0" class="graph" transform="scale(1 1) rotate(0) translate(4 83)">
<title>OS.pkg._macports.MacPortInstaller.isAvailable</title>
<!-- Node1 -->
<g id="node1" class="node"><title>Node1</title>
<polygon fill="#bfbfbf" stroke="black" points="0,-24 0,-54 134,-54 134,-24 0,-24"/>
<text text-anchor="start" x="8" y="-42" font-family="Helvetica,sans-Serif" font-size="10.00">OS.pkg._macports.MacPort</text>
<text text-anchor="middle" x="67" y="-31" font-family="Helvetica,sans-Serif" font-size="10.00">Installer.isAvailable</text>
</g>
<!-- Node2 -->
<g id="node2" class="node"><title>Node2</title>
<g id="a_node2"><a xlink:href="class_o_s_1_1pkg_1_1__base_1_1_package_manager.html#add22a65cf270c6c0f285e124ac430f60" target="_top" xlink:title="Updates the package manager&#39;s package index using the network.">
<polygon fill="none" stroke="black" points="170.5,-24 170.5,-54 361.5,-54 361.5,-24 170.5,-24"/>
<text text-anchor="start" x="178.5" y="-42" font-family="Helvetica,sans-Serif" font-size="10.00">OS.pkg._base.PackageManager.update</text>
<text text-anchor="middle" x="266" y="-31" font-family="Helvetica,sans-Serif" font-size="10.00">PackageIndex</text>
</a>
</g>
</g>
<!-- Node1&#45;&gt;Node2 -->
<g id="edge1" class="edge"><title>Node1&#45;&gt;Node2</title>
<path fill="none" stroke="midnightblue" d="M134.146,-39C142.592,-39 151.396,-39 160.267,-39"/>
<polygon fill="midnightblue" stroke="midnightblue" points="160.296,-42.5001 170.296,-39 160.296,-35.5001 160.296,-42.5001"/>
</g>
<!-- Node3 -->
<g id="node3" class="node"><title>Node3</title>
<g id="a_node3"><a xlink:href="class_o_s_1_1pkg_1_1__apt_1_1_apt_installer.html#ad2fa22e454c7a7eccf266a57f982cb4e" target="_top" xlink:title="OS.pkg._apt.AptInstaller.\l_updatePackageIndex">
<polygon fill="none" stroke="black" points="418,-49 418,-79 540,-79 540,-49 418,-49"/>
<text text-anchor="start" x="426" y="-67" font-family="Helvetica,sans-Serif" font-size="10.00">OS.pkg._apt.AptInstaller.</text>
<text text-anchor="middle" x="479" y="-56" font-family="Helvetica,sans-Serif" font-size="10.00">_updatePackageIndex</text>
</a>
</g>
</g>
<!-- Node2&#45;&gt;Node3 -->
<g id="edge2" class="edge"><title>Node2&#45;&gt;Node3</title>
<path fill="none" stroke="midnightblue" d="M361.699,-50.2203C377.187,-52.0554 392.99,-53.9277 407.752,-55.6767"/>
<polygon fill="midnightblue" stroke="midnightblue" points="407.446,-59.1649 417.788,-56.8659 408.27,-52.2136 407.446,-59.1649"/>
</g>
<!-- Node4 -->
<g id="node4" class="node"><title>Node4</title>
<g id="a_node4"><a xlink:href="class_o_s_1_1pkg_1_1__base_1_1_package_manager.html#a039eb503da3849c3c87b6395a5216ea6" target="_top" xlink:title="OS.pkg._base.PackageManager.\l_updatePackageIndex">
<polygon fill="none" stroke="black" points="398.5,-0 398.5,-30 559.5,-30 559.5,-0 398.5,-0"/>
<text text-anchor="start" x="406.5" y="-18" font-family="Helvetica,sans-Serif" font-size="10.00">OS.pkg._base.PackageManager.</text>
<text text-anchor="middle" x="479" y="-7" font-family="Helvetica,sans-Serif" font-size="10.00">_updatePackageIndex</text>
</a>
</g>
</g>
<!-- Node2&#45;&gt;Node4 -->
<g id="edge3" class="edge"><title>Node2&#45;&gt;Node4</title>
<path fill="none" stroke="midnightblue" d="M361.699,-28.2286C370.518,-27.2254 379.439,-26.2107 388.212,-25.2129"/>
<polygon fill="midnightblue" stroke="midnightblue" points="388.887,-28.6587 398.427,-24.0509 388.096,-21.7036 388.887,-28.6587"/>
</g>
</g>
</svg>
