<?xml version="1.0" encoding="UTF-8" standalone="no"?>
<!DOCTYPE svg PUBLIC "-//W3C//DTD SVG 1.1//EN"
 "http://www.w3.org/Graphics/SVG/1.1/DTD/svg11.dtd">
<!-- Generated by graphviz version 2.30.1 (20130221.2233)
 -->
<!-- Title: OS.pkg._yum.YumInstaller.__init__ Pages: 1 -->
<svg width="340pt" height="66pt"
 viewBox="0.00 0.00 340.00 66.00" xmlns="http://www.w3.org/2000/svg" xmlns:xlink="http://www.w3.org/1999/xlink">
<g id="graph0" class="graph" transform="scale(1 1) rotate(0) translate(4 62)">
<title>OS.pkg._yum.YumInstaller.__init__</title>
<!-- Node1 -->
<g id="node1" class="node"><title>Node1</title>
<polygon fill="#bfbfbf" stroke="black" points="0,-14 0,-44 138,-44 138,-14 0,-14"/>
<text text-anchor="start" x="8" y="-32" font-family="Helvetica,sans-Serif" font-size="10.00">OS.pkg._yum.YumInstaller.</text>
<text text-anchor="middle" x="69" y="-21" font-family="Helvetica,sans-Serif" font-size="10.00">__init__</text>
</g>
<!-- Node2 -->
<g id="node2" class="node"><title>Node2</title>
<g id="a_node2"><a xlink:href="class_o_s_1_1pkg_1_1__apt_1_1_apt_installer.html#aa28edc779458632cddeda65f4211943d" target="_top" xlink:title="OS.pkg._apt.AptInstaller._init">
<polygon fill="none" stroke="black" points="180,-38.5 180,-57.5 326,-57.5 326,-38.5 180,-38.5"/>
<text text-anchor="middle" x="253" y="-45.5" font-family="Helvetica,sans-Serif" font-size="10.00">OS.pkg._apt.AptInstaller._init</text>
</a>
</g>
</g>
<!-- Node1&#45;&gt;Node2 -->
<g id="edge1" class="edge"><title>Node1&#45;&gt;Node2</title>
<path fill="none" stroke="midnightblue" d="M138.029,-36.1019C148.358,-37.1802 159.11,-38.3027 169.703,-39.4086"/>
<polygon fill="midnightblue" stroke="midnightblue" points="169.482,-42.9044 179.792,-40.4618 170.209,-35.9423 169.482,-42.9044"/>
</g>
<!-- Node3 -->
<g id="node3" class="node"><title>Node3</title>
<g id="a_node3"><a xlink:href="class_o_s_1_1pkg_1_1__yum_1_1_yum_installer.html#abe677509100cf7114da15ca0294607ed" target="_top" xlink:title="OS.pkg._yum.YumInstaller._init">
<polygon fill="none" stroke="black" points="174.5,-0.5 174.5,-19.5 331.5,-19.5 331.5,-0.5 174.5,-0.5"/>
<text text-anchor="middle" x="253" y="-7.5" font-family="Helvetica,sans-Serif" font-size="10.00">OS.pkg._yum.YumInstaller._init</text>
</a>
</g>
</g>
<!-- Node1&#45;&gt;Node3 -->
<g id="edge2" class="edge"><title>Node1&#45;&gt;Node3</title>
<path fill="none" stroke="midnightblue" d="M138.029,-21.8981C146.519,-21.0117 155.296,-20.0955 164.034,-19.1832"/>
<polygon fill="midnightblue" stroke="midnightblue" points="164.674,-22.6356 174.256,-18.1161 163.947,-15.6734 164.674,-22.6356"/>
</g>
</g>
</svg>
