<?xml version="1.0" encoding="UTF-8" standalone="no"?>
<!DOCTYPE svg PUBLIC "-//W3C//DTD SVG 1.1//EN"
 "http://www.w3.org/Graphics/SVG/1.1/DTD/svg11.dtd">
<!-- Generated by graphviz version 2.30.1 (20130219.2202)
 -->
<!-- Title: OS.pkg._yum.YumInstaller.__init__ Pages: 1 -->
<svg width="322pt" height="66pt"
 viewBox="0.00 0.00 322.00 66.00" xmlns="http://www.w3.org/2000/svg" xmlns:xlink="http://www.w3.org/1999/xlink">
<g id="graph0" class="graph" transform="scale(1 1) rotate(0) translate(4 62)">
<title>OS.pkg._yum.YumInstaller.__init__</title>
<!-- Node1 -->
<g id="node1" class="node"><title>Node1</title>
<polygon fill="#bfbfbf" stroke="black" points="0.5,-14 0.5,-44 131.5,-44 131.5,-14 0.5,-14"/>
<text text-anchor="start" x="8.5" y="-32" font-family="Helvetica,sans-Serif" font-size="10.00">OS.pkg._yum.YumInstaller.</text>
<text text-anchor="middle" x="66" y="-21" font-family="Helvetica,sans-Serif" font-size="10.00">__init__</text>
</g>
<!-- Node2 -->
<g id="node2" class="node"><title>Node2</title>
<g id="a_node2"><a xlink:href="class_o_s_1_1pkg_1_1__apt_1_1_apt_installer.html#aa28edc779458632cddeda65f4211943d" target="_top" xlink:title="OS.pkg._apt.AptInstaller._init">
<polygon fill="none" stroke="black" points="172,-38.5 172,-57.5 310,-57.5 310,-38.5 172,-38.5"/>
<text text-anchor="middle" x="241" y="-45.5" font-family="Helvetica,sans-Serif" font-size="10.00">OS.pkg._apt.AptInstaller._init</text>
</a>
</g>
</g>
<!-- Node1&#45;&gt;Node2 -->
<g id="edge1" class="edge"><title>Node1&#45;&gt;Node2</title>
<path fill="none" stroke="midnightblue" d="M131.911,-36.129C141.691,-37.203 151.863,-38.3203 161.885,-39.4209"/>
<polygon fill="midnightblue" stroke="midnightblue" points="161.513,-42.901 171.835,-40.5137 162.277,-35.9428 161.513,-42.901"/>
</g>
<!-- Node3 -->
<g id="node3" class="node"><title>Node3</title>
<g id="a_node3"><a xlink:href="class_o_s_1_1pkg_1_1__yum_1_1_yum_installer.html#abe677509100cf7114da15ca0294607ed" target="_top" xlink:title="OS.pkg._yum.YumInstaller._init">
<polygon fill="none" stroke="black" points="168,-0.5 168,-19.5 314,-19.5 314,-0.5 168,-0.5"/>
<text text-anchor="middle" x="241" y="-7.5" font-family="Helvetica,sans-Serif" font-size="10.00">OS.pkg._yum.YumInstaller._init</text>
</a>
</g>
</g>
<!-- Node1&#45;&gt;Node3 -->
<g id="edge2" class="edge"><title>Node1&#45;&gt;Node3</title>
<path fill="none" stroke="midnightblue" d="M131.911,-21.871C140.318,-20.9477 149.016,-19.9924 157.659,-19.0433"/>
<polygon fill="midnightblue" stroke="midnightblue" points="158.2,-22.505 167.758,-17.9341 157.436,-15.5468 158.2,-22.505"/>
</g>
</g>
</svg>
