<?xml version="1.0" encoding="UTF-8" standalone="no"?>
<!DOCTYPE svg PUBLIC "-//W3C//DTD SVG 1.1//EN"
 "http://www.w3.org/Graphics/SVG/1.1/DTD/svg11.dtd">
<!-- Generated by graphviz version 2.30.1 (20130221.2233)
 -->
<!-- Title: OS._OS.CMD_ProcOutput Pages: 1 -->
<svg width="142pt" height="276pt"
 viewBox="0.00 0.00 142.00 276.00" xmlns="http://www.w3.org/2000/svg" xmlns:xlink="http://www.w3.org/1999/xlink">
<g id="graph0" class="graph" transform="scale(1 1) rotate(0) translate(4 272)">
<title>OS._OS.CMD_ProcOutput</title>
<!-- Node1 -->
<g id="node1" class="node"><title>Node1</title>
<polygon fill="#bfbfbf" stroke="black" points="-0.5,-0.5 -0.5,-79.5 134.5,-79.5 134.5,-0.5 -0.5,-0.5"/>
<text text-anchor="middle" x="67" y="-67.5" font-family="Helvetica,sans-Serif" font-size="10.00">OS._OS.CMD_ProcOutput</text>
<polyline fill="none" stroke="black" points="-0.5,-60.5 134.5,-60.5 "/>
<text text-anchor="start" x="7.5" y="-48.5" font-family="Helvetica,sans-Serif" font-size="10.00">+ returnCode</text>
<text text-anchor="start" x="7.5" y="-37.5" font-family="Helvetica,sans-Serif" font-size="10.00">+ stdout</text>
<text text-anchor="start" x="7.5" y="-26.5" font-family="Helvetica,sans-Serif" font-size="10.00">+ stderr</text>
<polyline fill="none" stroke="black" points="-0.5,-19.5 134.5,-19.5 "/>
<text text-anchor="start" x="7.5" y="-7.5" font-family="Helvetica,sans-Serif" font-size="10.00">+ __init__()</text>
</g>
<!-- Node2 -->
<g id="node2" class="node"><title>Node2</title>
<g id="a_node2"><a xlink:href="class_o_s_1_1___o_s_1_1_c_m_d___proc.html" target="_top" xlink:title="{OS._OS.CMD_Proc\n|+ cmd\l|+ __init__()\l}">
<polygon fill="none" stroke="black" points="14.5,-116.5 14.5,-173.5 119.5,-173.5 119.5,-116.5 14.5,-116.5"/>
<text text-anchor="middle" x="67" y="-161.5" font-family="Helvetica,sans-Serif" font-size="10.00">OS._OS.CMD_Proc</text>
<polyline fill="none" stroke="black" points="14.5,-154.5 119.5,-154.5 "/>
<text text-anchor="start" x="22.5" y="-142.5" font-family="Helvetica,sans-Serif" font-size="10.00">+ cmd</text>
<polyline fill="none" stroke="black" points="14.5,-135.5 119.5,-135.5 "/>
<text text-anchor="start" x="22.5" y="-123.5" font-family="Helvetica,sans-Serif" font-size="10.00">+ __init__()</text>
</a>
</g>
</g>
<!-- Node2&#45;&gt;Node1 -->
<g id="edge1" class="edge"><title>Node2&#45;&gt;Node1</title>
<path fill="none" stroke="midnightblue" d="M67,-106.156C67,-97.4733 67,-88.2318 67,-79.5205"/>
<polygon fill="none" stroke="midnightblue" points="63.5001,-106.398 67,-116.398 70.5001,-106.398 63.5001,-106.398"/>
</g>
<!-- Node3 -->
<g id="node3" class="node"><title>Node3</title>
<g id="a_node3"><a xlink:href="classobject.html" target="_top" xlink:title="{object\n||}">
<polygon fill="none" stroke="black" points="45.5,-210.5 45.5,-267.5 88.5,-267.5 88.5,-210.5 45.5,-210.5"/>
<text text-anchor="middle" x="67" y="-255.5" font-family="Helvetica,sans-Serif" font-size="10.00">object</text>
<polyline fill="none" stroke="black" points="45.5,-248.5 88.5,-248.5 "/>
<text text-anchor="middle" x="67" y="-236.5" font-family="Helvetica,sans-Serif" font-size="10.00"> </text>
<polyline fill="none" stroke="black" points="45.5,-229.5 88.5,-229.5 "/>
<text text-anchor="middle" x="67" y="-217.5" font-family="Helvetica,sans-Serif" font-size="10.00"> </text>
</a>
</g>
</g>
<!-- Node3&#45;&gt;Node2 -->
<g id="edge2" class="edge"><title>Node3&#45;&gt;Node2</title>
<path fill="none" stroke="midnightblue" d="M67,-200.209C67,-191.293 67,-181.951 67,-173.584"/>
<polygon fill="none" stroke="midnightblue" points="63.5001,-200.397 67,-210.397 70.5001,-200.397 63.5001,-200.397"/>
</g>
</g>
</svg>
