<?xml version="1.0" encoding="UTF-8" standalone="no"?>
<!DOCTYPE svg PUBLIC "-//W3C//DTD SVG 1.1//EN"
 "http://www.w3.org/Graphics/SVG/1.1/DTD/svg11.dtd">
<!-- Generated by graphviz version 2.28.0 (20121214.2254)
 -->
<!-- Title: OS.pkg.yum.YumInstaller.installRepo_EPEL Pages: 1 -->
<!--zoomable 322 -->
<svg id="main" version="1.1" xmlns="http://www.w3.org/2000/svg" xmlns:xlink="http://www.w3.org/1999/xlink" xml:space="preserve" onload="init(evt)">
        <defs>
                <circle id="rim" cx="0" cy="0" r="7"/>
                <circle id="rim2" cx="0" cy="0" r="3.5"/>
                <g id="zoomPlus">
                        <use xlink:href="#rim" fill="#404040">
                                <set attributeName="fill" to="#808080" begin="zoomplus.mouseover" end="zoomplus.mouseout"/>
                        </use>
                        <path d="M-4,0h8M0,-4v8" fill="none" stroke="white" stroke-width="1.5" pointer-events="none"/>
                </g>
                <g id="zoomMin">
                        <use xlink:href="#rim" fill="#404040">
                                <set attributeName="fill" to="#808080" begin="zoomminus.mouseover" end="zoomminus.mouseout"/>
                        </use>
                        <path d="M-4,0h8" fill="none" stroke="white" stroke-width="1.5" pointer-events="none"/>
                </g>
                <g id="dirArrow">
                        <path fill="none" stroke="white" stroke-width="1.5" d="M0,-3.0v7 M-2.5,-0.5L0,-3.0L2.5,-0.5"/>
                </g>
               <g id="resetDef">
                       <use xlink:href="#rim2" fill="#404040">
                               <set attributeName="fill" to="#808080" begin="reset.mouseover" end="reset.mouseout"/>
                       </use>
               </g>
        </defs>

<script type="text/javascript">
var viewWidth = 550;
var viewHeight = 322;
var sectionId = 'dynsection-3';
</script>
<script xlink:href="svgpan.js"/>
<svg id="graph" class="graph">
<g id="viewport">
<title>OS.pkg.yum.YumInstaller.installRepo_EPEL</title>
<!-- Node1 -->
<g id="node1" class="node"><title>Node1</title>
<polygon fill="#bfbfbf" stroke="black" points="0.5,-137 0.5,-167 149.5,-167 149.5,-137 0.5,-137"/>
<text text-anchor="start" x="8.5" y="-155" font-family="Helvetica,sans-Serif" font-size="10.00">OS.pkg.yum.YumInstaller.install</text>
<text text-anchor="middle" x="75" y="-144" font-family="Helvetica,sans-Serif" font-size="10.00">Repo_EPEL</text>
</g>
<!-- Node2 -->
<g id="node3" class="node"><title>Node2</title>
<a xlink:href="class_o_s_1_1pkg_1_1yum_1_1_yum_installer.html#aa33eadba0696d51bd35e3591635b67cf" target="_top" xlink:title="OS.pkg.yum.YumInstaller.install">
<polygon fill="none" stroke="black" points="186.5,-142.5 186.5,-161.5 335.5,-161.5 335.5,-142.5 186.5,-142.5"/>
<text text-anchor="middle" x="261" y="-149.5" font-family="Helvetica,sans-Serif" font-size="10.00">OS.pkg.yum.YumInstaller.install</text>
</a>
</g>
<!-- Node1&#45;&gt;Node2 -->
<g id="edge2" class="edge"><title>Node1&#45;&gt;Node2</title>
<path fill="none" stroke="midnightblue" d="M149.515,-152C158.315,-152 167.351,-152 176.281,-152"/>
<polygon fill="midnightblue" stroke="midnightblue" points="176.302,-155.5 186.302,-152 176.302,-148.5 176.302,-155.5"/>
</g>
<!-- Node3 -->
<g id="node5" class="node"><title>Node3</title>
<a xlink:href="class_o_s_1_1pkg_1_1apt_1_1_apt_installer.html#a721544fb2131f2396926e557aa2e44a1" target="_top" xlink:title="OS.pkg.apt.AptInstaller.\l_updatePackageIndex">
<polygon fill="none" stroke="black" points="398.5,-284 398.5,-314 515.5,-314 515.5,-284 398.5,-284"/>
<text text-anchor="start" x="406.5" y="-302" font-family="Helvetica,sans-Serif" font-size="10.00">OS.pkg.apt.AptInstaller.</text>
<text text-anchor="middle" x="457" y="-291" font-family="Helvetica,sans-Serif" font-size="10.00">_updatePackageIndex</text>
</a>
</g>
<!-- Node2&#45;&gt;Node3 -->
<g id="edge4" class="edge"><title>Node2&#45;&gt;Node3</title>
<path fill="none" stroke="midnightblue" d="M267.898,-161.548C282.563,-184.489 323.048,-243.092 372,-274 377.235,-277.305 382.927,-280.191 388.8,-282.708"/>
<polygon fill="midnightblue" stroke="midnightblue" points="387.549,-285.977 398.137,-286.366 390.103,-279.459 387.549,-285.977"/>
</g>
<!-- Node4 -->
<g id="node7" class="node"><title>Node4</title>
<a xlink:href="class_o_s_1_1pkg_1_1macports_1_1_mac_port_installer.html#a36a164a74432a3d803e2e48e2c9d3709" target="_top" xlink:title="OS.pkg.macports.MacPortInstaller.\l_updatePackageIndex">
<polygon fill="none" stroke="black" points="376,-235 376,-265 538,-265 538,-235 376,-235"/>
<text text-anchor="start" x="384" y="-253" font-family="Helvetica,sans-Serif" font-size="10.00">OS.pkg.macports.MacPortInstaller.</text>
<text text-anchor="middle" x="457" y="-242" font-family="Helvetica,sans-Serif" font-size="10.00">_updatePackageIndex</text>
</a>
</g>
<!-- Node2&#45;&gt;Node4 -->
<g id="edge6" class="edge"><title>Node2&#45;&gt;Node4</title>
<path fill="none" stroke="midnightblue" d="M273.827,-161.584C293.251,-176.91 333.593,-207.032 372,-225 376.996,-227.337 382.261,-229.514 387.62,-231.528"/>
<polygon fill="midnightblue" stroke="midnightblue" points="386.732,-234.928 397.327,-234.98 389.077,-228.332 386.732,-234.928"/>
</g>
<!-- Node5 -->
<g id="node9" class="node"><title>Node5</title>
<a xlink:href="class_o_s_1_1pkg_1_1yum_1_1_yum_installer.html#afadf31d60f42e27a9f3f9bdb49a991c1" target="_top" xlink:title="OS.pkg.yum.YumInstaller.\l_updatePackageIndex">
<polygon fill="none" stroke="black" points="394.5,-186 394.5,-216 519.5,-216 519.5,-186 394.5,-186"/>
<text text-anchor="start" x="402.5" y="-204" font-family="Helvetica,sans-Serif" font-size="10.00">OS.pkg.yum.YumInstaller.</text>
<text text-anchor="middle" x="457" y="-193" font-family="Helvetica,sans-Serif" font-size="10.00">_updatePackageIndex</text>
</a>
</g>
<!-- Node2&#45;&gt;Node5 -->
<g id="edge8" class="edge"><title>Node2&#45;&gt;Node5</title>
<path fill="none" stroke="midnightblue" d="M299.866,-161.564C324.534,-167.795 357.453,-176.109 386.704,-183.497"/>
<polygon fill="midnightblue" stroke="midnightblue" points="385.913,-186.908 396.466,-185.963 387.628,-180.121 385.913,-186.908"/>
</g>
<!-- Node6 -->
<g id="node11" class="node"><title>Node6</title>
<a xlink:href="class_o_s_1_1pkg_1_1apt_1_1_apt_installer.html#a9805006eff347a5957a9b4310b97df5c" target="_top" xlink:title="OS.pkg.apt.AptInstaller.is\lInstalled">
<polygon fill="none" stroke="black" points="395,-137 395,-167 519,-167 519,-137 395,-137"/>
<text text-anchor="start" x="403" y="-155" font-family="Helvetica,sans-Serif" font-size="10.00">OS.pkg.apt.AptInstaller.is</text>
<text text-anchor="middle" x="457" y="-144" font-family="Helvetica,sans-Serif" font-size="10.00">Installed</text>
</a>
</g>
<!-- Node2&#45;&gt;Node6 -->
<g id="edge10" class="edge"><title>Node2&#45;&gt;Node6</title>
<path fill="none" stroke="midnightblue" d="M335.62,-152C351.623,-152 368.529,-152 384.45,-152"/>
<polygon fill="midnightblue" stroke="midnightblue" points="384.751,-155.5 394.751,-152 384.751,-148.5 384.751,-155.5"/>
</g>
<!-- Node7 -->
<g id="node13" class="node"><title>Node7</title>
<a xlink:href="class_o_s_1_1pkg_1_1macports_1_1_mac_port_installer.html#a97f772453b099570fe145606acbf88b6" target="_top" xlink:title="OS.pkg.macports.MacPortInstaller.is\lInstalled">
<polygon fill="none" stroke="black" points="372.5,-88 372.5,-118 541.5,-118 541.5,-88 372.5,-88"/>
<text text-anchor="start" x="380.5" y="-106" font-family="Helvetica,sans-Serif" font-size="10.00">OS.pkg.macports.MacPortInstaller.is</text>
<text text-anchor="middle" x="457" y="-95" font-family="Helvetica,sans-Serif" font-size="10.00">Installed</text>
</a>
</g>
<!-- Node2&#45;&gt;Node7 -->
<g id="edge12" class="edge"><title>Node2&#45;&gt;Node7</title>
<path fill="none" stroke="midnightblue" d="M299.866,-142.436C324.534,-136.205 357.453,-127.891 386.704,-120.503"/>
<polygon fill="midnightblue" stroke="midnightblue" points="387.628,-123.879 396.466,-118.037 385.913,-117.092 387.628,-123.879"/>
</g>
<!-- Node8 -->
<g id="node15" class="node"><title>Node8</title>
<a xlink:href="class_o_s_1_1pkg_1_1yum_1_1___e_p_e_l.html#a91092c003c404faf9e74b940056bb28a" target="_top" xlink:title="OS.pkg.yum._EPEL.isInstalled">
<polygon fill="none" stroke="black" points="384,-49.5 384,-68.5 530,-68.5 530,-49.5 384,-49.5"/>
<text text-anchor="middle" x="457" y="-56.5" font-family="Helvetica,sans-Serif" font-size="10.00">OS.pkg.yum._EPEL.isInstalled</text>
</a>
</g>
<!-- Node2&#45;&gt;Node8 -->
<g id="edge14" class="edge"><title>Node2&#45;&gt;Node8</title>
<path fill="none" stroke="midnightblue" d="M273.405,-142.421C292.548,-126.826 332.899,-95.9862 372,-79 378.712,-76.0844 385.918,-73.5535 393.186,-71.3666"/>
<polygon fill="midnightblue" stroke="midnightblue" points="394.407,-74.6593 403.094,-68.5939 392.521,-67.9182 394.407,-74.6593"/>
</g>
<!-- Node9 -->
<g id="node17" class="node"><title>Node9</title>
<a xlink:href="class_o_s_1_1pkg_1_1yum_1_1_yum_installer.html#a62573fc6b44fd2987d8abc62c8f76c56" target="_top" xlink:title="OS.pkg.yum.YumInstaller.is\lInstalled">
<polygon fill="none" stroke="black" points="391,-0 391,-30 523,-30 523,-0 391,-0"/>
<text text-anchor="start" x="399" y="-18" font-family="Helvetica,sans-Serif" font-size="10.00">OS.pkg.yum.YumInstaller.is</text>
<text text-anchor="middle" x="457" y="-7" font-family="Helvetica,sans-Serif" font-size="10.00">Installed</text>
</a>
</g>
<!-- Node2&#45;&gt;Node9 -->
<g id="edge16" class="edge"><title>Node2&#45;&gt;Node9</title>
<path fill="none" stroke="midnightblue" d="M268.784,-142.302C284.43,-120.658 325.299,-68.1106 372,-40 375.593,-37.8372 379.386,-35.8504 383.295,-34.0266"/>
<polygon fill="midnightblue" stroke="midnightblue" points="384.761,-37.2064 392.584,-30.0611 382.012,-30.7684 384.761,-37.2064"/>
</g>
</g>
</svg>
        <g id="navigator" transform="translate(0 0)" fill="#404254">
                <rect fill="#f2f5e9" fill-opacity="0.5" stroke="#606060" stroke-width=".5" x="0" y="0" width="60" height="60"/>
                <use id="zoomplus" xlink:href="#zoomPlus" x="17" y="9" onmousedown="handleZoom(evt,'in')"/>
                <use id="zoomminus" xlink:href="#zoomMin" x="42" y="9" onmousedown="handleZoom(evt,'out')"/>
                <use id="reset" xlink:href="#resetDef" x="30" y="36" onmousedown="handleReset()"/>
                <g id="arrowUp" xlink:href="#dirArrow" transform="translate(30 24)" onmousedown="handlePan(0,-1)">
                  <use xlink:href="#rim" fill="#404040">
                        <set attributeName="fill" to="#808080" begin="arrowUp.mouseover" end="arrowUp.mouseout"/>
                  </use>
                  <path fill="none" stroke="white" stroke-width="1.5" d="M0,-3.0v7 M-2.5,-0.5L0,-3.0L2.5,-0.5"/>
                </g>
                <g id="arrowRight" xlink:href="#dirArrow" transform="rotate(90) translate(36 -43)" onmousedown="handlePan(1,0)">
                  <use xlink:href="#rim" fill="#404040">
                        <set attributeName="fill" to="#808080" begin="arrowRight.mouseover" end="arrowRight.mouseout"/>
                  </use>
                  <path fill="none" stroke="white" stroke-width="1.5" d="M0,-3.0v7 M-2.5,-0.5L0,-3.0L2.5,-0.5"/>
                </g>
                <g id="arrowDown" xlink:href="#dirArrow" transform="rotate(180) translate(-30 -48)" onmousedown="handlePan(0,1)">
                  <use xlink:href="#rim" fill="#404040">
                        <set attributeName="fill" to="#808080" begin="arrowDown.mouseover" end="arrowDown.mouseout"/>
                  </use>
                  <path fill="none" stroke="white" stroke-width="1.5" d="M0,-3.0v7 M-2.5,-0.5L0,-3.0L2.5,-0.5"/>
                </g>
                <g id="arrowLeft" xlink:href="#dirArrow" transform="rotate(270) translate(-36 17)" onmousedown="handlePan(-1,0)">
                  <use xlink:href="#rim" fill="#404040">
                        <set attributeName="fill" to="#808080" begin="arrowLeft.mouseover" end="arrowLeft.mouseout"/>
                  </use>
                  <path fill="none" stroke="white" stroke-width="1.5" d="M0,-3.0v7 M-2.5,-0.5L0,-3.0L2.5,-0.5"/>
                </g>
        </g>
        <svg viewBox="0 0 15 15" width="100%" height="30px" preserveAspectRatio="xMaxYMin meet">
         <g id="arrow_out" transform="scale(0.3 0.3)">
          <a xlink:href="class_o_s_1_1pkg_1_1yum_1_1_yum_installer_aefad82c28852c4cec1fdb66892956dbd_cgraph_org.svg" target="_base">
           <rect id="button" ry="5" rx="5" y="6" x="6" height="38" width="38"
                fill="#f2f5e9" fill-opacity="0.5" stroke="#606060" stroke-width="1.0"/>
           <path id="arrow"
             d="M 11.500037,31.436501 C 11.940474,20.09759 22.043105,11.32322 32.158766,21.979434 L 37.068811,17.246167 C 37.068811,17.246167 37.088388,32 37.088388,32 L 22.160133,31.978069 C 22.160133,31.978069 26.997745,27.140456 26.997745,27.140456 C 18.528582,18.264221 13.291696,25.230495 11.500037,31.436501 z"
             style="fill:#404040;"/>
          </a>
         </g>
        </svg>
</svg>
