<?xml version="1.0" encoding="UTF-8" standalone="no"?>
<!DOCTYPE svg PUBLIC "-//W3C//DTD SVG 1.1//EN"
 "http://www.w3.org/Graphics/SVG/1.1/DTD/svg11.dtd">
<!-- Generated by graphviz version 2.30.1 (20130219.2202)
 -->
<!-- Title: Exception Pages: 1 -->
<svg width="509pt" height="266pt"
 viewBox="0.00 0.00 509.00 266.00" xmlns="http://www.w3.org/2000/svg" xmlns:xlink="http://www.w3.org/1999/xlink">
<g id="graph0" class="graph" transform="scale(1 1) rotate(0) translate(4 262)">
<title>Exception</title>
<!-- Node1 -->
<g id="node1" class="node"><title>Node1</title>
<polygon fill="#bfbfbf" stroke="black" points="222.5,-200.5 222.5,-257.5 281.5,-257.5 281.5,-200.5 222.5,-200.5"/>
<text text-anchor="middle" x="252" y="-245.5" font-family="Helvetica,sans-Serif" font-size="10.00">Exception</text>
<polyline fill="none" stroke="black" points="222.5,-238.5 281.5,-238.5 "/>
<text text-anchor="middle" x="252" y="-226.5" font-family="Helvetica,sans-Serif" font-size="10.00"> </text>
<polyline fill="none" stroke="black" points="222.5,-219.5 281.5,-219.5 "/>
<text text-anchor="middle" x="252" y="-207.5" font-family="Helvetica,sans-Serif" font-size="10.00"> </text>
</g>
<!-- Node2 -->
<g id="node2" class="node"><title>Node2</title>
<g id="a_node2"><a xlink:href="classconfig__parser__m2_1_1_parse_exception.html" target="_top" xlink:title="{config_parser_m2.ParseException\n|+ message\l|+ __init__()\l+ __str__()\l}">
<polygon fill="none" stroke="black" points="-0.5,-95 -0.5,-163 160.5,-163 160.5,-95 -0.5,-95"/>
<text text-anchor="middle" x="80" y="-151" font-family="Helvetica,sans-Serif" font-size="10.00">config_parser_m2.ParseException</text>
<polyline fill="none" stroke="black" points="-0.5,-144 160.5,-144 "/>
<text text-anchor="start" x="7.5" y="-132" font-family="Helvetica,sans-Serif" font-size="10.00">+ message</text>
<polyline fill="none" stroke="black" points="-0.5,-125 160.5,-125 "/>
<text text-anchor="start" x="7.5" y="-113" font-family="Helvetica,sans-Serif" font-size="10.00">+ __init__()</text>
<text text-anchor="start" x="7.5" y="-102" font-family="Helvetica,sans-Serif" font-size="10.00">+ __str__()</text>
</a>
</g>
</g>
<!-- Node1&#45;&gt;Node2 -->
<g id="edge1" class="edge"><title>Node1&#45;&gt;Node2</title>
<path fill="none" stroke="midnightblue" d="M213.619,-206.132C191.38,-193.461 162.937,-177.255 138.013,-163.054"/>
<polygon fill="none" stroke="midnightblue" points="212.011,-209.244 222.432,-211.153 215.476,-203.162 212.011,-209.244"/>
</g>
<!-- Node3 -->
<g id="node3" class="node"><title>Node3</title>
<g id="a_node3"><a xlink:href="class_o_s_1_1___o_s_1_1_c_m_d___proc_exception.html" target="_top" xlink:title="{OS._OS.CMD_ProcException\n|+ proc\l|+ __init__()\l}">
<polygon fill="none" stroke="black" points="179,-100.5 179,-157.5 325,-157.5 325,-100.5 179,-100.5"/>
<text text-anchor="middle" x="252" y="-145.5" font-family="Helvetica,sans-Serif" font-size="10.00">OS._OS.CMD_ProcException</text>
<polyline fill="none" stroke="black" points="179,-138.5 325,-138.5 "/>
<text text-anchor="start" x="187" y="-126.5" font-family="Helvetica,sans-Serif" font-size="10.00">+ proc</text>
<polyline fill="none" stroke="black" points="179,-119.5 325,-119.5 "/>
<text text-anchor="start" x="187" y="-107.5" font-family="Helvetica,sans-Serif" font-size="10.00">+ __init__()</text>
</a>
</g>
</g>
<!-- Node1&#45;&gt;Node3 -->
<g id="edge2" class="edge"><title>Node1&#45;&gt;Node3</title>
<path fill="none" stroke="midnightblue" d="M252,-190.342C252,-179.48 252,-167.83 252,-157.692"/>
<polygon fill="none" stroke="midnightblue" points="248.5,-190.441 252,-200.441 255.5,-190.441 248.5,-190.441"/>
</g>
<!-- Node6 -->
<g id="node6" class="node"><title>Node6</title>
<g id="a_node6"><a xlink:href="class_o_s_1_1pkg_1_1__base_1_1_privilege_exception.html" target="_top" xlink:title="Instances of this and of CMD_ProcOutputException both have proc attributes containing a terminal comm...">
<polygon fill="none" stroke="black" points="343,-100.5 343,-157.5 501,-157.5 501,-100.5 343,-100.5"/>
<text text-anchor="middle" x="422" y="-145.5" font-family="Helvetica,sans-Serif" font-size="10.00">OS.pkg._base.PrivilegeException</text>
<polyline fill="none" stroke="black" points="343,-138.5 501,-138.5 "/>
<text text-anchor="start" x="351" y="-126.5" font-family="Helvetica,sans-Serif" font-size="10.00">+ proc</text>
<polyline fill="none" stroke="black" points="343,-119.5 501,-119.5 "/>
<text text-anchor="start" x="351" y="-107.5" font-family="Helvetica,sans-Serif" font-size="10.00">+ __init__()</text>
</a>
</g>
</g>
<!-- Node1&#45;&gt;Node6 -->
<g id="edge5" class="edge"><title>Node1&#45;&gt;Node6</title>
<path fill="none" stroke="midnightblue" d="M290.374,-205.878C315.169,-191.585 347.628,-172.873 374.108,-157.608"/>
<polygon fill="none" stroke="midnightblue" points="288.527,-202.903 281.612,-210.93 292.023,-208.968 288.527,-202.903"/>
</g>
<!-- Node4 -->
<g id="node4" class="node"><title>Node4</title>
<g id="a_node4"><a xlink:href="class_o_s_1_1___o_s_1_1_c_m_d___proc_output_exception.html" target="_top" xlink:title="{OS._OS.CMD_ProcOutputException\n||+ __init__()\l}">
<polygon fill="none" stroke="black" points="69.5,-0.5 69.5,-57.5 244.5,-57.5 244.5,-0.5 69.5,-0.5"/>
<text text-anchor="middle" x="157" y="-45.5" font-family="Helvetica,sans-Serif" font-size="10.00">OS._OS.CMD_ProcOutputException</text>
<polyline fill="none" stroke="black" points="69.5,-38.5 244.5,-38.5 "/>
<text text-anchor="middle" x="157" y="-26.5" font-family="Helvetica,sans-Serif" font-size="10.00"> </text>
<polyline fill="none" stroke="black" points="69.5,-19.5 244.5,-19.5 "/>
<text text-anchor="start" x="77.5" y="-7.5" font-family="Helvetica,sans-Serif" font-size="10.00">+ __init__()</text>
</a>
</g>
</g>
<!-- Node3&#45;&gt;Node4 -->
<g id="edge3" class="edge"><title>Node3&#45;&gt;Node4</title>
<path fill="none" stroke="midnightblue" d="M218.084,-93.0125C206.838,-81.4114 194.483,-68.6662 183.844,-57.692"/>
<polygon fill="none" stroke="midnightblue" points="215.811,-95.6967 225.284,-100.441 220.837,-90.8245 215.811,-95.6967"/>
</g>
<!-- Node5 -->
<g id="node5" class="node"><title>Node5</title>
<g id="a_node5"><a xlink:href="class_o_s_1_1pkg_1_1__base_1_1_c_m_d___proc_exception.html" target="_top" xlink:title="{OS.pkg._base.CMD_ProcException\n|+ originalException\l|+ __init__()\l}">
<polygon fill="none" stroke="black" points="262.5,-0.5 262.5,-57.5 433.5,-57.5 433.5,-0.5 262.5,-0.5"/>
<text text-anchor="middle" x="348" y="-45.5" font-family="Helvetica,sans-Serif" font-size="10.00">OS.pkg._base.CMD_ProcException</text>
<polyline fill="none" stroke="black" points="262.5,-38.5 433.5,-38.5 "/>
<text text-anchor="start" x="270.5" y="-26.5" font-family="Helvetica,sans-Serif" font-size="10.00">+ originalException</text>
<polyline fill="none" stroke="black" points="262.5,-19.5 433.5,-19.5 "/>
<text text-anchor="start" x="270.5" y="-7.5" font-family="Helvetica,sans-Serif" font-size="10.00">+ __init__()</text>
</a>
</g>
</g>
<!-- Node3&#45;&gt;Node5 -->
<g id="edge4" class="edge"><title>Node3&#45;&gt;Node5</title>
<path fill="none" stroke="midnightblue" d="M286.273,-93.0125C297.638,-81.4114 310.123,-68.6662 320.873,-57.692"/>
<polygon fill="none" stroke="midnightblue" points="283.494,-90.8479 278.997,-100.441 288.495,-95.7464 283.494,-90.8479"/>
</g>
</g>
</svg>
