<?xml version="1.0" encoding="UTF-8" standalone="no"?>
<!DOCTYPE svg PUBLIC "-//W3C//DTD SVG 1.1//EN"
 "http://www.w3.org/Graphics/SVG/1.1/DTD/svg11.dtd">
<!-- Generated by graphviz version 2.28.0 (20121214.2254)
 -->
<!-- Title: object Pages: 1 -->
<svg width="285pt" height="204pt"
 viewBox="0.00 0.00 285.00 204.00" xmlns="http://www.w3.org/2000/svg" xmlns:xlink="http://www.w3.org/1999/xlink">
<g id="graph1" class="graph" transform="scale(1 1) rotate(0) translate(4 200)">
<title>object</title>
<!-- Node1 -->
<g id="node1" class="node"><title>Node1</title>
<polygon fill="#bfbfbf" stroke="black" points="99,-138.5 99,-195.5 141,-195.5 141,-138.5 99,-138.5"/>
<text text-anchor="middle" x="120" y="-183.5" font-family="Helvetica,sans-Serif" font-size="10.00">object</text>
<polyline fill="none" stroke="black" points="99,-176.5 141,-176.5 "/>
<text text-anchor="middle" x="120" y="-164.5" font-family="Helvetica,sans-Serif" font-size="10.00"> </text>
<polyline fill="none" stroke="black" points="99,-157.5 141,-157.5 "/>
<text text-anchor="middle" x="120" y="-145.5" font-family="Helvetica,sans-Serif" font-size="10.00"> </text>
</g>
<!-- Node2 -->
<g id="node3" class="node"><title>Node2</title>
<a xlink:href="class_o_s_1_1_g_p_g_1_1_g_p_g.html" target="_top" xlink:title="Quick GNUPG implementation with common functions, using the command line interface.">
<polygon fill="none" stroke="black" points="0,-0.5 0,-101.5 92,-101.5 92,-0.5 0,-0.5"/>
<text text-anchor="middle" x="46" y="-89.5" font-family="Helvetica,sans-Serif" font-size="10.00">OS.GPG.GPG</text>
<polyline fill="none" stroke="black" points="0,-82.5 92,-82.5 "/>
<text text-anchor="middle" x="46" y="-70.5" font-family="Helvetica,sans-Serif" font-size="10.00"> </text>
<polyline fill="none" stroke="black" points="0,-63.5 92,-63.5 "/>
<text text-anchor="start" x="8" y="-51.5" font-family="Helvetica,sans-Serif" font-size="10.00">+ import_()</text>
<text text-anchor="start" x="8" y="-40.5" font-family="Helvetica,sans-Serif" font-size="10.00">+ isKeyImported()</text>
<text text-anchor="start" x="8" y="-29.5" font-family="Helvetica,sans-Serif" font-size="10.00">+ getKeyID()</text>
<text text-anchor="start" x="8" y="-18.5" font-family="Helvetica,sans-Serif" font-size="10.00">+ encrypt()</text>
<text text-anchor="start" x="8" y="-7.5" font-family="Helvetica,sans-Serif" font-size="10.00">+ decrypt()</text>
</a>
</g>
<!-- Node1&#45;&gt;Node2 -->
<g id="edge2" class="edge"><title>Node1&#45;&gt;Node2</title>
<path fill="none" stroke="midnightblue" d="M96.4747,-129.758C90.6661,-120.81 84.3442,-111.071 78.2019,-101.608"/>
<polygon fill="none" stroke="midnightblue" points="93.7062,-131.922 102.087,-138.404 99.5776,-128.11 93.7062,-131.922"/>
</g>
<!-- Node3 -->
<g id="node5" class="node"><title>Node3</title>
<a xlink:href="class_o_s_1_1pkg_1_1yum_1_1___yum_dummy_callback.html" target="_top" xlink:title="{OS.pkg.yum._YumDummyCallback\n||+ event()\l}">
<polygon fill="none" stroke="black" points="110.5,-22.5 110.5,-79.5 277.5,-79.5 277.5,-22.5 110.5,-22.5"/>
<text text-anchor="middle" x="194" y="-67.5" font-family="Helvetica,sans-Serif" font-size="10.00">OS.pkg.yum._YumDummyCallback</text>
<polyline fill="none" stroke="black" points="110.5,-60.5 277.5,-60.5 "/>
<text text-anchor="middle" x="194" y="-48.5" font-family="Helvetica,sans-Serif" font-size="10.00"> </text>
<polyline fill="none" stroke="black" points="110.5,-41.5 277.5,-41.5 "/>
<text text-anchor="start" x="118.5" y="-29.5" font-family="Helvetica,sans-Serif" font-size="10.00">+ event()</text>
</a>
</g>
<!-- Node1&#45;&gt;Node3 -->
<g id="edge4" class="edge"><title>Node1&#45;&gt;Node3</title>
<path fill="none" stroke="midnightblue" d="M143.551,-129.718C154.056,-113.535 166.235,-94.7725 175.995,-79.7372"/>
<polygon fill="none" stroke="midnightblue" points="140.422,-128.11 137.913,-138.404 146.294,-131.922 140.422,-128.11"/>
</g>
</g>
</svg>
