<?xml version="1.0" encoding="UTF-8" standalone="no"?>
<!DOCTYPE svg PUBLIC "-//W3C//DTD SVG 1.1//EN"
 "http://www.w3.org/Graphics/SVG/1.1/DTD/svg11.dtd">
<!-- Generated by graphviz version 2.30.1 (20130221.2233)
 -->
<!-- Title: OS.pkg._apt.AptInstaller.__init__ Pages: 1 -->
<svg width="336pt" height="126pt"
 viewBox="0.00 0.00 336.00 126.00" xmlns="http://www.w3.org/2000/svg" xmlns:xlink="http://www.w3.org/1999/xlink">
<g id="graph0" class="graph" transform="scale(1 1) rotate(0) translate(4 122)">
<title>OS.pkg._apt.AptInstaller.__init__</title>
<!-- Node1 -->
<g id="node1" class="node"><title>Node1</title>
<polygon fill="#bfbfbf" stroke="black" points="0,-49 0,-79 128,-79 128,-49 0,-49"/>
<text text-anchor="start" x="8" y="-67" font-family="Helvetica,sans-Serif" font-size="10.00">OS.pkg._apt.AptInstaller.</text>
<text text-anchor="middle" x="64" y="-56" font-family="Helvetica,sans-Serif" font-size="10.00">__init__</text>
</g>
<!-- Node2 -->
<g id="node2" class="node"><title>Node2</title>
<g id="a_node2"><a xlink:href="class_o_s_1_1pkg_1_1__apt_1_1_apt_installer.html#aa28edc779458632cddeda65f4211943d" target="_top" xlink:title="OS.pkg._apt.AptInstaller._init">
<polygon fill="none" stroke="black" points="173,-98.5 173,-117.5 319,-117.5 319,-98.5 173,-98.5"/>
<text text-anchor="middle" x="246" y="-105.5" font-family="Helvetica,sans-Serif" font-size="10.00">OS.pkg._apt.AptInstaller._init</text>
</a>
</g>
</g>
<!-- Node1&#45;&gt;Node2 -->
<g id="edge1" class="edge"><title>Node1&#45;&gt;Node2</title>
<path fill="none" stroke="midnightblue" d="M126.442,-79.0192C149.214,-84.5856 174.706,-90.8171 196.201,-96.0713"/>
<polygon fill="midnightblue" stroke="midnightblue" points="195.54,-99.5129 206.086,-98.4876 197.203,-92.7131 195.54,-99.5129"/>
</g>
<!-- Node3 -->
<g id="node3" class="node"><title>Node3</title>
<g id="a_node3"><a xlink:href="class_o_s_1_1pkg_1_1__base_1_1_package_manager.html#a96d015bb45e8fae7278a77e4e0c251df" target="_top" xlink:title="OS.pkg._base.PackageManager.\l_execAsRoot_withPkgs">
<polygon fill="none" stroke="black" points="164,-49 164,-79 328,-79 328,-49 164,-49"/>
<text text-anchor="start" x="172" y="-67" font-family="Helvetica,sans-Serif" font-size="10.00">OS.pkg._base.PackageManager.</text>
<text text-anchor="middle" x="246" y="-56" font-family="Helvetica,sans-Serif" font-size="10.00">_execAsRoot_withPkgs</text>
</a>
</g>
</g>
<!-- Node1&#45;&gt;Node3 -->
<g id="edge2" class="edge"><title>Node1&#45;&gt;Node3</title>
<path fill="none" stroke="midnightblue" d="M128.208,-64C136.508,-64 145.143,-64 153.793,-64"/>
<polygon fill="midnightblue" stroke="midnightblue" points="153.934,-67.5001 163.934,-64 153.934,-60.5001 153.934,-67.5001"/>
</g>
<!-- Node4 -->
<g id="node4" class="node"><title>Node4</title>
<g id="a_node4"><a xlink:href="class_o_s_1_1pkg_1_1__apt_1_1_apt_installer.html#a6aeae617a8fc8df36f11231d11996971" target="_top" xlink:title="OS.pkg._apt.AptInstaller.\l_installPyAptModule">
<polygon fill="none" stroke="black" points="182,-0 182,-30 310,-30 310,-0 182,-0"/>
<text text-anchor="start" x="190" y="-18" font-family="Helvetica,sans-Serif" font-size="10.00">OS.pkg._apt.AptInstaller.</text>
<text text-anchor="middle" x="246" y="-7" font-family="Helvetica,sans-Serif" font-size="10.00">_installPyAptModule</text>
</a>
</g>
</g>
<!-- Node1&#45;&gt;Node4 -->
<g id="edge3" class="edge"><title>Node1&#45;&gt;Node4</title>
<path fill="none" stroke="midnightblue" d="M120.475,-48.8986C139.297,-43.7747 160.494,-38.0044 179.991,-32.6968"/>
<polygon fill="midnightblue" stroke="midnightblue" points="180.979,-36.0554 189.708,-30.0516 179.14,-29.3012 180.979,-36.0554"/>
</g>
</g>
</svg>
