<?xml version="1.0" encoding="UTF-8" standalone="no"?>
<!DOCTYPE svg PUBLIC "-//W3C//DTD SVG 1.1//EN"
 "http://www.w3.org/Graphics/SVG/1.1/DTD/svg11.dtd">
<!-- Generated by graphviz version 2.28.0 (20121214.2254)
 -->
<!-- Title: OS.GPG.GPG Pages: 1 -->
<svg width="100pt" height="204pt"
 viewBox="0.00 0.00 100.00 204.00" xmlns="http://www.w3.org/2000/svg" xmlns:xlink="http://www.w3.org/1999/xlink">
<g id="graph1" class="graph" transform="scale(1 1) rotate(0) translate(4 200)">
<title>OS.GPG.GPG</title>
<!-- Node1 -->
<g id="node1" class="node"><title>Node1</title>
<polygon fill="#bfbfbf" stroke="black" points="0,-0.5 0,-101.5 92,-101.5 92,-0.5 0,-0.5"/>
<text text-anchor="middle" x="46" y="-89.5" font-family="Helvetica,sans-Serif" font-size="10.00">OS.GPG.GPG</text>
<polyline fill="none" stroke="black" points="0,-82.5 92,-82.5 "/>
<text text-anchor="middle" x="46" y="-70.5" font-family="Helvetica,sans-Serif" font-size="10.00"> </text>
<polyline fill="none" stroke="black" points="0,-63.5 92,-63.5 "/>
<text text-anchor="start" x="8" y="-51.5" font-family="Helvetica,sans-Serif" font-size="10.00">+ import_()</text>
<text text-anchor="start" x="8" y="-40.5" font-family="Helvetica,sans-Serif" font-size="10.00">+ isKeyImported()</text>
<text text-anchor="start" x="8" y="-29.5" font-family="Helvetica,sans-Serif" font-size="10.00">+ getKeyID()</text>
<text text-anchor="start" x="8" y="-18.5" font-family="Helvetica,sans-Serif" font-size="10.00">+ encrypt()</text>
<text text-anchor="start" x="8" y="-7.5" font-family="Helvetica,sans-Serif" font-size="10.00">+ decrypt()</text>
</g>
<!-- Node2 -->
<g id="node2" class="node"><title>Node2</title>
<a xlink:href="classobject.html" target="_top" xlink:title="{object\n||}">
<polygon fill="none" stroke="black" points="25,-138.5 25,-195.5 67,-195.5 67,-138.5 25,-138.5"/>
<text text-anchor="middle" x="46" y="-183.5" font-family="Helvetica,sans-Serif" font-size="10.00">object</text>
<polyline fill="none" stroke="black" points="25,-176.5 67,-176.5 "/>
<text text-anchor="middle" x="46" y="-164.5" font-family="Helvetica,sans-Serif" font-size="10.00"> </text>
<polyline fill="none" stroke="black" points="25,-157.5 67,-157.5 "/>
<text text-anchor="middle" x="46" y="-145.5" font-family="Helvetica,sans-Serif" font-size="10.00"> </text>
</a>
</g>
<!-- Node2&#45;&gt;Node1 -->
<g id="edge2" class="edge"><title>Node2&#45;&gt;Node1</title>
<path fill="none" stroke="midnightblue" d="M46,-128.354C46,-119.796 46,-110.578 46,-101.608"/>
<polygon fill="none" stroke="midnightblue" points="42.5001,-128.404 46,-138.404 49.5001,-128.404 42.5001,-128.404"/>
</g>
</g>
</svg>
