<?xml version="1.0" encoding="UTF-8" standalone="no"?>
<!DOCTYPE svg PUBLIC "-//W3C//DTD SVG 1.1//EN"
 "http://www.w3.org/Graphics/SVG/1.1/DTD/svg11.dtd">
<!-- Generated by graphviz version 2.28.0 (20121214.2254)
 -->
<!-- Title: OS.pkg.macports.MacPortInstaller.install Pages: 1 -->
<svg width="400pt" height="185pt"
 viewBox="0.00 0.00 400.00 185.00" xmlns="http://www.w3.org/2000/svg" xmlns:xlink="http://www.w3.org/1999/xlink">
<g id="graph1" class="graph" transform="scale(1 1) rotate(0) translate(4 181)">
<title>OS.pkg.macports.MacPortInstaller.install</title>
<!-- Node1 -->
<g id="node1" class="node"><title>Node1</title>
<polygon fill="#bfbfbf" stroke="black" points="0.5,-78.5 0.5,-97.5 185.5,-97.5 185.5,-78.5 0.5,-78.5"/>
<text text-anchor="middle" x="93" y="-85.5" font-family="Helvetica,sans-Serif" font-size="10.00">OS.pkg.macports.MacPortInstaller.install</text>
</g>
<!-- Node2 -->
<g id="node3" class="node"><title>Node2</title>
<a xlink:href="class_o_s_1_1pkg_1_1apt_1_1_apt_installer.html#a9805006eff347a5957a9b4310b97df5c" target="_top" xlink:title="OS.pkg.apt.AptInstaller.is\lInstalled">
<polygon fill="none" stroke="black" points="245,-147 245,-177 369,-177 369,-147 245,-147"/>
<text text-anchor="start" x="253" y="-165" font-family="Helvetica,sans-Serif" font-size="10.00">OS.pkg.apt.AptInstaller.is</text>
<text text-anchor="middle" x="307" y="-154" font-family="Helvetica,sans-Serif" font-size="10.00">Installed</text>
</a>
</g>
<!-- Node1&#45;&gt;Node2 -->
<g id="edge2" class="edge"><title>Node1&#45;&gt;Node2</title>
<path fill="none" stroke="midnightblue" d="M117.396,-97.5738C142.911,-107.87 185.05,-124.449 222,-137 228.834,-139.321 236.02,-141.641 243.193,-143.879"/>
<polygon fill="midnightblue" stroke="midnightblue" points="242.343,-147.28 252.93,-146.875 244.401,-140.589 242.343,-147.28"/>
</g>
<!-- Node3 -->
<g id="node5" class="node"><title>Node3</title>
<a xlink:href="class_o_s_1_1pkg_1_1macports_1_1_mac_port_installer.html#a97f772453b099570fe145606acbf88b6" target="_top" xlink:title="OS.pkg.macports.MacPortInstaller.is\lInstalled">
<polygon fill="none" stroke="black" points="222.5,-98 222.5,-128 391.5,-128 391.5,-98 222.5,-98"/>
<text text-anchor="start" x="230.5" y="-116" font-family="Helvetica,sans-Serif" font-size="10.00">OS.pkg.macports.MacPortInstaller.is</text>
<text text-anchor="middle" x="307" y="-105" font-family="Helvetica,sans-Serif" font-size="10.00">Installed</text>
</a>
</g>
<!-- Node1&#45;&gt;Node3 -->
<g id="edge4" class="edge"><title>Node1&#45;&gt;Node3</title>
<path fill="none" stroke="midnightblue" d="M174.753,-97.5227C187.033,-98.9709 199.793,-100.476 212.32,-101.953"/>
<polygon fill="midnightblue" stroke="midnightblue" points="211.962,-105.435 222.304,-103.13 212.782,-98.483 211.962,-105.435"/>
</g>
<!-- Node4 -->
<g id="node7" class="node"><title>Node4</title>
<a xlink:href="class_o_s_1_1pkg_1_1apt_1_1_apt_installer.html#a721544fb2131f2396926e557aa2e44a1" target="_top" xlink:title="OS.pkg.apt.AptInstaller.\l_updatePackageIndex">
<polygon fill="none" stroke="black" points="248.5,-49 248.5,-79 365.5,-79 365.5,-49 248.5,-49"/>
<text text-anchor="start" x="256.5" y="-67" font-family="Helvetica,sans-Serif" font-size="10.00">OS.pkg.apt.AptInstaller.</text>
<text text-anchor="middle" x="307" y="-56" font-family="Helvetica,sans-Serif" font-size="10.00">_updatePackageIndex</text>
</a>
</g>
<!-- Node1&#45;&gt;Node4 -->
<g id="edge6" class="edge"><title>Node1&#45;&gt;Node4</title>
<path fill="none" stroke="midnightblue" d="M178.093,-78.4801C198.083,-76.217 219.16,-73.8309 238.31,-71.663"/>
<polygon fill="midnightblue" stroke="midnightblue" points="238.888,-75.12 248.431,-70.5172 238.101,-68.1644 238.888,-75.12"/>
</g>
<!-- Node5 -->
<g id="node9" class="node"><title>Node5</title>
<a xlink:href="class_o_s_1_1pkg_1_1macports_1_1_mac_port_installer.html#a36a164a74432a3d803e2e48e2c9d3709" target="_top" xlink:title="OS.pkg.macports.MacPortInstaller.\l_updatePackageIndex">
<polygon fill="none" stroke="black" points="226,-0 226,-30 388,-30 388,-0 226,-0"/>
<text text-anchor="start" x="234" y="-18" font-family="Helvetica,sans-Serif" font-size="10.00">OS.pkg.macports.MacPortInstaller.</text>
<text text-anchor="middle" x="307" y="-7" font-family="Helvetica,sans-Serif" font-size="10.00">_updatePackageIndex</text>
</a>
</g>
<!-- Node1&#45;&gt;Node5 -->
<g id="edge8" class="edge"><title>Node1&#45;&gt;Node5</title>
<path fill="none" stroke="midnightblue" d="M117.885,-78.4748C143.463,-68.4085 185.328,-52.3167 222,-40 228.941,-37.6687 236.242,-35.3304 243.52,-33.0701"/>
<polygon fill="midnightblue" stroke="midnightblue" points="244.861,-36.3201 253.397,-30.0443 242.81,-29.6272 244.861,-36.3201"/>
</g>
</g>
</svg>
