<?xml version="1.0" encoding="UTF-8" standalone="no"?>
<!DOCTYPE svg PUBLIC "-//W3C//DTD SVG 1.1//EN"
 "http://www.w3.org/Graphics/SVG/1.1/DTD/svg11.dtd">
<!-- Generated by graphviz version 2.28.0 (20121214.2254)
 -->
<!-- Title: OS.pkg.yum.YumInstaller.isInstalled Pages: 1 -->
<svg width="518pt" height="71pt"
 viewBox="0.00 0.00 518.00 71.00" xmlns="http://www.w3.org/2000/svg" xmlns:xlink="http://www.w3.org/1999/xlink">
<g id="graph1" class="graph" transform="scale(1 1) rotate(0) translate(4 67)">
<title>OS.pkg.yum.YumInstaller.isInstalled</title>
<!-- Node1 -->
<g id="node1" class="node"><title>Node1</title>
<polygon fill="#bfbfbf" stroke="black" points="0,-14 0,-44 132,-44 132,-14 0,-14"/>
<text text-anchor="start" x="8" y="-32" font-family="Helvetica,sans-Serif" font-size="10.00">OS.pkg.yum.YumInstaller.is</text>
<text text-anchor="middle" x="66" y="-21" font-family="Helvetica,sans-Serif" font-size="10.00">Installed</text>
</g>
<!-- Node2 -->
<g id="node3" class="node"><title>Node2</title>
<a xlink:href="class_o_s_1_1pkg_1_1yum_1_1_yum_installer.html#aa33eadba0696d51bd35e3591635b67cf" target="_top" xlink:title="OS.pkg.yum.YumInstaller.install">
<polygon fill="none" stroke="black" points="171.5,-38.5 171.5,-57.5 320.5,-57.5 320.5,-38.5 171.5,-38.5"/>
<text text-anchor="middle" x="246" y="-45.5" font-family="Helvetica,sans-Serif" font-size="10.00">OS.pkg.yum.YumInstaller.install</text>
</a>
</g>
<!-- Node1&#45;&gt;Node2 -->
<g id="edge2" class="edge"><title>Node1&#45;&gt;Node2</title>
<path fill="none" stroke="midnightblue" d="M142.049,-37.0109C151.774,-38.0489 161.726,-39.1112 171.427,-40.1467"/>
<polygon fill="midnightblue" stroke="midnightblue" points="142.333,-33.5213 132.018,-35.9401 141.59,-40.4818 142.333,-33.5213"/>
</g>
<!-- Node4 -->
<g id="node7" class="node"><title>Node4</title>
<a xlink:href="class_o_s_1_1pkg_1_1yum_1_1_yum_installer.html#ac39974d4ee37fbc195eda54f2fccc438" target="_top" xlink:title="OS.pkg.yum.YumInstaller.remove">
<polygon fill="none" stroke="black" points="168,-0.5 168,-19.5 324,-19.5 324,-0.5 168,-0.5"/>
<text text-anchor="middle" x="246" y="-7.5" font-family="Helvetica,sans-Serif" font-size="10.00">OS.pkg.yum.YumInstaller.remove</text>
</a>
</g>
<!-- Node1&#45;&gt;Node4 -->
<g id="edge6" class="edge"><title>Node1&#45;&gt;Node4</title>
<path fill="none" stroke="midnightblue" d="M142.221,-20.9708C150.672,-20.0688 159.292,-19.1486 167.768,-18.2438"/>
<polygon fill="midnightblue" stroke="midnightblue" points="141.59,-17.5182 132.018,-22.0599 142.333,-24.4787 141.59,-17.5182"/>
</g>
<!-- Node3 -->
<g id="node5" class="node"><title>Node3</title>
<a xlink:href="class_o_s_1_1pkg_1_1yum_1_1_yum_installer.html#aefad82c28852c4cec1fdb66892956dbd" target="_top" xlink:title="OS.pkg.yum.YumInstaller.install\lRepo_EPEL">
<polygon fill="none" stroke="black" points="360.5,-33 360.5,-63 509.5,-63 509.5,-33 360.5,-33"/>
<text text-anchor="start" x="368.5" y="-51" font-family="Helvetica,sans-Serif" font-size="10.00">OS.pkg.yum.YumInstaller.install</text>
<text text-anchor="middle" x="435" y="-40" font-family="Helvetica,sans-Serif" font-size="10.00">Repo_EPEL</text>
</a>
</g>
<!-- Node2&#45;&gt;Node3 -->
<g id="edge4" class="edge"><title>Node2&#45;&gt;Node3</title>
<path fill="none" stroke="midnightblue" d="M330.847,-48C340.711,-48 350.72,-48 360.428,-48"/>
<polygon fill="midnightblue" stroke="midnightblue" points="330.639,-44.5001 320.639,-48 330.639,-51.5001 330.639,-44.5001"/>
</g>
</g>
</svg>
