<?xml version="1.0" encoding="UTF-8" standalone="no"?>
<!DOCTYPE svg PUBLIC "-//W3C//DTD SVG 1.1//EN"
 "http://www.w3.org/Graphics/SVG/1.1/DTD/svg11.dtd">
<!-- Generated by graphviz version 2.30.1 (20130219.2202)
 -->
<!-- Title: OS.pkg._yum.YumInstaller.installRepo_RPM Pages: 1 -->
<svg width="360pt" height="164pt"
 viewBox="0.00 0.00 360.00 164.00" xmlns="http://www.w3.org/2000/svg" xmlns:xlink="http://www.w3.org/1999/xlink">
<g id="graph0" class="graph" transform="scale(1 1) rotate(0) translate(4 160)">
<title>OS.pkg._yum.YumInstaller.installRepo_RPM</title>
<!-- Node1 -->
<g id="node1" class="node"><title>Node1</title>
<polygon fill="#bfbfbf" stroke="black" points="0,-55 0,-85 154,-85 154,-55 0,-55"/>
<text text-anchor="start" x="8" y="-73" font-family="Helvetica,sans-Serif" font-size="10.00">OS.pkg._yum.YumInstaller.install</text>
<text text-anchor="middle" x="77" y="-62" font-family="Helvetica,sans-Serif" font-size="10.00">Repo_RPM</text>
</g>
<!-- Node2 -->
<g id="node2" class="node"><title>Node2</title>
<g id="a_node2"><a xlink:href="class_o_s_1_1pkg_1_1__base_1_1_package_manager.html#a654a774ee8938d8c391b995aa31f5c45" target="_top" xlink:title="OS.pkg._base.PackageManager.\l_execAsRoot_terminalCommand">
<polygon fill="none" stroke="black" points="190.5,-126 190.5,-156 351.5,-156 351.5,-126 190.5,-126"/>
<text text-anchor="start" x="198.5" y="-144" font-family="Helvetica,sans-Serif" font-size="10.00">OS.pkg._base.PackageManager.</text>
<text text-anchor="middle" x="271" y="-133" font-family="Helvetica,sans-Serif" font-size="10.00">_execAsRoot_terminalCommand</text>
</a>
</g>
</g>
<!-- Node1&#45;&gt;Node2 -->
<g id="edge1" class="edge"><title>Node1&#45;&gt;Node2</title>
<path fill="none" stroke="midnightblue" d="M112.508,-85.0813C134.499,-94.4655 163.702,-106.511 190,-116 196.345,-118.29 203.016,-120.57 209.686,-122.769"/>
<polygon fill="midnightblue" stroke="midnightblue" points="208.828,-126.17 219.42,-125.925 210.987,-119.511 208.828,-126.17"/>
</g>
<!-- Node3 -->
<g id="node3" class="node"><title>Node3</title>
<g id="a_node3"><a xlink:href="class_o_s_1_1pkg_1_1__yum_1_1_yum_installer.html#ab1c380d70e6d3c9610a8be5795f15bb7" target="_top" xlink:title="OS.pkg._yum.YumInstaller.\l_installRepo_RPM">
<polygon fill="none" stroke="black" points="205.5,-77 205.5,-107 336.5,-107 336.5,-77 205.5,-77"/>
<text text-anchor="start" x="213.5" y="-95" font-family="Helvetica,sans-Serif" font-size="10.00">OS.pkg._yum.YumInstaller.</text>
<text text-anchor="middle" x="271" y="-84" font-family="Helvetica,sans-Serif" font-size="10.00">_installRepo_RPM</text>
</a>
</g>
</g>
<!-- Node1&#45;&gt;Node3 -->
<g id="edge2" class="edge"><title>Node1&#45;&gt;Node3</title>
<path fill="none" stroke="midnightblue" d="M154.159,-78.7266C167.675,-80.2753 181.74,-81.8868 195.217,-83.4311"/>
<polygon fill="midnightblue" stroke="midnightblue" points="195.056,-86.9355 205.39,-84.5967 195.853,-79.981 195.056,-86.9355"/>
</g>
<!-- Node4 -->
<g id="node4" class="node"><title>Node4</title>
<g id="a_node4"><a xlink:href="class_o_s_1_1pkg_1_1__apt_1_1_apt_installer.html#aa28edc779458632cddeda65f4211943d" target="_top" xlink:title="OS.pkg._apt.AptInstaller._init">
<polygon fill="none" stroke="black" points="202,-38.5 202,-57.5 340,-57.5 340,-38.5 202,-38.5"/>
<text text-anchor="middle" x="271" y="-45.5" font-family="Helvetica,sans-Serif" font-size="10.00">OS.pkg._apt.AptInstaller._init</text>
</a>
</g>
</g>
<!-- Node1&#45;&gt;Node4 -->
<g id="edge3" class="edge"><title>Node1&#45;&gt;Node4</title>
<path fill="none" stroke="midnightblue" d="M154.159,-61.2734C166.429,-59.8676 179.15,-58.4099 191.474,-56.9978"/>
<polygon fill="midnightblue" stroke="midnightblue" points="192.177,-60.4402 201.713,-55.8245 191.38,-53.4857 192.177,-60.4402"/>
</g>
<!-- Node5 -->
<g id="node5" class="node"><title>Node5</title>
<g id="a_node5"><a xlink:href="class_o_s_1_1pkg_1_1__yum_1_1_yum_installer.html#abe677509100cf7114da15ca0294607ed" target="_top" xlink:title="OS.pkg._yum.YumInstaller._init">
<polygon fill="none" stroke="black" points="198,-0.5 198,-19.5 344,-19.5 344,-0.5 198,-0.5"/>
<text text-anchor="middle" x="271" y="-7.5" font-family="Helvetica,sans-Serif" font-size="10.00">OS.pkg._yum.YumInstaller._init</text>
</a>
</g>
</g>
<!-- Node1&#45;&gt;Node5 -->
<g id="edge4" class="edge"><title>Node1&#45;&gt;Node5</title>
<path fill="none" stroke="midnightblue" d="M115.728,-54.9292C137.274,-46.6411 164.916,-36.5415 190,-29 198.343,-26.4916 207.256,-24.0993 215.991,-21.9104"/>
<polygon fill="midnightblue" stroke="midnightblue" points="216.855,-25.3024 225.739,-19.53 215.194,-18.5022 216.855,-25.3024"/>
</g>
</g>
</svg>
