<?xml version="1.0" encoding="UTF-8" standalone="no"?>
<!DOCTYPE svg PUBLIC "-//W3C//DTD SVG 1.1//EN"
 "http://www.w3.org/Graphics/SVG/1.1/DTD/svg11.dtd">
<!-- Generated by graphviz version 2.28.0 (20121214.2254)
 -->
<!-- Title: OS.pkg.apt.AptInstaller.update Pages: 1 -->
<svg width="492pt" height="87pt"
 viewBox="0.00 0.00 492.00 87.00" xmlns="http://www.w3.org/2000/svg" xmlns:xlink="http://www.w3.org/1999/xlink">
<g id="graph1" class="graph" transform="scale(1 1) rotate(0) translate(4 83)">
<title>OS.pkg.apt.AptInstaller.update</title>
<!-- Node1 -->
<g id="node1" class="node"><title>Node1</title>
<polygon fill="#bfbfbf" stroke="black" points="0.5,-35.5 0.5,-54.5 147.5,-54.5 147.5,-35.5 0.5,-35.5"/>
<text text-anchor="middle" x="74" y="-42.5" font-family="Helvetica,sans-Serif" font-size="10.00">OS.pkg.apt.AptInstaller.update</text>
</g>
<!-- Node2 -->
<g id="node3" class="node"><title>Node2</title>
<a xlink:href="class_o_s_1_1pkg_1_1apt_1_1_apt_installer.html#a721544fb2131f2396926e557aa2e44a1" target="_top" xlink:title="OS.pkg.apt.AptInstaller.\l_updatePackageIndex">
<polygon fill="none" stroke="black" points="363.5,-49 363.5,-79 480.5,-79 480.5,-49 363.5,-49"/>
<text text-anchor="start" x="371.5" y="-67" font-family="Helvetica,sans-Serif" font-size="10.00">OS.pkg.apt.AptInstaller.</text>
<text text-anchor="middle" x="422" y="-56" font-family="Helvetica,sans-Serif" font-size="10.00">_updatePackageIndex</text>
</a>
</g>
<!-- Node1&#45;&gt;Node2 -->
<g id="edge2" class="edge"><title>Node1&#45;&gt;Node2</title>
<path fill="none" stroke="midnightblue" d="M147.533,-48.983C208.226,-52.3159 294.165,-57.0351 353.427,-60.2893"/>
<polygon fill="midnightblue" stroke="midnightblue" points="353.257,-63.7852 363.434,-60.8389 353.641,-56.7957 353.257,-63.7852"/>
</g>
<!-- Node3 -->
<g id="node5" class="node"><title>Node3</title>
<a xlink:href="class_o_s_1_1pkg_1_1apt_1_1_apt_installer.html#a1288a2bbb73a4afd5b342eda453787a0" target="_top" xlink:title="OS.pkg.apt.AptInstaller.install">
<polygon fill="none" stroke="black" points="184,-16.5 184,-35.5 324,-35.5 324,-16.5 184,-16.5"/>
<text text-anchor="middle" x="254" y="-23.5" font-family="Helvetica,sans-Serif" font-size="10.00">OS.pkg.apt.AptInstaller.install</text>
</a>
</g>
<!-- Node1&#45;&gt;Node3 -->
<g id="edge4" class="edge"><title>Node1&#45;&gt;Node3</title>
<path fill="none" stroke="midnightblue" d="M147.656,-37.2446C156.224,-36.33 165.001,-35.3932 173.654,-34.4695"/>
<polygon fill="midnightblue" stroke="midnightblue" points="174.165,-37.935 183.737,-33.3933 173.422,-30.9745 174.165,-37.935"/>
</g>
<!-- Node3&#45;&gt;Node2 -->
<g id="edge8" class="edge"><title>Node3&#45;&gt;Node2</title>
<path fill="none" stroke="midnightblue" d="M296.889,-35.589C314.065,-39.5208 334.383,-44.172 353.553,-48.5604"/>
<polygon fill="midnightblue" stroke="midnightblue" points="352.922,-52.0063 363.451,-50.8261 354.484,-45.1828 352.922,-52.0063"/>
</g>
<!-- Node4 -->
<g id="node7" class="node"><title>Node4</title>
<a xlink:href="class_o_s_1_1pkg_1_1apt_1_1_apt_installer.html#a9805006eff347a5957a9b4310b97df5c" target="_top" xlink:title="OS.pkg.apt.AptInstaller.is\lInstalled">
<polygon fill="none" stroke="black" points="360,-0 360,-30 484,-30 484,-0 360,-0"/>
<text text-anchor="start" x="368" y="-18" font-family="Helvetica,sans-Serif" font-size="10.00">OS.pkg.apt.AptInstaller.is</text>
<text text-anchor="middle" x="422" y="-7" font-family="Helvetica,sans-Serif" font-size="10.00">Installed</text>
</a>
</g>
<!-- Node3&#45;&gt;Node4 -->
<g id="edge6" class="edge"><title>Node3&#45;&gt;Node4</title>
<path fill="none" stroke="midnightblue" d="M324.437,-21.3987C332.775,-20.8463 341.3,-20.2813 349.664,-19.7271"/>
<polygon fill="midnightblue" stroke="midnightblue" points="350.016,-23.2115 359.762,-19.0579 349.553,-16.2269 350.016,-23.2115"/>
</g>
</g>
</svg>
