<?xml version="1.0" encoding="UTF-8" standalone="no"?>
<!DOCTYPE svg PUBLIC "-//W3C//DTD SVG 1.1//EN"
 "http://www.w3.org/Graphics/SVG/1.1/DTD/svg11.dtd">
<!-- Generated by graphviz version 2.30.1 (20130221.2233)
 -->
<!-- Title: OS.pkg._apt.AptInstaller.isSupported Pages: 1 -->
<svg width="578pt" height="371pt"
 viewBox="0.00 0.00 578.00 371.00" xmlns="http://www.w3.org/2000/svg" xmlns:xlink="http://www.w3.org/1999/xlink">
<g id="graph0" class="graph" transform="scale(1 1) rotate(0) translate(4 367)">
<title>OS.pkg._apt.AptInstaller.isSupported</title>
<!-- Node1 -->
<g id="node1" class="node"><title>Node1</title>
<polygon fill="#bfbfbf" stroke="black" points="0.5,-171 0.5,-201 135.5,-201 135.5,-171 0.5,-171"/>
<text text-anchor="start" x="8.5" y="-189" font-family="Helvetica,sans-Serif" font-size="10.00">OS.pkg._apt.AptInstaller.is</text>
<text text-anchor="middle" x="68" y="-178" font-family="Helvetica,sans-Serif" font-size="10.00">Supported</text>
</g>
<!-- Node2 -->
<g id="node2" class="node"><title>Node2</title>
<g id="a_node2"><a xlink:href="class_o_s_1_1pkg_1_1__base_1_1_package_manager.html#a7d0ca35a8011599b3dd74ed6b8673e2d" target="_top" xlink:title="OS.pkg._base.PackageManager.install">
<polygon fill="none" stroke="black" points="172.5,-127.5 172.5,-146.5 361.5,-146.5 361.5,-127.5 172.5,-127.5"/>
<text text-anchor="middle" x="267" y="-134.5" font-family="Helvetica,sans-Serif" font-size="10.00">OS.pkg._base.PackageManager.install</text>
</a>
</g>
</g>
<!-- Node1&#45;&gt;Node2 -->
<g id="edge1" class="edge"><title>Node1&#45;&gt;Node2</title>
<path fill="none" stroke="midnightblue" d="M129.445,-170.965C157.828,-163.906 191.191,-155.607 217.836,-148.98"/>
<polygon fill="midnightblue" stroke="midnightblue" points="218.834,-152.338 227.694,-146.528 217.145,-145.545 218.834,-152.338"/>
</g>
<!-- Node8 -->
<g id="node8" class="node"><title>Node8</title>
<g id="a_node8"><a xlink:href="class_o_s_1_1pkg_1_1__yum_1_1___e_p_e_l.html#a7ec9220419eb8a45d45397c9168244d4" target="_top" xlink:title="OS.pkg._yum._EPEL.install">
<polygon fill="none" stroke="black" points="197.5,-225.5 197.5,-244.5 336.5,-244.5 336.5,-225.5 197.5,-225.5"/>
<text text-anchor="middle" x="267" y="-232.5" font-family="Helvetica,sans-Serif" font-size="10.00">OS.pkg._yum._EPEL.install</text>
</a>
</g>
</g>
<!-- Node1&#45;&gt;Node8 -->
<g id="edge7" class="edge"><title>Node1&#45;&gt;Node8</title>
<path fill="none" stroke="midnightblue" d="M129.445,-201.035C157.828,-208.094 191.191,-216.393 217.836,-223.02"/>
<polygon fill="midnightblue" stroke="midnightblue" points="217.145,-226.455 227.694,-225.472 218.834,-219.662 217.145,-226.455"/>
</g>
<!-- Node3 -->
<g id="node3" class="node"><title>Node3</title>
<g id="a_node3"><a xlink:href="class_o_s_1_1pkg_1_1__apt_1_1_apt_installer.html#a1cd4147589ee55bebc8356005ca87c9c" target="_top" xlink:title="OS.pkg._apt.AptInstaller.is\lInstalled">
<polygon fill="none" stroke="black" points="416.5,-196 416.5,-226 551.5,-226 551.5,-196 416.5,-196"/>
<text text-anchor="start" x="424.5" y="-214" font-family="Helvetica,sans-Serif" font-size="10.00">OS.pkg._apt.AptInstaller.is</text>
<text text-anchor="middle" x="484" y="-203" font-family="Helvetica,sans-Serif" font-size="10.00">Installed</text>
</a>
</g>
</g>
<!-- Node2&#45;&gt;Node3 -->
<g id="edge2" class="edge"><title>Node2&#45;&gt;Node3</title>
<path fill="none" stroke="midnightblue" d="M291.769,-146.568C317.69,-156.859 360.493,-173.435 398,-186 404.919,-188.318 412.192,-190.635 419.451,-192.872"/>
<polygon fill="midnightblue" stroke="midnightblue" points="418.72,-196.308 429.306,-195.866 420.755,-189.611 418.72,-196.308"/>
</g>
<!-- Node4 -->
<g id="node4" class="node"><title>Node4</title>
<g id="a_node4"><a xlink:href="class_o_s_1_1pkg_1_1__base_1_1_package_manager.html#a2d8c330852d08b52124e7cab9cc7f6ba" target="_top" xlink:title="Must be executable without requiring root privileges. ">
<polygon fill="none" stroke="black" points="398.5,-147 398.5,-177 569.5,-177 569.5,-147 398.5,-147"/>
<text text-anchor="start" x="406.5" y="-165" font-family="Helvetica,sans-Serif" font-size="10.00">OS.pkg._base.PackageManager.is</text>
<text text-anchor="middle" x="484" y="-154" font-family="Helvetica,sans-Serif" font-size="10.00">Installed</text>
</a>
</g>
</g>
<!-- Node2&#45;&gt;Node4 -->
<g id="edge3" class="edge"><title>Node2&#45;&gt;Node4</title>
<path fill="none" stroke="midnightblue" d="M349.896,-146.523C362.443,-147.982 375.485,-149.498 388.281,-150.986"/>
<polygon fill="midnightblue" stroke="midnightblue" points="388.14,-154.493 398.477,-152.172 388.948,-147.54 388.14,-154.493"/>
</g>
<!-- Node5 -->
<g id="node5" class="node"><title>Node5</title>
<g id="a_node5"><a xlink:href="class_o_s_1_1pkg_1_1__base_1_1_package_manager.html#a96d015bb45e8fae7278a77e4e0c251df" target="_top" xlink:title="OS.pkg._base.PackageManager.\l_execAsRoot_withPkgs">
<polygon fill="none" stroke="black" points="402,-98 402,-128 566,-128 566,-98 402,-98"/>
<text text-anchor="start" x="410" y="-116" font-family="Helvetica,sans-Serif" font-size="10.00">OS.pkg._base.PackageManager.</text>
<text text-anchor="middle" x="484" y="-105" font-family="Helvetica,sans-Serif" font-size="10.00">_execAsRoot_withPkgs</text>
</a>
</g>
</g>
<!-- Node2&#45;&gt;Node5 -->
<g id="edge4" class="edge"><title>Node2&#45;&gt;Node5</title>
<path fill="none" stroke="midnightblue" d="M353.282,-127.48C365.864,-126.076 378.87,-124.624 391.569,-123.206"/>
<polygon fill="midnightblue" stroke="midnightblue" points="392.125,-126.666 401.675,-122.078 391.348,-119.709 392.125,-126.666"/>
</g>
<!-- Node6 -->
<g id="node6" class="node"><title>Node6</title>
<g id="a_node6"><a xlink:href="class_o_s_1_1pkg_1_1__apt_1_1_apt_installer.html#af0c36c4a71af6cc49103d7ca63e6d6ae" target="_top" xlink:title="OS.pkg._apt.AptInstaller.\l_install">
<polygon fill="none" stroke="black" points="420,-49 420,-79 548,-79 548,-49 420,-49"/>
<text text-anchor="start" x="428" y="-67" font-family="Helvetica,sans-Serif" font-size="10.00">OS.pkg._apt.AptInstaller.</text>
<text text-anchor="middle" x="484" y="-56" font-family="Helvetica,sans-Serif" font-size="10.00">_install</text>
</a>
</g>
</g>
<!-- Node2&#45;&gt;Node6 -->
<g id="edge5" class="edge"><title>Node2&#45;&gt;Node6</title>
<path fill="none" stroke="midnightblue" d="M291.743,-127.353C317.641,-116.994 360.425,-100.361 398,-88 404.263,-85.9395 410.821,-83.8941 417.397,-81.9168"/>
<polygon fill="midnightblue" stroke="midnightblue" points="418.415,-85.2657 427.012,-79.0748 416.431,-78.5528 418.415,-85.2657"/>
</g>
<!-- Node7 -->
<g id="node7" class="node"><title>Node7</title>
<g id="a_node7"><a xlink:href="class_o_s_1_1pkg_1_1__base_1_1_package_manager.html#a19fcb0397482254e3eb25188fd0ad575" target="_top" xlink:title="OS.pkg._base.PackageManager.\l_install">
<polygon fill="none" stroke="black" points="402,-0 402,-30 566,-30 566,-0 402,-0"/>
<text text-anchor="start" x="410" y="-18" font-family="Helvetica,sans-Serif" font-size="10.00">OS.pkg._base.PackageManager.</text>
<text text-anchor="middle" x="484" y="-7" font-family="Helvetica,sans-Serif" font-size="10.00">_install</text>
</a>
</g>
</g>
<!-- Node2&#45;&gt;Node7 -->
<g id="edge6" class="edge"><title>Node2&#45;&gt;Node7</title>
<path fill="none" stroke="midnightblue" d="M277.898,-127.431C298.535,-107.987 348.375,-63.622 398,-39 401.786,-37.1215 405.742,-35.3693 409.788,-33.738"/>
<polygon fill="midnightblue" stroke="midnightblue" points="411.22,-36.939 419.352,-30.1484 408.76,-30.3854 411.22,-36.939"/>
</g>
<!-- Node8&#45;&gt;Node3 -->
<g id="edge8" class="edge"><title>Node8&#45;&gt;Node3</title>
<path fill="none" stroke="midnightblue" d="M336.618,-227.34C358.679,-224.878 383.264,-222.133 405.891,-219.607"/>
<polygon fill="midnightblue" stroke="midnightblue" points="406.584,-223.052 416.134,-218.464 405.807,-216.095 406.584,-223.052"/>
</g>
<!-- Node8&#45;&gt;Node4 -->
<g id="edge9" class="edge"><title>Node8&#45;&gt;Node4</title>
<path fill="none" stroke="midnightblue" d="M291.743,-225.353C317.641,-214.994 360.425,-198.361 398,-186 404.263,-183.94 410.821,-181.894 417.397,-179.917"/>
<polygon fill="midnightblue" stroke="midnightblue" points="418.415,-183.266 427.012,-177.075 416.431,-176.553 418.415,-183.266"/>
</g>
<!-- Node9 -->
<g id="node9" class="node"><title>Node9</title>
<g id="a_node9"><a xlink:href="class_o_s_1_1pkg_1_1__macports_1_1_mac_port_installer.html#a26a0ac6f4da6f4aa96aee08ec7d27ee5" target="_top" xlink:title="OS.pkg._macports.MacPort\lInstaller.isInstalled">
<polygon fill="none" stroke="black" points="414.5,-333 414.5,-363 553.5,-363 553.5,-333 414.5,-333"/>
<text text-anchor="start" x="422.5" y="-351" font-family="Helvetica,sans-Serif" font-size="10.00">OS.pkg._macports.MacPort</text>
<text text-anchor="middle" x="484" y="-340" font-family="Helvetica,sans-Serif" font-size="10.00">Installer.isInstalled</text>
</a>
</g>
</g>
<!-- Node8&#45;&gt;Node9 -->
<g id="edge10" class="edge"><title>Node8&#45;&gt;Node9</title>
<path fill="none" stroke="midnightblue" d="M279.438,-244.566C301.209,-262.342 350.669,-300.685 398,-323 402.957,-325.337 408.18,-327.507 413.499,-329.513"/>
<polygon fill="midnightblue" stroke="midnightblue" points="412.547,-332.889 423.142,-332.944 414.894,-326.294 412.547,-332.889"/>
</g>
<!-- Node10 -->
<g id="node10" class="node"><title>Node10</title>
<g id="a_node10"><a xlink:href="class_o_s_1_1pkg_1_1__yum_1_1___e_p_e_l.html#a596ad970403d6b45e6474ab7af9fab34" target="_top" xlink:title="OS.pkg._yum._EPEL.isInstalled">
<polygon fill="none" stroke="black" points="405,-294.5 405,-313.5 563,-313.5 563,-294.5 405,-294.5"/>
<text text-anchor="middle" x="484" y="-301.5" font-family="Helvetica,sans-Serif" font-size="10.00">OS.pkg._yum._EPEL.isInstalled</text>
</a>
</g>
</g>
<!-- Node8&#45;&gt;Node10 -->
<g id="edge11" class="edge"><title>Node8&#45;&gt;Node10</title>
<path fill="none" stroke="midnightblue" d="M290.704,-244.583C316.409,-255.191 359.7,-272.33 398,-284 407.571,-286.916 417.857,-289.658 427.853,-292.122"/>
<polygon fill="midnightblue" stroke="midnightblue" points="427.174,-295.558 437.714,-294.489 428.807,-288.752 427.174,-295.558"/>
</g>
<!-- Node11 -->
<g id="node11" class="node"><title>Node11</title>
<g id="a_node11"><a xlink:href="class_o_s_1_1pkg_1_1__yum_1_1___e_p_e_l.html#a508814bd34851b3b6f69ced225fb93b2" target="_top" xlink:title="OS.pkg._yum._EPEL.\l_findBestEPEL">
<polygon fill="none" stroke="black" points="427,-245 427,-275 541,-275 541,-245 427,-245"/>
<text text-anchor="start" x="435" y="-263" font-family="Helvetica,sans-Serif" font-size="10.00">OS.pkg._yum._EPEL.</text>
<text text-anchor="middle" x="484" y="-252" font-family="Helvetica,sans-Serif" font-size="10.00">_findBestEPEL</text>
</a>
</g>
</g>
<!-- Node8&#45;&gt;Node11 -->
<g id="edge12" class="edge"><title>Node8&#45;&gt;Node11</title>
<path fill="none" stroke="midnightblue" d="M336.618,-242.979C362.331,-245.969 391.473,-249.357 416.949,-252.32"/>
<polygon fill="midnightblue" stroke="midnightblue" points="416.546,-255.796 426.883,-253.475 417.354,-248.843 416.546,-255.796"/>
</g>
</g>
</svg>
