<?xml version="1.0" encoding="UTF-8" standalone="no"?>
<!DOCTYPE svg PUBLIC "-//W3C//DTD SVG 1.1//EN"
 "http://www.w3.org/Graphics/SVG/1.1/DTD/svg11.dtd">
<!-- Generated by graphviz version 2.28.0 (20121214.2254)
 -->
<!-- Title: OS.pkg.macports.MacPortInstaller.isInstalled Pages: 1 -->
<svg width="594pt" height="142pt"
 viewBox="0.00 0.00 594.00 142.00" xmlns="http://www.w3.org/2000/svg" xmlns:xlink="http://www.w3.org/1999/xlink">
<g id="graph1" class="graph" transform="scale(1 1) rotate(0) translate(4 138)">
<title>OS.pkg.macports.MacPortInstaller.isInstalled</title>
<!-- Node1 -->
<g id="node1" class="node"><title>Node1</title>
<polygon fill="#bfbfbf" stroke="black" points="0.5,-52 0.5,-82 169.5,-82 169.5,-52 0.5,-52"/>
<text text-anchor="start" x="8.5" y="-70" font-family="Helvetica,sans-Serif" font-size="10.00">OS.pkg.macports.MacPortInstaller.is</text>
<text text-anchor="middle" x="85" y="-59" font-family="Helvetica,sans-Serif" font-size="10.00">Installed</text>
</g>
<!-- Node2 -->
<g id="node3" class="node"><title>Node2</title>
<a xlink:href="class_o_s_1_1pkg_1_1macports_1_1_mac_port_installer.html#ab8dc3770a65c14410bec157771875884" target="_top" xlink:title="OS.pkg.macports.MacPortInstaller.install">
<polygon fill="none" stroke="black" points="210.5,-114.5 210.5,-133.5 395.5,-133.5 395.5,-114.5 210.5,-114.5"/>
<text text-anchor="middle" x="303" y="-121.5" font-family="Helvetica,sans-Serif" font-size="10.00">OS.pkg.macports.MacPortInstaller.install</text>
</a>
</g>
<!-- Node1&#45;&gt;Node2 -->
<g id="edge2" class="edge"><title>Node1&#45;&gt;Node2</title>
<path fill="none" stroke="midnightblue" d="M139.122,-85.2218C159.842,-91.96 183.889,-99.3297 206,-105 219.66,-108.503 234.553,-111.732 248.445,-114.496"/>
<polygon fill="midnightblue" stroke="midnightblue" points="140.141,-81.8728 129.548,-82.0772 137.957,-88.5232 140.141,-81.8728"/>
</g>
<!-- Node3 -->
<g id="node5" class="node"><title>Node3</title>
<a xlink:href="class_o_s_1_1pkg_1_1macports_1_1_mac_port_installer.html#a1b9a809fded608fc9669c1c8ce76e6c0" target="_top" xlink:title="OS.pkg.macports.MacPortInstaller.remove">
<polygon fill="none" stroke="black" points="206.5,-76.5 206.5,-95.5 399.5,-95.5 399.5,-76.5 206.5,-76.5"/>
<text text-anchor="middle" x="303" y="-83.5" font-family="Helvetica,sans-Serif" font-size="10.00">OS.pkg.macports.MacPortInstaller.remove</text>
</a>
</g>
<!-- Node1&#45;&gt;Node3 -->
<g id="edge4" class="edge"><title>Node1&#45;&gt;Node3</title>
<path fill="none" stroke="midnightblue" d="M179.528,-75.227C188.463,-76.0129 197.532,-76.8107 206.486,-77.5983"/>
<polygon fill="midnightblue" stroke="midnightblue" points="179.779,-71.7357 169.511,-74.3459 179.166,-78.7088 179.779,-71.7357"/>
</g>
<!-- Node4 -->
<g id="node7" class="node"><title>Node4</title>
<a xlink:href="class_o_s_1_1pkg_1_1yum_1_1_yum_installer.html#aa33eadba0696d51bd35e3591635b67cf" target="_top" xlink:title="OS.pkg.yum.YumInstaller.install">
<polygon fill="none" stroke="black" points="228.5,-38.5 228.5,-57.5 377.5,-57.5 377.5,-38.5 228.5,-38.5"/>
<text text-anchor="middle" x="303" y="-45.5" font-family="Helvetica,sans-Serif" font-size="10.00">OS.pkg.yum.YumInstaller.install</text>
</a>
</g>
<!-- Node1&#45;&gt;Node4 -->
<g id="edge6" class="edge"><title>Node1&#45;&gt;Node4</title>
<path fill="none" stroke="midnightblue" d="M179.573,-58.769C195.848,-57.3374 212.568,-55.8667 228.218,-54.49"/>
<polygon fill="midnightblue" stroke="midnightblue" points="179.166,-55.2912 169.511,-59.6541 179.779,-62.2643 179.166,-55.2912"/>
</g>
<!-- Node6 -->
<g id="node11" class="node"><title>Node6</title>
<a xlink:href="class_o_s_1_1pkg_1_1yum_1_1_yum_installer.html#ac39974d4ee37fbc195eda54f2fccc438" target="_top" xlink:title="OS.pkg.yum.YumInstaller.remove">
<polygon fill="none" stroke="black" points="225,-0.5 225,-19.5 381,-19.5 381,-0.5 225,-0.5"/>
<text text-anchor="middle" x="303" y="-7.5" font-family="Helvetica,sans-Serif" font-size="10.00">OS.pkg.yum.YumInstaller.remove</text>
</a>
</g>
<!-- Node1&#45;&gt;Node6 -->
<g id="edge10" class="edge"><title>Node1&#45;&gt;Node6</title>
<path fill="none" stroke="midnightblue" d="M139.122,-48.7782C159.842,-42.04 183.889,-34.6703 206,-29 219.66,-25.4971 234.553,-22.2683 248.445,-19.5042"/>
<polygon fill="midnightblue" stroke="midnightblue" points="137.957,-45.4768 129.548,-51.9228 140.141,-52.1272 137.957,-45.4768"/>
</g>
<!-- Node5 -->
<g id="node9" class="node"><title>Node5</title>
<a xlink:href="class_o_s_1_1pkg_1_1yum_1_1_yum_installer.html#aefad82c28852c4cec1fdb66892956dbd" target="_top" xlink:title="OS.pkg.yum.YumInstaller.install\lRepo_EPEL">
<polygon fill="none" stroke="black" points="436.5,-33 436.5,-63 585.5,-63 585.5,-33 436.5,-33"/>
<text text-anchor="start" x="444.5" y="-51" font-family="Helvetica,sans-Serif" font-size="10.00">OS.pkg.yum.YumInstaller.install</text>
<text text-anchor="middle" x="511" y="-40" font-family="Helvetica,sans-Serif" font-size="10.00">Repo_EPEL</text>
</a>
</g>
<!-- Node4&#45;&gt;Node5 -->
<g id="edge8" class="edge"><title>Node4&#45;&gt;Node5</title>
<path fill="none" stroke="midnightblue" d="M388.181,-48C404.159,-48 420.761,-48 436.38,-48"/>
<polygon fill="midnightblue" stroke="midnightblue" points="387.789,-44.5001 377.789,-48 387.789,-51.5001 387.789,-44.5001"/>
</g>
</g>
</svg>
