<?xml version="1.0" encoding="UTF-8" standalone="no"?>
<!DOCTYPE svg PUBLIC "-//W3C//DTD SVG 1.1//EN"
 "http://www.w3.org/Graphics/SVG/1.1/DTD/svg11.dtd">
<!-- Generated by graphviz version 2.28.0 (20121214.2254)
 -->
<!-- Title: OS.pkg.apt.AptInstaller.isInstalled Pages: 1 -->
<!--zoomable 218 -->
<svg id="main" version="1.1" xmlns="http://www.w3.org/2000/svg" xmlns:xlink="http://www.w3.org/1999/xlink" xml:space="preserve" onload="init(evt)">
        <defs>
                <circle id="rim" cx="0" cy="0" r="7"/>
                <circle id="rim2" cx="0" cy="0" r="3.5"/>
                <g id="zoomPlus">
                        <use xlink:href="#rim" fill="#404040">
                                <set attributeName="fill" to="#808080" begin="zoomplus.mouseover" end="zoomplus.mouseout"/>
                        </use>
                        <path d="M-4,0h8M0,-4v8" fill="none" stroke="white" stroke-width="1.5" pointer-events="none"/>
                </g>
                <g id="zoomMin">
                        <use xlink:href="#rim" fill="#404040">
                                <set attributeName="fill" to="#808080" begin="zoomminus.mouseover" end="zoomminus.mouseout"/>
                        </use>
                        <path d="M-4,0h8" fill="none" stroke="white" stroke-width="1.5" pointer-events="none"/>
                </g>
                <g id="dirArrow">
                        <path fill="none" stroke="white" stroke-width="1.5" d="M0,-3.0v7 M-2.5,-0.5L0,-3.0L2.5,-0.5"/>
                </g>
               <g id="resetDef">
                       <use xlink:href="#rim2" fill="#404040">
                               <set attributeName="fill" to="#808080" begin="reset.mouseover" end="reset.mouseout"/>
                       </use>
               </g>
        </defs>

<script type="text/javascript">
var viewWidth = 548;
var viewHeight = 218;
var sectionId = 'dynsection-4';
</script>
<script xlink:href="svgpan.js"/>
<svg id="graph" class="graph">
<g id="viewport">
<title>OS.pkg.apt.AptInstaller.isInstalled</title>
<!-- Node1 -->
<g id="node1" class="node"><title>Node1</title>
<polygon fill="#bfbfbf" stroke="black" points="0,-90 0,-120 124,-120 124,-90 0,-90"/>
<text text-anchor="start" x="8" y="-108" font-family="Helvetica,sans-Serif" font-size="10.00">OS.pkg.apt.AptInstaller.is</text>
<text text-anchor="middle" x="62" y="-97" font-family="Helvetica,sans-Serif" font-size="10.00">Installed</text>
</g>
<!-- Node2 -->
<g id="node3" class="node"><title>Node2</title>
<a xlink:href="class_o_s_1_1pkg_1_1apt_1_1_apt_installer.html#a1288a2bbb73a4afd5b342eda453787a0" target="_top" xlink:title="OS.pkg.apt.AptInstaller.install">
<polygon fill="none" stroke="black" points="187,-190.5 187,-209.5 327,-209.5 327,-190.5 187,-190.5"/>
<text text-anchor="middle" x="257" y="-197.5" font-family="Helvetica,sans-Serif" font-size="10.00">OS.pkg.apt.AptInstaller.install</text>
</a>
</g>
<!-- Node1&#45;&gt;Node2 -->
<g id="edge2" class="edge"><title>Node1&#45;&gt;Node2</title>
<path fill="none" stroke="midnightblue" d="M84.9052,-127.163C103.344,-144.501 131.244,-167.812 160,-181 168.494,-184.895 177.769,-187.994 187.098,-190.458"/>
<polygon fill="midnightblue" stroke="midnightblue" points="87.2414,-124.553 77.6075,-120.144 82.3892,-129.599 87.2414,-124.553"/>
</g>
<!-- Node4 -->
<g id="node7" class="node"><title>Node4</title>
<a xlink:href="class_o_s_1_1pkg_1_1apt_1_1_apt_installer.html#af1ebc2d3ced48ecc9020f78029735c2b" target="_top" xlink:title="Removes the specified package(s).">
<polygon fill="none" stroke="black" points="183,-152.5 183,-171.5 331,-171.5 331,-152.5 183,-152.5"/>
<text text-anchor="middle" x="257" y="-159.5" font-family="Helvetica,sans-Serif" font-size="10.00">OS.pkg.apt.AptInstaller.remove</text>
</a>
</g>
<!-- Node1&#45;&gt;Node4 -->
<g id="edge6" class="edge"><title>Node1&#45;&gt;Node4</title>
<path fill="none" stroke="midnightblue" d="M106.454,-123.93C122.991,-130.626 142.15,-137.782 160,-143 172.475,-146.647 186.067,-149.81 198.995,-152.454"/>
<polygon fill="midnightblue" stroke="midnightblue" points="107.63,-120.629 97.0502,-120.059 104.965,-127.102 107.63,-120.629"/>
</g>
<!-- Node5 -->
<g id="node9" class="node"><title>Node5</title>
<a xlink:href="class_o_s_1_1pkg_1_1macports_1_1_mac_port_installer.html#ab8dc3770a65c14410bec157771875884" target="_top" xlink:title="OS.pkg.macports.MacPortInstaller.install">
<polygon fill="none" stroke="black" points="164.5,-114.5 164.5,-133.5 349.5,-133.5 349.5,-114.5 164.5,-114.5"/>
<text text-anchor="middle" x="257" y="-121.5" font-family="Helvetica,sans-Serif" font-size="10.00">OS.pkg.macports.MacPortInstaller.install</text>
</a>
</g>
<!-- Node1&#45;&gt;Node5 -->
<g id="edge8" class="edge"><title>Node1&#45;&gt;Node5</title>
<path fill="none" stroke="midnightblue" d="M134.149,-112.004C143.973,-112.971 154.174,-113.976 164.304,-114.973"/>
<polygon fill="midnightblue" stroke="midnightblue" points="134.361,-108.508 124.066,-111.012 133.675,-115.475 134.361,-108.508"/>
</g>
<!-- Node6 -->
<g id="node11" class="node"><title>Node6</title>
<a xlink:href="class_o_s_1_1pkg_1_1macports_1_1_mac_port_installer.html#a1b9a809fded608fc9669c1c8ce76e6c0" target="_top" xlink:title="OS.pkg.macports.MacPortInstaller.remove">
<polygon fill="none" stroke="black" points="160.5,-76.5 160.5,-95.5 353.5,-95.5 353.5,-76.5 160.5,-76.5"/>
<text text-anchor="middle" x="257" y="-83.5" font-family="Helvetica,sans-Serif" font-size="10.00">OS.pkg.macports.MacPortInstaller.remove</text>
</a>
</g>
<!-- Node1&#45;&gt;Node6 -->
<g id="edge10" class="edge"><title>Node1&#45;&gt;Node6</title>
<path fill="none" stroke="midnightblue" d="M134.02,-98.0084C142.629,-97.1609 151.529,-96.2847 160.419,-95.4095"/>
<polygon fill="midnightblue" stroke="midnightblue" points="133.675,-94.5253 124.066,-98.9883 134.361,-101.492 133.675,-94.5253"/>
</g>
<!-- Node7 -->
<g id="node13" class="node"><title>Node7</title>
<a xlink:href="class_o_s_1_1pkg_1_1yum_1_1_yum_installer.html#aa33eadba0696d51bd35e3591635b67cf" target="_top" xlink:title="OS.pkg.yum.YumInstaller.install">
<polygon fill="none" stroke="black" points="182.5,-38.5 182.5,-57.5 331.5,-57.5 331.5,-38.5 182.5,-38.5"/>
<text text-anchor="middle" x="257" y="-45.5" font-family="Helvetica,sans-Serif" font-size="10.00">OS.pkg.yum.YumInstaller.install</text>
</a>
</g>
<!-- Node1&#45;&gt;Node7 -->
<g id="edge12" class="edge"><title>Node1&#45;&gt;Node7</title>
<path fill="none" stroke="midnightblue" d="M106.454,-86.0701C122.991,-79.3739 142.15,-72.2176 160,-67 172.475,-63.3534 186.067,-60.1895 198.995,-57.5455"/>
<polygon fill="midnightblue" stroke="midnightblue" points="104.965,-82.8981 97.0502,-89.9413 107.63,-89.3711 104.965,-82.8981"/>
</g>
<!-- Node9 -->
<g id="node17" class="node"><title>Node9</title>
<a xlink:href="class_o_s_1_1pkg_1_1yum_1_1_yum_installer.html#ac39974d4ee37fbc195eda54f2fccc438" target="_top" xlink:title="OS.pkg.yum.YumInstaller.remove">
<polygon fill="none" stroke="black" points="179,-0.5 179,-19.5 335,-19.5 335,-0.5 179,-0.5"/>
<text text-anchor="middle" x="257" y="-7.5" font-family="Helvetica,sans-Serif" font-size="10.00">OS.pkg.yum.YumInstaller.remove</text>
</a>
</g>
<!-- Node1&#45;&gt;Node9 -->
<g id="edge16" class="edge"><title>Node1&#45;&gt;Node9</title>
<path fill="none" stroke="midnightblue" d="M84.9052,-82.8373C103.344,-65.4987 131.244,-42.188 160,-29 168.494,-25.1046 177.769,-22.006 187.098,-19.5416"/>
<polygon fill="midnightblue" stroke="midnightblue" points="82.3892,-80.4011 77.6075,-89.8556 87.2414,-85.4466 82.3892,-80.4011"/>
</g>
<!-- Node3 -->
<g id="node5" class="node"><title>Node3</title>
<a xlink:href="class_o_s_1_1pkg_1_1apt_1_1_apt_installer.html#a36a36462b14ae62e73b5a412d878677e" target="_top" xlink:title="Updates/upgrades the specified list of packages, or all packages if packageNames == None...">
<polygon fill="none" stroke="black" points="391.5,-190.5 391.5,-209.5 538.5,-209.5 538.5,-190.5 391.5,-190.5"/>
<text text-anchor="middle" x="465" y="-197.5" font-family="Helvetica,sans-Serif" font-size="10.00">OS.pkg.apt.AptInstaller.update</text>
</a>
</g>
<!-- Node2&#45;&gt;Node3 -->
<g id="edge4" class="edge"><title>Node2&#45;&gt;Node3</title>
<path fill="none" stroke="midnightblue" d="M337.499,-200C355.268,-200 374.022,-200 391.491,-200"/>
<polygon fill="midnightblue" stroke="midnightblue" points="337.168,-196.5 327.168,-200 337.168,-203.5 337.168,-196.5"/>
</g>
<!-- Node8 -->
<g id="node15" class="node"><title>Node8</title>
<a xlink:href="class_o_s_1_1pkg_1_1yum_1_1_yum_installer.html#aefad82c28852c4cec1fdb66892956dbd" target="_top" xlink:title="OS.pkg.yum.YumInstaller.install\lRepo_EPEL">
<polygon fill="none" stroke="black" points="390.5,-33 390.5,-63 539.5,-63 539.5,-33 390.5,-33"/>
<text text-anchor="start" x="398.5" y="-51" font-family="Helvetica,sans-Serif" font-size="10.00">OS.pkg.yum.YumInstaller.install</text>
<text text-anchor="middle" x="465" y="-40" font-family="Helvetica,sans-Serif" font-size="10.00">Repo_EPEL</text>
</a>
</g>
<!-- Node7&#45;&gt;Node8 -->
<g id="edge14" class="edge"><title>Node7&#45;&gt;Node8</title>
<path fill="none" stroke="midnightblue" d="M342.181,-48C358.159,-48 374.761,-48 390.38,-48"/>
<polygon fill="midnightblue" stroke="midnightblue" points="341.789,-44.5001 331.789,-48 341.789,-51.5001 341.789,-44.5001"/>
</g>
</g>
</svg>
        <g id="navigator" transform="translate(0 0)" fill="#404254">
                <rect fill="#f2f5e9" fill-opacity="0.5" stroke="#606060" stroke-width=".5" x="0" y="0" width="60" height="60"/>
                <use id="zoomplus" xlink:href="#zoomPlus" x="17" y="9" onmousedown="handleZoom(evt,'in')"/>
                <use id="zoomminus" xlink:href="#zoomMin" x="42" y="9" onmousedown="handleZoom(evt,'out')"/>
                <use id="reset" xlink:href="#resetDef" x="30" y="36" onmousedown="handleReset()"/>
                <g id="arrowUp" xlink:href="#dirArrow" transform="translate(30 24)" onmousedown="handlePan(0,-1)">
                  <use xlink:href="#rim" fill="#404040">
                        <set attributeName="fill" to="#808080" begin="arrowUp.mouseover" end="arrowUp.mouseout"/>
                  </use>
                  <path fill="none" stroke="white" stroke-width="1.5" d="M0,-3.0v7 M-2.5,-0.5L0,-3.0L2.5,-0.5"/>
                </g>
                <g id="arrowRight" xlink:href="#dirArrow" transform="rotate(90) translate(36 -43)" onmousedown="handlePan(1,0)">
                  <use xlink:href="#rim" fill="#404040">
                        <set attributeName="fill" to="#808080" begin="arrowRight.mouseover" end="arrowRight.mouseout"/>
                  </use>
                  <path fill="none" stroke="white" stroke-width="1.5" d="M0,-3.0v7 M-2.5,-0.5L0,-3.0L2.5,-0.5"/>
                </g>
                <g id="arrowDown" xlink:href="#dirArrow" transform="rotate(180) translate(-30 -48)" onmousedown="handlePan(0,1)">
                  <use xlink:href="#rim" fill="#404040">
                        <set attributeName="fill" to="#808080" begin="arrowDown.mouseover" end="arrowDown.mouseout"/>
                  </use>
                  <path fill="none" stroke="white" stroke-width="1.5" d="M0,-3.0v7 M-2.5,-0.5L0,-3.0L2.5,-0.5"/>
                </g>
                <g id="arrowLeft" xlink:href="#dirArrow" transform="rotate(270) translate(-36 17)" onmousedown="handlePan(-1,0)">
                  <use xlink:href="#rim" fill="#404040">
                        <set attributeName="fill" to="#808080" begin="arrowLeft.mouseover" end="arrowLeft.mouseout"/>
                  </use>
                  <path fill="none" stroke="white" stroke-width="1.5" d="M0,-3.0v7 M-2.5,-0.5L0,-3.0L2.5,-0.5"/>
                </g>
        </g>
        <svg viewBox="0 0 15 15" width="100%" height="30px" preserveAspectRatio="xMaxYMin meet">
         <g id="arrow_out" transform="scale(0.3 0.3)">
          <a xlink:href="class_o_s_1_1pkg_1_1apt_1_1_apt_installer_a9805006eff347a5957a9b4310b97df5c_icgraph_org.svg" target="_base">
           <rect id="button" ry="5" rx="5" y="6" x="6" height="38" width="38"
                fill="#f2f5e9" fill-opacity="0.5" stroke="#606060" stroke-width="1.0"/>
           <path id="arrow"
             d="M 11.500037,31.436501 C 11.940474,20.09759 22.043105,11.32322 32.158766,21.979434 L 37.068811,17.246167 C 37.068811,17.246167 37.088388,32 37.088388,32 L 22.160133,31.978069 C 22.160133,31.978069 26.997745,27.140456 26.997745,27.140456 C 18.528582,18.264221 13.291696,25.230495 11.500037,31.436501 z"
             style="fill:#404040;"/>
          </a>
         </g>
        </svg>
</svg>
