<?xml version="1.0" encoding="UTF-8" standalone="no"?>
<!DOCTYPE svg PUBLIC "-//W3C//DTD SVG 1.1//EN"
 "http://www.w3.org/Graphics/SVG/1.1/DTD/svg11.dtd">
<!-- Generated by graphviz version 2.30.1 (20130219.2202)
 -->
<!-- Title: OS.pkg._apt.AptInstaller.isAvailable Pages: 1 -->
<svg width="564pt" height="87pt"
 viewBox="0.00 0.00 564.00 87.00" xmlns="http://www.w3.org/2000/svg" xmlns:xlink="http://www.w3.org/1999/xlink">
<g id="graph0" class="graph" transform="scale(1 1) rotate(0) translate(4 83)">
<title>OS.pkg._apt.AptInstaller.isAvailable</title>
<!-- Node1 -->
<g id="node1" class="node"><title>Node1</title>
<polygon fill="#bfbfbf" stroke="black" points="0.5,-24 0.5,-54 129.5,-54 129.5,-24 0.5,-24"/>
<text text-anchor="start" x="8.5" y="-42" font-family="Helvetica,sans-Serif" font-size="10.00">OS.pkg._apt.AptInstaller.is</text>
<text text-anchor="middle" x="65" y="-31" font-family="Helvetica,sans-Serif" font-size="10.00">Available</text>
</g>
<!-- Node2 -->
<g id="node2" class="node"><title>Node2</title>
<g id="a_node2"><a xlink:href="class_o_s_1_1pkg_1_1__base_1_1_package_manager.html#add22a65cf270c6c0f285e124ac430f60" target="_top" xlink:title="Updates the package manager&#39;s package index using the network.">
<polygon fill="none" stroke="black" points="166.5,-24 166.5,-54 357.5,-54 357.5,-24 166.5,-24"/>
<text text-anchor="start" x="174.5" y="-42" font-family="Helvetica,sans-Serif" font-size="10.00">OS.pkg._base.PackageManager.update</text>
<text text-anchor="middle" x="262" y="-31" font-family="Helvetica,sans-Serif" font-size="10.00">PackageIndex</text>
</a>
</g>
</g>
<!-- Node1&#45;&gt;Node2 -->
<g id="edge1" class="edge"><title>Node1&#45;&gt;Node2</title>
<path fill="none" stroke="midnightblue" d="M129.58,-39C138.14,-39 147.098,-39 156.141,-39"/>
<polygon fill="midnightblue" stroke="midnightblue" points="156.371,-42.5001 166.371,-39 156.371,-35.5001 156.371,-42.5001"/>
</g>
<!-- Node3 -->
<g id="node3" class="node"><title>Node3</title>
<g id="a_node3"><a xlink:href="class_o_s_1_1pkg_1_1__apt_1_1_apt_installer.html#ad2fa22e454c7a7eccf266a57f982cb4e" target="_top" xlink:title="OS.pkg._apt.AptInstaller.\l_updatePackageIndex">
<polygon fill="none" stroke="black" points="414,-49 414,-79 536,-79 536,-49 414,-49"/>
<text text-anchor="start" x="422" y="-67" font-family="Helvetica,sans-Serif" font-size="10.00">OS.pkg._apt.AptInstaller.</text>
<text text-anchor="middle" x="475" y="-56" font-family="Helvetica,sans-Serif" font-size="10.00">_updatePackageIndex</text>
</a>
</g>
</g>
<!-- Node2&#45;&gt;Node3 -->
<g id="edge2" class="edge"><title>Node2&#45;&gt;Node3</title>
<path fill="none" stroke="midnightblue" d="M357.699,-50.2203C373.187,-52.0554 388.99,-53.9277 403.752,-55.6767"/>
<polygon fill="midnightblue" stroke="midnightblue" points="403.446,-59.1649 413.788,-56.8659 404.27,-52.2136 403.446,-59.1649"/>
</g>
<!-- Node4 -->
<g id="node4" class="node"><title>Node4</title>
<g id="a_node4"><a xlink:href="class_o_s_1_1pkg_1_1__base_1_1_package_manager.html#a039eb503da3849c3c87b6395a5216ea6" target="_top" xlink:title="OS.pkg._base.PackageManager.\l_updatePackageIndex">
<polygon fill="none" stroke="black" points="394.5,-0 394.5,-30 555.5,-30 555.5,-0 394.5,-0"/>
<text text-anchor="start" x="402.5" y="-18" font-family="Helvetica,sans-Serif" font-size="10.00">OS.pkg._base.PackageManager.</text>
<text text-anchor="middle" x="475" y="-7" font-family="Helvetica,sans-Serif" font-size="10.00">_updatePackageIndex</text>
</a>
</g>
</g>
<!-- Node2&#45;&gt;Node4 -->
<g id="edge3" class="edge"><title>Node2&#45;&gt;Node4</title>
<path fill="none" stroke="midnightblue" d="M357.699,-28.2286C366.518,-27.2254 375.439,-26.2107 384.212,-25.2129"/>
<polygon fill="midnightblue" stroke="midnightblue" points="384.887,-28.6587 394.427,-24.0509 384.096,-21.7036 384.887,-28.6587"/>
</g>
</g>
</svg>
