<?xml version="1.0" encoding="UTF-8" standalone="no"?>
<!DOCTYPE svg PUBLIC "-//W3C//DTD SVG 1.1//EN"
 "http://www.w3.org/Graphics/SVG/1.1/DTD/svg11.dtd">
<!-- Generated by graphviz version 2.28.0 (20121214.2254)
 -->
<!-- Title: OS.pkg.apt.AptInstaller.isInstalled Pages: 1 -->
<svg width="548pt" height="218pt"
 viewBox="0.00 0.00 548.00 218.00" xmlns="http://www.w3.org/2000/svg" xmlns:xlink="http://www.w3.org/1999/xlink">
<g id="graph1" class="graph" transform="scale(1 1) rotate(0) translate(4 214)">
<title>OS.pkg.apt.AptInstaller.isInstalled</title>
<!-- Node1 -->
<g id="node1" class="node"><title>Node1</title>
<polygon fill="#bfbfbf" stroke="black" points="0,-90 0,-120 124,-120 124,-90 0,-90"/>
<text text-anchor="start" x="8" y="-108" font-family="Helvetica,sans-Serif" font-size="10.00">OS.pkg.apt.AptInstaller.is</text>
<text text-anchor="middle" x="62" y="-97" font-family="Helvetica,sans-Serif" font-size="10.00">Installed</text>
</g>
<!-- Node2 -->
<g id="node3" class="node"><title>Node2</title>
<a xlink:href="class_o_s_1_1pkg_1_1apt_1_1_apt_installer.html#a1288a2bbb73a4afd5b342eda453787a0" target="_top" xlink:title="OS.pkg.apt.AptInstaller.install">
<polygon fill="none" stroke="black" points="187,-190.5 187,-209.5 327,-209.5 327,-190.5 187,-190.5"/>
<text text-anchor="middle" x="257" y="-197.5" font-family="Helvetica,sans-Serif" font-size="10.00">OS.pkg.apt.AptInstaller.install</text>
</a>
</g>
<!-- Node1&#45;&gt;Node2 -->
<g id="edge2" class="edge"><title>Node1&#45;&gt;Node2</title>
<path fill="none" stroke="midnightblue" d="M84.9052,-127.163C103.344,-144.501 131.244,-167.812 160,-181 168.494,-184.895 177.769,-187.994 187.098,-190.458"/>
<polygon fill="midnightblue" stroke="midnightblue" points="87.2414,-124.553 77.6075,-120.144 82.3892,-129.599 87.2414,-124.553"/>
</g>
<!-- Node4 -->
<g id="node7" class="node"><title>Node4</title>
<a xlink:href="class_o_s_1_1pkg_1_1apt_1_1_apt_installer.html#af1ebc2d3ced48ecc9020f78029735c2b" target="_top" xlink:title="Removes the specified package(s).">
<polygon fill="none" stroke="black" points="183,-152.5 183,-171.5 331,-171.5 331,-152.5 183,-152.5"/>
<text text-anchor="middle" x="257" y="-159.5" font-family="Helvetica,sans-Serif" font-size="10.00">OS.pkg.apt.AptInstaller.remove</text>
</a>
</g>
<!-- Node1&#45;&gt;Node4 -->
<g id="edge6" class="edge"><title>Node1&#45;&gt;Node4</title>
<path fill="none" stroke="midnightblue" d="M106.454,-123.93C122.991,-130.626 142.15,-137.782 160,-143 172.475,-146.647 186.067,-149.81 198.995,-152.454"/>
<polygon fill="midnightblue" stroke="midnightblue" points="107.63,-120.629 97.0502,-120.059 104.965,-127.102 107.63,-120.629"/>
</g>
<!-- Node5 -->
<g id="node9" class="node"><title>Node5</title>
<a xlink:href="class_o_s_1_1pkg_1_1macports_1_1_mac_port_installer.html#ab8dc3770a65c14410bec157771875884" target="_top" xlink:title="OS.pkg.macports.MacPortInstaller.install">
<polygon fill="none" stroke="black" points="164.5,-114.5 164.5,-133.5 349.5,-133.5 349.5,-114.5 164.5,-114.5"/>
<text text-anchor="middle" x="257" y="-121.5" font-family="Helvetica,sans-Serif" font-size="10.00">OS.pkg.macports.MacPortInstaller.install</text>
</a>
</g>
<!-- Node1&#45;&gt;Node5 -->
<g id="edge8" class="edge"><title>Node1&#45;&gt;Node5</title>
<path fill="none" stroke="midnightblue" d="M134.149,-112.004C143.973,-112.971 154.174,-113.976 164.304,-114.973"/>
<polygon fill="midnightblue" stroke="midnightblue" points="134.361,-108.508 124.066,-111.012 133.675,-115.475 134.361,-108.508"/>
</g>
<!-- Node6 -->
<g id="node11" class="node"><title>Node6</title>
<a xlink:href="class_o_s_1_1pkg_1_1macports_1_1_mac_port_installer.html#a1b9a809fded608fc9669c1c8ce76e6c0" target="_top" xlink:title="OS.pkg.macports.MacPortInstaller.remove">
<polygon fill="none" stroke="black" points="160.5,-76.5 160.5,-95.5 353.5,-95.5 353.5,-76.5 160.5,-76.5"/>
<text text-anchor="middle" x="257" y="-83.5" font-family="Helvetica,sans-Serif" font-size="10.00">OS.pkg.macports.MacPortInstaller.remove</text>
</a>
</g>
<!-- Node1&#45;&gt;Node6 -->
<g id="edge10" class="edge"><title>Node1&#45;&gt;Node6</title>
<path fill="none" stroke="midnightblue" d="M134.02,-98.0084C142.629,-97.1609 151.529,-96.2847 160.419,-95.4095"/>
<polygon fill="midnightblue" stroke="midnightblue" points="133.675,-94.5253 124.066,-98.9883 134.361,-101.492 133.675,-94.5253"/>
</g>
<!-- Node7 -->
<g id="node13" class="node"><title>Node7</title>
<a xlink:href="class_o_s_1_1pkg_1_1yum_1_1_yum_installer.html#aa33eadba0696d51bd35e3591635b67cf" target="_top" xlink:title="OS.pkg.yum.YumInstaller.install">
<polygon fill="none" stroke="black" points="182.5,-38.5 182.5,-57.5 331.5,-57.5 331.5,-38.5 182.5,-38.5"/>
<text text-anchor="middle" x="257" y="-45.5" font-family="Helvetica,sans-Serif" font-size="10.00">OS.pkg.yum.YumInstaller.install</text>
</a>
</g>
<!-- Node1&#45;&gt;Node7 -->
<g id="edge12" class="edge"><title>Node1&#45;&gt;Node7</title>
<path fill="none" stroke="midnightblue" d="M106.454,-86.0701C122.991,-79.3739 142.15,-72.2176 160,-67 172.475,-63.3534 186.067,-60.1895 198.995,-57.5455"/>
<polygon fill="midnightblue" stroke="midnightblue" points="104.965,-82.8981 97.0502,-89.9413 107.63,-89.3711 104.965,-82.8981"/>
</g>
<!-- Node9 -->
<g id="node17" class="node"><title>Node9</title>
<a xlink:href="class_o_s_1_1pkg_1_1yum_1_1_yum_installer.html#ac39974d4ee37fbc195eda54f2fccc438" target="_top" xlink:title="OS.pkg.yum.YumInstaller.remove">
<polygon fill="none" stroke="black" points="179,-0.5 179,-19.5 335,-19.5 335,-0.5 179,-0.5"/>
<text text-anchor="middle" x="257" y="-7.5" font-family="Helvetica,sans-Serif" font-size="10.00">OS.pkg.yum.YumInstaller.remove</text>
</a>
</g>
<!-- Node1&#45;&gt;Node9 -->
<g id="edge16" class="edge"><title>Node1&#45;&gt;Node9</title>
<path fill="none" stroke="midnightblue" d="M84.9052,-82.8373C103.344,-65.4987 131.244,-42.188 160,-29 168.494,-25.1046 177.769,-22.006 187.098,-19.5416"/>
<polygon fill="midnightblue" stroke="midnightblue" points="82.3892,-80.4011 77.6075,-89.8556 87.2414,-85.4466 82.3892,-80.4011"/>
</g>
<!-- Node3 -->
<g id="node5" class="node"><title>Node3</title>
<a xlink:href="class_o_s_1_1pkg_1_1apt_1_1_apt_installer.html#a36a36462b14ae62e73b5a412d878677e" target="_top" xlink:title="Updates/upgrades the specified list of packages, or all packages if packageNames == None...">
<polygon fill="none" stroke="black" points="391.5,-190.5 391.5,-209.5 538.5,-209.5 538.5,-190.5 391.5,-190.5"/>
<text text-anchor="middle" x="465" y="-197.5" font-family="Helvetica,sans-Serif" font-size="10.00">OS.pkg.apt.AptInstaller.update</text>
</a>
</g>
<!-- Node2&#45;&gt;Node3 -->
<g id="edge4" class="edge"><title>Node2&#45;&gt;Node3</title>
<path fill="none" stroke="midnightblue" d="M337.499,-200C355.268,-200 374.022,-200 391.491,-200"/>
<polygon fill="midnightblue" stroke="midnightblue" points="337.168,-196.5 327.168,-200 337.168,-203.5 337.168,-196.5"/>
</g>
<!-- Node8 -->
<g id="node15" class="node"><title>Node8</title>
<a xlink:href="class_o_s_1_1pkg_1_1yum_1_1_yum_installer.html#aefad82c28852c4cec1fdb66892956dbd" target="_top" xlink:title="OS.pkg.yum.YumInstaller.install\lRepo_EPEL">
<polygon fill="none" stroke="black" points="390.5,-33 390.5,-63 539.5,-63 539.5,-33 390.5,-33"/>
<text text-anchor="start" x="398.5" y="-51" font-family="Helvetica,sans-Serif" font-size="10.00">OS.pkg.yum.YumInstaller.install</text>
<text text-anchor="middle" x="465" y="-40" font-family="Helvetica,sans-Serif" font-size="10.00">Repo_EPEL</text>
</a>
</g>
<!-- Node7&#45;&gt;Node8 -->
<g id="edge14" class="edge"><title>Node7&#45;&gt;Node8</title>
<path fill="none" stroke="midnightblue" d="M342.181,-48C358.159,-48 374.761,-48 390.38,-48"/>
<polygon fill="midnightblue" stroke="midnightblue" points="341.789,-44.5001 331.789,-48 341.789,-51.5001 341.789,-44.5001"/>
</g>
</g>
</svg>
