<?xml version="1.0" encoding="UTF-8" standalone="no"?>
<!DOCTYPE svg PUBLIC "-//W3C//DTD SVG 1.1//EN"
 "http://www.w3.org/Graphics/SVG/1.1/DTD/svg11.dtd">
<!-- Generated by graphviz version 2.30.1 (20130221.2233)
 -->
<!-- Title: OS.pkg._apt.AptInstaller.updateKernel Pages: 1 -->
<svg width="386pt" height="87pt"
 viewBox="0.00 0.00 386.00 87.00" xmlns="http://www.w3.org/2000/svg" xmlns:xlink="http://www.w3.org/1999/xlink">
<g id="graph0" class="graph" transform="scale(1 1) rotate(0) translate(4 83)">
<title>OS.pkg._apt.AptInstaller.updateKernel</title>
<!-- Node1 -->
<g id="node1" class="node"><title>Node1</title>
<polygon fill="#bfbfbf" stroke="black" points="0,-24 0,-54 158,-54 158,-24 0,-24"/>
<text text-anchor="start" x="8" y="-42" font-family="Helvetica,sans-Serif" font-size="10.00">OS.pkg._apt.AptInstaller.update</text>
<text text-anchor="middle" x="79" y="-31" font-family="Helvetica,sans-Serif" font-size="10.00">Kernel</text>
</g>
<!-- Node2 -->
<g id="node2" class="node"><title>Node2</title>
<g id="a_node2"><a xlink:href="class_o_s_1_1pkg_1_1__base_1_1_package_manager.html#a24dc28b910768a2560b8797193426d45" target="_top" xlink:title="OS.pkg._base.PackageManager.\l_execAsRoot_pkgManagerCommand">
<polygon fill="none" stroke="black" points="194.5,-49 194.5,-79 377.5,-79 377.5,-49 194.5,-49"/>
<text text-anchor="start" x="202.5" y="-67" font-family="Helvetica,sans-Serif" font-size="10.00">OS.pkg._base.PackageManager.</text>
<text text-anchor="middle" x="286" y="-56" font-family="Helvetica,sans-Serif" font-size="10.00">_execAsRoot_pkgManagerCommand</text>
</a>
</g>
</g>
<!-- Node1&#45;&gt;Node2 -->
<g id="edge1" class="edge"><title>Node1&#45;&gt;Node2</title>
<path fill="none" stroke="midnightblue" d="M158.087,-48.5227C166.719,-49.5754 175.596,-50.6581 184.454,-51.7383"/>
<polygon fill="midnightblue" stroke="midnightblue" points="184.082,-55.2188 194.432,-52.9552 184.93,-48.2703 184.082,-55.2188"/>
</g>
<!-- Node3 -->
<g id="node3" class="node"><title>Node3</title>
<g id="a_node3"><a xlink:href="class_o_s_1_1pkg_1_1__apt_1_1_apt_installer.html#ab1fd18f6db1d9063c114c0b21f96ce0b" target="_top" xlink:title="OS.pkg._apt.AptInstaller.\l_updateKernel">
<polygon fill="none" stroke="black" points="222,-0 222,-30 350,-30 350,-0 222,-0"/>
<text text-anchor="start" x="230" y="-18" font-family="Helvetica,sans-Serif" font-size="10.00">OS.pkg._apt.AptInstaller.</text>
<text text-anchor="middle" x="286" y="-7" font-family="Helvetica,sans-Serif" font-size="10.00">_updateKernel</text>
</a>
</g>
</g>
<!-- Node1&#45;&gt;Node3 -->
<g id="edge2" class="edge"><title>Node1&#45;&gt;Node3</title>
<path fill="none" stroke="midnightblue" d="M158.087,-29.8582C175.68,-27.7985 194.292,-25.6195 211.681,-23.5837"/>
<polygon fill="midnightblue" stroke="midnightblue" points="212.236,-27.0427 221.761,-22.4035 211.422,-20.0902 212.236,-27.0427"/>
</g>
</g>
</svg>
