<?xml version="1.0" encoding="UTF-8" standalone="no"?>
<!DOCTYPE svg PUBLIC "-//W3C//DTD SVG 1.1//EN"
 "http://www.w3.org/Graphics/SVG/1.1/DTD/svg11.dtd">
<!-- Generated by graphviz version 2.28.0 (20121214.2254)
 -->
<!-- Title: OS.pkg.yum.YumInstaller.installRepo_RPM Pages: 1 -->
<svg width="336pt" height="66pt"
 viewBox="0.00 0.00 336.00 66.00" xmlns="http://www.w3.org/2000/svg" xmlns:xlink="http://www.w3.org/1999/xlink">
<g id="graph1" class="graph" transform="scale(1 1) rotate(0) translate(4 62)">
<title>OS.pkg.yum.YumInstaller.installRepo_RPM</title>
<!-- Node1 -->
<g id="node1" class="node"><title>Node1</title>
<polygon fill="#bfbfbf" stroke="black" points="0.5,-14 0.5,-44 149.5,-44 149.5,-14 0.5,-14"/>
<text text-anchor="start" x="8.5" y="-32" font-family="Helvetica,sans-Serif" font-size="10.00">OS.pkg.yum.YumInstaller.install</text>
<text text-anchor="middle" x="75" y="-21" font-family="Helvetica,sans-Serif" font-size="10.00">Repo_RPM</text>
</g>
<!-- Node2 -->
<g id="node3" class="node"><title>Node2</title>
<a xlink:href="class_o_s_1_1pkg_1_1apt_1_1_apt_installer.html#a711968066085d3f34bb90a1441a3a5bc" target="_top" xlink:title="OS.pkg.apt.AptInstaller._init">
<polygon fill="none" stroke="black" points="190.5,-38.5 190.5,-57.5 323.5,-57.5 323.5,-38.5 190.5,-38.5"/>
<text text-anchor="middle" x="257" y="-45.5" font-family="Helvetica,sans-Serif" font-size="10.00">OS.pkg.apt.AptInstaller._init</text>
</a>
</g>
<!-- Node1&#45;&gt;Node2 -->
<g id="edge2" class="edge"><title>Node1&#45;&gt;Node2</title>
<path fill="none" stroke="midnightblue" d="M149.732,-36.7828C159.854,-37.8512 170.259,-38.9496 180.413,-40.0214"/>
<polygon fill="midnightblue" stroke="midnightblue" points="180.152,-43.5131 190.464,-41.0823 180.887,-36.5518 180.152,-43.5131"/>
</g>
<!-- Node3 -->
<g id="node5" class="node"><title>Node3</title>
<a xlink:href="class_o_s_1_1pkg_1_1yum_1_1_yum_installer.html#a81433bbda41cc8644f3f2dfd153ddcfb" target="_top" xlink:title="OS.pkg.yum.YumInstaller._init">
<polygon fill="none" stroke="black" points="186.5,-0.5 186.5,-19.5 327.5,-19.5 327.5,-0.5 186.5,-0.5"/>
<text text-anchor="middle" x="257" y="-7.5" font-family="Helvetica,sans-Serif" font-size="10.00">OS.pkg.yum.YumInstaller._init</text>
</a>
</g>
<!-- Node1&#45;&gt;Node3 -->
<g id="edge4" class="edge"><title>Node1&#45;&gt;Node3</title>
<path fill="none" stroke="midnightblue" d="M149.732,-21.2172C158.55,-20.2864 167.583,-19.3329 176.478,-18.394"/>
<polygon fill="midnightblue" stroke="midnightblue" points="176.865,-21.8727 186.443,-17.3422 176.13,-14.9113 176.865,-21.8727"/>
</g>
</g>
</svg>
