<?xml version="1.0" encoding="UTF-8" standalone="no"?>
<!DOCTYPE svg PUBLIC "-//W3C//DTD SVG 1.1//EN"
 "http://www.w3.org/Graphics/SVG/1.1/DTD/svg11.dtd">
<!-- Generated by graphviz version 2.30.1 (20130221.2233)
 -->
<!-- Title: OS.pkg._base.PackageManager.update Pages: 1 -->
<svg width="422pt" height="185pt"
 viewBox="0.00 0.00 422.00 185.00" xmlns="http://www.w3.org/2000/svg" xmlns:xlink="http://www.w3.org/1999/xlink">
<g id="graph0" class="graph" transform="scale(1 1) rotate(0) translate(4 181)">
<title>OS.pkg._base.PackageManager.update</title>
<!-- Node1 -->
<g id="node1" class="node"><title>Node1</title>
<polygon fill="#bfbfbf" stroke="black" points="0,-78.5 0,-97.5 194,-97.5 194,-78.5 0,-78.5"/>
<text text-anchor="middle" x="97" y="-85.5" font-family="Helvetica,sans-Serif" font-size="10.00">OS.pkg._base.PackageManager.update</text>
</g>
<!-- Node2 -->
<g id="node2" class="node"><title>Node2</title>
<g id="a_node2"><a xlink:href="class_o_s_1_1pkg_1_1__base_1_1_package_manager.html#a24dc28b910768a2560b8797193426d45" target="_top" xlink:title="OS.pkg._base.PackageManager.\l_execAsRoot_pkgManagerCommand">
<polygon fill="none" stroke="black" points="230.5,-147 230.5,-177 413.5,-177 413.5,-147 230.5,-147"/>
<text text-anchor="start" x="238.5" y="-165" font-family="Helvetica,sans-Serif" font-size="10.00">OS.pkg._base.PackageManager.</text>
<text text-anchor="middle" x="322" y="-154" font-family="Helvetica,sans-Serif" font-size="10.00">_execAsRoot_pkgManagerCommand</text>
</a>
</g>
</g>
<!-- Node1&#45;&gt;Node2 -->
<g id="edge1" class="edge"><title>Node1&#45;&gt;Node2</title>
<path fill="none" stroke="midnightblue" d="M122.107,-97.6719C148.402,-108.052 191.843,-124.703 230,-137 237.539,-139.43 245.475,-141.833 253.391,-144.134"/>
<polygon fill="midnightblue" stroke="midnightblue" points="252.43,-147.499 263.007,-146.884 254.355,-140.769 252.43,-147.499"/>
</g>
<!-- Node3 -->
<g id="node3" class="node"><title>Node3</title>
<g id="a_node3"><a xlink:href="class_o_s_1_1pkg_1_1__apt_1_1_apt_installer.html#a25545fba18d17abee9fe2be65dc5b0a3" target="_top" xlink:title="OS.pkg._apt.AptInstaller.\l_update">
<polygon fill="none" stroke="black" points="258,-98 258,-128 386,-128 386,-98 258,-98"/>
<text text-anchor="start" x="266" y="-116" font-family="Helvetica,sans-Serif" font-size="10.00">OS.pkg._apt.AptInstaller.</text>
<text text-anchor="middle" x="322" y="-105" font-family="Helvetica,sans-Serif" font-size="10.00">_update</text>
</a>
</g>
</g>
<!-- Node1&#45;&gt;Node3 -->
<g id="edge2" class="edge"><title>Node1&#45;&gt;Node3</title>
<path fill="none" stroke="midnightblue" d="M182.943,-97.5227C204.31,-99.9181 227.058,-102.468 247.795,-104.793"/>
<polygon fill="midnightblue" stroke="midnightblue" points="247.471,-108.279 257.798,-105.915 248.251,-101.322 247.471,-108.279"/>
</g>
<!-- Node4 -->
<g id="node4" class="node"><title>Node4</title>
<g id="a_node4"><a xlink:href="class_o_s_1_1pkg_1_1__base_1_1_package_manager.html#a86dd2e22dbc4e0873e955137ab7aa3f4" target="_top" xlink:title="OS.pkg._base.PackageManager.\l_update">
<polygon fill="none" stroke="black" points="240,-49 240,-79 404,-79 404,-49 240,-49"/>
<text text-anchor="start" x="248" y="-67" font-family="Helvetica,sans-Serif" font-size="10.00">OS.pkg._base.PackageManager.</text>
<text text-anchor="middle" x="322" y="-56" font-family="Helvetica,sans-Serif" font-size="10.00">_update</text>
</a>
</g>
</g>
<!-- Node1&#45;&gt;Node4 -->
<g id="edge3" class="edge"><title>Node1&#45;&gt;Node4</title>
<path fill="none" stroke="midnightblue" d="M186.456,-78.4801C200.644,-76.9531 215.353,-75.37 229.609,-73.8358"/>
<polygon fill="midnightblue" stroke="midnightblue" points="230.327,-77.2788 239.895,-72.7288 229.578,-70.319 230.327,-77.2788"/>
</g>
<!-- Node5 -->
<g id="node5" class="node"><title>Node5</title>
<g id="a_node5"><a xlink:href="class_o_s_1_1pkg_1_1__base_1_1_package_manager.html#a96d015bb45e8fae7278a77e4e0c251df" target="_top" xlink:title="OS.pkg._base.PackageManager.\l_execAsRoot_withPkgs">
<polygon fill="none" stroke="black" points="240,-0 240,-30 404,-30 404,-0 240,-0"/>
<text text-anchor="start" x="248" y="-18" font-family="Helvetica,sans-Serif" font-size="10.00">OS.pkg._base.PackageManager.</text>
<text text-anchor="middle" x="322" y="-7" font-family="Helvetica,sans-Serif" font-size="10.00">_execAsRoot_withPkgs</text>
</a>
</g>
</g>
<!-- Node1&#45;&gt;Node5 -->
<g id="edge4" class="edge"><title>Node1&#45;&gt;Node5</title>
<path fill="none" stroke="midnightblue" d="M122.61,-78.3757C148.97,-68.2266 192.129,-52.0662 230,-40 237.658,-37.5601 245.722,-35.1374 253.756,-32.8148"/>
<polygon fill="midnightblue" stroke="midnightblue" points="254.852,-36.1419 263.511,-30.0369 252.935,-29.4095 254.852,-36.1419"/>
</g>
</g>
</svg>
