<?xml version="1.0" encoding="UTF-8" standalone="no"?>
<!DOCTYPE svg PUBLIC "-//W3C//DTD SVG 1.1//EN"
 "http://www.w3.org/Graphics/SVG/1.1/DTD/svg11.dtd">
<!-- Generated by graphviz version 2.30.1 (20130221.2233)
 -->
<!-- Title: Graphical Class Hierarchy Pages: 1 -->
<svg width="500pt" height="256pt"
 viewBox="0.00 0.00 500.00 256.00" xmlns="http://www.w3.org/2000/svg" xmlns:xlink="http://www.w3.org/1999/xlink">
<g id="graph0" class="graph" transform="scale(1 1) rotate(0) translate(4 252)">
<title>Graphical Class Hierarchy</title>
<!-- Node1 -->
<g id="node1" class="node"><title>Node1</title>
<g id="a_node1"><a xlink:href="class_exception.html" target="_top" xlink:title="Exception">
<polygon fill="none" stroke="black" points="0,-190.5 0,-209.5 60,-209.5 60,-190.5 0,-190.5"/>
<text text-anchor="middle" x="30" y="-197.5" font-family="Helvetica,sans-Serif" font-size="10.00">Exception</text>
</a>
</g>
</g>
<!-- Node2 -->
<g id="node2" class="node"><title>Node2</title>
<g id="a_node2"><a xlink:href="classconfig__parser__m2_1_1_parse_exception.html" target="_top" xlink:title="config_parser_m2.ParseException">
<polygon fill="none" stroke="black" points="101.5,-228.5 101.5,-247.5 270.5,-247.5 270.5,-228.5 101.5,-228.5"/>
<text text-anchor="middle" x="186" y="-235.5" font-family="Helvetica,sans-Serif" font-size="10.00">config_parser_m2.ParseException</text>
</a>
</g>
</g>
<!-- Node1&#45;&gt;Node2 -->
<g id="edge1" class="edge"><title>Node1&#45;&gt;Node2</title>
<path fill="none" stroke="midnightblue" d="M70.045,-211.922C78.5672,-214.382 87.5611,-216.869 96,-219 109.327,-222.365 123.875,-225.638 137.275,-228.492"/>
<polygon fill="midnightblue" stroke="midnightblue" points="70.8997,-208.525 60.3189,-209.071 68.9304,-215.243 70.8997,-208.525"/>
</g>
<!-- Node3 -->
<g id="node3" class="node"><title>Node3</title>
<g id="a_node3"><a xlink:href="class_o_s_1_1___o_s_1_1_c_m_d___proc_exception.html" target="_top" xlink:title="OS._OS.CMD_ProcException">
<polygon fill="none" stroke="black" points="111.5,-152.5 111.5,-171.5 260.5,-171.5 260.5,-152.5 111.5,-152.5"/>
<text text-anchor="middle" x="186" y="-159.5" font-family="Helvetica,sans-Serif" font-size="10.00">OS._OS.CMD_ProcException</text>
</a>
</g>
</g>
<!-- Node1&#45;&gt;Node3 -->
<g id="edge2" class="edge"><title>Node1&#45;&gt;Node3</title>
<path fill="none" stroke="midnightblue" d="M70.045,-188.078C78.5672,-185.618 87.5611,-183.131 96,-181 109.327,-177.635 123.875,-174.362 137.275,-171.508"/>
<polygon fill="midnightblue" stroke="midnightblue" points="68.9304,-184.757 60.3189,-190.929 70.8997,-191.475 68.9304,-184.757"/>
</g>
<!-- Node6 -->
<g id="node6" class="node"><title>Node6</title>
<g id="a_node6"><a xlink:href="class_o_s_1_1pkg_1_1__base_1_1_privilege_exception.html" target="_top" xlink:title="Instances of this and of CMD_ProcOutputException both have proc attributes containing a terminal comm...">
<polygon fill="none" stroke="black" points="103.5,-190.5 103.5,-209.5 268.5,-209.5 268.5,-190.5 103.5,-190.5"/>
<text text-anchor="middle" x="186" y="-197.5" font-family="Helvetica,sans-Serif" font-size="10.00">OS.pkg._base.PrivilegeException</text>
</a>
</g>
</g>
<!-- Node1&#45;&gt;Node6 -->
<g id="edge5" class="edge"><title>Node1&#45;&gt;Node6</title>
<path fill="none" stroke="midnightblue" d="M70.4127,-200C80.528,-200 91.7901,-200 103.193,-200"/>
<polygon fill="midnightblue" stroke="midnightblue" points="70.3287,-196.5 60.3287,-200 70.3287,-203.5 70.3287,-196.5"/>
</g>
<!-- Node4 -->
<g id="node4" class="node"><title>Node4</title>
<g id="a_node4"><a xlink:href="class_o_s_1_1___o_s_1_1_c_m_d___proc_output_exception.html" target="_top" xlink:title="OS._OS.CMD_ProcOutputException">
<polygon fill="none" stroke="black" points="312.5,-190.5 312.5,-209.5 491.5,-209.5 491.5,-190.5 312.5,-190.5"/>
<text text-anchor="middle" x="402" y="-197.5" font-family="Helvetica,sans-Serif" font-size="10.00">OS._OS.CMD_ProcOutputException</text>
</a>
</g>
</g>
<!-- Node3&#45;&gt;Node4 -->
<g id="edge3" class="edge"><title>Node3&#45;&gt;Node4</title>
<path fill="none" stroke="midnightblue" d="M250.901,-173.347C281.605,-178.799 317.994,-185.261 347.253,-190.456"/>
<polygon fill="midnightblue" stroke="midnightblue" points="251.183,-169.842 240.725,-171.54 249.959,-176.734 251.183,-169.842"/>
</g>
<!-- Node5 -->
<g id="node5" class="node"><title>Node5</title>
<g id="a_node5"><a xlink:href="class_o_s_1_1pkg_1_1__base_1_1_c_m_d___proc_exception.html" target="_top" xlink:title="OS.pkg._base.CMD_ProcException">
<polygon fill="none" stroke="black" points="314.5,-152.5 314.5,-171.5 489.5,-171.5 489.5,-152.5 314.5,-152.5"/>
<text text-anchor="middle" x="402" y="-159.5" font-family="Helvetica,sans-Serif" font-size="10.00">OS.pkg._base.CMD_ProcException</text>
</a>
</g>
</g>
<!-- Node3&#45;&gt;Node5 -->
<g id="edge4" class="edge"><title>Node3&#45;&gt;Node5</title>
<path fill="none" stroke="midnightblue" d="M270.909,-162C285.164,-162 299.993,-162 314.317,-162"/>
<polygon fill="midnightblue" stroke="midnightblue" points="270.647,-158.5 260.647,-162 270.647,-165.5 270.647,-158.5"/>
</g>
<!-- Node7 -->
<g id="node7" class="node"><title>Node7</title>
<g id="a_node7"><a xlink:href="classobject.html" target="_top" xlink:title="object">
<polygon fill="none" stroke="black" points="8.5,-76.5 8.5,-95.5 51.5,-95.5 51.5,-76.5 8.5,-76.5"/>
<text text-anchor="middle" x="30" y="-83.5" font-family="Helvetica,sans-Serif" font-size="10.00">object</text>
</a>
</g>
</g>
<!-- Node8 -->
<g id="node8" class="node"><title>Node8</title>
<g id="a_node8"><a xlink:href="class_o_s_1_1___o_s_1_1_c_m_d___proc.html" target="_top" xlink:title="OS._OS.CMD_Proc">
<polygon fill="none" stroke="black" points="133.5,-114.5 133.5,-133.5 238.5,-133.5 238.5,-114.5 133.5,-114.5"/>
<text text-anchor="middle" x="186" y="-121.5" font-family="Helvetica,sans-Serif" font-size="10.00">OS._OS.CMD_Proc</text>
</a>
</g>
</g>
<!-- Node7&#45;&gt;Node8 -->
<g id="edge6" class="edge"><title>Node7&#45;&gt;Node8</title>
<path fill="none" stroke="midnightblue" d="M61.5329,-95.4312C72.3694,-98.6438 84.6837,-102.142 96,-105 109.327,-108.365 123.875,-111.638 137.275,-114.492"/>
<polygon fill="midnightblue" stroke="midnightblue" points="62.2611,-91.9954 51.6768,-92.4689 60.2462,-98.6992 62.2611,-91.9954"/>
</g>
<!-- Node7&#45;&gt;Node3 -->
<g id="edge8" class="edge"><title>Node7&#45;&gt;Node3</title>
<path fill="none" stroke="midnightblue" d="M45.9042,-103.15C58.0902,-116.073 76.4482,-133.188 96,-143 103.767,-146.898 112.304,-149.998 120.923,-152.462"/>
<polygon fill="midnightblue" stroke="midnightblue" points="48.4817,-100.782 39.1588,-95.749 43.308,-105.498 48.4817,-100.782"/>
</g>
<!-- Node10 -->
<g id="node10" class="node"><title>Node10</title>
<g id="a_node10"><a xlink:href="class_o_s_1_1_g_p_g_1_1_g_p_g.html" target="_top" xlink:title="Quick GNUPG implementation with common functions, using the command line interface. ">
<polygon fill="none" stroke="black" points="145.5,-76.5 145.5,-95.5 226.5,-95.5 226.5,-76.5 145.5,-76.5"/>
<text text-anchor="middle" x="186" y="-83.5" font-family="Helvetica,sans-Serif" font-size="10.00">OS.GPG.GPG</text>
</a>
</g>
</g>
<!-- Node7&#45;&gt;Node10 -->
<g id="edge9" class="edge"><title>Node7&#45;&gt;Node10</title>
<path fill="none" stroke="midnightblue" d="M62.0683,-86C86.0502,-86 119.401,-86 145.315,-86"/>
<polygon fill="midnightblue" stroke="midnightblue" points="61.7692,-82.5001 51.7691,-86 61.7691,-89.5001 61.7692,-82.5001"/>
</g>
<!-- Node11 -->
<g id="node11" class="node"><title>Node11</title>
<g id="a_node11"><a xlink:href="class_o_s_1_1pkg_1_1__base_1_1_package_manager.html" target="_top" xlink:title="OS.pkg._base.PackageManager">
<polygon fill="none" stroke="black" points="105.5,-38.5 105.5,-57.5 266.5,-57.5 266.5,-38.5 105.5,-38.5"/>
<text text-anchor="middle" x="186" y="-45.5" font-family="Helvetica,sans-Serif" font-size="10.00">OS.pkg._base.PackageManager</text>
</a>
</g>
</g>
<!-- Node7&#45;&gt;Node11 -->
<g id="edge10" class="edge"><title>Node7&#45;&gt;Node11</title>
<path fill="none" stroke="midnightblue" d="M61.5329,-76.5688C72.3694,-73.3562 84.6837,-69.8577 96,-67 109.327,-63.6345 123.875,-60.3621 137.275,-57.5082"/>
<polygon fill="midnightblue" stroke="midnightblue" points="60.2462,-73.3008 51.6768,-79.5311 62.2611,-80.0046 60.2462,-73.3008"/>
</g>
<!-- Node12 -->
<g id="node12" class="node"><title>Node12</title>
<g id="a_node12"><a xlink:href="class_o_s_1_1pkg_1_1__yum_1_1___yum_dummy_callback.html" target="_top" xlink:title="OS.pkg._yum._YumDummyCallback">
<polygon fill="none" stroke="black" points="96.5,-0.5 96.5,-19.5 275.5,-19.5 275.5,-0.5 96.5,-0.5"/>
<text text-anchor="middle" x="186" y="-7.5" font-family="Helvetica,sans-Serif" font-size="10.00">OS.pkg._yum._YumDummyCallback</text>
</a>
</g>
</g>
<!-- Node7&#45;&gt;Node12 -->
<g id="edge11" class="edge"><title>Node7&#45;&gt;Node12</title>
<path fill="none" stroke="midnightblue" d="M45.9042,-68.8497C58.0902,-55.9275 76.4482,-38.812 96,-29 103.767,-25.1024 112.304,-22.0025 120.923,-19.5375"/>
<polygon fill="midnightblue" stroke="midnightblue" points="43.308,-66.5024 39.1588,-76.251 48.4817,-71.2176 43.308,-66.5024"/>
</g>
<!-- Node9 -->
<g id="node9" class="node"><title>Node9</title>
<g id="a_node9"><a xlink:href="class_o_s_1_1___o_s_1_1_c_m_d___proc_output.html" target="_top" xlink:title="OS._OS.CMD_ProcOutput">
<polygon fill="none" stroke="black" points="334.5,-114.5 334.5,-133.5 469.5,-133.5 469.5,-114.5 334.5,-114.5"/>
<text text-anchor="middle" x="402" y="-121.5" font-family="Helvetica,sans-Serif" font-size="10.00">OS._OS.CMD_ProcOutput</text>
</a>
</g>
</g>
<!-- Node8&#45;&gt;Node9 -->
<g id="edge7" class="edge"><title>Node8&#45;&gt;Node9</title>
<path fill="none" stroke="midnightblue" d="M248.547,-124C275.324,-124 306.767,-124 334.119,-124"/>
<polygon fill="midnightblue" stroke="midnightblue" points="248.531,-120.5 238.531,-124 248.531,-127.5 248.531,-120.5"/>
</g>
</g>
</svg>
