<?xml version="1.0" encoding="UTF-8" standalone="no"?>
<!DOCTYPE svg PUBLIC "-//W3C//DTD SVG 1.1//EN"
 "http://www.w3.org/Graphics/SVG/1.1/DTD/svg11.dtd">
<!-- Generated by graphviz version 2.30.1 (20130219.2202)
 -->
<!-- Title: Graphical Class Hierarchy Pages: 1 -->
<svg width="272pt" height="116pt"
 viewBox="0.00 0.00 272.00 116.00" xmlns="http://www.w3.org/2000/svg" xmlns:xlink="http://www.w3.org/1999/xlink">
<g id="graph0" class="graph" transform="scale(1 1) rotate(0) translate(4 112)">
<title>Graphical Class Hierarchy</title>
<!-- Node1 -->
<g id="node1" class="node"><title>Node1</title>
<polygon fill="none" stroke="#bfbfbf" points="0.5,-44.5 0.5,-63.5 93.5,-63.5 93.5,-44.5 0.5,-44.5"/>
<text text-anchor="middle" x="47" y="-51.5" font-family="Helvetica,sans-Serif" font-size="10.00">PackageManager</text>
</g>
<!-- Node2 -->
<g id="node2" class="node"><title>Node2</title>
<g id="a_node2"><a xlink:href="class_o_s_1_1pkg_1_1__apt_1_1_apt_installer.html" target="_top" xlink:title="This apt module supports the standard package methods in addition to an updateKernel(...) method which will perform a distupgrade.">
<polygon fill="none" stroke="black" points="137,-88.5 137,-107.5 257,-107.5 257,-88.5 137,-88.5"/>
<text text-anchor="middle" x="197" y="-95.5" font-family="Helvetica,sans-Serif" font-size="10.00">OS.pkg._apt.AptInstaller</text>
</a>
</g>
</g>
<!-- Node1&#45;&gt;Node2 -->
<g id="edge1" class="edge"><title>Node1&#45;&gt;Node2</title>
<path fill="none" stroke="midnightblue" d="M89.8259,-66.4347C113.342,-73.426 142.241,-82.0177 163.949,-88.4713"/>
<polygon fill="midnightblue" stroke="midnightblue" points="90.6966,-63.0422 80.1138,-63.5473 88.7017,-69.752 90.6966,-63.0422"/>
</g>
<!-- Node3 -->
<g id="node3" class="node"><title>Node3</title>
<g id="a_node3"><a xlink:href="class_o_s_1_1pkg_1_1__macports_1_1_mac_port_installer.html" target="_top" xlink:title="OS.pkg._macports.MacPort\lInstaller">
<polygon fill="none" stroke="black" points="130,-39 130,-69 264,-69 264,-39 130,-39"/>
<text text-anchor="start" x="138" y="-57" font-family="Helvetica,sans-Serif" font-size="10.00">OS.pkg._macports.MacPort</text>
<text text-anchor="middle" x="197" y="-46" font-family="Helvetica,sans-Serif" font-size="10.00">Installer</text>
</a>
</g>
</g>
<!-- Node1&#45;&gt;Node3 -->
<g id="edge2" class="edge"><title>Node1&#45;&gt;Node3</title>
<path fill="none" stroke="midnightblue" d="M103.791,-54C112.303,-54 121.156,-54 129.863,-54"/>
<polygon fill="midnightblue" stroke="midnightblue" points="103.613,-50.5001 93.6125,-54 103.612,-57.5001 103.613,-50.5001"/>
</g>
<!-- Node4 -->
<g id="node4" class="node"><title>Node4</title>
<g id="a_node4"><a xlink:href="class_o_s_1_1pkg_1_1__yum_1_1_yum_installer.html" target="_top" xlink:title="OS.pkg._yum.YumInstaller">
<polygon fill="none" stroke="black" points="133,-0.5 133,-19.5 261,-19.5 261,-0.5 133,-0.5"/>
<text text-anchor="middle" x="197" y="-7.5" font-family="Helvetica,sans-Serif" font-size="10.00">OS.pkg._yum.YumInstaller</text>
</a>
</g>
</g>
<!-- Node1&#45;&gt;Node4 -->
<g id="edge3" class="edge"><title>Node1&#45;&gt;Node4</title>
<path fill="none" stroke="midnightblue" d="M89.8259,-41.5653C113.342,-34.574 142.241,-25.9823 163.949,-19.5287"/>
<polygon fill="midnightblue" stroke="midnightblue" points="88.7017,-38.248 80.1138,-44.4527 90.6966,-44.9578 88.7017,-38.248"/>
</g>
</g>
</svg>
