<?xml version="1.0" encoding="UTF-8" standalone="no"?>
<!DOCTYPE svg PUBLIC "-//W3C//DTD SVG 1.1//EN"
 "http://www.w3.org/Graphics/SVG/1.1/DTD/svg11.dtd">
<!-- Generated by graphviz version 2.28.0 (20121214.2254)
 -->
<!-- Title: Graphical Class Hierarchy Pages: 1 -->
<svg width="254pt" height="66pt"
 viewBox="0.00 0.00 254.00 66.00" xmlns="http://www.w3.org/2000/svg" xmlns:xlink="http://www.w3.org/1999/xlink">
<g id="graph1" class="graph" transform="scale(1 1) rotate(0) translate(4 62)">
<title>Graphical Class Hierarchy</title>
<!-- Node1 -->
<g id="node1" class="node"><title>Node1</title>
<a xlink:href="classobject.html" target="_top" xlink:title="object">
<polygon fill="none" stroke="black" points="0,-19.5 0,-38.5 42,-38.5 42,-19.5 0,-19.5"/>
<text text-anchor="middle" x="21" y="-26.5" font-family="Helvetica,sans-Serif" font-size="10.00">object</text>
</a>
</g>
<!-- Node2 -->
<g id="node3" class="node"><title>Node2</title>
<a xlink:href="class_o_s_1_1_g_p_g_1_1_g_p_g.html" target="_top" xlink:title="Quick GNUPG implementation with common functions, using the command line interface.">
<polygon fill="none" stroke="black" points="120.5,-38.5 120.5,-57.5 203.5,-57.5 203.5,-38.5 120.5,-38.5"/>
<text text-anchor="middle" x="162" y="-45.5" font-family="Helvetica,sans-Serif" font-size="10.00">OS.GPG.GPG</text>
</a>
</g>
<!-- Node1&#45;&gt;Node2 -->
<g id="edge2" class="edge"><title>Node1&#45;&gt;Node2</title>
<path fill="none" stroke="midnightblue" d="M52.2868,-33.1399C72.2438,-35.8679 98.613,-39.4723 120.383,-42.448"/>
<polygon fill="midnightblue" stroke="midnightblue" points="52.5937,-29.6494 42.2118,-31.7628 51.6456,-36.5849 52.5937,-29.6494"/>
</g>
<!-- Node3 -->
<g id="node5" class="node"><title>Node3</title>
<a xlink:href="class_o_s_1_1pkg_1_1yum_1_1___yum_dummy_callback.html" target="_top" xlink:title="OS.pkg.yum._YumDummyCallback">
<polygon fill="none" stroke="black" points="78.5,-0.5 78.5,-19.5 245.5,-19.5 245.5,-0.5 78.5,-0.5"/>
<text text-anchor="middle" x="162" y="-7.5" font-family="Helvetica,sans-Serif" font-size="10.00">OS.pkg.yum._YumDummyCallback</text>
</a>
</g>
<!-- Node1&#45;&gt;Node3 -->
<g id="edge4" class="edge"><title>Node1&#45;&gt;Node3</title>
<path fill="none" stroke="midnightblue" d="M52.2165,-24.8697C63.848,-23.2798 77.6652,-21.3911 91.4833,-19.5023"/>
<polygon fill="midnightblue" stroke="midnightblue" points="51.6456,-21.4151 42.2118,-26.2372 52.5937,-28.3506 51.6456,-21.4151"/>
</g>
</g>
</svg>
