<?xml version="1.0" encoding="UTF-8" standalone="no"?>
<!DOCTYPE svg PUBLIC "-//W3C//DTD SVG 1.1//EN"
 "http://www.w3.org/Graphics/SVG/1.1/DTD/svg11.dtd">
<!-- Generated by graphviz version 2.30.1 (20130221.2233)
 -->
<!-- Title: Graphical Class Hierarchy Pages: 1 -->
<svg width="280pt" height="116pt"
 viewBox="0.00 0.00 280.00 116.00" xmlns="http://www.w3.org/2000/svg" xmlns:xlink="http://www.w3.org/1999/xlink">
<g id="graph0" class="graph" transform="scale(1 1) rotate(0) translate(4 112)">
<title>Graphical Class Hierarchy</title>
<!-- Node1 -->
<g id="node1" class="node"><title>Node1</title>
<polygon fill="none" stroke="#bfbfbf" points="0.5,-44.5 0.5,-63.5 95.5,-63.5 95.5,-44.5 0.5,-44.5"/>
<text text-anchor="middle" x="48" y="-51.5" font-family="Helvetica,sans-Serif" font-size="10.00">PackageManager</text>
</g>
<!-- Node2 -->
<g id="node2" class="node"><title>Node2</title>
<g id="a_node2"><a xlink:href="class_o_s_1_1pkg_1_1__apt_1_1_apt_installer.html" target="_top" xlink:title="This apt module supports the standard package methods in addition to an updateKernel(...) method which will perform a distupgrade. ">
<polygon fill="none" stroke="black" points="139.5,-88.5 139.5,-107.5 264.5,-107.5 264.5,-88.5 139.5,-88.5"/>
<text text-anchor="middle" x="202" y="-95.5" font-family="Helvetica,sans-Serif" font-size="10.00">OS.pkg._apt.AptInstaller</text>
</a>
</g>
</g>
<!-- Node1&#45;&gt;Node2 -->
<g id="edge1" class="edge"><title>Node1&#45;&gt;Node2</title>
<path fill="none" stroke="midnightblue" d="M91.6332,-66.3412C115.843,-73.3493 145.689,-81.9888 168.083,-88.4713"/>
<polygon fill="midnightblue" stroke="midnightblue" points="92.5606,-62.966 81.9817,-63.5473 90.6142,-69.69 92.5606,-62.966"/>
</g>
<!-- Node3 -->
<g id="node3" class="node"><title>Node3</title>
<g id="a_node3"><a xlink:href="class_o_s_1_1pkg_1_1__macports_1_1_mac_port_installer.html" target="_top" xlink:title="OS.pkg._macports.MacPort\lInstaller">
<polygon fill="none" stroke="black" points="132.5,-39 132.5,-69 271.5,-69 271.5,-39 132.5,-39"/>
<text text-anchor="start" x="140.5" y="-57" font-family="Helvetica,sans-Serif" font-size="10.00">OS.pkg._macports.MacPort</text>
<text text-anchor="middle" x="202" y="-46" font-family="Helvetica,sans-Serif" font-size="10.00">Installer</text>
</a>
</g>
</g>
<!-- Node1&#45;&gt;Node3 -->
<g id="edge2" class="edge"><title>Node1&#45;&gt;Node3</title>
<path fill="none" stroke="midnightblue" d="M106.062,-54C114.603,-54 123.485,-54 132.237,-54"/>
<polygon fill="midnightblue" stroke="midnightblue" points="105.845,-50.5001 95.8453,-54 105.845,-57.5001 105.845,-50.5001"/>
</g>
<!-- Node4 -->
<g id="node4" class="node"><title>Node4</title>
<g id="a_node4"><a xlink:href="class_o_s_1_1pkg_1_1__yum_1_1_yum_installer.html" target="_top" xlink:title="OS.pkg._yum.YumInstaller">
<polygon fill="none" stroke="black" points="134.5,-0.5 134.5,-19.5 269.5,-19.5 269.5,-0.5 134.5,-0.5"/>
<text text-anchor="middle" x="202" y="-7.5" font-family="Helvetica,sans-Serif" font-size="10.00">OS.pkg._yum.YumInstaller</text>
</a>
</g>
</g>
<!-- Node1&#45;&gt;Node4 -->
<g id="edge3" class="edge"><title>Node1&#45;&gt;Node4</title>
<path fill="none" stroke="midnightblue" d="M91.6332,-41.6588C115.843,-34.6507 145.689,-26.0112 168.083,-19.5287"/>
<polygon fill="midnightblue" stroke="midnightblue" points="90.6142,-38.31 81.9817,-44.4527 92.5606,-45.034 90.6142,-38.31"/>
</g>
</g>
</svg>
