<?xml version="1.0" encoding="UTF-8" standalone="no"?>
<!DOCTYPE svg PUBLIC "-//W3C//DTD SVG 1.1//EN"
 "http://www.w3.org/Graphics/SVG/1.1/DTD/svg11.dtd">
<!-- Generated by graphviz version 2.30.1 (20130219.2202)
 -->
<!-- Title: Graphical Class Hierarchy Pages: 1 -->
<svg width="490pt" height="256pt"
 viewBox="0.00 0.00 490.00 256.00" xmlns="http://www.w3.org/2000/svg" xmlns:xlink="http://www.w3.org/1999/xlink">
<g id="graph0" class="graph" transform="scale(1 1) rotate(0) translate(4 252)">
<title>Graphical Class Hierarchy</title>
<!-- Node1 -->
<g id="node1" class="node"><title>Node1</title>
<g id="a_node1"><a xlink:href="class_exception.html" target="_top" xlink:title="Exception">
<polygon fill="none" stroke="black" points="0.5,-190.5 0.5,-209.5 59.5,-209.5 59.5,-190.5 0.5,-190.5"/>
<text text-anchor="middle" x="30" y="-197.5" font-family="Helvetica,sans-Serif" font-size="10.00">Exception</text>
</a>
</g>
</g>
<!-- Node2 -->
<g id="node2" class="node"><title>Node2</title>
<g id="a_node2"><a xlink:href="classconfig__parser__m2_1_1_parse_exception.html" target="_top" xlink:title="config_parser_m2.ParseException">
<polygon fill="none" stroke="black" points="102.5,-228.5 102.5,-247.5 263.5,-247.5 263.5,-228.5 102.5,-228.5"/>
<text text-anchor="middle" x="183" y="-235.5" font-family="Helvetica,sans-Serif" font-size="10.00">config_parser_m2.ParseException</text>
</a>
</g>
</g>
<!-- Node1&#45;&gt;Node2 -->
<g id="edge1" class="edge"><title>Node1&#45;&gt;Node2</title>
<path fill="none" stroke="midnightblue" d="M69.5607,-211.733C78.2287,-214.242 87.405,-216.797 96,-219 108.886,-222.303 122.946,-225.555 135.894,-228.41"/>
<polygon fill="midnightblue" stroke="midnightblue" points="70.2651,-208.292 59.6841,-208.834 68.2934,-215.009 70.2651,-208.292"/>
</g>
<!-- Node3 -->
<g id="node3" class="node"><title>Node3</title>
<g id="a_node3"><a xlink:href="class_o_s_1_1___o_s_1_1_c_m_d___proc_exception.html" target="_top" xlink:title="OS._OS.CMD_ProcException">
<polygon fill="none" stroke="black" points="110,-152.5 110,-171.5 256,-171.5 256,-152.5 110,-152.5"/>
<text text-anchor="middle" x="183" y="-159.5" font-family="Helvetica,sans-Serif" font-size="10.00">OS._OS.CMD_ProcException</text>
</a>
</g>
</g>
<!-- Node1&#45;&gt;Node3 -->
<g id="edge2" class="edge"><title>Node1&#45;&gt;Node3</title>
<path fill="none" stroke="midnightblue" d="M69.5607,-188.267C78.2287,-185.758 87.405,-183.203 96,-181 108.886,-177.697 122.946,-174.445 135.894,-171.59"/>
<polygon fill="midnightblue" stroke="midnightblue" points="68.2934,-184.991 59.6841,-191.166 70.2651,-191.708 68.2934,-184.991"/>
</g>
<!-- Node6 -->
<g id="node6" class="node"><title>Node6</title>
<g id="a_node6"><a xlink:href="class_o_s_1_1pkg_1_1__base_1_1_privilege_exception.html" target="_top" xlink:title="Instances of this and of CMD_ProcOutputException both have proc attributes containing a terminal comm...">
<polygon fill="none" stroke="black" points="104,-190.5 104,-209.5 262,-209.5 262,-190.5 104,-190.5"/>
<text text-anchor="middle" x="183" y="-197.5" font-family="Helvetica,sans-Serif" font-size="10.00">OS.pkg._base.PrivilegeException</text>
</a>
</g>
</g>
<!-- Node1&#45;&gt;Node6 -->
<g id="edge5" class="edge"><title>Node1&#45;&gt;Node6</title>
<path fill="none" stroke="midnightblue" d="M70.0824,-200C80.4539,-200 92.0311,-200 103.698,-200"/>
<polygon fill="midnightblue" stroke="midnightblue" points="69.7574,-196.5 59.7574,-200 69.7573,-203.5 69.7574,-196.5"/>
</g>
<!-- Node4 -->
<g id="node4" class="node"><title>Node4</title>
<g id="a_node4"><a xlink:href="class_o_s_1_1___o_s_1_1_c_m_d___proc_output_exception.html" target="_top" xlink:title="OS._OS.CMD_ProcOutputException">
<polygon fill="none" stroke="black" points="306.5,-190.5 306.5,-209.5 481.5,-209.5 481.5,-190.5 306.5,-190.5"/>
<text text-anchor="middle" x="394" y="-197.5" font-family="Helvetica,sans-Serif" font-size="10.00">OS._OS.CMD_ProcOutputException</text>
</a>
</g>
</g>
<!-- Node3&#45;&gt;Node4 -->
<g id="edge3" class="edge"><title>Node3&#45;&gt;Node4</title>
<path fill="none" stroke="midnightblue" d="M246.408,-173.347C276.395,-178.799 311.934,-185.261 340.509,-190.456"/>
<polygon fill="midnightblue" stroke="midnightblue" points="246.935,-169.885 236.47,-171.54 245.682,-176.772 246.935,-169.885"/>
</g>
<!-- Node5 -->
<g id="node5" class="node"><title>Node5</title>
<g id="a_node5"><a xlink:href="class_o_s_1_1pkg_1_1__base_1_1_c_m_d___proc_exception.html" target="_top" xlink:title="OS.pkg._base.CMD_ProcException">
<polygon fill="none" stroke="black" points="308.5,-152.5 308.5,-171.5 479.5,-171.5 479.5,-152.5 308.5,-152.5"/>
<text text-anchor="middle" x="394" y="-159.5" font-family="Helvetica,sans-Serif" font-size="10.00">OS.pkg._base.CMD_ProcException</text>
</a>
</g>
</g>
<!-- Node3&#45;&gt;Node5 -->
<g id="edge4" class="edge"><title>Node3&#45;&gt;Node5</title>
<path fill="none" stroke="midnightblue" d="M266.564,-162C280.248,-162 294.457,-162 308.195,-162"/>
<polygon fill="midnightblue" stroke="midnightblue" points="266.219,-158.5 256.219,-162 266.219,-165.5 266.219,-158.5"/>
</g>
<!-- Node7 -->
<g id="node7" class="node"><title>Node7</title>
<g id="a_node7"><a xlink:href="classobject.html" target="_top" xlink:title="object">
<polygon fill="none" stroke="black" points="9,-76.5 9,-95.5 51,-95.5 51,-76.5 9,-76.5"/>
<text text-anchor="middle" x="30" y="-83.5" font-family="Helvetica,sans-Serif" font-size="10.00">object</text>
</a>
</g>
</g>
<!-- Node8 -->
<g id="node8" class="node"><title>Node8</title>
<g id="a_node8"><a xlink:href="class_o_s_1_1___o_s_1_1_c_m_d___proc.html" target="_top" xlink:title="OS._OS.CMD_Proc">
<polygon fill="none" stroke="black" points="131,-114.5 131,-133.5 235,-133.5 235,-114.5 131,-114.5"/>
<text text-anchor="middle" x="183" y="-121.5" font-family="Helvetica,sans-Serif" font-size="10.00">OS._OS.CMD_Proc</text>
</a>
</g>
</g>
<!-- Node7&#45;&gt;Node8 -->
<g id="edge6" class="edge"><title>Node7&#45;&gt;Node8</title>
<path fill="none" stroke="midnightblue" d="M60.7107,-95.1389C71.7476,-98.4136 84.403,-102.028 96,-105 108.886,-108.303 122.946,-111.555 135.894,-114.41"/>
<polygon fill="midnightblue" stroke="midnightblue" points="61.6907,-91.7788 51.1065,-92.2549 59.6774,-98.4831 61.6907,-91.7788"/>
</g>
<!-- Node7&#45;&gt;Node3 -->
<g id="edge8" class="edge"><title>Node7&#45;&gt;Node3</title>
<path fill="none" stroke="midnightblue" d="M45.9237,-103.112C58.1203,-116.013 76.4832,-133.119 96,-143 103.639,-146.868 112.052,-149.953 120.533,-152.412"/>
<polygon fill="midnightblue" stroke="midnightblue" points="48.5014,-100.744 39.1712,-95.7244 43.3347,-105.467 48.5014,-100.744"/>
</g>
<!-- Node10 -->
<g id="node10" class="node"><title>Node10</title>
<g id="a_node10"><a xlink:href="class_o_s_1_1_g_p_g_1_1_g_p_g.html" target="_top" xlink:title="Quick GNUPG implementation with common functions, using the command line interface.">
<polygon fill="none" stroke="black" points="141.5,-76.5 141.5,-95.5 224.5,-95.5 224.5,-76.5 141.5,-76.5"/>
<text text-anchor="middle" x="183" y="-83.5" font-family="Helvetica,sans-Serif" font-size="10.00">OS.GPG.GPG</text>
</a>
</g>
</g>
<!-- Node7&#45;&gt;Node10 -->
<g id="edge9" class="edge"><title>Node7&#45;&gt;Node10</title>
<path fill="none" stroke="midnightblue" d="M61.2544,-86C84.266,-86 116.162,-86 141.394,-86"/>
<polygon fill="midnightblue" stroke="midnightblue" points="61.0517,-82.5001 51.0516,-86 61.0516,-89.5001 61.0517,-82.5001"/>
</g>
<!-- Node11 -->
<g id="node11" class="node"><title>Node11</title>
<g id="a_node11"><a xlink:href="class_o_s_1_1pkg_1_1__base_1_1_package_manager.html" target="_top" xlink:title="OS.pkg._base.PackageManager">
<polygon fill="none" stroke="black" points="104,-38.5 104,-57.5 262,-57.5 262,-38.5 104,-38.5"/>
<text text-anchor="middle" x="183" y="-45.5" font-family="Helvetica,sans-Serif" font-size="10.00">OS.pkg._base.PackageManager</text>
</a>
</g>
</g>
<!-- Node7&#45;&gt;Node11 -->
<g id="edge10" class="edge"><title>Node7&#45;&gt;Node11</title>
<path fill="none" stroke="midnightblue" d="M60.7107,-76.8611C71.7476,-73.5864 84.403,-69.9725 96,-67 108.886,-63.6971 122.946,-60.4447 135.894,-57.5901"/>
<polygon fill="midnightblue" stroke="midnightblue" points="59.6774,-73.5169 51.1065,-79.7451 61.6907,-80.2212 59.6774,-73.5169"/>
</g>
<!-- Node12 -->
<g id="node12" class="node"><title>Node12</title>
<g id="a_node12"><a xlink:href="class_o_s_1_1pkg_1_1__yum_1_1___yum_dummy_callback.html" target="_top" xlink:title="OS.pkg._yum._YumDummyCallback">
<polygon fill="none" stroke="black" points="96.5,-0.5 96.5,-19.5 269.5,-19.5 269.5,-0.5 96.5,-0.5"/>
<text text-anchor="middle" x="183" y="-7.5" font-family="Helvetica,sans-Serif" font-size="10.00">OS.pkg._yum._YumDummyCallback</text>
</a>
</g>
</g>
<!-- Node7&#45;&gt;Node12 -->
<g id="edge11" class="edge"><title>Node7&#45;&gt;Node12</title>
<path fill="none" stroke="midnightblue" d="M45.9237,-68.8884C58.1203,-55.9873 76.4832,-38.8814 96,-29 103.639,-25.1322 112.052,-22.0473 120.533,-19.588"/>
<polygon fill="midnightblue" stroke="midnightblue" points="43.3347,-66.5331 39.1712,-76.2756 48.5014,-71.2559 43.3347,-66.5331"/>
</g>
<!-- Node9 -->
<g id="node9" class="node"><title>Node9</title>
<g id="a_node9"><a xlink:href="class_o_s_1_1___o_s_1_1_c_m_d___proc_output.html" target="_top" xlink:title="OS._OS.CMD_ProcOutput">
<polygon fill="none" stroke="black" points="327.5,-114.5 327.5,-133.5 460.5,-133.5 460.5,-114.5 327.5,-114.5"/>
<text text-anchor="middle" x="394" y="-121.5" font-family="Helvetica,sans-Serif" font-size="10.00">OS._OS.CMD_ProcOutput</text>
</a>
</g>
</g>
<!-- Node8&#45;&gt;Node9 -->
<g id="edge7" class="edge"><title>Node8&#45;&gt;Node9</title>
<path fill="none" stroke="midnightblue" d="M245.164,-124C270.983,-124 301.092,-124 327.375,-124"/>
<polygon fill="midnightblue" stroke="midnightblue" points="245.127,-120.5 235.127,-124 245.127,-127.5 245.127,-120.5"/>
</g>
</g>
</svg>
