<?xml version="1.0" encoding="UTF-8" standalone="no"?>
<!DOCTYPE svg PUBLIC "-//W3C//DTD SVG 1.1//EN"
 "http://www.w3.org/Graphics/SVG/1.1/DTD/svg11.dtd">
<!-- Generated by graphviz version 2.28.0 (20121214.2254)
 -->
<!-- Title: OS.pkg.macports.isMacPortOS Pages: 1 -->
<svg width="356pt" height="77pt"
 viewBox="0.00 0.00 356.00 77.00" xmlns="http://www.w3.org/2000/svg" xmlns:xlink="http://www.w3.org/1999/xlink">
<g id="graph1" class="graph" transform="scale(1 1) rotate(0) translate(4 73)">
<title>OS.pkg.macports.isMacPortOS</title>
<!-- Node1 -->
<g id="node1" class="node"><title>Node1</title>
<polygon fill="#bfbfbf" stroke="black" points="0,-27.5 0,-46.5 150,-46.5 150,-27.5 0,-27.5"/>
<text text-anchor="middle" x="75" y="-34.5" font-family="Helvetica,sans-Serif" font-size="10.00">OS.pkg.macports.isMacPortOS</text>
</g>
<!-- Node2 -->
<g id="node3" class="node"><title>Node2</title>
<a xlink:href="namespace_o_s_1_1pkg.html#adf35db3d71468e6a873270ad61d9ce59" target="_top" xlink:title="OS.pkg.isSupported">
<polygon fill="none" stroke="black" points="215.5,-49.5 215.5,-68.5 318.5,-68.5 318.5,-49.5 215.5,-49.5"/>
<text text-anchor="middle" x="267" y="-56.5" font-family="Helvetica,sans-Serif" font-size="10.00">OS.pkg.isSupported</text>
</a>
</g>
<!-- Node1&#45;&gt;Node2 -->
<g id="edge2" class="edge"><title>Node1&#45;&gt;Node2</title>
<path fill="none" stroke="midnightblue" d="M160.095,-46.7373C178.949,-48.9204 198.384,-51.1708 215.376,-53.1383"/>
<polygon fill="midnightblue" stroke="midnightblue" points="160.339,-43.2423 150.003,-45.5688 159.534,-50.1958 160.339,-43.2423"/>
</g>
<!-- Node3 -->
<g id="node5" class="node"><title>Node3</title>
<a xlink:href="class_o_s_1_1pkg_1_1macports_1_1_mac_port_installer.html#a26c9d482d58872cb02635496aef9daa9" target="_top" xlink:title="OS.pkg.macports.MacPortInstaller.\l__init__">
<polygon fill="none" stroke="black" points="186,-0 186,-30 348,-30 348,-0 186,-0"/>
<text text-anchor="start" x="194" y="-18" font-family="Helvetica,sans-Serif" font-size="10.00">OS.pkg.macports.MacPortInstaller.</text>
<text text-anchor="middle" x="267" y="-7" font-family="Helvetica,sans-Serif" font-size="10.00">__init__</text>
</a>
</g>
<!-- Node1&#45;&gt;Node3 -->
<g id="edge4" class="edge"><title>Node1&#45;&gt;Node3</title>
<path fill="none" stroke="midnightblue" d="M160.028,-27.2705C168.63,-26.2745 177.353,-25.2644 185.911,-24.2734"/>
<polygon fill="midnightblue" stroke="midnightblue" points="159.534,-23.8042 150.003,-28.4312 160.339,-30.7577 159.534,-23.8042"/>
</g>
</g>
</svg>
