<?xml version="1.0" encoding="UTF-8" standalone="no"?>
<!DOCTYPE svg PUBLIC "-//W3C//DTD SVG 1.1//EN"
 "http://www.w3.org/Graphics/SVG/1.1/DTD/svg11.dtd">
<!-- Generated by graphviz version 2.28.0 (20121214.2254)
 -->
<!-- Title: OS.pkg.yum.isYumOS Pages: 1 -->
<svg width="284pt" height="77pt"
 viewBox="0.00 0.00 284.00 77.00" xmlns="http://www.w3.org/2000/svg" xmlns:xlink="http://www.w3.org/1999/xlink">
<g id="graph1" class="graph" transform="scale(1 1) rotate(0) translate(4 73)">
<title>OS.pkg.yum.isYumOS</title>
<!-- Node1 -->
<g id="node1" class="node"><title>Node1</title>
<polygon fill="#bfbfbf" stroke="black" points="0.5,-27.5 0.5,-46.5 113.5,-46.5 113.5,-27.5 0.5,-27.5"/>
<text text-anchor="middle" x="57" y="-34.5" font-family="Helvetica,sans-Serif" font-size="10.00">OS.pkg.yum.isYumOS</text>
</g>
<!-- Node2 -->
<g id="node3" class="node"><title>Node2</title>
<a xlink:href="namespace_o_s_1_1pkg.html#adf35db3d71468e6a873270ad61d9ce59" target="_top" xlink:title="OS.pkg.isSupported">
<polygon fill="none" stroke="black" points="161.5,-49.5 161.5,-68.5 264.5,-68.5 264.5,-49.5 161.5,-49.5"/>
<text text-anchor="middle" x="213" y="-56.5" font-family="Helvetica,sans-Serif" font-size="10.00">OS.pkg.isSupported</text>
</a>
</g>
<!-- Node1&#45;&gt;Node2 -->
<g id="edge2" class="edge"><title>Node1&#45;&gt;Node2</title>
<path fill="none" stroke="midnightblue" d="M123.609,-46.3727C136.237,-48.1767 149.283,-50.0404 161.348,-51.764"/>
<polygon fill="midnightblue" stroke="midnightblue" points="123.992,-42.892 113.598,-44.9425 123.002,-49.8216 123.992,-42.892"/>
</g>
<!-- Node3 -->
<g id="node5" class="node"><title>Node3</title>
<a xlink:href="class_o_s_1_1pkg_1_1yum_1_1_yum_installer.html#a9bca089484bd5f7f2123ffd550fce294" target="_top" xlink:title="OS.pkg.yum.YumInstaller.\l__init__">
<polygon fill="none" stroke="black" points="150.5,-0 150.5,-30 275.5,-30 275.5,-0 150.5,-0"/>
<text text-anchor="start" x="158.5" y="-18" font-family="Helvetica,sans-Serif" font-size="10.00">OS.pkg.yum.YumInstaller.</text>
<text text-anchor="middle" x="213" y="-7" font-family="Helvetica,sans-Serif" font-size="10.00">__init__</text>
</a>
</g>
<!-- Node1&#45;&gt;Node3 -->
<g id="edge4" class="edge"><title>Node1&#45;&gt;Node3</title>
<path fill="none" stroke="midnightblue" d="M123.563,-27.6338C132.492,-26.3583 141.631,-25.0527 150.485,-23.7879"/>
<polygon fill="midnightblue" stroke="midnightblue" points="123.002,-24.1784 113.598,-29.0575 123.992,-31.108 123.002,-24.1784"/>
</g>
</g>
</svg>
