<?xml version="1.0" encoding="UTF-8" standalone="no"?>
<!DOCTYPE svg PUBLIC "-//W3C//DTD SVG 1.1//EN"
 "http://www.w3.org/Graphics/SVG/1.1/DTD/svg11.dtd">
<!-- Generated by graphviz version 2.28.0 (20121214.2254)
 -->
<!-- Title: OS.pkg.isSupported Pages: 1 -->
<svg width="298pt" height="104pt"
 viewBox="0.00 0.00 298.00 104.00" xmlns="http://www.w3.org/2000/svg" xmlns:xlink="http://www.w3.org/1999/xlink">
<g id="graph1" class="graph" transform="scale(1 1) rotate(0) translate(4 100)">
<title>OS.pkg.isSupported</title>
<!-- Node1 -->
<g id="node1" class="node"><title>Node1</title>
<polygon fill="#bfbfbf" stroke="black" points="0.5,-38.5 0.5,-57.5 103.5,-57.5 103.5,-38.5 0.5,-38.5"/>
<text text-anchor="middle" x="52" y="-45.5" font-family="Helvetica,sans-Serif" font-size="10.00">OS.pkg.isSupported</text>
</g>
<!-- Node2 -->
<g id="node3" class="node"><title>Node2</title>
<a xlink:href="namespace_o_s_1_1pkg_1_1apt.html#a14a7985c0f735ac3c5bb2ac45f10d314" target="_top" xlink:title="OS.pkg.apt.isAptOS">
<polygon fill="none" stroke="black" points="162.5,-76.5 162.5,-95.5 267.5,-95.5 267.5,-76.5 162.5,-76.5"/>
<text text-anchor="middle" x="215" y="-83.5" font-family="Helvetica,sans-Serif" font-size="10.00">OS.pkg.apt.isAptOS</text>
</a>
</g>
<!-- Node1&#45;&gt;Node2 -->
<g id="edge2" class="edge"><title>Node1&#45;&gt;Node2</title>
<path fill="none" stroke="midnightblue" d="M93.6271,-57.589C114.968,-62.6261 141.312,-68.8438 163.908,-74.1771"/>
<polygon fill="midnightblue" stroke="midnightblue" points="163.128,-77.5891 173.665,-76.4799 164.736,-70.7763 163.128,-77.5891"/>
</g>
<!-- Node3 -->
<g id="node5" class="node"><title>Node3</title>
<a xlink:href="namespace_o_s_1_1pkg_1_1yum.html#a0d14edab16aee3ddd8c9a5895803ed15" target="_top" xlink:title="OS.pkg.yum.isYumOS">
<polygon fill="none" stroke="black" points="158.5,-38.5 158.5,-57.5 271.5,-57.5 271.5,-38.5 158.5,-38.5"/>
<text text-anchor="middle" x="215" y="-45.5" font-family="Helvetica,sans-Serif" font-size="10.00">OS.pkg.yum.isYumOS</text>
</a>
</g>
<!-- Node1&#45;&gt;Node3 -->
<g id="edge4" class="edge"><title>Node1&#45;&gt;Node3</title>
<path fill="none" stroke="midnightblue" d="M103.941,-48C118.013,-48 133.485,-48 148.268,-48"/>
<polygon fill="midnightblue" stroke="midnightblue" points="148.368,-51.5001 158.367,-48 148.367,-44.5001 148.368,-51.5001"/>
</g>
<!-- Node4 -->
<g id="node7" class="node"><title>Node4</title>
<a xlink:href="namespace_o_s_1_1pkg_1_1macports.html#a0b70019f184c3b85d41b37a23c888fc4" target="_top" xlink:title="OS.pkg.macports.isMacPortOS">
<polygon fill="none" stroke="black" points="140,-0.5 140,-19.5 290,-19.5 290,-0.5 140,-0.5"/>
<text text-anchor="middle" x="215" y="-7.5" font-family="Helvetica,sans-Serif" font-size="10.00">OS.pkg.macports.isMacPortOS</text>
</a>
</g>
<!-- Node1&#45;&gt;Node4 -->
<g id="edge6" class="edge"><title>Node1&#45;&gt;Node4</title>
<path fill="none" stroke="midnightblue" d="M93.6271,-38.411C114.968,-33.3739 141.312,-27.1562 163.908,-21.8229"/>
<polygon fill="midnightblue" stroke="midnightblue" points="164.736,-25.2237 173.665,-19.5201 163.128,-18.4109 164.736,-25.2237"/>
</g>
</g>
</svg>
