<?xml version="1.0" encoding="UTF-8" standalone="no"?>
<!DOCTYPE svg PUBLIC "-//W3C//DTD SVG 1.1//EN"
 "http://www.w3.org/Graphics/SVG/1.1/DTD/svg11.dtd">
<!-- Generated by graphviz version 2.28.0 (20121214.2254)
 -->
<!-- Title: OS.pkg.apt.isAptOS Pages: 1 -->
<svg width="268pt" height="77pt"
 viewBox="0.00 0.00 268.00 77.00" xmlns="http://www.w3.org/2000/svg" xmlns:xlink="http://www.w3.org/1999/xlink">
<g id="graph1" class="graph" transform="scale(1 1) rotate(0) translate(4 73)">
<title>OS.pkg.apt.isAptOS</title>
<!-- Node1 -->
<g id="node1" class="node"><title>Node1</title>
<polygon fill="#bfbfbf" stroke="black" points="0.5,-27.5 0.5,-46.5 105.5,-46.5 105.5,-27.5 0.5,-27.5"/>
<text text-anchor="middle" x="53" y="-34.5" font-family="Helvetica,sans-Serif" font-size="10.00">OS.pkg.apt.isAptOS</text>
</g>
<!-- Node2 -->
<g id="node3" class="node"><title>Node2</title>
<a xlink:href="namespace_o_s_1_1pkg.html#adf35db3d71468e6a873270ad61d9ce59" target="_top" xlink:title="OS.pkg.isSupported">
<polygon fill="none" stroke="black" points="149.5,-49.5 149.5,-68.5 252.5,-68.5 252.5,-49.5 149.5,-49.5"/>
<text text-anchor="middle" x="201" y="-56.5" font-family="Helvetica,sans-Serif" font-size="10.00">OS.pkg.isSupported</text>
</a>
</g>
<!-- Node1&#45;&gt;Node2 -->
<g id="edge2" class="edge"><title>Node1&#45;&gt;Node2</title>
<path fill="none" stroke="midnightblue" d="M115.957,-46.3359C127.063,-48.0095 138.519,-49.7357 149.263,-51.3547"/>
<polygon fill="midnightblue" stroke="midnightblue" points="116.295,-42.8475 105.885,-44.8183 115.252,-49.7694 116.295,-42.8475"/>
</g>
<!-- Node3 -->
<g id="node5" class="node"><title>Node3</title>
<a xlink:href="class_o_s_1_1pkg_1_1apt_1_1_apt_installer.html#ae89a8b8f91785f3152e0df85f4d13633" target="_top" xlink:title="OS.pkg.apt.AptInstaller.\l__init__">
<polygon fill="none" stroke="black" points="142.5,-0 142.5,-30 259.5,-30 259.5,-0 142.5,-0"/>
<text text-anchor="start" x="150.5" y="-18" font-family="Helvetica,sans-Serif" font-size="10.00">OS.pkg.apt.AptInstaller.</text>
<text text-anchor="middle" x="201" y="-7" font-family="Helvetica,sans-Serif" font-size="10.00">__init__</text>
</a>
</g>
<!-- Node1&#45;&gt;Node3 -->
<g id="edge4" class="edge"><title>Node1&#45;&gt;Node3</title>
<path fill="none" stroke="midnightblue" d="M116.004,-27.6569C124.734,-26.3415 133.679,-24.9936 142.323,-23.691"/>
<polygon fill="midnightblue" stroke="midnightblue" points="115.252,-24.2306 105.885,-29.1817 116.295,-31.1525 115.252,-24.2306"/>
</g>
</g>
</svg>
